G04 EAGLE Gerber RS-274X export*
G75*
%MOMM*%
%FSLAX34Y34*%
%LPD*%
%INBottom Copper*%
%IPPOS*%
%AMOC8*
5,1,8,0,0,1.08239X$1,22.5*%
G01*
%ADD10C,0.279400*%
%ADD11C,1.000000*%
%ADD12C,1.879600*%
%ADD13C,0.099059*%
%ADD14C,0.736600*%
%ADD15C,0.254000*%
%ADD16C,0.508000*%

G36*
X39865Y4070D02*
X39865Y4070D01*
X39905Y4067D01*
X40023Y4090D01*
X40141Y4105D01*
X40178Y4119D01*
X40217Y4127D01*
X40326Y4178D01*
X40437Y4222D01*
X40469Y4245D01*
X40505Y4262D01*
X40597Y4338D01*
X40694Y4408D01*
X40720Y4439D01*
X40750Y4464D01*
X40821Y4561D01*
X40897Y4653D01*
X40914Y4689D01*
X40938Y4722D01*
X40982Y4833D01*
X41033Y4941D01*
X41040Y4980D01*
X41055Y5017D01*
X41070Y5136D01*
X41092Y5253D01*
X41090Y5293D01*
X41095Y5333D01*
X41080Y5452D01*
X41073Y5571D01*
X41060Y5609D01*
X41055Y5648D01*
X41012Y5760D01*
X40975Y5873D01*
X40953Y5907D01*
X40939Y5944D01*
X40853Y6080D01*
X40589Y6443D01*
X39736Y8117D01*
X39155Y9904D01*
X39115Y10161D01*
X49530Y10161D01*
X49648Y10176D01*
X49767Y10183D01*
X49805Y10196D01*
X49845Y10201D01*
X49956Y10244D01*
X50069Y10281D01*
X50103Y10303D01*
X50141Y10318D01*
X50237Y10388D01*
X50338Y10451D01*
X50366Y10481D01*
X50398Y10504D01*
X50474Y10596D01*
X50556Y10683D01*
X50575Y10718D01*
X50601Y10749D01*
X50652Y10857D01*
X50709Y10961D01*
X50720Y11001D01*
X50737Y11037D01*
X50759Y11154D01*
X50789Y11269D01*
X50793Y11330D01*
X50797Y11350D01*
X50795Y11370D01*
X50799Y11430D01*
X50799Y12701D01*
X52070Y12701D01*
X52188Y12716D01*
X52307Y12723D01*
X52345Y12736D01*
X52385Y12741D01*
X52496Y12785D01*
X52609Y12821D01*
X52644Y12843D01*
X52681Y12858D01*
X52777Y12928D01*
X52878Y12991D01*
X52906Y13021D01*
X52939Y13045D01*
X53014Y13136D01*
X53096Y13223D01*
X53116Y13258D01*
X53141Y13290D01*
X53192Y13397D01*
X53250Y13502D01*
X53260Y13541D01*
X53277Y13577D01*
X53299Y13694D01*
X53329Y13809D01*
X53333Y13870D01*
X53337Y13890D01*
X53335Y13910D01*
X53339Y13970D01*
X53339Y24385D01*
X53596Y24345D01*
X55383Y23764D01*
X57057Y22911D01*
X58578Y21806D01*
X59906Y20478D01*
X61011Y18957D01*
X61864Y17283D01*
X62015Y16818D01*
X62028Y16791D01*
X62035Y16762D01*
X62095Y16647D01*
X62150Y16530D01*
X62169Y16507D01*
X62183Y16481D01*
X62271Y16385D01*
X62353Y16285D01*
X62377Y16268D01*
X62397Y16246D01*
X62506Y16174D01*
X62610Y16098D01*
X62638Y16087D01*
X62663Y16071D01*
X62786Y16029D01*
X62906Y15981D01*
X62936Y15977D01*
X62964Y15968D01*
X63093Y15957D01*
X63221Y15941D01*
X63251Y15945D01*
X63281Y15942D01*
X63409Y15965D01*
X63537Y15981D01*
X63565Y15992D01*
X63594Y15997D01*
X63712Y16050D01*
X63833Y16098D01*
X63857Y16115D01*
X63884Y16127D01*
X63985Y16208D01*
X64090Y16284D01*
X64109Y16307D01*
X64133Y16326D01*
X64210Y16429D01*
X64293Y16529D01*
X64306Y16556D01*
X64324Y16580D01*
X64395Y16725D01*
X65648Y19750D01*
X68970Y23072D01*
X69030Y23150D01*
X69098Y23222D01*
X69127Y23275D01*
X69164Y23323D01*
X69204Y23414D01*
X69252Y23501D01*
X69267Y23559D01*
X69291Y23615D01*
X69306Y23713D01*
X69331Y23809D01*
X69337Y23909D01*
X69341Y23929D01*
X69339Y23941D01*
X69341Y23969D01*
X69341Y96235D01*
X70192Y98289D01*
X77780Y105876D01*
X77840Y105954D01*
X77908Y106027D01*
X77937Y106080D01*
X77974Y106127D01*
X78014Y106218D01*
X78062Y106305D01*
X78077Y106364D01*
X78101Y106419D01*
X78116Y106517D01*
X78141Y106613D01*
X78147Y106713D01*
X78151Y106733D01*
X78149Y106746D01*
X78151Y106774D01*
X78151Y123952D01*
X78139Y124051D01*
X78136Y124150D01*
X78119Y124208D01*
X78111Y124268D01*
X78075Y124360D01*
X78047Y124455D01*
X78017Y124507D01*
X77994Y124564D01*
X77936Y124644D01*
X77886Y124729D01*
X77820Y124804D01*
X77808Y124821D01*
X77798Y124829D01*
X77780Y124850D01*
X76515Y126115D01*
X76507Y126120D01*
X76502Y126128D01*
X76382Y126218D01*
X76263Y126310D01*
X76255Y126313D01*
X76248Y126319D01*
X76103Y126390D01*
X73577Y127436D01*
X71683Y129330D01*
X70658Y131804D01*
X70658Y134482D01*
X71683Y136956D01*
X73577Y138850D01*
X76051Y139875D01*
X78729Y139875D01*
X81203Y138850D01*
X83097Y136956D01*
X84143Y134430D01*
X84148Y134422D01*
X84150Y134413D01*
X84227Y134284D01*
X84301Y134154D01*
X84307Y134147D01*
X84312Y134139D01*
X84418Y134018D01*
X86727Y131709D01*
X87172Y131264D01*
X87266Y131191D01*
X87356Y131112D01*
X87392Y131094D01*
X87424Y131069D01*
X87533Y131022D01*
X87639Y130968D01*
X87678Y130959D01*
X87716Y130943D01*
X87833Y130924D01*
X87949Y130898D01*
X87990Y130899D01*
X88030Y130893D01*
X88148Y130904D01*
X88267Y130908D01*
X88306Y130919D01*
X88346Y130923D01*
X88458Y130963D01*
X88573Y130996D01*
X88607Y131017D01*
X88646Y131030D01*
X88744Y131098D01*
X88847Y131158D01*
X88892Y131198D01*
X88909Y131209D01*
X88922Y131224D01*
X88967Y131264D01*
X100071Y142368D01*
X103355Y142368D01*
X103453Y142380D01*
X103552Y142383D01*
X103611Y142400D01*
X103671Y142408D01*
X103763Y142444D01*
X103858Y142472D01*
X103910Y142502D01*
X103966Y142525D01*
X104047Y142583D01*
X104132Y142633D01*
X104207Y142699D01*
X104224Y142711D01*
X104232Y142721D01*
X104253Y142739D01*
X122310Y160796D01*
X122370Y160875D01*
X122438Y160947D01*
X122467Y161000D01*
X122504Y161048D01*
X122544Y161139D01*
X122592Y161225D01*
X122607Y161284D01*
X122631Y161339D01*
X122646Y161437D01*
X122671Y161533D01*
X122677Y161633D01*
X122681Y161653D01*
X122679Y161666D01*
X122681Y161694D01*
X122681Y192558D01*
X122664Y192696D01*
X122651Y192835D01*
X122644Y192853D01*
X122641Y192873D01*
X122590Y193003D01*
X122543Y193134D01*
X122532Y193150D01*
X122524Y193169D01*
X122443Y193282D01*
X122364Y193397D01*
X122349Y193410D01*
X122338Y193426D01*
X122230Y193515D01*
X122126Y193607D01*
X122108Y193616D01*
X122093Y193629D01*
X121967Y193688D01*
X121842Y193752D01*
X121823Y193756D01*
X121805Y193765D01*
X121668Y193791D01*
X121532Y193821D01*
X121512Y193821D01*
X121493Y193824D01*
X121354Y193816D01*
X121214Y193811D01*
X121195Y193806D01*
X121175Y193805D01*
X121165Y193801D01*
X117885Y193801D01*
X117786Y193789D01*
X117687Y193786D01*
X117629Y193769D01*
X117569Y193761D01*
X117477Y193725D01*
X117382Y193697D01*
X117330Y193667D01*
X117273Y193644D01*
X117193Y193586D01*
X117108Y193536D01*
X117033Y193470D01*
X117016Y193458D01*
X117008Y193448D01*
X116987Y193430D01*
X115053Y191496D01*
X114993Y191418D01*
X114925Y191345D01*
X114896Y191292D01*
X114859Y191245D01*
X114819Y191154D01*
X114771Y191067D01*
X114756Y191008D01*
X114732Y190953D01*
X114717Y190855D01*
X114692Y190759D01*
X114686Y190659D01*
X114682Y190639D01*
X114684Y190626D01*
X114682Y190598D01*
X114682Y189161D01*
X113657Y186687D01*
X111763Y184793D01*
X109289Y183768D01*
X106611Y183768D01*
X104137Y184793D01*
X102243Y186687D01*
X101218Y189161D01*
X101218Y191839D01*
X102243Y194313D01*
X104137Y196207D01*
X106611Y197232D01*
X108048Y197232D01*
X108147Y197244D01*
X108246Y197247D01*
X108304Y197264D01*
X108364Y197272D01*
X108456Y197308D01*
X108551Y197336D01*
X108603Y197366D01*
X108660Y197389D01*
X108740Y197447D01*
X108825Y197497D01*
X108900Y197563D01*
X108917Y197575D01*
X108925Y197585D01*
X108946Y197603D01*
X109864Y198521D01*
X109924Y198599D01*
X109992Y198672D01*
X110021Y198725D01*
X110058Y198772D01*
X110098Y198863D01*
X110146Y198950D01*
X110161Y199009D01*
X110185Y199064D01*
X110200Y199162D01*
X110225Y199258D01*
X110231Y199358D01*
X110235Y199378D01*
X110233Y199391D01*
X110235Y199419D01*
X110235Y210523D01*
X112311Y212599D01*
X120861Y212599D01*
X120896Y212564D01*
X120984Y212495D01*
X121016Y212465D01*
X121024Y212461D01*
X121079Y212412D01*
X121115Y212394D01*
X121147Y212369D01*
X121256Y212322D01*
X121362Y212268D01*
X121402Y212259D01*
X121439Y212243D01*
X121556Y212224D01*
X121672Y212198D01*
X121713Y212199D01*
X121753Y212193D01*
X121872Y212204D01*
X121990Y212208D01*
X122029Y212219D01*
X122069Y212223D01*
X122181Y212263D01*
X122296Y212296D01*
X122331Y212317D01*
X122369Y212330D01*
X122467Y212397D01*
X122570Y212458D01*
X122615Y212497D01*
X122632Y212509D01*
X122645Y212524D01*
X122691Y212564D01*
X122725Y212599D01*
X131275Y212599D01*
X131310Y212564D01*
X131398Y212495D01*
X131430Y212465D01*
X131438Y212461D01*
X131493Y212412D01*
X131529Y212394D01*
X131561Y212369D01*
X131670Y212322D01*
X131776Y212268D01*
X131816Y212259D01*
X131853Y212243D01*
X131970Y212224D01*
X132086Y212198D01*
X132127Y212199D01*
X132167Y212193D01*
X132286Y212204D01*
X132404Y212208D01*
X132443Y212219D01*
X132483Y212223D01*
X132595Y212263D01*
X132710Y212296D01*
X132745Y212317D01*
X132783Y212330D01*
X132881Y212397D01*
X132984Y212458D01*
X133029Y212497D01*
X133046Y212509D01*
X133059Y212524D01*
X133105Y212564D01*
X133139Y212599D01*
X141689Y212599D01*
X143765Y210523D01*
X143765Y199419D01*
X143777Y199320D01*
X143780Y199221D01*
X143797Y199163D01*
X143805Y199103D01*
X143841Y199011D01*
X143869Y198916D01*
X143899Y198864D01*
X143922Y198807D01*
X143980Y198727D01*
X144030Y198642D01*
X144096Y198567D01*
X144108Y198550D01*
X144118Y198542D01*
X144136Y198521D01*
X145054Y197603D01*
X145132Y197543D01*
X145205Y197475D01*
X145258Y197446D01*
X145305Y197409D01*
X145396Y197369D01*
X145483Y197321D01*
X145542Y197306D01*
X145597Y197282D01*
X145695Y197267D01*
X145791Y197242D01*
X145891Y197236D01*
X145911Y197232D01*
X145924Y197234D01*
X145952Y197232D01*
X147389Y197232D01*
X149863Y196207D01*
X151757Y194313D01*
X152782Y191839D01*
X152782Y189161D01*
X151757Y186687D01*
X149863Y184793D01*
X147389Y183768D01*
X144711Y183768D01*
X142237Y184793D01*
X140343Y186687D01*
X139318Y189161D01*
X139318Y190598D01*
X139306Y190697D01*
X139303Y190796D01*
X139286Y190854D01*
X139278Y190914D01*
X139242Y191006D01*
X139214Y191101D01*
X139184Y191153D01*
X139161Y191210D01*
X139103Y191290D01*
X139053Y191375D01*
X138987Y191450D01*
X138975Y191467D01*
X138965Y191475D01*
X138947Y191496D01*
X137013Y193430D01*
X136935Y193490D01*
X136862Y193558D01*
X136809Y193587D01*
X136762Y193624D01*
X136671Y193664D01*
X136584Y193712D01*
X136525Y193727D01*
X136470Y193751D01*
X136372Y193766D01*
X136276Y193791D01*
X136176Y193797D01*
X136156Y193801D01*
X136143Y193799D01*
X136115Y193801D01*
X132789Y193801D01*
X132668Y193824D01*
X132649Y193823D01*
X132629Y193826D01*
X132490Y193813D01*
X132351Y193805D01*
X132332Y193798D01*
X132312Y193797D01*
X132181Y193749D01*
X132049Y193707D01*
X132032Y193696D01*
X132013Y193689D01*
X131898Y193611D01*
X131780Y193536D01*
X131766Y193522D01*
X131750Y193511D01*
X131657Y193406D01*
X131562Y193305D01*
X131552Y193287D01*
X131539Y193272D01*
X131476Y193148D01*
X131408Y193026D01*
X131403Y193007D01*
X131394Y192989D01*
X131364Y192853D01*
X131329Y192718D01*
X131327Y192691D01*
X131325Y192679D01*
X131325Y192659D01*
X131319Y192558D01*
X131319Y157590D01*
X122062Y148333D01*
X121989Y148239D01*
X121910Y148150D01*
X121892Y148114D01*
X121867Y148082D01*
X121820Y147973D01*
X121765Y147867D01*
X121757Y147827D01*
X121741Y147790D01*
X121722Y147672D01*
X121696Y147556D01*
X121697Y147516D01*
X121691Y147476D01*
X121702Y147357D01*
X121705Y147239D01*
X121717Y147200D01*
X121720Y147159D01*
X121761Y147047D01*
X121794Y146933D01*
X121814Y146898D01*
X121828Y146860D01*
X121895Y146762D01*
X121955Y146659D01*
X121995Y146614D01*
X122007Y146597D01*
X122022Y146584D01*
X122062Y146538D01*
X122940Y145660D01*
X123018Y145600D01*
X123090Y145532D01*
X123143Y145503D01*
X123191Y145466D01*
X123282Y145426D01*
X123369Y145378D01*
X123427Y145363D01*
X123483Y145339D01*
X123581Y145324D01*
X123676Y145299D01*
X123776Y145293D01*
X123797Y145289D01*
X123809Y145291D01*
X123837Y145289D01*
X160655Y145289D01*
X160723Y145251D01*
X160782Y145236D01*
X160837Y145212D01*
X160935Y145197D01*
X161031Y145172D01*
X161131Y145166D01*
X161151Y145162D01*
X161164Y145164D01*
X161192Y145162D01*
X162629Y145162D01*
X165103Y144137D01*
X166997Y142243D01*
X168022Y139769D01*
X168022Y137091D01*
X166961Y134531D01*
X166941Y134504D01*
X166893Y134395D01*
X166839Y134289D01*
X166830Y134250D01*
X166814Y134212D01*
X166796Y134095D01*
X166770Y133979D01*
X166771Y133938D01*
X166764Y133898D01*
X166776Y133780D01*
X166779Y133661D01*
X166791Y133622D01*
X166794Y133582D01*
X166835Y133470D01*
X166868Y133355D01*
X166888Y133320D01*
X166902Y133282D01*
X166969Y133184D01*
X167029Y133081D01*
X167069Y133036D01*
X167080Y133019D01*
X167096Y133006D01*
X167136Y132960D01*
X168267Y131829D01*
X169292Y129355D01*
X169292Y126677D01*
X168267Y124203D01*
X166373Y122309D01*
X163899Y121284D01*
X161221Y121284D01*
X158747Y122309D01*
X158250Y122805D01*
X158156Y122878D01*
X158067Y122957D01*
X158031Y122975D01*
X157999Y123000D01*
X157890Y123048D01*
X157784Y123102D01*
X157745Y123111D01*
X157707Y123127D01*
X157590Y123145D01*
X157474Y123171D01*
X157433Y123170D01*
X157393Y123177D01*
X157275Y123165D01*
X157156Y123162D01*
X157117Y123150D01*
X157077Y123147D01*
X156965Y123106D01*
X156850Y123073D01*
X156815Y123053D01*
X156777Y123039D01*
X156679Y122972D01*
X156576Y122912D01*
X156531Y122872D01*
X156514Y122861D01*
X156501Y122845D01*
X156455Y122805D01*
X154943Y121293D01*
X152469Y120268D01*
X149791Y120268D01*
X147317Y121293D01*
X146300Y122309D01*
X146222Y122370D01*
X146150Y122438D01*
X146097Y122467D01*
X146049Y122504D01*
X145958Y122544D01*
X145872Y122592D01*
X145813Y122607D01*
X145757Y122631D01*
X145659Y122646D01*
X145564Y122671D01*
X145464Y122677D01*
X145443Y122681D01*
X145431Y122679D01*
X145403Y122681D01*
X138205Y122681D01*
X138106Y122669D01*
X138007Y122666D01*
X137949Y122649D01*
X137889Y122641D01*
X137797Y122605D01*
X137702Y122577D01*
X137650Y122547D01*
X137593Y122524D01*
X137513Y122466D01*
X137428Y122416D01*
X137353Y122350D01*
X137336Y122338D01*
X137328Y122328D01*
X137307Y122310D01*
X134513Y119515D01*
X134428Y119406D01*
X134339Y119299D01*
X134331Y119280D01*
X134318Y119264D01*
X134263Y119136D01*
X134204Y119011D01*
X134200Y118991D01*
X134192Y118972D01*
X134170Y118834D01*
X134144Y118698D01*
X134145Y118678D01*
X134142Y118658D01*
X134155Y118519D01*
X134164Y118381D01*
X134170Y118362D01*
X134172Y118342D01*
X134219Y118210D01*
X134262Y118079D01*
X134272Y118061D01*
X134279Y118042D01*
X134357Y117927D01*
X134432Y117810D01*
X134447Y117796D01*
X134458Y117779D01*
X134562Y117687D01*
X134663Y117592D01*
X134681Y117582D01*
X134696Y117569D01*
X134820Y117505D01*
X134942Y117438D01*
X134962Y117433D01*
X134980Y117424D01*
X135115Y117394D01*
X135250Y117359D01*
X135278Y117357D01*
X135290Y117354D01*
X135310Y117355D01*
X135411Y117349D01*
X141689Y117349D01*
X143765Y115273D01*
X143765Y101231D01*
X143777Y101133D01*
X143780Y101034D01*
X143797Y100976D01*
X143805Y100916D01*
X143841Y100824D01*
X143869Y100728D01*
X143899Y100676D01*
X143922Y100620D01*
X143980Y100540D01*
X144030Y100454D01*
X144096Y100379D01*
X144108Y100363D01*
X144118Y100355D01*
X144136Y100334D01*
X145407Y99063D01*
X146432Y96589D01*
X146432Y93911D01*
X145407Y91437D01*
X143513Y89543D01*
X141039Y88518D01*
X138361Y88518D01*
X135887Y89543D01*
X133993Y91437D01*
X132968Y93911D01*
X132968Y96589D01*
X132999Y96662D01*
X133001Y96671D01*
X133006Y96679D01*
X133043Y96824D01*
X133083Y96969D01*
X133083Y96978D01*
X133085Y96987D01*
X133095Y97148D01*
X133095Y97308D01*
X133078Y97446D01*
X133065Y97585D01*
X133058Y97603D01*
X133055Y97623D01*
X133004Y97752D01*
X132957Y97884D01*
X132946Y97900D01*
X132938Y97919D01*
X132857Y98032D01*
X132778Y98147D01*
X132763Y98160D01*
X132752Y98176D01*
X132644Y98265D01*
X132540Y98357D01*
X132522Y98366D01*
X132507Y98379D01*
X132381Y98438D01*
X132256Y98502D01*
X132237Y98506D01*
X132219Y98515D01*
X132082Y98541D01*
X131946Y98571D01*
X131926Y98571D01*
X131907Y98574D01*
X131768Y98566D01*
X131628Y98561D01*
X131609Y98556D01*
X131589Y98555D01*
X131579Y98551D01*
X122375Y98551D01*
X122254Y98574D01*
X122235Y98573D01*
X122215Y98576D01*
X122076Y98563D01*
X121937Y98555D01*
X121918Y98548D01*
X121898Y98547D01*
X121767Y98499D01*
X121635Y98457D01*
X121618Y98446D01*
X121599Y98439D01*
X121484Y98361D01*
X121366Y98286D01*
X121352Y98272D01*
X121336Y98261D01*
X121243Y98156D01*
X121148Y98055D01*
X121138Y98037D01*
X121125Y98022D01*
X121062Y97898D01*
X120994Y97776D01*
X120989Y97757D01*
X120980Y97739D01*
X120950Y97603D01*
X120915Y97468D01*
X120913Y97441D01*
X120911Y97429D01*
X120911Y97409D01*
X120905Y97308D01*
X120905Y97148D01*
X120906Y97139D01*
X120905Y97130D01*
X120926Y96981D01*
X120945Y96833D01*
X120948Y96824D01*
X120949Y96815D01*
X121001Y96662D01*
X121032Y96589D01*
X121032Y93911D01*
X120007Y91437D01*
X118113Y89543D01*
X115639Y88518D01*
X112961Y88518D01*
X110487Y89543D01*
X108593Y91437D01*
X107568Y93911D01*
X107568Y96103D01*
X107551Y96240D01*
X107538Y96379D01*
X107531Y96398D01*
X107528Y96418D01*
X107477Y96547D01*
X107430Y96679D01*
X107419Y96695D01*
X107411Y96714D01*
X107330Y96826D01*
X107252Y96942D01*
X107236Y96955D01*
X107225Y96971D01*
X107117Y97060D01*
X107013Y97152D01*
X106995Y97161D01*
X106980Y97174D01*
X106854Y97234D01*
X106730Y97297D01*
X106710Y97301D01*
X106692Y97310D01*
X106556Y97336D01*
X106420Y97366D01*
X106399Y97366D01*
X106380Y97370D01*
X106241Y97361D01*
X106102Y97357D01*
X106082Y97351D01*
X106062Y97350D01*
X105930Y97307D01*
X105796Y97268D01*
X105779Y97258D01*
X105760Y97252D01*
X105642Y97177D01*
X105522Y97107D01*
X105501Y97088D01*
X105491Y97082D01*
X105477Y97067D01*
X105402Y97000D01*
X95749Y87348D01*
X95689Y87270D01*
X95621Y87198D01*
X95592Y87145D01*
X95555Y87097D01*
X95515Y87006D01*
X95467Y86919D01*
X95452Y86861D01*
X95428Y86805D01*
X95413Y86707D01*
X95388Y86612D01*
X95382Y86512D01*
X95378Y86491D01*
X95380Y86479D01*
X95378Y86451D01*
X95378Y80166D01*
X95390Y80067D01*
X95393Y79968D01*
X95410Y79910D01*
X95418Y79850D01*
X95454Y79758D01*
X95482Y79663D01*
X95512Y79611D01*
X95535Y79554D01*
X95593Y79474D01*
X95643Y79389D01*
X95709Y79314D01*
X95721Y79297D01*
X95731Y79289D01*
X95749Y79268D01*
X113304Y61713D01*
X113382Y61653D01*
X113455Y61585D01*
X113508Y61556D01*
X113555Y61519D01*
X113646Y61479D01*
X113733Y61431D01*
X113792Y61416D01*
X113847Y61392D01*
X113945Y61377D01*
X114041Y61352D01*
X114141Y61346D01*
X114161Y61342D01*
X114174Y61344D01*
X114202Y61342D01*
X115639Y61342D01*
X118113Y60317D01*
X120007Y58423D01*
X121032Y55949D01*
X121032Y53467D01*
X121047Y53349D01*
X121054Y53230D01*
X121067Y53192D01*
X121072Y53151D01*
X121115Y53041D01*
X121152Y52928D01*
X121174Y52893D01*
X121189Y52856D01*
X121258Y52760D01*
X121322Y52659D01*
X121352Y52631D01*
X121375Y52598D01*
X121467Y52522D01*
X121554Y52441D01*
X121589Y52421D01*
X121620Y52396D01*
X121728Y52345D01*
X121832Y52287D01*
X121872Y52277D01*
X121908Y52260D01*
X122025Y52238D01*
X122140Y52208D01*
X122200Y52204D01*
X122220Y52200D01*
X122241Y52202D01*
X122301Y52198D01*
X130654Y52198D01*
X130753Y52210D01*
X130852Y52213D01*
X130910Y52230D01*
X130970Y52238D01*
X131062Y52274D01*
X131157Y52302D01*
X131209Y52332D01*
X131266Y52355D01*
X131346Y52413D01*
X131431Y52463D01*
X131506Y52529D01*
X131523Y52541D01*
X131531Y52551D01*
X131552Y52569D01*
X132597Y53614D01*
X132657Y53692D01*
X132725Y53765D01*
X132754Y53818D01*
X132791Y53865D01*
X132831Y53956D01*
X132879Y54043D01*
X132894Y54102D01*
X132918Y54157D01*
X132933Y54255D01*
X132958Y54351D01*
X132964Y54451D01*
X132968Y54471D01*
X132966Y54484D01*
X132968Y54512D01*
X132968Y55949D01*
X133993Y58423D01*
X135887Y60317D01*
X138361Y61342D01*
X141039Y61342D01*
X143513Y60317D01*
X145407Y58423D01*
X146432Y55949D01*
X146432Y53271D01*
X145407Y50797D01*
X143513Y48903D01*
X141039Y47878D01*
X139602Y47878D01*
X139503Y47866D01*
X139404Y47863D01*
X139346Y47846D01*
X139286Y47838D01*
X139194Y47802D01*
X139099Y47774D01*
X139047Y47744D01*
X138990Y47721D01*
X138910Y47663D01*
X138825Y47613D01*
X138750Y47547D01*
X138733Y47535D01*
X138725Y47525D01*
X138704Y47507D01*
X134758Y43560D01*
X109723Y43560D01*
X106822Y46462D01*
X106821Y46462D01*
X87765Y65518D01*
X87656Y65603D01*
X87549Y65692D01*
X87530Y65700D01*
X87514Y65713D01*
X87386Y65768D01*
X87261Y65827D01*
X87241Y65831D01*
X87222Y65839D01*
X87084Y65861D01*
X86948Y65887D01*
X86928Y65886D01*
X86908Y65889D01*
X86769Y65876D01*
X86631Y65867D01*
X86612Y65861D01*
X86592Y65859D01*
X86460Y65812D01*
X86329Y65769D01*
X86311Y65758D01*
X86292Y65752D01*
X86177Y65673D01*
X86060Y65599D01*
X86046Y65584D01*
X86029Y65573D01*
X85937Y65469D01*
X85842Y65367D01*
X85832Y65350D01*
X85819Y65334D01*
X85755Y65211D01*
X85688Y65089D01*
X85683Y65069D01*
X85674Y65051D01*
X85644Y64915D01*
X85609Y64781D01*
X85607Y64753D01*
X85604Y64741D01*
X85605Y64720D01*
X85599Y64620D01*
X85599Y37875D01*
X85611Y37776D01*
X85614Y37677D01*
X85631Y37619D01*
X85639Y37559D01*
X85675Y37467D01*
X85703Y37372D01*
X85733Y37320D01*
X85756Y37263D01*
X85814Y37183D01*
X85864Y37098D01*
X85930Y37023D01*
X85942Y37006D01*
X85952Y36998D01*
X85970Y36977D01*
X92857Y30090D01*
X92935Y30030D01*
X93008Y29962D01*
X93061Y29933D01*
X93108Y29896D01*
X93199Y29856D01*
X93286Y29808D01*
X93345Y29793D01*
X93400Y29769D01*
X93498Y29754D01*
X93594Y29729D01*
X93694Y29723D01*
X93714Y29719D01*
X93727Y29721D01*
X93755Y29719D01*
X141489Y29719D01*
X146593Y24615D01*
X146616Y24597D01*
X146635Y24574D01*
X146741Y24500D01*
X146844Y24420D01*
X146871Y24408D01*
X146895Y24391D01*
X147017Y24345D01*
X147136Y24294D01*
X147165Y24289D01*
X147193Y24278D01*
X147322Y24264D01*
X147450Y24244D01*
X147479Y24247D01*
X147509Y24243D01*
X147637Y24261D01*
X147767Y24274D01*
X147794Y24284D01*
X147824Y24288D01*
X147976Y24340D01*
X149924Y25147D01*
X154876Y25147D01*
X159450Y23252D01*
X162952Y19751D01*
X163927Y17395D01*
X163996Y17274D01*
X164061Y17152D01*
X164075Y17137D01*
X164085Y17119D01*
X164182Y17019D01*
X164275Y16916D01*
X164292Y16905D01*
X164306Y16891D01*
X164424Y16818D01*
X164541Y16742D01*
X164560Y16735D01*
X164577Y16724D01*
X164710Y16684D01*
X164842Y16638D01*
X164862Y16637D01*
X164881Y16631D01*
X165020Y16624D01*
X165159Y16613D01*
X165179Y16617D01*
X165199Y16616D01*
X165335Y16644D01*
X165472Y16668D01*
X165491Y16676D01*
X165510Y16680D01*
X165635Y16741D01*
X165762Y16798D01*
X165778Y16811D01*
X165796Y16820D01*
X165902Y16910D01*
X166010Y16997D01*
X166023Y17013D01*
X166038Y17026D01*
X166118Y17140D01*
X166202Y17251D01*
X166214Y17276D01*
X166221Y17286D01*
X166228Y17305D01*
X166273Y17395D01*
X167248Y19750D01*
X170750Y23252D01*
X175324Y25147D01*
X180276Y25147D01*
X184850Y23252D01*
X188352Y19751D01*
X189327Y17395D01*
X189396Y17274D01*
X189461Y17152D01*
X189475Y17137D01*
X189485Y17119D01*
X189582Y17019D01*
X189675Y16916D01*
X189692Y16905D01*
X189706Y16891D01*
X189824Y16818D01*
X189941Y16742D01*
X189960Y16735D01*
X189977Y16724D01*
X190110Y16684D01*
X190242Y16638D01*
X190262Y16637D01*
X190281Y16631D01*
X190420Y16624D01*
X190559Y16613D01*
X190579Y16617D01*
X190599Y16616D01*
X190735Y16644D01*
X190872Y16668D01*
X190891Y16676D01*
X190910Y16680D01*
X191035Y16741D01*
X191162Y16798D01*
X191178Y16811D01*
X191196Y16820D01*
X191302Y16910D01*
X191410Y16997D01*
X191423Y17013D01*
X191438Y17026D01*
X191518Y17140D01*
X191602Y17251D01*
X191614Y17276D01*
X191621Y17286D01*
X191628Y17305D01*
X191673Y17395D01*
X192648Y19750D01*
X196150Y23252D01*
X200724Y25147D01*
X205676Y25147D01*
X210250Y23252D01*
X213752Y19750D01*
X215647Y15176D01*
X215647Y10224D01*
X213822Y5820D01*
X213809Y5772D01*
X213788Y5727D01*
X213767Y5619D01*
X213738Y5513D01*
X213738Y5463D01*
X213728Y5414D01*
X213735Y5305D01*
X213733Y5195D01*
X213745Y5147D01*
X213748Y5097D01*
X213782Y4993D01*
X213807Y4886D01*
X213831Y4842D01*
X213846Y4795D01*
X213905Y4702D01*
X213956Y4605D01*
X213990Y4568D01*
X214016Y4526D01*
X214096Y4451D01*
X214170Y4369D01*
X214212Y4342D01*
X214248Y4308D01*
X214344Y4255D01*
X214436Y4195D01*
X214483Y4178D01*
X214526Y4154D01*
X214633Y4127D01*
X214737Y4091D01*
X214786Y4087D01*
X214834Y4075D01*
X214995Y4065D01*
X248666Y4065D01*
X248784Y4080D01*
X248903Y4087D01*
X248941Y4100D01*
X248982Y4105D01*
X249092Y4148D01*
X249205Y4185D01*
X249240Y4207D01*
X249277Y4222D01*
X249373Y4291D01*
X249474Y4355D01*
X249502Y4385D01*
X249535Y4408D01*
X249611Y4500D01*
X249692Y4587D01*
X249712Y4622D01*
X249737Y4653D01*
X249788Y4761D01*
X249846Y4865D01*
X249856Y4905D01*
X249873Y4941D01*
X249895Y5058D01*
X249925Y5173D01*
X249929Y5233D01*
X249933Y5253D01*
X249931Y5274D01*
X249935Y5334D01*
X249935Y26489D01*
X249920Y26607D01*
X249913Y26726D01*
X249900Y26764D01*
X249895Y26804D01*
X249852Y26915D01*
X249815Y27028D01*
X249793Y27062D01*
X249778Y27100D01*
X249709Y27196D01*
X249645Y27297D01*
X249615Y27325D01*
X249592Y27357D01*
X249500Y27433D01*
X249413Y27515D01*
X249378Y27534D01*
X249347Y27560D01*
X249239Y27611D01*
X249135Y27668D01*
X249095Y27679D01*
X249059Y27696D01*
X248942Y27718D01*
X248827Y27748D01*
X248767Y27752D01*
X248747Y27756D01*
X248726Y27754D01*
X248666Y27758D01*
X246952Y27758D01*
X244347Y30362D01*
X244347Y30652D01*
X244332Y30770D01*
X244325Y30889D01*
X244312Y30927D01*
X244307Y30967D01*
X244264Y31078D01*
X244227Y31191D01*
X244205Y31225D01*
X244190Y31263D01*
X244121Y31359D01*
X244057Y31460D01*
X244027Y31487D01*
X244004Y31520D01*
X243912Y31596D01*
X243825Y31678D01*
X243790Y31697D01*
X243759Y31723D01*
X243651Y31774D01*
X243547Y31831D01*
X243507Y31841D01*
X243471Y31859D01*
X243354Y31881D01*
X243239Y31911D01*
X243179Y31914D01*
X243159Y31918D01*
X243138Y31917D01*
X243078Y31921D01*
X234123Y31921D01*
X234109Y31919D01*
X233983Y31913D01*
X232435Y31741D01*
X232324Y31809D01*
X232296Y31817D01*
X232271Y31831D01*
X232145Y31864D01*
X232020Y31902D01*
X231991Y31903D01*
X231980Y31906D01*
X230887Y32999D01*
X230876Y33008D01*
X230783Y33093D01*
X229566Y34066D01*
X229535Y34192D01*
X229522Y34218D01*
X229514Y34246D01*
X229448Y34358D01*
X229387Y34473D01*
X229367Y34495D01*
X229361Y34504D01*
X229361Y36050D01*
X229359Y36064D01*
X229354Y36190D01*
X229181Y37739D01*
X229249Y37850D01*
X229258Y37877D01*
X229272Y37903D01*
X229304Y38029D01*
X229342Y38154D01*
X229344Y38183D01*
X229347Y38193D01*
X230440Y39287D01*
X230449Y39298D01*
X230533Y39391D01*
X233694Y43342D01*
X233704Y43358D01*
X233717Y43372D01*
X233787Y43493D01*
X233860Y43613D01*
X233865Y43631D01*
X233875Y43648D01*
X233912Y43783D01*
X233953Y43917D01*
X233954Y43936D01*
X233959Y43954D01*
X233961Y44094D01*
X233968Y44235D01*
X233964Y44253D01*
X233964Y44272D01*
X233932Y44408D01*
X233903Y44546D01*
X233895Y44563D01*
X233891Y44582D01*
X233825Y44705D01*
X233763Y44832D01*
X233751Y44846D01*
X233742Y44863D01*
X233648Y44967D01*
X233557Y45073D01*
X233541Y45084D01*
X233529Y45098D01*
X233411Y45176D01*
X233297Y45256D01*
X233279Y45263D01*
X233263Y45273D01*
X233114Y45335D01*
X232165Y45661D01*
X229361Y49586D01*
X229361Y54410D01*
X232165Y58335D01*
X234042Y58978D01*
X234144Y59029D01*
X234249Y59071D01*
X234286Y59098D01*
X234328Y59119D01*
X234414Y59192D01*
X234506Y59260D01*
X234535Y59295D01*
X234569Y59325D01*
X234635Y59418D01*
X234707Y59506D01*
X234726Y59548D01*
X234752Y59585D01*
X234792Y59692D01*
X234840Y59795D01*
X234848Y59840D01*
X234865Y59883D01*
X234877Y59996D01*
X234898Y60108D01*
X234894Y60153D01*
X234900Y60199D01*
X234884Y60311D01*
X234876Y60425D01*
X234858Y60493D01*
X234855Y60514D01*
X234848Y60531D01*
X234835Y60581D01*
X234002Y63077D01*
X235213Y65498D01*
X235223Y65526D01*
X235238Y65552D01*
X235276Y65676D01*
X235319Y65798D01*
X235321Y65828D01*
X235330Y65857D01*
X235335Y65986D01*
X235346Y66115D01*
X235341Y66144D01*
X235343Y66174D01*
X235315Y66301D01*
X235294Y66429D01*
X235282Y66456D01*
X235276Y66485D01*
X235213Y66634D01*
X234002Y69055D01*
X235167Y72549D01*
X238461Y74196D01*
X248265Y70928D01*
X248269Y70927D01*
X248273Y70925D01*
X248423Y70897D01*
X248577Y70866D01*
X248581Y70867D01*
X248586Y70866D01*
X248738Y70875D01*
X248894Y70884D01*
X248898Y70885D01*
X248903Y70885D01*
X249049Y70933D01*
X249197Y70980D01*
X249201Y70982D01*
X249205Y70983D01*
X249336Y71066D01*
X249467Y71148D01*
X249470Y71151D01*
X249474Y71154D01*
X249580Y71266D01*
X249687Y71378D01*
X249689Y71382D01*
X249692Y71385D01*
X249766Y71519D01*
X249842Y71655D01*
X249843Y71660D01*
X249846Y71664D01*
X249884Y71811D01*
X249924Y71963D01*
X249924Y71967D01*
X249925Y71972D01*
X249935Y72132D01*
X249935Y215603D01*
X249917Y215748D01*
X249902Y215893D01*
X249897Y215906D01*
X249895Y215919D01*
X249842Y216054D01*
X249791Y216191D01*
X249783Y216202D01*
X249778Y216215D01*
X249693Y216332D01*
X249610Y216452D01*
X249599Y216461D01*
X249592Y216472D01*
X249480Y216565D01*
X249369Y216660D01*
X249357Y216666D01*
X249347Y216675D01*
X249215Y216737D01*
X249084Y216802D01*
X249071Y216805D01*
X249059Y216810D01*
X248917Y216838D01*
X248773Y216868D01*
X248760Y216868D01*
X248747Y216870D01*
X248602Y216861D01*
X248456Y216855D01*
X248442Y216851D01*
X248429Y216850D01*
X248291Y216806D01*
X248151Y216763D01*
X248139Y216756D01*
X248127Y216752D01*
X248004Y216675D01*
X247879Y216599D01*
X247869Y216589D01*
X247858Y216582D01*
X247758Y216476D01*
X247656Y216372D01*
X247646Y216357D01*
X247640Y216351D01*
X247632Y216336D01*
X247567Y216238D01*
X246185Y213845D01*
X240078Y208720D01*
X232586Y205993D01*
X224614Y205993D01*
X217122Y208720D01*
X212375Y212704D01*
X212244Y212788D01*
X212118Y212871D01*
X212113Y212873D01*
X212108Y212876D01*
X211961Y212925D01*
X211817Y212974D01*
X211811Y212974D01*
X211806Y212976D01*
X211652Y212987D01*
X211500Y212999D01*
X211494Y212998D01*
X211489Y212999D01*
X211339Y212971D01*
X211187Y212945D01*
X211181Y212942D01*
X211176Y212941D01*
X211037Y212877D01*
X210897Y212814D01*
X210892Y212810D01*
X210887Y212808D01*
X210769Y212712D01*
X210648Y212616D01*
X210645Y212611D01*
X210640Y212607D01*
X210550Y212485D01*
X210457Y212361D01*
X210454Y212354D01*
X210451Y212351D01*
X210448Y212342D01*
X210386Y212217D01*
X210023Y211341D01*
X207759Y209077D01*
X204801Y207851D01*
X201599Y207851D01*
X198641Y209077D01*
X196377Y211341D01*
X195151Y214299D01*
X195151Y217501D01*
X196377Y220459D01*
X198641Y222723D01*
X201599Y223949D01*
X204952Y223949D01*
X205022Y223958D01*
X205093Y223957D01*
X205179Y223977D01*
X205268Y223989D01*
X205333Y224015D01*
X205402Y224031D01*
X205481Y224073D01*
X205563Y224106D01*
X205620Y224147D01*
X205683Y224180D01*
X205749Y224240D01*
X205821Y224292D01*
X205866Y224347D01*
X205918Y224394D01*
X205967Y224469D01*
X206023Y224537D01*
X206054Y224601D01*
X206092Y224660D01*
X206121Y224745D01*
X206159Y224825D01*
X206172Y224894D01*
X206195Y224961D01*
X206202Y225050D01*
X206219Y225137D01*
X206214Y225208D01*
X206220Y225278D01*
X206202Y225438D01*
X205645Y228600D01*
X207029Y236451D01*
X211015Y243355D01*
X216185Y247694D01*
X216209Y247720D01*
X216238Y247740D01*
X216317Y247836D01*
X216401Y247927D01*
X216418Y247958D01*
X216441Y247985D01*
X216494Y248098D01*
X216553Y248207D01*
X216561Y248241D01*
X216576Y248273D01*
X216599Y248395D01*
X216630Y248515D01*
X216629Y248551D01*
X216636Y248586D01*
X216628Y248709D01*
X216627Y248833D01*
X216618Y248868D01*
X216616Y248903D01*
X216578Y249021D01*
X216546Y249141D01*
X216529Y249172D01*
X216518Y249205D01*
X216452Y249310D01*
X216391Y249419D01*
X216367Y249444D01*
X216348Y249474D01*
X216258Y249559D01*
X216172Y249649D01*
X216142Y249668D01*
X216116Y249692D01*
X216008Y249752D01*
X215903Y249818D01*
X215869Y249829D01*
X215838Y249846D01*
X215718Y249877D01*
X215600Y249914D01*
X215564Y249916D01*
X215530Y249925D01*
X215369Y249935D01*
X38631Y249935D01*
X38595Y249931D01*
X38560Y249933D01*
X38438Y249911D01*
X38315Y249895D01*
X38282Y249882D01*
X38247Y249876D01*
X38135Y249824D01*
X38019Y249778D01*
X37991Y249758D01*
X37959Y249743D01*
X37862Y249664D01*
X37762Y249592D01*
X37739Y249564D01*
X37712Y249542D01*
X37639Y249442D01*
X37559Y249347D01*
X37544Y249315D01*
X37523Y249286D01*
X37477Y249171D01*
X37424Y249059D01*
X37417Y249024D01*
X37404Y248991D01*
X37387Y248868D01*
X37364Y248747D01*
X37366Y248711D01*
X37361Y248676D01*
X37376Y248553D01*
X37384Y248429D01*
X37395Y248395D01*
X37399Y248360D01*
X37444Y248244D01*
X37482Y248127D01*
X37501Y248097D01*
X37513Y248064D01*
X37586Y247963D01*
X37652Y247858D01*
X37678Y247834D01*
X37698Y247805D01*
X37815Y247694D01*
X42985Y243356D01*
X46971Y236451D01*
X48355Y228600D01*
X46971Y220749D01*
X42985Y213845D01*
X36878Y208720D01*
X29386Y205993D01*
X21414Y205993D01*
X13922Y208720D01*
X7815Y213844D01*
X6433Y216238D01*
X6345Y216354D01*
X6260Y216472D01*
X6249Y216481D01*
X6241Y216491D01*
X6127Y216582D01*
X6015Y216675D01*
X6002Y216681D01*
X5992Y216689D01*
X5858Y216749D01*
X5727Y216810D01*
X5714Y216813D01*
X5701Y216818D01*
X5557Y216843D01*
X5414Y216870D01*
X5401Y216869D01*
X5388Y216872D01*
X5242Y216859D01*
X5097Y216850D01*
X5084Y216846D01*
X5071Y216845D01*
X4933Y216797D01*
X4795Y216752D01*
X4783Y216745D01*
X4770Y216741D01*
X4649Y216660D01*
X4526Y216582D01*
X4517Y216572D01*
X4505Y216565D01*
X4408Y216457D01*
X4308Y216351D01*
X4301Y216339D01*
X4292Y216329D01*
X4225Y216199D01*
X4154Y216072D01*
X4151Y216059D01*
X4145Y216047D01*
X4111Y215905D01*
X4075Y215764D01*
X4074Y215746D01*
X4072Y215737D01*
X4072Y215720D01*
X4065Y215603D01*
X4065Y18512D01*
X4082Y18374D01*
X4095Y18235D01*
X4102Y18216D01*
X4105Y18196D01*
X4156Y18067D01*
X4203Y17936D01*
X4214Y17919D01*
X4222Y17900D01*
X4303Y17788D01*
X4381Y17673D01*
X4397Y17659D01*
X4408Y17643D01*
X4516Y17554D01*
X4620Y17462D01*
X4638Y17453D01*
X4653Y17440D01*
X4779Y17381D01*
X4903Y17318D01*
X4923Y17313D01*
X4941Y17305D01*
X5077Y17279D01*
X5213Y17248D01*
X5234Y17249D01*
X5253Y17245D01*
X5392Y17254D01*
X5531Y17258D01*
X5551Y17263D01*
X5571Y17265D01*
X5703Y17307D01*
X5837Y17346D01*
X5854Y17356D01*
X5873Y17363D01*
X5991Y17437D01*
X6111Y17508D01*
X6132Y17526D01*
X6142Y17533D01*
X6156Y17548D01*
X6231Y17614D01*
X8141Y19523D01*
X11099Y20749D01*
X14301Y20749D01*
X17259Y19523D01*
X19523Y17259D01*
X20749Y14301D01*
X20749Y11099D01*
X19523Y8141D01*
X17614Y6231D01*
X17529Y6122D01*
X17440Y6015D01*
X17432Y5996D01*
X17419Y5980D01*
X17364Y5852D01*
X17305Y5727D01*
X17301Y5707D01*
X17293Y5688D01*
X17271Y5550D01*
X17245Y5414D01*
X17246Y5394D01*
X17243Y5374D01*
X17256Y5235D01*
X17265Y5097D01*
X17271Y5078D01*
X17273Y5058D01*
X17320Y4926D01*
X17363Y4795D01*
X17374Y4777D01*
X17380Y4758D01*
X17458Y4643D01*
X17533Y4526D01*
X17548Y4512D01*
X17559Y4495D01*
X17663Y4403D01*
X17764Y4308D01*
X17782Y4298D01*
X17797Y4285D01*
X17922Y4221D01*
X18043Y4154D01*
X18063Y4149D01*
X18081Y4140D01*
X18216Y4110D01*
X18351Y4075D01*
X18379Y4073D01*
X18391Y4070D01*
X18411Y4071D01*
X18512Y4065D01*
X39826Y4065D01*
X39865Y4070D01*
G37*
%LPC*%
G36*
X214561Y115188D02*
X214561Y115188D01*
X212087Y116213D01*
X210193Y118107D01*
X209168Y120581D01*
X209168Y123259D01*
X210193Y125733D01*
X212087Y127627D01*
X214561Y128652D01*
X215998Y128652D01*
X216097Y128664D01*
X216196Y128667D01*
X216254Y128684D01*
X216314Y128692D01*
X216406Y128728D01*
X216501Y128756D01*
X216553Y128786D01*
X216610Y128809D01*
X216690Y128867D01*
X216775Y128917D01*
X216850Y128983D01*
X216867Y128995D01*
X216875Y129005D01*
X216896Y129023D01*
X228707Y140835D01*
X228792Y140944D01*
X228881Y141051D01*
X228889Y141070D01*
X228902Y141086D01*
X228957Y141214D01*
X229016Y141339D01*
X229020Y141359D01*
X229028Y141378D01*
X229050Y141516D01*
X229076Y141652D01*
X229075Y141672D01*
X229078Y141692D01*
X229065Y141831D01*
X229056Y141969D01*
X229050Y141988D01*
X229048Y142008D01*
X229001Y142140D01*
X228958Y142271D01*
X228948Y142289D01*
X228941Y142308D01*
X228863Y142423D01*
X228788Y142540D01*
X228773Y142554D01*
X228762Y142571D01*
X228658Y142663D01*
X228557Y142758D01*
X228539Y142768D01*
X228524Y142781D01*
X228400Y142845D01*
X228278Y142912D01*
X228258Y142917D01*
X228240Y142926D01*
X228105Y142956D01*
X227970Y142991D01*
X227942Y142993D01*
X227930Y142996D01*
X227910Y142995D01*
X227809Y143001D01*
X219118Y143001D01*
X217042Y145077D01*
X217042Y152117D01*
X217030Y152216D01*
X217027Y152315D01*
X217010Y152373D01*
X217002Y152433D01*
X216966Y152525D01*
X216938Y152620D01*
X216908Y152672D01*
X216885Y152729D01*
X216827Y152809D01*
X216777Y152894D01*
X216711Y152969D01*
X216699Y152986D01*
X216689Y152994D01*
X216671Y153015D01*
X198881Y170804D01*
X198881Y178423D01*
X198869Y178521D01*
X198866Y178620D01*
X198849Y178678D01*
X198841Y178738D01*
X198805Y178830D01*
X198777Y178926D01*
X198747Y178978D01*
X198724Y179034D01*
X198666Y179114D01*
X198616Y179200D01*
X198550Y179275D01*
X198538Y179291D01*
X198528Y179299D01*
X198510Y179320D01*
X197493Y180337D01*
X196468Y182811D01*
X196468Y185489D01*
X197493Y187963D01*
X199387Y189857D01*
X201861Y190882D01*
X204539Y190882D01*
X207013Y189857D01*
X208907Y187963D01*
X209932Y185489D01*
X209932Y182811D01*
X208907Y180337D01*
X207890Y179320D01*
X207830Y179242D01*
X207762Y179170D01*
X207733Y179117D01*
X207696Y179069D01*
X207656Y178978D01*
X207608Y178891D01*
X207593Y178833D01*
X207569Y178777D01*
X207554Y178679D01*
X207529Y178584D01*
X207523Y178484D01*
X207519Y178463D01*
X207521Y178451D01*
X207519Y178423D01*
X207519Y174908D01*
X207531Y174809D01*
X207534Y174710D01*
X207551Y174652D01*
X207559Y174592D01*
X207595Y174500D01*
X207623Y174405D01*
X207653Y174353D01*
X207676Y174296D01*
X207734Y174216D01*
X207784Y174131D01*
X207850Y174056D01*
X207862Y174039D01*
X207872Y174031D01*
X207890Y174010D01*
X219730Y162170D01*
X219808Y162110D01*
X219881Y162042D01*
X219934Y162013D01*
X219981Y161976D01*
X220072Y161936D01*
X220159Y161888D01*
X220218Y161873D01*
X220273Y161849D01*
X220371Y161834D01*
X220467Y161809D01*
X220567Y161803D01*
X220587Y161799D01*
X220600Y161801D01*
X220628Y161799D01*
X227668Y161799D01*
X227703Y161764D01*
X227797Y161691D01*
X227886Y161612D01*
X227922Y161594D01*
X227954Y161569D01*
X228063Y161522D01*
X228169Y161468D01*
X228209Y161459D01*
X228246Y161443D01*
X228363Y161424D01*
X228479Y161398D01*
X228520Y161399D01*
X228560Y161393D01*
X228679Y161404D01*
X228797Y161408D01*
X228836Y161419D01*
X228876Y161423D01*
X228988Y161463D01*
X229103Y161496D01*
X229138Y161517D01*
X229176Y161530D01*
X229274Y161597D01*
X229377Y161658D01*
X229422Y161697D01*
X229439Y161709D01*
X229452Y161724D01*
X229498Y161764D01*
X229532Y161799D01*
X238082Y161799D01*
X240158Y159723D01*
X240158Y145077D01*
X238497Y143417D01*
X238437Y143339D01*
X238369Y143267D01*
X238340Y143214D01*
X238303Y143166D01*
X238263Y143075D01*
X238215Y142988D01*
X238200Y142930D01*
X238176Y142874D01*
X238161Y142776D01*
X238136Y142680D01*
X238130Y142580D01*
X238126Y142560D01*
X238128Y142548D01*
X238126Y142520D01*
X238126Y138038D01*
X223003Y122916D01*
X222943Y122838D01*
X222875Y122765D01*
X222846Y122712D01*
X222809Y122665D01*
X222769Y122574D01*
X222721Y122487D01*
X222706Y122428D01*
X222682Y122373D01*
X222667Y122275D01*
X222642Y122179D01*
X222636Y122079D01*
X222632Y122059D01*
X222634Y122046D01*
X222632Y122018D01*
X222632Y120581D01*
X221607Y118107D01*
X219713Y116213D01*
X217239Y115188D01*
X214561Y115188D01*
G37*
%LPD*%
G36*
X139338Y106629D02*
X139338Y106629D01*
X139360Y106633D01*
X139367Y106648D01*
X139376Y106654D01*
X139375Y106664D01*
X139382Y106680D01*
X139382Y109220D01*
X139370Y109239D01*
X139366Y109261D01*
X139351Y109268D01*
X139345Y109277D01*
X139335Y109276D01*
X139319Y109283D01*
X114681Y109283D01*
X114662Y109271D01*
X114640Y109267D01*
X114633Y109252D01*
X114624Y109246D01*
X114625Y109236D01*
X114618Y109220D01*
X114618Y106680D01*
X114630Y106661D01*
X114634Y106639D01*
X114649Y106632D01*
X114655Y106623D01*
X114665Y106624D01*
X114681Y106617D01*
X139319Y106617D01*
X139338Y106629D01*
G37*
%LPC*%
G36*
X39115Y15239D02*
X39115Y15239D01*
X39155Y15496D01*
X39736Y17283D01*
X40589Y18957D01*
X41694Y20478D01*
X43022Y21806D01*
X44543Y22911D01*
X46217Y23764D01*
X48004Y24345D01*
X48261Y24385D01*
X48261Y15239D01*
X39115Y15239D01*
G37*
%LPD*%
G36*
X128924Y201879D02*
X128924Y201879D01*
X128946Y201883D01*
X128953Y201898D01*
X128962Y201904D01*
X128961Y201914D01*
X128968Y201930D01*
X128968Y204470D01*
X128956Y204489D01*
X128952Y204511D01*
X128937Y204518D01*
X128931Y204527D01*
X128921Y204526D01*
X128905Y204533D01*
X114681Y204533D01*
X114662Y204521D01*
X114640Y204517D01*
X114633Y204502D01*
X114624Y204496D01*
X114625Y204486D01*
X114618Y204470D01*
X114618Y201930D01*
X114630Y201911D01*
X114634Y201889D01*
X114649Y201882D01*
X114655Y201873D01*
X114665Y201874D01*
X114681Y201867D01*
X128905Y201867D01*
X128924Y201879D01*
G37*
G36*
X235604Y151079D02*
X235604Y151079D01*
X235626Y151083D01*
X235633Y151098D01*
X235642Y151104D01*
X235641Y151114D01*
X235648Y151130D01*
X235648Y153670D01*
X235636Y153689D01*
X235632Y153711D01*
X235617Y153718D01*
X235611Y153727D01*
X235601Y153726D01*
X235585Y153733D01*
X221615Y153733D01*
X221596Y153721D01*
X221574Y153717D01*
X221567Y153702D01*
X221558Y153696D01*
X221559Y153686D01*
X221552Y153670D01*
X221552Y151130D01*
X221564Y151111D01*
X221568Y151089D01*
X221583Y151082D01*
X221589Y151073D01*
X221599Y151074D01*
X221615Y151067D01*
X235585Y151067D01*
X235604Y151079D01*
G37*
D10*
X238802Y69396D02*
X248793Y66066D01*
X238802Y62736D01*
X241300Y56161D02*
X241005Y56157D01*
X240711Y56147D01*
X240416Y56129D01*
X240122Y56105D01*
X239829Y56073D01*
X239537Y56035D01*
X239246Y55989D01*
X238956Y55936D01*
X238667Y55877D01*
X238380Y55811D01*
X238094Y55738D01*
X237810Y55658D01*
X237528Y55571D01*
X237249Y55478D01*
X236971Y55378D01*
X236697Y55271D01*
X236424Y55158D01*
X236155Y55038D01*
X235888Y54912D01*
X235785Y54874D01*
X235684Y54833D01*
X235585Y54789D01*
X235486Y54741D01*
X235390Y54690D01*
X235296Y54635D01*
X235203Y54577D01*
X235113Y54516D01*
X235025Y54451D01*
X234939Y54384D01*
X234856Y54313D01*
X234775Y54240D01*
X234697Y54164D01*
X234621Y54085D01*
X234549Y54003D01*
X234479Y53919D01*
X234413Y53832D01*
X234349Y53744D01*
X234289Y53653D01*
X234232Y53559D01*
X234178Y53464D01*
X234128Y53367D01*
X234081Y53269D01*
X234038Y53169D01*
X233998Y53067D01*
X233962Y52964D01*
X233930Y52860D01*
X233901Y52754D01*
X233876Y52648D01*
X233855Y52541D01*
X233838Y52433D01*
X233824Y52325D01*
X233815Y52216D01*
X233809Y52107D01*
X233807Y51998D01*
X233809Y51889D01*
X233815Y51780D01*
X233824Y51671D01*
X233838Y51563D01*
X233855Y51455D01*
X233876Y51348D01*
X233901Y51241D01*
X233930Y51136D01*
X233962Y51032D01*
X233998Y50929D01*
X234038Y50827D01*
X234081Y50727D01*
X234128Y50628D01*
X234179Y50531D01*
X234232Y50436D01*
X234289Y50343D01*
X234350Y50252D01*
X234413Y50163D01*
X234480Y50077D01*
X234549Y49992D01*
X234622Y49911D01*
X234697Y49832D01*
X234775Y49755D01*
X234856Y49682D01*
X234939Y49611D01*
X235025Y49544D01*
X235113Y49479D01*
X235204Y49418D01*
X235296Y49360D01*
X235391Y49305D01*
X235487Y49254D01*
X235585Y49206D01*
X235685Y49162D01*
X235786Y49121D01*
X235889Y49084D01*
X235888Y49084D02*
X236155Y48958D01*
X236424Y48838D01*
X236697Y48725D01*
X236971Y48618D01*
X237249Y48518D01*
X237528Y48425D01*
X237810Y48338D01*
X238094Y48258D01*
X238380Y48185D01*
X238667Y48119D01*
X238956Y48060D01*
X239246Y48007D01*
X239537Y47961D01*
X239829Y47923D01*
X240122Y47891D01*
X240416Y47867D01*
X240711Y47849D01*
X241005Y47839D01*
X241300Y47835D01*
X241300Y56161D02*
X241595Y56157D01*
X241889Y56147D01*
X242184Y56129D01*
X242478Y56105D01*
X242771Y56073D01*
X243063Y56035D01*
X243354Y55989D01*
X243644Y55936D01*
X243933Y55877D01*
X244220Y55811D01*
X244506Y55738D01*
X244790Y55658D01*
X245072Y55571D01*
X245351Y55478D01*
X245629Y55378D01*
X245903Y55271D01*
X246176Y55158D01*
X246445Y55038D01*
X246712Y54912D01*
X246815Y54874D01*
X246916Y54833D01*
X247015Y54789D01*
X247114Y54741D01*
X247210Y54690D01*
X247304Y54635D01*
X247397Y54577D01*
X247487Y54516D01*
X247575Y54451D01*
X247661Y54384D01*
X247744Y54313D01*
X247825Y54240D01*
X247903Y54164D01*
X247979Y54085D01*
X248051Y54003D01*
X248121Y53919D01*
X248187Y53832D01*
X248251Y53744D01*
X248311Y53653D01*
X248368Y53559D01*
X248422Y53464D01*
X248472Y53367D01*
X248519Y53269D01*
X248562Y53169D01*
X248602Y53067D01*
X248638Y52964D01*
X248670Y52860D01*
X248699Y52754D01*
X248724Y52648D01*
X248745Y52541D01*
X248762Y52433D01*
X248776Y52325D01*
X248785Y52216D01*
X248791Y52107D01*
X248793Y51998D01*
X246712Y49084D02*
X246445Y48958D01*
X246176Y48838D01*
X245903Y48725D01*
X245629Y48618D01*
X245351Y48518D01*
X245072Y48425D01*
X244790Y48338D01*
X244506Y48258D01*
X244220Y48185D01*
X243933Y48119D01*
X243644Y48060D01*
X243354Y48007D01*
X243063Y47961D01*
X242771Y47923D01*
X242478Y47891D01*
X242184Y47867D01*
X241889Y47849D01*
X241595Y47839D01*
X241300Y47835D01*
X246711Y49084D02*
X246814Y49121D01*
X246915Y49162D01*
X247015Y49206D01*
X247113Y49254D01*
X247209Y49305D01*
X247304Y49360D01*
X247396Y49418D01*
X247487Y49479D01*
X247575Y49544D01*
X247661Y49612D01*
X247744Y49682D01*
X247825Y49756D01*
X247903Y49832D01*
X247978Y49911D01*
X248051Y49992D01*
X248120Y50077D01*
X248187Y50163D01*
X248250Y50252D01*
X248311Y50343D01*
X248368Y50436D01*
X248421Y50531D01*
X248472Y50628D01*
X248519Y50727D01*
X248562Y50827D01*
X248602Y50929D01*
X248638Y51032D01*
X248670Y51136D01*
X248699Y51241D01*
X248724Y51348D01*
X248745Y51455D01*
X248762Y51563D01*
X248776Y51671D01*
X248785Y51780D01*
X248791Y51889D01*
X248793Y51998D01*
X245463Y55328D02*
X237137Y48668D01*
X237137Y40529D02*
X233807Y36367D01*
X248793Y36367D01*
X248793Y40529D02*
X248793Y32204D01*
D11*
X12700Y12700D03*
X203200Y215900D03*
D12*
X50800Y12700D03*
X76200Y12700D03*
X101600Y12700D03*
X127000Y12700D03*
X152400Y12700D03*
X177800Y12700D03*
X203200Y12700D03*
D13*
X140221Y209055D02*
X134607Y209055D01*
X140221Y209055D02*
X140221Y197345D01*
X134607Y197345D01*
X134607Y209055D01*
X134607Y198286D02*
X140221Y198286D01*
X140221Y199227D02*
X134607Y199227D01*
X134607Y200168D02*
X140221Y200168D01*
X140221Y201109D02*
X134607Y201109D01*
X134607Y202050D02*
X140221Y202050D01*
X140221Y202991D02*
X134607Y202991D01*
X134607Y203932D02*
X140221Y203932D01*
X140221Y204873D02*
X134607Y204873D01*
X134607Y205814D02*
X140221Y205814D01*
X140221Y206755D02*
X134607Y206755D01*
X134607Y207696D02*
X140221Y207696D01*
X140221Y208637D02*
X134607Y208637D01*
X129807Y209055D02*
X124193Y209055D01*
X129807Y209055D02*
X129807Y197345D01*
X124193Y197345D01*
X124193Y209055D01*
X124193Y198286D02*
X129807Y198286D01*
X129807Y199227D02*
X124193Y199227D01*
X124193Y200168D02*
X129807Y200168D01*
X129807Y201109D02*
X124193Y201109D01*
X124193Y202050D02*
X129807Y202050D01*
X129807Y202991D02*
X124193Y202991D01*
X124193Y203932D02*
X129807Y203932D01*
X129807Y204873D02*
X124193Y204873D01*
X124193Y205814D02*
X129807Y205814D01*
X129807Y206755D02*
X124193Y206755D01*
X124193Y207696D02*
X129807Y207696D01*
X129807Y208637D02*
X124193Y208637D01*
X119393Y209055D02*
X113779Y209055D01*
X119393Y209055D02*
X119393Y197345D01*
X113779Y197345D01*
X113779Y209055D01*
X113779Y198286D02*
X119393Y198286D01*
X119393Y199227D02*
X113779Y199227D01*
X113779Y200168D02*
X119393Y200168D01*
X119393Y201109D02*
X113779Y201109D01*
X113779Y202050D02*
X119393Y202050D01*
X119393Y202991D02*
X113779Y202991D01*
X113779Y203932D02*
X119393Y203932D01*
X119393Y204873D02*
X113779Y204873D01*
X113779Y205814D02*
X119393Y205814D01*
X119393Y206755D02*
X113779Y206755D01*
X113779Y207696D02*
X119393Y207696D01*
X119393Y208637D02*
X113779Y208637D01*
X134607Y113805D02*
X140221Y113805D01*
X140221Y102095D01*
X134607Y102095D01*
X134607Y113805D01*
X134607Y103036D02*
X140221Y103036D01*
X140221Y103977D02*
X134607Y103977D01*
X134607Y104918D02*
X140221Y104918D01*
X140221Y105859D02*
X134607Y105859D01*
X134607Y106800D02*
X140221Y106800D01*
X140221Y107741D02*
X134607Y107741D01*
X134607Y108682D02*
X140221Y108682D01*
X140221Y109623D02*
X134607Y109623D01*
X134607Y110564D02*
X140221Y110564D01*
X140221Y111505D02*
X134607Y111505D01*
X134607Y112446D02*
X140221Y112446D01*
X140221Y113387D02*
X134607Y113387D01*
X129807Y113805D02*
X124193Y113805D01*
X129807Y113805D02*
X129807Y102095D01*
X124193Y102095D01*
X124193Y113805D01*
X124193Y103036D02*
X129807Y103036D01*
X129807Y103977D02*
X124193Y103977D01*
X124193Y104918D02*
X129807Y104918D01*
X129807Y105859D02*
X124193Y105859D01*
X124193Y106800D02*
X129807Y106800D01*
X129807Y107741D02*
X124193Y107741D01*
X124193Y108682D02*
X129807Y108682D01*
X129807Y109623D02*
X124193Y109623D01*
X124193Y110564D02*
X129807Y110564D01*
X129807Y111505D02*
X124193Y111505D01*
X124193Y112446D02*
X129807Y112446D01*
X129807Y113387D02*
X124193Y113387D01*
X119393Y113805D02*
X113779Y113805D01*
X119393Y113805D02*
X119393Y102095D01*
X113779Y102095D01*
X113779Y113805D01*
X113779Y103036D02*
X119393Y103036D01*
X119393Y103977D02*
X113779Y103977D01*
X113779Y104918D02*
X119393Y104918D01*
X119393Y105859D02*
X113779Y105859D01*
X113779Y106800D02*
X119393Y106800D01*
X119393Y107741D02*
X113779Y107741D01*
X113779Y108682D02*
X119393Y108682D01*
X119393Y109623D02*
X113779Y109623D01*
X113779Y110564D02*
X119393Y110564D01*
X119393Y111505D02*
X113779Y111505D01*
X113779Y112446D02*
X119393Y112446D01*
X119393Y113387D02*
X113779Y113387D01*
X220586Y146545D02*
X226200Y146545D01*
X220586Y146545D02*
X220586Y158255D01*
X226200Y158255D01*
X226200Y146545D01*
X226200Y147486D02*
X220586Y147486D01*
X220586Y148427D02*
X226200Y148427D01*
X226200Y149368D02*
X220586Y149368D01*
X220586Y150309D02*
X226200Y150309D01*
X226200Y151250D02*
X220586Y151250D01*
X220586Y152191D02*
X226200Y152191D01*
X226200Y153132D02*
X220586Y153132D01*
X220586Y154073D02*
X226200Y154073D01*
X226200Y155014D02*
X220586Y155014D01*
X220586Y155955D02*
X226200Y155955D01*
X226200Y156896D02*
X220586Y156896D01*
X220586Y157837D02*
X226200Y157837D01*
X231000Y146545D02*
X236614Y146545D01*
X231000Y146545D02*
X231000Y158255D01*
X236614Y158255D01*
X236614Y146545D01*
X236614Y147486D02*
X231000Y147486D01*
X231000Y148427D02*
X236614Y148427D01*
X236614Y149368D02*
X231000Y149368D01*
X231000Y150309D02*
X236614Y150309D01*
X236614Y151250D02*
X231000Y151250D01*
X231000Y152191D02*
X236614Y152191D01*
X236614Y153132D02*
X231000Y153132D01*
X231000Y154073D02*
X236614Y154073D01*
X236614Y155014D02*
X231000Y155014D01*
X231000Y155955D02*
X236614Y155955D01*
X236614Y156896D02*
X231000Y156896D01*
X231000Y157837D02*
X236614Y157837D01*
D14*
X151130Y127000D03*
X215900Y121920D03*
D15*
X127000Y118110D02*
X127000Y107950D01*
D16*
X74930Y95123D02*
X74930Y13970D01*
X76200Y12700D01*
X83740Y126793D02*
X77390Y133143D01*
X83740Y126793D02*
X83740Y103933D01*
X74930Y95123D01*
D14*
X77390Y133143D03*
D15*
X135890Y127000D02*
X151130Y127000D01*
X135890Y127000D02*
X127000Y118110D01*
X215900Y121920D02*
X233807Y139827D01*
X233807Y152400D01*
D14*
X143510Y119380D03*
X101600Y144780D03*
X241300Y12700D03*
X67310Y143510D03*
X50800Y241300D03*
X203200Y241300D03*
X186690Y110490D03*
X157480Y151130D03*
X74930Y114300D03*
X139700Y38100D03*
X114300Y38100D03*
X101600Y82550D03*
X88900Y38100D03*
X162560Y128016D03*
D15*
X161290Y128016D01*
X154940Y134366D01*
X122936Y134366D01*
X115570Y127000D01*
X110490Y127000D01*
D14*
X110490Y127000D03*
X114300Y54610D03*
D15*
X105410Y121920D02*
X110490Y127000D01*
X105410Y121920D02*
X105410Y103117D01*
X91059Y88766D01*
X91059Y77851D01*
X114300Y54610D01*
D14*
X118110Y140970D03*
D15*
X158750Y140970D02*
X161290Y138430D01*
X158750Y140970D02*
X118110Y140970D01*
D14*
X161290Y138430D03*
D15*
X118110Y140970D02*
X110871Y133731D01*
D14*
X100330Y127000D03*
D15*
X107061Y133731D01*
X110871Y133731D01*
D14*
X139700Y54610D03*
D15*
X111512Y47879D02*
X86360Y73031D01*
X100330Y105410D02*
X100330Y127000D01*
X100330Y105410D02*
X86360Y91440D01*
X86360Y73031D01*
X132969Y47879D02*
X139700Y54610D01*
X132969Y47879D02*
X111512Y47879D01*
D14*
X92710Y119380D03*
D15*
X127000Y159379D02*
X127000Y203200D01*
X105670Y138049D02*
X101860Y138049D01*
X105670Y138049D02*
X127000Y159379D01*
X92710Y119380D02*
X92710Y104140D01*
X81280Y92710D01*
X81280Y35560D02*
X91440Y25400D01*
X139700Y25400D01*
X152400Y12700D01*
X81280Y35560D02*
X81280Y92710D01*
X92710Y119380D02*
X92710Y128899D01*
X101860Y138049D01*
D14*
X107950Y190500D03*
D15*
X116586Y199136D01*
X116586Y203200D01*
D14*
X146050Y190500D03*
D15*
X137414Y199136D01*
X137414Y203200D01*
D14*
X139700Y95250D03*
D15*
X137414Y97536D01*
X137414Y107950D01*
D14*
X114300Y95250D03*
D15*
X116586Y97536D01*
X116586Y107950D01*
X203200Y172593D02*
X223393Y152400D01*
X203200Y172593D02*
X203200Y184150D01*
D14*
X203200Y184150D03*
M02*
