G04 EAGLE Gerber RS-274X export*
G75*
%MOMM*%
%FSLAX34Y34*%
%LPD*%
%INTop Copper*%
%IPPOS*%
%AMOC8*
5,1,8,0,0,1.08239X$1,22.5*%
G01*
%ADD10C,0.102600*%
%ADD11C,0.096000*%
%ADD12C,0.102000*%
%ADD13C,0.100000*%
%ADD14C,1.000000*%
%ADD15C,1.879600*%
%ADD16C,0.300000*%
%ADD17C,0.254000*%
%ADD18C,0.508000*%
%ADD19C,0.736600*%

G36*
X39865Y4070D02*
X39865Y4070D01*
X39905Y4067D01*
X40023Y4090D01*
X40141Y4105D01*
X40178Y4119D01*
X40217Y4127D01*
X40326Y4178D01*
X40437Y4222D01*
X40469Y4245D01*
X40505Y4262D01*
X40597Y4338D01*
X40694Y4408D01*
X40720Y4439D01*
X40750Y4464D01*
X40821Y4561D01*
X40897Y4653D01*
X40914Y4689D01*
X40938Y4722D01*
X40982Y4833D01*
X41033Y4941D01*
X41040Y4980D01*
X41055Y5017D01*
X41070Y5136D01*
X41092Y5253D01*
X41090Y5293D01*
X41095Y5333D01*
X41080Y5452D01*
X41073Y5571D01*
X41060Y5609D01*
X41055Y5648D01*
X41012Y5760D01*
X40975Y5873D01*
X40953Y5907D01*
X40939Y5944D01*
X40853Y6080D01*
X40589Y6443D01*
X39736Y8117D01*
X39155Y9904D01*
X39115Y10161D01*
X49530Y10161D01*
X49648Y10176D01*
X49767Y10183D01*
X49805Y10196D01*
X49845Y10201D01*
X49956Y10244D01*
X50069Y10281D01*
X50103Y10303D01*
X50141Y10318D01*
X50237Y10388D01*
X50338Y10451D01*
X50366Y10481D01*
X50398Y10504D01*
X50474Y10596D01*
X50556Y10683D01*
X50575Y10718D01*
X50601Y10749D01*
X50652Y10857D01*
X50709Y10961D01*
X50720Y11001D01*
X50737Y11037D01*
X50759Y11154D01*
X50789Y11269D01*
X50793Y11330D01*
X50797Y11350D01*
X50795Y11370D01*
X50799Y11430D01*
X50799Y12701D01*
X52070Y12701D01*
X52188Y12716D01*
X52307Y12723D01*
X52345Y12736D01*
X52385Y12741D01*
X52496Y12785D01*
X52609Y12821D01*
X52644Y12843D01*
X52681Y12858D01*
X52777Y12928D01*
X52878Y12991D01*
X52906Y13021D01*
X52939Y13045D01*
X53014Y13136D01*
X53096Y13223D01*
X53116Y13258D01*
X53141Y13290D01*
X53192Y13397D01*
X53250Y13502D01*
X53260Y13541D01*
X53277Y13577D01*
X53299Y13694D01*
X53329Y13809D01*
X53333Y13870D01*
X53337Y13890D01*
X53335Y13910D01*
X53339Y13970D01*
X53339Y24385D01*
X53596Y24345D01*
X55383Y23764D01*
X57057Y22911D01*
X58578Y21806D01*
X59906Y20478D01*
X61011Y18957D01*
X61864Y17283D01*
X62015Y16818D01*
X62028Y16791D01*
X62035Y16762D01*
X62095Y16648D01*
X62150Y16530D01*
X62169Y16507D01*
X62183Y16481D01*
X62270Y16385D01*
X62353Y16285D01*
X62377Y16268D01*
X62397Y16246D01*
X62506Y16174D01*
X62610Y16098D01*
X62638Y16087D01*
X62663Y16071D01*
X62786Y16029D01*
X62906Y15981D01*
X62936Y15977D01*
X62964Y15968D01*
X63093Y15957D01*
X63221Y15941D01*
X63251Y15945D01*
X63281Y15942D01*
X63409Y15965D01*
X63537Y15981D01*
X63565Y15992D01*
X63594Y15997D01*
X63712Y16050D01*
X63833Y16098D01*
X63857Y16115D01*
X63884Y16127D01*
X63985Y16208D01*
X64090Y16284D01*
X64109Y16307D01*
X64133Y16326D01*
X64211Y16430D01*
X64293Y16529D01*
X64306Y16556D01*
X64324Y16580D01*
X64395Y16725D01*
X65648Y19750D01*
X69150Y23252D01*
X73724Y25147D01*
X78676Y25147D01*
X83250Y23252D01*
X86752Y19751D01*
X87727Y17395D01*
X87796Y17274D01*
X87861Y17152D01*
X87875Y17137D01*
X87885Y17119D01*
X87982Y17019D01*
X88075Y16916D01*
X88092Y16905D01*
X88106Y16891D01*
X88224Y16818D01*
X88341Y16742D01*
X88360Y16735D01*
X88377Y16724D01*
X88510Y16684D01*
X88642Y16638D01*
X88662Y16637D01*
X88681Y16631D01*
X88820Y16624D01*
X88959Y16613D01*
X88979Y16617D01*
X88999Y16616D01*
X89135Y16644D01*
X89272Y16668D01*
X89291Y16676D01*
X89310Y16680D01*
X89435Y16741D01*
X89562Y16798D01*
X89578Y16811D01*
X89596Y16820D01*
X89702Y16910D01*
X89810Y16997D01*
X89823Y17013D01*
X89838Y17026D01*
X89918Y17140D01*
X90002Y17251D01*
X90014Y17276D01*
X90021Y17286D01*
X90028Y17305D01*
X90073Y17395D01*
X91048Y19750D01*
X94550Y23252D01*
X96498Y24059D01*
X96523Y24073D01*
X96551Y24083D01*
X96661Y24152D01*
X96774Y24216D01*
X96795Y24237D01*
X96820Y24253D01*
X96909Y24347D01*
X97002Y24438D01*
X97018Y24463D01*
X97038Y24484D01*
X97101Y24598D01*
X97169Y24709D01*
X97177Y24737D01*
X97192Y24763D01*
X97224Y24889D01*
X97262Y25013D01*
X97264Y25042D01*
X97271Y25071D01*
X97281Y25231D01*
X97281Y44089D01*
X107197Y54004D01*
X107257Y54082D01*
X107325Y54155D01*
X107354Y54208D01*
X107391Y54255D01*
X107431Y54346D01*
X107479Y54433D01*
X107494Y54492D01*
X107518Y54547D01*
X107533Y54645D01*
X107558Y54741D01*
X107564Y54841D01*
X107568Y54861D01*
X107566Y54874D01*
X107568Y54902D01*
X107568Y55949D01*
X108033Y57070D01*
X108041Y57099D01*
X108054Y57125D01*
X108082Y57252D01*
X108117Y57377D01*
X108117Y57407D01*
X108124Y57436D01*
X108120Y57565D01*
X108122Y57695D01*
X108115Y57724D01*
X108114Y57753D01*
X108078Y57878D01*
X108048Y58004D01*
X108034Y58031D01*
X108026Y58059D01*
X107960Y58171D01*
X107899Y58286D01*
X107879Y58307D01*
X107864Y58333D01*
X107758Y58454D01*
X106251Y59960D01*
X106251Y72900D01*
X107384Y74032D01*
X107457Y74127D01*
X107536Y74216D01*
X107554Y74252D01*
X107579Y74284D01*
X107626Y74393D01*
X107680Y74499D01*
X107689Y74538D01*
X107705Y74576D01*
X107724Y74693D01*
X107750Y74809D01*
X107749Y74850D01*
X107755Y74890D01*
X107744Y75008D01*
X107740Y75127D01*
X107729Y75166D01*
X107725Y75206D01*
X107685Y75319D01*
X107652Y75433D01*
X107631Y75467D01*
X107618Y75506D01*
X107551Y75604D01*
X107490Y75707D01*
X107450Y75752D01*
X107439Y75769D01*
X107424Y75782D01*
X107384Y75827D01*
X106251Y76960D01*
X106251Y89900D01*
X107758Y91406D01*
X107776Y91430D01*
X107798Y91449D01*
X107873Y91555D01*
X107953Y91658D01*
X107964Y91685D01*
X107981Y91709D01*
X108027Y91830D01*
X108079Y91949D01*
X108084Y91979D01*
X108094Y92006D01*
X108108Y92135D01*
X108129Y92264D01*
X108126Y92293D01*
X108129Y92322D01*
X108111Y92451D01*
X108099Y92580D01*
X108089Y92608D01*
X108085Y92637D01*
X108033Y92790D01*
X107568Y93911D01*
X107568Y96589D01*
X108593Y99063D01*
X110487Y100957D01*
X112961Y101982D01*
X115639Y101982D01*
X118113Y100957D01*
X120007Y99063D01*
X121032Y96589D01*
X121032Y93911D01*
X120567Y92790D01*
X120559Y92761D01*
X120546Y92735D01*
X120518Y92608D01*
X120483Y92483D01*
X120483Y92453D01*
X120476Y92424D01*
X120480Y92295D01*
X120478Y92165D01*
X120485Y92136D01*
X120486Y92107D01*
X120522Y91982D01*
X120552Y91856D01*
X120566Y91829D01*
X120574Y91801D01*
X120640Y91689D01*
X120701Y91574D01*
X120721Y91553D01*
X120736Y91527D01*
X120842Y91406D01*
X122349Y89900D01*
X122349Y76960D01*
X121216Y75827D01*
X121143Y75733D01*
X121064Y75644D01*
X121046Y75608D01*
X121021Y75576D01*
X120974Y75467D01*
X120920Y75361D01*
X120911Y75322D01*
X120895Y75284D01*
X120876Y75167D01*
X120850Y75051D01*
X120851Y75010D01*
X120845Y74970D01*
X120856Y74852D01*
X120860Y74733D01*
X120871Y74694D01*
X120875Y74654D01*
X120915Y74542D01*
X120948Y74427D01*
X120969Y74392D01*
X120982Y74354D01*
X121049Y74256D01*
X121110Y74153D01*
X121150Y74108D01*
X121161Y74091D01*
X121176Y74078D01*
X121216Y74032D01*
X122349Y72900D01*
X122349Y59960D01*
X120842Y58454D01*
X120824Y58430D01*
X120802Y58411D01*
X120727Y58305D01*
X120647Y58202D01*
X120636Y58175D01*
X120619Y58151D01*
X120573Y58030D01*
X120521Y57911D01*
X120516Y57881D01*
X120506Y57854D01*
X120492Y57725D01*
X120471Y57596D01*
X120474Y57567D01*
X120471Y57538D01*
X120489Y57409D01*
X120501Y57280D01*
X120511Y57252D01*
X120515Y57223D01*
X120567Y57070D01*
X121032Y55949D01*
X121032Y53271D01*
X120007Y50797D01*
X118113Y48903D01*
X115639Y47878D01*
X113812Y47878D01*
X113713Y47866D01*
X113614Y47863D01*
X113556Y47846D01*
X113496Y47838D01*
X113404Y47802D01*
X113309Y47774D01*
X113257Y47744D01*
X113200Y47721D01*
X113120Y47663D01*
X113035Y47613D01*
X112960Y47547D01*
X112943Y47535D01*
X112935Y47525D01*
X112914Y47507D01*
X106290Y40883D01*
X106230Y40805D01*
X106162Y40732D01*
X106133Y40679D01*
X106096Y40632D01*
X106056Y40541D01*
X106008Y40454D01*
X105993Y40395D01*
X105969Y40340D01*
X105954Y40242D01*
X105929Y40146D01*
X105923Y40046D01*
X105919Y40026D01*
X105921Y40013D01*
X105919Y39985D01*
X105919Y25231D01*
X105922Y25202D01*
X105920Y25173D01*
X105942Y25045D01*
X105959Y24916D01*
X105969Y24889D01*
X105974Y24859D01*
X106028Y24741D01*
X106076Y24620D01*
X106093Y24596D01*
X106105Y24569D01*
X106186Y24468D01*
X106262Y24363D01*
X106285Y24344D01*
X106304Y24321D01*
X106407Y24243D01*
X106507Y24160D01*
X106534Y24147D01*
X106558Y24130D01*
X106702Y24059D01*
X108650Y23252D01*
X112152Y19751D01*
X113127Y17395D01*
X113196Y17274D01*
X113261Y17152D01*
X113275Y17137D01*
X113285Y17119D01*
X113382Y17019D01*
X113475Y16916D01*
X113492Y16905D01*
X113506Y16891D01*
X113624Y16818D01*
X113741Y16742D01*
X113760Y16735D01*
X113777Y16724D01*
X113910Y16684D01*
X114042Y16638D01*
X114062Y16637D01*
X114081Y16631D01*
X114220Y16624D01*
X114359Y16613D01*
X114379Y16617D01*
X114399Y16616D01*
X114535Y16644D01*
X114672Y16668D01*
X114691Y16676D01*
X114710Y16680D01*
X114835Y16741D01*
X114962Y16798D01*
X114978Y16811D01*
X114996Y16820D01*
X115102Y16910D01*
X115210Y16997D01*
X115223Y17013D01*
X115238Y17026D01*
X115318Y17140D01*
X115402Y17251D01*
X115414Y17276D01*
X115421Y17286D01*
X115428Y17305D01*
X115473Y17395D01*
X116448Y19750D01*
X119950Y23252D01*
X121898Y24059D01*
X121923Y24073D01*
X121951Y24083D01*
X122061Y24152D01*
X122174Y24216D01*
X122195Y24237D01*
X122220Y24253D01*
X122309Y24347D01*
X122402Y24438D01*
X122418Y24463D01*
X122438Y24484D01*
X122501Y24598D01*
X122569Y24709D01*
X122577Y24737D01*
X122592Y24763D01*
X122624Y24889D01*
X122662Y25013D01*
X122664Y25042D01*
X122671Y25071D01*
X122681Y25231D01*
X122681Y44089D01*
X132597Y54004D01*
X132657Y54082D01*
X132725Y54155D01*
X132754Y54208D01*
X132791Y54255D01*
X132831Y54346D01*
X132879Y54433D01*
X132894Y54492D01*
X132918Y54547D01*
X132933Y54645D01*
X132958Y54741D01*
X132964Y54841D01*
X132968Y54861D01*
X132966Y54874D01*
X132968Y54902D01*
X132968Y55949D01*
X133433Y57070D01*
X133441Y57099D01*
X133454Y57125D01*
X133482Y57252D01*
X133517Y57377D01*
X133517Y57407D01*
X133524Y57436D01*
X133520Y57565D01*
X133522Y57695D01*
X133515Y57724D01*
X133514Y57753D01*
X133478Y57878D01*
X133448Y58004D01*
X133434Y58031D01*
X133426Y58059D01*
X133360Y58171D01*
X133299Y58286D01*
X133279Y58307D01*
X133264Y58333D01*
X133158Y58454D01*
X131651Y59960D01*
X131651Y72900D01*
X132784Y74033D01*
X132857Y74127D01*
X132936Y74216D01*
X132954Y74252D01*
X132979Y74284D01*
X133026Y74393D01*
X133080Y74499D01*
X133089Y74538D01*
X133105Y74576D01*
X133124Y74693D01*
X133150Y74809D01*
X133149Y74850D01*
X133155Y74890D01*
X133144Y75008D01*
X133140Y75127D01*
X133129Y75166D01*
X133125Y75206D01*
X133085Y75318D01*
X133052Y75433D01*
X133031Y75468D01*
X133018Y75506D01*
X132951Y75604D01*
X132890Y75707D01*
X132850Y75752D01*
X132839Y75769D01*
X132824Y75782D01*
X132784Y75828D01*
X131651Y76960D01*
X131651Y89900D01*
X133158Y91406D01*
X133176Y91430D01*
X133198Y91449D01*
X133273Y91555D01*
X133353Y91658D01*
X133364Y91685D01*
X133381Y91709D01*
X133427Y91830D01*
X133479Y91949D01*
X133484Y91979D01*
X133494Y92006D01*
X133508Y92135D01*
X133529Y92264D01*
X133526Y92293D01*
X133529Y92322D01*
X133511Y92451D01*
X133499Y92580D01*
X133489Y92608D01*
X133485Y92637D01*
X133433Y92790D01*
X132968Y93911D01*
X132968Y96393D01*
X132953Y96511D01*
X132946Y96630D01*
X132933Y96668D01*
X132928Y96709D01*
X132885Y96819D01*
X132848Y96932D01*
X132826Y96967D01*
X132811Y97004D01*
X132742Y97100D01*
X132678Y97201D01*
X132648Y97229D01*
X132625Y97262D01*
X132533Y97338D01*
X132446Y97419D01*
X132411Y97439D01*
X132380Y97464D01*
X132272Y97515D01*
X132168Y97573D01*
X132128Y97583D01*
X132092Y97600D01*
X131975Y97622D01*
X131867Y97650D01*
X120226Y109291D01*
X120226Y116422D01*
X120211Y116540D01*
X120204Y116659D01*
X120191Y116697D01*
X120186Y116738D01*
X120143Y116848D01*
X120106Y116961D01*
X120084Y116996D01*
X120069Y117033D01*
X120000Y117129D01*
X119936Y117230D01*
X119906Y117258D01*
X119883Y117291D01*
X119791Y117367D01*
X119704Y117448D01*
X119669Y117468D01*
X119638Y117493D01*
X119530Y117544D01*
X119426Y117602D01*
X119386Y117612D01*
X119350Y117629D01*
X119233Y117651D01*
X119118Y117681D01*
X119058Y117685D01*
X119038Y117689D01*
X119017Y117687D01*
X118957Y117691D01*
X117975Y117691D01*
X117876Y117679D01*
X117777Y117676D01*
X117719Y117659D01*
X117659Y117651D01*
X117567Y117615D01*
X117472Y117587D01*
X117420Y117557D01*
X117363Y117534D01*
X117283Y117476D01*
X117198Y117426D01*
X117123Y117360D01*
X117106Y117348D01*
X117098Y117338D01*
X117077Y117320D01*
X114819Y115061D01*
X98437Y115061D01*
X98339Y115049D01*
X98240Y115046D01*
X98182Y115029D01*
X98122Y115021D01*
X98030Y114985D01*
X97934Y114957D01*
X97882Y114927D01*
X97826Y114904D01*
X97746Y114846D01*
X97660Y114796D01*
X97585Y114730D01*
X97569Y114718D01*
X97561Y114708D01*
X97540Y114690D01*
X96523Y113673D01*
X94049Y112648D01*
X91371Y112648D01*
X88897Y113673D01*
X87003Y115567D01*
X86413Y116992D01*
X86398Y117017D01*
X86389Y117045D01*
X86320Y117155D01*
X86255Y117268D01*
X86235Y117289D01*
X86219Y117314D01*
X86124Y117403D01*
X86034Y117496D01*
X86009Y117512D01*
X85987Y117532D01*
X85874Y117595D01*
X85763Y117663D01*
X85735Y117671D01*
X85709Y117686D01*
X85583Y117718D01*
X85459Y117756D01*
X85430Y117758D01*
X85401Y117765D01*
X85240Y117775D01*
X73609Y117775D01*
X73510Y117763D01*
X73411Y117760D01*
X73353Y117743D01*
X73293Y117735D01*
X73201Y117699D01*
X73106Y117671D01*
X73054Y117641D01*
X72997Y117618D01*
X72917Y117560D01*
X72832Y117510D01*
X72757Y117444D01*
X72740Y117432D01*
X72732Y117422D01*
X72711Y117404D01*
X62989Y107681D01*
X60770Y107681D01*
X60672Y107669D01*
X60573Y107666D01*
X60514Y107649D01*
X60454Y107641D01*
X60362Y107605D01*
X60267Y107577D01*
X60215Y107547D01*
X60159Y107524D01*
X60079Y107466D01*
X59993Y107416D01*
X59918Y107350D01*
X59901Y107338D01*
X59893Y107328D01*
X59872Y107310D01*
X58514Y105951D01*
X43086Y105951D01*
X41001Y108036D01*
X41001Y115964D01*
X41140Y116103D01*
X41213Y116197D01*
X41291Y116286D01*
X41310Y116322D01*
X41335Y116354D01*
X41382Y116463D01*
X41436Y116569D01*
X41445Y116609D01*
X41461Y116646D01*
X41480Y116763D01*
X41506Y116879D01*
X41504Y116920D01*
X41511Y116960D01*
X41500Y117079D01*
X41496Y117197D01*
X41485Y117236D01*
X41481Y117276D01*
X41441Y117389D01*
X41408Y117503D01*
X41387Y117538D01*
X41373Y117576D01*
X41307Y117674D01*
X41246Y117777D01*
X41206Y117822D01*
X41195Y117839D01*
X41180Y117852D01*
X41140Y117898D01*
X41001Y118036D01*
X41001Y125964D01*
X41140Y126103D01*
X41213Y126197D01*
X41291Y126286D01*
X41310Y126322D01*
X41335Y126354D01*
X41382Y126463D01*
X41436Y126569D01*
X41445Y126609D01*
X41461Y126646D01*
X41480Y126763D01*
X41506Y126879D01*
X41504Y126920D01*
X41511Y126960D01*
X41500Y127079D01*
X41496Y127197D01*
X41485Y127236D01*
X41481Y127276D01*
X41441Y127389D01*
X41408Y127503D01*
X41387Y127538D01*
X41373Y127576D01*
X41307Y127674D01*
X41246Y127777D01*
X41206Y127822D01*
X41195Y127839D01*
X41180Y127852D01*
X41140Y127898D01*
X41001Y128036D01*
X41001Y135964D01*
X41633Y136596D01*
X41702Y136685D01*
X41777Y136768D01*
X41799Y136810D01*
X41828Y136847D01*
X41873Y136950D01*
X41925Y137050D01*
X41936Y137096D01*
X41955Y137139D01*
X41972Y137250D01*
X41998Y137360D01*
X41997Y137407D01*
X42004Y137453D01*
X41994Y137565D01*
X41992Y137678D01*
X41979Y137723D01*
X41975Y137770D01*
X41937Y137876D01*
X41907Y137984D01*
X41874Y138049D01*
X41867Y138069D01*
X41857Y138084D01*
X41835Y138128D01*
X41717Y138332D01*
X41509Y139108D01*
X41509Y140501D01*
X50570Y140501D01*
X50688Y140516D01*
X50807Y140523D01*
X50814Y140525D01*
X50870Y140511D01*
X50930Y140507D01*
X50950Y140503D01*
X50970Y140505D01*
X51030Y140501D01*
X60091Y140501D01*
X60091Y139042D01*
X60071Y138938D01*
X60073Y138905D01*
X60068Y138871D01*
X60083Y138746D01*
X60091Y138621D01*
X60101Y138589D01*
X60105Y138556D01*
X60150Y138438D01*
X60189Y138319D01*
X60207Y138290D01*
X60219Y138259D01*
X60292Y138156D01*
X60359Y138050D01*
X60383Y138027D01*
X60403Y137999D01*
X60499Y137918D01*
X60591Y137832D01*
X60620Y137816D01*
X60646Y137794D01*
X60759Y137739D01*
X60869Y137678D01*
X60902Y137670D01*
X60932Y137655D01*
X61055Y137630D01*
X61177Y137599D01*
X61226Y137596D01*
X61244Y137592D01*
X61265Y137593D01*
X61338Y137589D01*
X71790Y137589D01*
X71888Y137601D01*
X71987Y137604D01*
X72045Y137621D01*
X72105Y137629D01*
X72197Y137665D01*
X72293Y137693D01*
X72345Y137723D01*
X72401Y137746D01*
X72481Y137804D01*
X72567Y137854D01*
X72642Y137920D01*
X72658Y137932D01*
X72666Y137942D01*
X72687Y137960D01*
X73577Y138850D01*
X76103Y139896D01*
X76111Y139901D01*
X76120Y139903D01*
X76249Y139980D01*
X76379Y140054D01*
X76386Y140060D01*
X76394Y140065D01*
X76515Y140171D01*
X95714Y159370D01*
X95720Y159378D01*
X95727Y159384D01*
X95817Y159503D01*
X95909Y159622D01*
X95912Y159630D01*
X95918Y159638D01*
X95980Y159763D01*
X97554Y161338D01*
X99118Y161986D01*
X99143Y162000D01*
X99171Y162009D01*
X99281Y162079D01*
X99394Y162143D01*
X99415Y162164D01*
X99440Y162179D01*
X99529Y162274D01*
X99622Y162364D01*
X99638Y162389D01*
X99658Y162411D01*
X99721Y162525D01*
X99789Y162635D01*
X99797Y162664D01*
X99812Y162690D01*
X99844Y162815D01*
X99882Y162939D01*
X99884Y162969D01*
X99891Y162997D01*
X99895Y163064D01*
X101034Y164203D01*
X101107Y164297D01*
X101186Y164386D01*
X101204Y164422D01*
X101229Y164454D01*
X101276Y164563D01*
X101330Y164669D01*
X101339Y164708D01*
X101355Y164746D01*
X101374Y164863D01*
X101400Y164979D01*
X101399Y165020D01*
X101405Y165060D01*
X101394Y165178D01*
X101390Y165297D01*
X101379Y165336D01*
X101375Y165376D01*
X101335Y165488D01*
X101302Y165603D01*
X101281Y165638D01*
X101268Y165676D01*
X101201Y165774D01*
X101140Y165877D01*
X101100Y165922D01*
X101089Y165939D01*
X101074Y165952D01*
X101034Y165998D01*
X99901Y167130D01*
X99901Y180070D01*
X101980Y182149D01*
X102362Y182149D01*
X102480Y182164D01*
X102599Y182171D01*
X102637Y182184D01*
X102678Y182189D01*
X102788Y182232D01*
X102901Y182269D01*
X102936Y182291D01*
X102973Y182306D01*
X103069Y182375D01*
X103170Y182439D01*
X103198Y182469D01*
X103231Y182492D01*
X103307Y182584D01*
X103388Y182671D01*
X103408Y182706D01*
X103433Y182737D01*
X103484Y182845D01*
X103542Y182949D01*
X103552Y182989D01*
X103569Y183025D01*
X103591Y183142D01*
X103621Y183257D01*
X103625Y183317D01*
X103629Y183337D01*
X103627Y183358D01*
X103631Y183418D01*
X103631Y184773D01*
X103619Y184871D01*
X103616Y184970D01*
X103599Y185028D01*
X103591Y185088D01*
X103555Y185180D01*
X103527Y185276D01*
X103497Y185328D01*
X103474Y185384D01*
X103416Y185464D01*
X103366Y185550D01*
X103300Y185625D01*
X103288Y185641D01*
X103278Y185649D01*
X103260Y185670D01*
X102243Y186687D01*
X101218Y189161D01*
X101218Y191839D01*
X102243Y194313D01*
X104137Y196207D01*
X106611Y197232D01*
X109289Y197232D01*
X111763Y196207D01*
X113657Y194313D01*
X114682Y191839D01*
X114682Y189161D01*
X113657Y186687D01*
X112640Y185670D01*
X112580Y185592D01*
X112512Y185520D01*
X112483Y185467D01*
X112446Y185419D01*
X112406Y185328D01*
X112358Y185241D01*
X112343Y185183D01*
X112319Y185127D01*
X112304Y185029D01*
X112279Y184934D01*
X112273Y184834D01*
X112269Y184813D01*
X112271Y184801D01*
X112269Y184773D01*
X112269Y183418D01*
X112284Y183300D01*
X112291Y183181D01*
X112304Y183143D01*
X112309Y183102D01*
X112352Y182992D01*
X112389Y182879D01*
X112411Y182844D01*
X112426Y182807D01*
X112495Y182711D01*
X112559Y182610D01*
X112589Y182582D01*
X112612Y182549D01*
X112704Y182473D01*
X112791Y182392D01*
X112826Y182372D01*
X112857Y182347D01*
X112965Y182296D01*
X113069Y182238D01*
X113109Y182228D01*
X113145Y182211D01*
X113262Y182189D01*
X113377Y182159D01*
X113437Y182155D01*
X113457Y182151D01*
X113478Y182153D01*
X113538Y182149D01*
X113920Y182149D01*
X115999Y180070D01*
X115999Y167130D01*
X114866Y165998D01*
X114793Y165903D01*
X114714Y165814D01*
X114696Y165778D01*
X114671Y165746D01*
X114624Y165637D01*
X114570Y165531D01*
X114561Y165492D01*
X114545Y165454D01*
X114526Y165337D01*
X114500Y165221D01*
X114501Y165180D01*
X114495Y165140D01*
X114506Y165022D01*
X114510Y164903D01*
X114521Y164864D01*
X114525Y164824D01*
X114565Y164711D01*
X114598Y164597D01*
X114619Y164563D01*
X114632Y164524D01*
X114699Y164426D01*
X114760Y164323D01*
X114800Y164278D01*
X114811Y164261D01*
X114826Y164248D01*
X114866Y164203D01*
X116104Y162964D01*
X116119Y162919D01*
X116141Y162884D01*
X116156Y162847D01*
X116225Y162751D01*
X116289Y162650D01*
X116319Y162622D01*
X116342Y162589D01*
X116434Y162513D01*
X116521Y162432D01*
X116556Y162412D01*
X116587Y162387D01*
X116695Y162336D01*
X116799Y162278D01*
X116839Y162268D01*
X116875Y162251D01*
X116992Y162229D01*
X117107Y162199D01*
X117167Y162195D01*
X117187Y162191D01*
X117208Y162193D01*
X117268Y162189D01*
X117682Y162189D01*
X117800Y162204D01*
X117919Y162211D01*
X117957Y162224D01*
X117998Y162229D01*
X118108Y162272D01*
X118221Y162309D01*
X118256Y162331D01*
X118293Y162346D01*
X118389Y162415D01*
X118490Y162479D01*
X118518Y162509D01*
X118551Y162532D01*
X118627Y162624D01*
X118708Y162711D01*
X118728Y162746D01*
X118753Y162777D01*
X118804Y162885D01*
X118850Y162969D01*
X120443Y164562D01*
X120516Y164656D01*
X120595Y164745D01*
X120613Y164781D01*
X120638Y164813D01*
X120685Y164922D01*
X120739Y165028D01*
X120748Y165068D01*
X120764Y165105D01*
X120783Y165223D01*
X120809Y165339D01*
X120808Y165379D01*
X120814Y165419D01*
X120803Y165538D01*
X120799Y165656D01*
X120788Y165695D01*
X120784Y165736D01*
X120744Y165848D01*
X120711Y165962D01*
X120690Y165997D01*
X120677Y166035D01*
X120610Y166133D01*
X120549Y166236D01*
X120510Y166281D01*
X120498Y166298D01*
X120483Y166311D01*
X120443Y166357D01*
X120067Y166733D01*
X119666Y167426D01*
X119459Y168200D01*
X119459Y171101D01*
X125770Y171101D01*
X125888Y171116D01*
X126007Y171123D01*
X126045Y171135D01*
X126085Y171141D01*
X126196Y171184D01*
X126309Y171221D01*
X126343Y171243D01*
X126381Y171258D01*
X126477Y171327D01*
X126578Y171391D01*
X126606Y171421D01*
X126638Y171444D01*
X126714Y171536D01*
X126796Y171623D01*
X126815Y171658D01*
X126841Y171689D01*
X126892Y171797D01*
X126949Y171901D01*
X126959Y171941D01*
X126977Y171977D01*
X126997Y172084D01*
X127001Y172054D01*
X127045Y171944D01*
X127081Y171831D01*
X127103Y171796D01*
X127118Y171759D01*
X127188Y171662D01*
X127251Y171562D01*
X127281Y171534D01*
X127305Y171501D01*
X127396Y171425D01*
X127483Y171344D01*
X127518Y171324D01*
X127550Y171299D01*
X127657Y171248D01*
X127762Y171190D01*
X127801Y171180D01*
X127837Y171163D01*
X127954Y171141D01*
X128070Y171111D01*
X128130Y171107D01*
X128150Y171103D01*
X128170Y171105D01*
X128230Y171101D01*
X134541Y171101D01*
X134541Y168200D01*
X134334Y167426D01*
X133933Y166733D01*
X133557Y166357D01*
X133484Y166263D01*
X133405Y166173D01*
X133387Y166137D01*
X133362Y166105D01*
X133315Y165996D01*
X133261Y165890D01*
X133252Y165851D01*
X133236Y165814D01*
X133217Y165696D01*
X133191Y165580D01*
X133192Y165540D01*
X133186Y165500D01*
X133197Y165381D01*
X133201Y165262D01*
X133212Y165223D01*
X133216Y165183D01*
X133256Y165071D01*
X133289Y164956D01*
X133310Y164922D01*
X133323Y164884D01*
X133390Y164785D01*
X133451Y164683D01*
X133490Y164637D01*
X133502Y164620D01*
X133517Y164607D01*
X133557Y164562D01*
X135049Y163070D01*
X135049Y150368D01*
X135064Y150250D01*
X135071Y150131D01*
X135084Y150093D01*
X135089Y150052D01*
X135132Y149942D01*
X135169Y149829D01*
X135191Y149794D01*
X135206Y149757D01*
X135275Y149661D01*
X135339Y149560D01*
X135369Y149532D01*
X135392Y149499D01*
X135484Y149423D01*
X135571Y149342D01*
X135606Y149322D01*
X135637Y149297D01*
X135745Y149246D01*
X135849Y149188D01*
X135889Y149178D01*
X135925Y149161D01*
X136042Y149139D01*
X136157Y149109D01*
X136217Y149105D01*
X136237Y149101D01*
X136258Y149103D01*
X136318Y149099D01*
X137418Y149099D01*
X137543Y149114D01*
X137668Y149124D01*
X137700Y149134D01*
X137734Y149139D01*
X137850Y149185D01*
X137970Y149225D01*
X137998Y149243D01*
X138029Y149256D01*
X138131Y149329D01*
X138237Y149398D01*
X138259Y149423D01*
X138287Y149442D01*
X138367Y149539D01*
X138452Y149632D01*
X138468Y149661D01*
X138489Y149687D01*
X138543Y149801D01*
X138603Y149912D01*
X138611Y149945D01*
X138625Y149975D01*
X138649Y150099D01*
X138679Y150221D01*
X138678Y150254D01*
X138685Y150287D01*
X138677Y150413D01*
X138676Y150539D01*
X138666Y150587D01*
X138665Y150605D01*
X138658Y150625D01*
X138644Y150697D01*
X138509Y151200D01*
X138509Y154101D01*
X143551Y154101D01*
X143551Y149338D01*
X143554Y149309D01*
X143552Y149280D01*
X143574Y149152D01*
X143591Y149023D01*
X143601Y148995D01*
X143606Y148966D01*
X143660Y148848D01*
X143708Y148727D01*
X143725Y148703D01*
X143737Y148676D01*
X143818Y148575D01*
X143894Y148470D01*
X143917Y148451D01*
X143936Y148428D01*
X144017Y148366D01*
X148248Y144136D01*
X149099Y142082D01*
X149099Y137461D01*
X149111Y137362D01*
X149114Y137263D01*
X149131Y137205D01*
X149139Y137145D01*
X149175Y137053D01*
X149203Y136958D01*
X149233Y136906D01*
X149256Y136849D01*
X149314Y136769D01*
X149364Y136684D01*
X149430Y136609D01*
X149442Y136592D01*
X149452Y136584D01*
X149470Y136563D01*
X152005Y134028D01*
X152013Y134023D01*
X152018Y134015D01*
X152138Y133925D01*
X152257Y133833D01*
X152265Y133830D01*
X152272Y133824D01*
X152417Y133753D01*
X153840Y133164D01*
X153974Y133127D01*
X154107Y133086D01*
X154127Y133085D01*
X154146Y133080D01*
X154286Y133078D01*
X154424Y133071D01*
X154444Y133075D01*
X154464Y133075D01*
X154600Y133108D01*
X154736Y133136D01*
X154754Y133144D01*
X154774Y133149D01*
X154896Y133214D01*
X155021Y133275D01*
X155037Y133288D01*
X155055Y133298D01*
X155158Y133391D01*
X155263Y133482D01*
X155275Y133498D01*
X155290Y133512D01*
X155367Y133628D01*
X155446Y133742D01*
X155454Y133761D01*
X155465Y133778D01*
X155510Y133909D01*
X155559Y134039D01*
X155561Y134059D01*
X155568Y134078D01*
X155579Y134217D01*
X155594Y134355D01*
X155592Y134375D01*
X155593Y134395D01*
X155569Y134533D01*
X155550Y134670D01*
X155541Y134697D01*
X155539Y134709D01*
X155530Y134727D01*
X155498Y134822D01*
X154558Y137091D01*
X154558Y139769D01*
X155583Y142243D01*
X157477Y144137D01*
X159951Y145162D01*
X162629Y145162D01*
X165103Y144137D01*
X166997Y142243D01*
X168058Y139682D01*
X168062Y139652D01*
X168105Y139542D01*
X168142Y139429D01*
X168164Y139394D01*
X168179Y139357D01*
X168248Y139261D01*
X168312Y139160D01*
X168342Y139132D01*
X168365Y139099D01*
X168457Y139023D01*
X168544Y138942D01*
X168579Y138922D01*
X168610Y138897D01*
X168718Y138846D01*
X168822Y138788D01*
X168862Y138778D01*
X168898Y138761D01*
X169015Y138739D01*
X169130Y138709D01*
X169190Y138705D01*
X169210Y138701D01*
X169231Y138703D01*
X169291Y138699D01*
X184375Y138699D01*
X184474Y138711D01*
X184573Y138714D01*
X184631Y138731D01*
X184691Y138739D01*
X184783Y138775D01*
X184878Y138803D01*
X184930Y138833D01*
X184987Y138856D01*
X185067Y138914D01*
X185152Y138964D01*
X185227Y139030D01*
X185244Y139042D01*
X185252Y139052D01*
X185273Y139070D01*
X192521Y146319D01*
X193230Y146319D01*
X193328Y146331D01*
X193427Y146334D01*
X193486Y146351D01*
X193546Y146359D01*
X193638Y146395D01*
X193733Y146423D01*
X193785Y146453D01*
X193841Y146476D01*
X193921Y146534D01*
X194007Y146584D01*
X194082Y146650D01*
X194099Y146662D01*
X194107Y146672D01*
X194128Y146690D01*
X195486Y148049D01*
X210914Y148049D01*
X212999Y145964D01*
X212999Y138036D01*
X212860Y137897D01*
X212787Y137803D01*
X212709Y137714D01*
X212690Y137678D01*
X212665Y137646D01*
X212618Y137537D01*
X212564Y137431D01*
X212555Y137391D01*
X212539Y137354D01*
X212520Y137237D01*
X212494Y137121D01*
X212496Y137080D01*
X212489Y137040D01*
X212500Y136921D01*
X212504Y136803D01*
X212515Y136764D01*
X212519Y136724D01*
X212559Y136611D01*
X212592Y136497D01*
X212613Y136462D01*
X212627Y136424D01*
X212693Y136326D01*
X212754Y136223D01*
X212794Y136178D01*
X212805Y136161D01*
X212820Y136148D01*
X212860Y136102D01*
X212999Y135964D01*
X212999Y129904D01*
X213005Y129854D01*
X213003Y129804D01*
X213025Y129697D01*
X213039Y129589D01*
X213057Y129542D01*
X213067Y129493D01*
X213115Y129395D01*
X213156Y129293D01*
X213185Y129252D01*
X213207Y129207D01*
X213278Y129124D01*
X213342Y129036D01*
X213381Y129004D01*
X213414Y128965D01*
X213503Y128903D01*
X213587Y128833D01*
X213633Y128811D01*
X213674Y128783D01*
X213776Y128744D01*
X213875Y128697D01*
X213924Y128688D01*
X213971Y128670D01*
X214080Y128658D01*
X214187Y128637D01*
X214238Y128641D01*
X214287Y128635D01*
X214396Y128650D01*
X214416Y128652D01*
X217239Y128652D01*
X219713Y127627D01*
X221607Y125733D01*
X222632Y123259D01*
X222632Y120581D01*
X221607Y118107D01*
X219713Y116213D01*
X217239Y115188D01*
X214561Y115188D01*
X214246Y115319D01*
X214198Y115332D01*
X214153Y115353D01*
X214045Y115374D01*
X213939Y115403D01*
X213889Y115404D01*
X213840Y115413D01*
X213731Y115406D01*
X213621Y115408D01*
X213573Y115396D01*
X213523Y115393D01*
X213419Y115359D01*
X213312Y115334D01*
X213268Y115310D01*
X213221Y115295D01*
X213128Y115236D01*
X213031Y115185D01*
X212994Y115152D01*
X212952Y115125D01*
X212877Y115045D01*
X212795Y114971D01*
X212768Y114930D01*
X212734Y114893D01*
X212681Y114797D01*
X212621Y114705D01*
X212604Y114658D01*
X212580Y114615D01*
X212553Y114509D01*
X212517Y114405D01*
X212513Y114355D01*
X212501Y114307D01*
X212491Y114146D01*
X212491Y113499D01*
X203430Y113499D01*
X203312Y113484D01*
X203193Y113477D01*
X203186Y113475D01*
X203130Y113489D01*
X203070Y113493D01*
X203050Y113497D01*
X203030Y113495D01*
X202970Y113499D01*
X193531Y113499D01*
X193474Y113547D01*
X193387Y113628D01*
X193352Y113648D01*
X193321Y113673D01*
X193213Y113724D01*
X193109Y113782D01*
X193070Y113792D01*
X193033Y113809D01*
X192916Y113831D01*
X192801Y113861D01*
X192741Y113865D01*
X192721Y113869D01*
X192700Y113867D01*
X192640Y113871D01*
X157558Y113871D01*
X155504Y114722D01*
X153754Y116473D01*
X150255Y119972D01*
X150247Y119977D01*
X150242Y119985D01*
X150122Y120075D01*
X150003Y120167D01*
X149995Y120170D01*
X149988Y120176D01*
X149843Y120247D01*
X147317Y121293D01*
X145423Y123187D01*
X144377Y125713D01*
X144372Y125721D01*
X144370Y125730D01*
X144293Y125859D01*
X144219Y125989D01*
X144213Y125996D01*
X144208Y126004D01*
X144102Y126125D01*
X142827Y127400D01*
X142749Y127460D01*
X142676Y127528D01*
X142623Y127557D01*
X142576Y127594D01*
X142485Y127634D01*
X142398Y127682D01*
X142339Y127697D01*
X142284Y127721D01*
X142186Y127736D01*
X142090Y127761D01*
X141990Y127767D01*
X141970Y127771D01*
X141957Y127769D01*
X141929Y127771D01*
X139855Y127771D01*
X139737Y127756D01*
X139618Y127749D01*
X139580Y127736D01*
X139539Y127731D01*
X139429Y127688D01*
X139315Y127651D01*
X139281Y127629D01*
X139244Y127614D01*
X139147Y127544D01*
X139047Y127481D01*
X139019Y127451D01*
X138986Y127428D01*
X138910Y127336D01*
X138829Y127249D01*
X138809Y127214D01*
X138784Y127183D01*
X138733Y127075D01*
X138675Y126971D01*
X138665Y126931D01*
X138648Y126895D01*
X138626Y126778D01*
X138596Y126663D01*
X138592Y126603D01*
X138588Y126583D01*
X138590Y126562D01*
X138586Y126502D01*
X138586Y125851D01*
X138336Y124919D01*
X138323Y124827D01*
X138301Y124737D01*
X138302Y124670D01*
X138293Y124603D01*
X138303Y124512D01*
X138304Y124419D01*
X138327Y124305D01*
X138329Y124288D01*
X138332Y124280D01*
X138336Y124262D01*
X138578Y123359D01*
X137087Y123359D01*
X136988Y123347D01*
X136889Y123344D01*
X136831Y123327D01*
X136771Y123320D01*
X136679Y123283D01*
X136584Y123256D01*
X136532Y123225D01*
X136475Y123203D01*
X136395Y123144D01*
X136310Y123094D01*
X136235Y123028D01*
X136218Y123016D01*
X136218Y123015D01*
X136210Y123006D01*
X136189Y122988D01*
X136189Y122987D01*
X136104Y122877D01*
X136015Y122770D01*
X136006Y122752D01*
X135994Y122736D01*
X135938Y122608D01*
X135879Y122483D01*
X135876Y122463D01*
X135868Y122444D01*
X135846Y122306D01*
X135820Y122170D01*
X135821Y122150D01*
X135818Y122130D01*
X135831Y121991D01*
X135839Y121853D01*
X135846Y121834D01*
X135848Y121813D01*
X135895Y121682D01*
X135937Y121550D01*
X135948Y121533D01*
X135955Y121514D01*
X136033Y121399D01*
X136108Y121282D01*
X136122Y121268D01*
X136134Y121251D01*
X136238Y121159D01*
X136339Y121064D01*
X136357Y121054D01*
X136372Y121041D01*
X136496Y120977D01*
X136618Y120910D01*
X136637Y120905D01*
X136655Y120896D01*
X136791Y120865D01*
X136926Y120831D01*
X136954Y120829D01*
X136966Y120826D01*
X136986Y120827D01*
X137086Y120821D01*
X138578Y120821D01*
X138378Y120074D01*
X137976Y119378D01*
X137407Y118809D01*
X136711Y118407D01*
X135934Y118199D01*
X135288Y118199D01*
X135170Y118184D01*
X135051Y118177D01*
X135013Y118164D01*
X134972Y118159D01*
X134862Y118116D01*
X134749Y118079D01*
X134714Y118057D01*
X134677Y118042D01*
X134581Y117973D01*
X134480Y117909D01*
X134452Y117879D01*
X134419Y117856D01*
X134343Y117764D01*
X134262Y117677D01*
X134242Y117642D01*
X134217Y117611D01*
X134166Y117503D01*
X134108Y117399D01*
X134098Y117359D01*
X134081Y117323D01*
X134059Y117206D01*
X134053Y117184D01*
X134041Y117168D01*
X134001Y117077D01*
X133953Y116991D01*
X133938Y116932D01*
X133914Y116876D01*
X133899Y116778D01*
X133874Y116683D01*
X133868Y116583D01*
X133864Y116562D01*
X133866Y116550D01*
X133864Y116522D01*
X133864Y115480D01*
X133876Y115381D01*
X133879Y115282D01*
X133896Y115224D01*
X133904Y115164D01*
X133940Y115072D01*
X133968Y114977D01*
X133998Y114925D01*
X134021Y114868D01*
X134079Y114788D01*
X134129Y114703D01*
X134195Y114628D01*
X134207Y114611D01*
X134217Y114603D01*
X134235Y114582D01*
X137828Y110989D01*
X137906Y110929D01*
X137979Y110861D01*
X138032Y110832D01*
X138079Y110795D01*
X138170Y110755D01*
X138257Y110707D01*
X138316Y110692D01*
X138371Y110668D01*
X138469Y110653D01*
X138565Y110628D01*
X138665Y110622D01*
X138685Y110618D01*
X138698Y110620D01*
X138726Y110618D01*
X146066Y110618D01*
X156385Y100299D01*
X156385Y46855D01*
X156397Y46757D01*
X156400Y46658D01*
X156417Y46600D01*
X156425Y46540D01*
X156461Y46448D01*
X156489Y46353D01*
X156519Y46300D01*
X156542Y46244D01*
X156600Y46164D01*
X156650Y46079D01*
X156716Y46003D01*
X156728Y45987D01*
X156738Y45979D01*
X156756Y45958D01*
X168306Y34408D01*
X168384Y34348D01*
X168456Y34280D01*
X168509Y34251D01*
X168557Y34214D01*
X168648Y34174D01*
X168735Y34126D01*
X168793Y34111D01*
X168849Y34087D01*
X168947Y34072D01*
X169043Y34047D01*
X169143Y34041D01*
X169163Y34037D01*
X169175Y34039D01*
X169203Y34037D01*
X187971Y34037D01*
X197393Y24615D01*
X197416Y24597D01*
X197435Y24574D01*
X197541Y24500D01*
X197644Y24420D01*
X197671Y24408D01*
X197695Y24391D01*
X197817Y24345D01*
X197936Y24294D01*
X197965Y24289D01*
X197993Y24278D01*
X198122Y24264D01*
X198250Y24244D01*
X198279Y24247D01*
X198309Y24243D01*
X198437Y24261D01*
X198567Y24274D01*
X198594Y24284D01*
X198624Y24288D01*
X198776Y24340D01*
X200724Y25147D01*
X205676Y25147D01*
X210250Y23252D01*
X213752Y19750D01*
X215647Y15176D01*
X215647Y10224D01*
X213822Y5820D01*
X213809Y5772D01*
X213788Y5727D01*
X213767Y5619D01*
X213738Y5513D01*
X213738Y5463D01*
X213728Y5414D01*
X213735Y5305D01*
X213733Y5195D01*
X213745Y5147D01*
X213748Y5097D01*
X213782Y4993D01*
X213807Y4886D01*
X213831Y4842D01*
X213846Y4795D01*
X213905Y4702D01*
X213956Y4605D01*
X213990Y4568D01*
X214016Y4526D01*
X214096Y4451D01*
X214170Y4369D01*
X214212Y4342D01*
X214248Y4308D01*
X214344Y4255D01*
X214436Y4195D01*
X214483Y4178D01*
X214526Y4154D01*
X214633Y4127D01*
X214737Y4091D01*
X214786Y4087D01*
X214834Y4075D01*
X214995Y4065D01*
X248666Y4065D01*
X248784Y4080D01*
X248903Y4087D01*
X248941Y4100D01*
X248982Y4105D01*
X249092Y4148D01*
X249205Y4185D01*
X249240Y4207D01*
X249277Y4222D01*
X249373Y4291D01*
X249474Y4355D01*
X249502Y4385D01*
X249535Y4408D01*
X249611Y4500D01*
X249692Y4587D01*
X249712Y4622D01*
X249737Y4653D01*
X249788Y4761D01*
X249846Y4865D01*
X249856Y4905D01*
X249873Y4941D01*
X249895Y5058D01*
X249925Y5173D01*
X249929Y5233D01*
X249933Y5253D01*
X249931Y5274D01*
X249935Y5334D01*
X249935Y88682D01*
X249920Y88800D01*
X249913Y88919D01*
X249900Y88957D01*
X249895Y88998D01*
X249852Y89108D01*
X249815Y89221D01*
X249793Y89256D01*
X249778Y89293D01*
X249709Y89389D01*
X249645Y89490D01*
X249615Y89518D01*
X249592Y89551D01*
X249500Y89627D01*
X249413Y89708D01*
X249378Y89728D01*
X249347Y89753D01*
X249239Y89804D01*
X249135Y89862D01*
X249095Y89872D01*
X249059Y89889D01*
X248942Y89911D01*
X248827Y89941D01*
X248767Y89945D01*
X248747Y89949D01*
X248726Y89947D01*
X248666Y89951D01*
X228968Y89951D01*
X226901Y92018D01*
X226901Y105982D01*
X228968Y108049D01*
X248666Y108049D01*
X248784Y108064D01*
X248903Y108071D01*
X248941Y108084D01*
X248982Y108089D01*
X249092Y108132D01*
X249205Y108169D01*
X249240Y108191D01*
X249277Y108206D01*
X249373Y108275D01*
X249474Y108339D01*
X249502Y108369D01*
X249535Y108392D01*
X249611Y108484D01*
X249692Y108571D01*
X249712Y108606D01*
X249737Y108637D01*
X249788Y108745D01*
X249846Y108849D01*
X249856Y108889D01*
X249873Y108925D01*
X249895Y109042D01*
X249925Y109157D01*
X249929Y109217D01*
X249933Y109237D01*
X249931Y109258D01*
X249935Y109318D01*
X249935Y144682D01*
X249920Y144800D01*
X249913Y144919D01*
X249900Y144957D01*
X249895Y144998D01*
X249852Y145108D01*
X249815Y145221D01*
X249793Y145256D01*
X249778Y145293D01*
X249709Y145389D01*
X249645Y145490D01*
X249615Y145518D01*
X249592Y145551D01*
X249500Y145627D01*
X249413Y145708D01*
X249378Y145728D01*
X249347Y145753D01*
X249239Y145804D01*
X249135Y145862D01*
X249095Y145872D01*
X249059Y145889D01*
X248942Y145911D01*
X248827Y145941D01*
X248767Y145945D01*
X248747Y145949D01*
X248726Y145947D01*
X248666Y145951D01*
X228968Y145951D01*
X226901Y148018D01*
X226901Y161982D01*
X227308Y162388D01*
X227381Y162482D01*
X227460Y162572D01*
X227478Y162608D01*
X227503Y162640D01*
X227550Y162749D01*
X227604Y162855D01*
X227613Y162894D01*
X227629Y162931D01*
X227648Y163049D01*
X227674Y163165D01*
X227673Y163206D01*
X227679Y163246D01*
X227668Y163364D01*
X227664Y163483D01*
X227653Y163522D01*
X227649Y163562D01*
X227609Y163674D01*
X227576Y163789D01*
X227555Y163823D01*
X227542Y163861D01*
X227475Y163960D01*
X227414Y164063D01*
X227375Y164108D01*
X227363Y164125D01*
X227348Y164138D01*
X227308Y164183D01*
X226598Y164893D01*
X226518Y164955D01*
X226453Y165016D01*
X226437Y165025D01*
X226415Y165045D01*
X226379Y165063D01*
X226347Y165088D01*
X226238Y165135D01*
X226232Y165138D01*
X226175Y165170D01*
X226166Y165172D01*
X226132Y165189D01*
X226092Y165198D01*
X226055Y165214D01*
X225937Y165233D01*
X225878Y165246D01*
X225867Y165249D01*
X225864Y165249D01*
X225821Y165259D01*
X225781Y165258D01*
X225741Y165264D01*
X225622Y165253D01*
X225504Y165249D01*
X225465Y165238D01*
X225424Y165234D01*
X225385Y165220D01*
X225380Y165220D01*
X225345Y165206D01*
X225312Y165194D01*
X225198Y165161D01*
X225163Y165140D01*
X225125Y165127D01*
X225097Y165108D01*
X225084Y165103D01*
X225020Y165056D01*
X224924Y164999D01*
X224879Y164960D01*
X224862Y164948D01*
X224849Y164933D01*
X224839Y164925D01*
X224827Y164916D01*
X224821Y164909D01*
X224803Y164893D01*
X224427Y164517D01*
X223734Y164116D01*
X222960Y163909D01*
X220059Y163909D01*
X220059Y170220D01*
X220044Y170338D01*
X220037Y170457D01*
X220024Y170495D01*
X220019Y170535D01*
X219976Y170646D01*
X219939Y170759D01*
X219917Y170793D01*
X219902Y170831D01*
X219833Y170927D01*
X219769Y171028D01*
X219739Y171056D01*
X219716Y171088D01*
X219624Y171164D01*
X219537Y171246D01*
X219502Y171265D01*
X219471Y171291D01*
X219363Y171342D01*
X219259Y171399D01*
X219219Y171409D01*
X219183Y171427D01*
X219066Y171449D01*
X218951Y171479D01*
X218891Y171483D01*
X218871Y171486D01*
X218850Y171485D01*
X218790Y171489D01*
X217599Y171489D01*
X217599Y172680D01*
X217584Y172798D01*
X217577Y172917D01*
X217564Y172955D01*
X217559Y172996D01*
X217515Y173106D01*
X217479Y173219D01*
X217457Y173254D01*
X217442Y173291D01*
X217372Y173387D01*
X217309Y173488D01*
X217279Y173516D01*
X217255Y173549D01*
X217164Y173625D01*
X217077Y173706D01*
X217042Y173726D01*
X217010Y173751D01*
X216903Y173802D01*
X216798Y173860D01*
X216759Y173870D01*
X216723Y173887D01*
X216606Y173909D01*
X216490Y173939D01*
X216430Y173943D01*
X216410Y173947D01*
X216390Y173945D01*
X216330Y173949D01*
X209519Y173949D01*
X209519Y176350D01*
X209745Y177192D01*
X209758Y177217D01*
X209768Y177263D01*
X209786Y177306D01*
X209803Y177418D01*
X209827Y177528D01*
X209826Y177575D01*
X209833Y177621D01*
X209821Y177733D01*
X209818Y177846D01*
X209805Y177891D01*
X209800Y177937D01*
X209761Y178043D01*
X209729Y178151D01*
X209705Y178191D01*
X209689Y178235D01*
X209625Y178328D01*
X209568Y178425D01*
X209520Y178479D01*
X209508Y178497D01*
X209494Y178509D01*
X209461Y178546D01*
X209186Y178821D01*
X209092Y178894D01*
X209003Y178973D01*
X208967Y178991D01*
X208935Y179016D01*
X208825Y179063D01*
X208720Y179117D01*
X208680Y179126D01*
X208643Y179142D01*
X208525Y179161D01*
X208409Y179187D01*
X208369Y179186D01*
X208329Y179192D01*
X208210Y179181D01*
X208091Y179177D01*
X208053Y179166D01*
X208012Y179162D01*
X207900Y179122D01*
X207786Y179089D01*
X207751Y179068D01*
X207713Y179055D01*
X207615Y178988D01*
X207512Y178927D01*
X207467Y178888D01*
X207450Y178876D01*
X207436Y178861D01*
X207391Y178821D01*
X207013Y178443D01*
X204539Y177418D01*
X201861Y177418D01*
X199387Y178443D01*
X197493Y180337D01*
X196468Y182811D01*
X196468Y185489D01*
X197493Y187963D01*
X199387Y189857D01*
X201861Y190882D01*
X204539Y190882D01*
X207013Y189857D01*
X207391Y189479D01*
X207485Y189406D01*
X207574Y189327D01*
X207610Y189309D01*
X207642Y189284D01*
X207752Y189237D01*
X207858Y189183D01*
X207897Y189174D01*
X207934Y189158D01*
X208052Y189139D01*
X208168Y189113D01*
X208208Y189114D01*
X208248Y189108D01*
X208367Y189119D01*
X208486Y189123D01*
X208525Y189134D01*
X208565Y189138D01*
X208677Y189178D01*
X208791Y189211D01*
X208826Y189232D01*
X208864Y189245D01*
X208963Y189312D01*
X209065Y189373D01*
X209111Y189412D01*
X209127Y189424D01*
X209141Y189439D01*
X209186Y189479D01*
X211906Y192199D01*
X222674Y192199D01*
X225163Y189710D01*
X225254Y189639D01*
X225276Y189618D01*
X225281Y189616D01*
X225346Y189559D01*
X225382Y189540D01*
X225414Y189515D01*
X225523Y189468D01*
X225629Y189414D01*
X225668Y189405D01*
X225706Y189389D01*
X225823Y189370D01*
X225939Y189344D01*
X225980Y189346D01*
X226020Y189339D01*
X226138Y189350D01*
X226257Y189354D01*
X226296Y189365D01*
X226336Y189369D01*
X226448Y189409D01*
X226563Y189442D01*
X226598Y189463D01*
X226636Y189477D01*
X226734Y189544D01*
X226837Y189604D01*
X226882Y189644D01*
X226899Y189655D01*
X226912Y189671D01*
X226958Y189710D01*
X229446Y192199D01*
X240214Y192199D01*
X242879Y189534D01*
X242879Y178447D01*
X242878Y178445D01*
X242852Y178328D01*
X242853Y178288D01*
X242847Y178249D01*
X242858Y178130D01*
X242862Y178011D01*
X242873Y177972D01*
X242877Y177932D01*
X242917Y177820D01*
X242950Y177705D01*
X242971Y177671D01*
X242984Y177633D01*
X243051Y177534D01*
X243109Y177437D01*
X243109Y165318D01*
X243124Y165200D01*
X243131Y165081D01*
X243144Y165043D01*
X243149Y165002D01*
X243192Y164892D01*
X243229Y164779D01*
X243251Y164744D01*
X243266Y164707D01*
X243335Y164611D01*
X243399Y164510D01*
X243429Y164482D01*
X243452Y164449D01*
X243544Y164373D01*
X243631Y164292D01*
X243666Y164272D01*
X243697Y164247D01*
X243805Y164196D01*
X243909Y164138D01*
X243949Y164128D01*
X243985Y164111D01*
X244102Y164089D01*
X244217Y164059D01*
X244277Y164055D01*
X244297Y164051D01*
X244318Y164053D01*
X244378Y164049D01*
X248666Y164049D01*
X248784Y164064D01*
X248903Y164071D01*
X248941Y164084D01*
X248982Y164089D01*
X249092Y164132D01*
X249205Y164169D01*
X249240Y164191D01*
X249277Y164206D01*
X249373Y164275D01*
X249474Y164339D01*
X249502Y164369D01*
X249535Y164392D01*
X249611Y164484D01*
X249692Y164571D01*
X249712Y164606D01*
X249737Y164637D01*
X249788Y164745D01*
X249846Y164849D01*
X249856Y164889D01*
X249873Y164925D01*
X249895Y165042D01*
X249925Y165157D01*
X249929Y165217D01*
X249933Y165237D01*
X249931Y165258D01*
X249935Y165318D01*
X249935Y215603D01*
X249917Y215748D01*
X249902Y215893D01*
X249897Y215906D01*
X249895Y215919D01*
X249842Y216054D01*
X249791Y216191D01*
X249783Y216202D01*
X249778Y216215D01*
X249693Y216332D01*
X249610Y216452D01*
X249599Y216461D01*
X249592Y216472D01*
X249480Y216565D01*
X249369Y216660D01*
X249357Y216666D01*
X249347Y216675D01*
X249215Y216737D01*
X249084Y216802D01*
X249071Y216805D01*
X249059Y216810D01*
X248917Y216838D01*
X248773Y216868D01*
X248760Y216868D01*
X248747Y216870D01*
X248602Y216861D01*
X248456Y216855D01*
X248442Y216851D01*
X248429Y216850D01*
X248291Y216806D01*
X248151Y216763D01*
X248139Y216756D01*
X248127Y216752D01*
X248004Y216675D01*
X247879Y216599D01*
X247869Y216589D01*
X247858Y216582D01*
X247758Y216476D01*
X247656Y216372D01*
X247646Y216357D01*
X247640Y216351D01*
X247632Y216336D01*
X247567Y216238D01*
X246185Y213845D01*
X240078Y208720D01*
X232586Y205993D01*
X224614Y205993D01*
X217122Y208720D01*
X212375Y212704D01*
X212246Y212787D01*
X212118Y212871D01*
X212112Y212873D01*
X212107Y212876D01*
X211962Y212924D01*
X211817Y212974D01*
X211811Y212974D01*
X211806Y212976D01*
X211652Y212987D01*
X211500Y212999D01*
X211494Y212998D01*
X211489Y212999D01*
X211339Y212971D01*
X211187Y212945D01*
X211181Y212942D01*
X211176Y212941D01*
X211037Y212877D01*
X210897Y212814D01*
X210892Y212810D01*
X210887Y212808D01*
X210769Y212712D01*
X210648Y212616D01*
X210645Y212611D01*
X210640Y212607D01*
X210550Y212485D01*
X210457Y212361D01*
X210454Y212354D01*
X210451Y212351D01*
X210448Y212342D01*
X210386Y212217D01*
X210023Y211341D01*
X207759Y209077D01*
X204801Y207851D01*
X201599Y207851D01*
X198641Y209077D01*
X196377Y211341D01*
X195151Y214299D01*
X195151Y217501D01*
X196377Y220459D01*
X198641Y222723D01*
X201599Y223949D01*
X204952Y223949D01*
X205022Y223958D01*
X205093Y223957D01*
X205179Y223977D01*
X205268Y223989D01*
X205333Y224015D01*
X205402Y224031D01*
X205481Y224073D01*
X205563Y224106D01*
X205620Y224147D01*
X205683Y224180D01*
X205749Y224240D01*
X205821Y224292D01*
X205866Y224347D01*
X205918Y224394D01*
X205967Y224469D01*
X206023Y224537D01*
X206054Y224601D01*
X206092Y224660D01*
X206121Y224745D01*
X206159Y224825D01*
X206172Y224894D01*
X206195Y224961D01*
X206202Y225050D01*
X206219Y225137D01*
X206214Y225208D01*
X206220Y225278D01*
X206202Y225438D01*
X205645Y228600D01*
X207029Y236451D01*
X211015Y243355D01*
X216185Y247694D01*
X216209Y247720D01*
X216238Y247740D01*
X216317Y247836D01*
X216401Y247927D01*
X216418Y247958D01*
X216441Y247985D01*
X216494Y248098D01*
X216553Y248207D01*
X216561Y248241D01*
X216576Y248273D01*
X216599Y248395D01*
X216630Y248515D01*
X216629Y248551D01*
X216636Y248586D01*
X216628Y248709D01*
X216627Y248833D01*
X216618Y248868D01*
X216616Y248903D01*
X216578Y249021D01*
X216546Y249141D01*
X216529Y249172D01*
X216518Y249205D01*
X216452Y249310D01*
X216391Y249419D01*
X216367Y249444D01*
X216348Y249474D01*
X216258Y249559D01*
X216172Y249649D01*
X216142Y249668D01*
X216116Y249692D01*
X216008Y249752D01*
X215903Y249818D01*
X215869Y249829D01*
X215838Y249846D01*
X215718Y249877D01*
X215600Y249914D01*
X215564Y249916D01*
X215530Y249925D01*
X215369Y249935D01*
X38631Y249935D01*
X38595Y249931D01*
X38560Y249933D01*
X38438Y249911D01*
X38315Y249895D01*
X38282Y249882D01*
X38247Y249876D01*
X38135Y249824D01*
X38019Y249778D01*
X37991Y249758D01*
X37959Y249743D01*
X37862Y249664D01*
X37762Y249592D01*
X37739Y249564D01*
X37712Y249542D01*
X37639Y249442D01*
X37559Y249347D01*
X37544Y249315D01*
X37523Y249286D01*
X37477Y249171D01*
X37424Y249059D01*
X37417Y249024D01*
X37404Y248991D01*
X37387Y248868D01*
X37364Y248747D01*
X37366Y248711D01*
X37361Y248676D01*
X37376Y248553D01*
X37384Y248429D01*
X37395Y248395D01*
X37399Y248360D01*
X37444Y248244D01*
X37482Y248127D01*
X37501Y248097D01*
X37513Y248064D01*
X37586Y247963D01*
X37652Y247858D01*
X37678Y247834D01*
X37698Y247805D01*
X37815Y247694D01*
X42985Y243356D01*
X46971Y236451D01*
X48355Y228600D01*
X46971Y220749D01*
X42985Y213845D01*
X36878Y208720D01*
X29386Y205993D01*
X21414Y205993D01*
X13922Y208720D01*
X7815Y213844D01*
X6433Y216238D01*
X6345Y216354D01*
X6260Y216472D01*
X6249Y216481D01*
X6241Y216491D01*
X6127Y216582D01*
X6015Y216675D01*
X6002Y216681D01*
X5992Y216689D01*
X5858Y216749D01*
X5727Y216810D01*
X5714Y216813D01*
X5701Y216818D01*
X5557Y216843D01*
X5414Y216870D01*
X5401Y216869D01*
X5388Y216872D01*
X5242Y216859D01*
X5097Y216850D01*
X5084Y216846D01*
X5071Y216845D01*
X4933Y216797D01*
X4795Y216752D01*
X4783Y216745D01*
X4770Y216741D01*
X4649Y216660D01*
X4526Y216582D01*
X4517Y216572D01*
X4505Y216565D01*
X4408Y216457D01*
X4308Y216351D01*
X4301Y216339D01*
X4292Y216329D01*
X4225Y216199D01*
X4154Y216072D01*
X4151Y216059D01*
X4145Y216047D01*
X4111Y215905D01*
X4075Y215764D01*
X4074Y215746D01*
X4072Y215737D01*
X4072Y215720D01*
X4065Y215603D01*
X4065Y165318D01*
X4080Y165200D01*
X4087Y165081D01*
X4100Y165043D01*
X4105Y165002D01*
X4148Y164892D01*
X4185Y164779D01*
X4207Y164744D01*
X4222Y164707D01*
X4291Y164611D01*
X4355Y164510D01*
X4385Y164482D01*
X4408Y164449D01*
X4500Y164373D01*
X4587Y164292D01*
X4622Y164272D01*
X4653Y164247D01*
X4761Y164196D01*
X4865Y164138D01*
X4905Y164128D01*
X4941Y164111D01*
X5058Y164089D01*
X5173Y164059D01*
X5233Y164055D01*
X5253Y164051D01*
X5274Y164053D01*
X5334Y164049D01*
X25032Y164049D01*
X27099Y161982D01*
X27099Y148018D01*
X25032Y145951D01*
X5334Y145951D01*
X5216Y145936D01*
X5097Y145929D01*
X5059Y145916D01*
X5018Y145911D01*
X4908Y145868D01*
X4795Y145831D01*
X4760Y145809D01*
X4723Y145794D01*
X4627Y145725D01*
X4526Y145661D01*
X4498Y145631D01*
X4465Y145608D01*
X4389Y145516D01*
X4308Y145429D01*
X4288Y145394D01*
X4263Y145363D01*
X4212Y145255D01*
X4154Y145151D01*
X4144Y145111D01*
X4127Y145075D01*
X4105Y144958D01*
X4075Y144843D01*
X4071Y144783D01*
X4067Y144763D01*
X4069Y144742D01*
X4065Y144682D01*
X4065Y109318D01*
X4080Y109200D01*
X4087Y109081D01*
X4100Y109043D01*
X4105Y109002D01*
X4148Y108892D01*
X4185Y108779D01*
X4207Y108744D01*
X4222Y108707D01*
X4291Y108611D01*
X4355Y108510D01*
X4385Y108482D01*
X4408Y108449D01*
X4500Y108373D01*
X4587Y108292D01*
X4622Y108272D01*
X4653Y108247D01*
X4761Y108196D01*
X4865Y108138D01*
X4905Y108128D01*
X4941Y108111D01*
X5058Y108089D01*
X5173Y108059D01*
X5233Y108055D01*
X5253Y108051D01*
X5274Y108053D01*
X5334Y108049D01*
X25032Y108049D01*
X27099Y105982D01*
X27099Y92018D01*
X25032Y89951D01*
X5334Y89951D01*
X5216Y89936D01*
X5097Y89929D01*
X5059Y89916D01*
X5018Y89911D01*
X4908Y89868D01*
X4795Y89831D01*
X4760Y89809D01*
X4723Y89794D01*
X4627Y89725D01*
X4526Y89661D01*
X4498Y89631D01*
X4465Y89608D01*
X4389Y89516D01*
X4308Y89429D01*
X4288Y89394D01*
X4263Y89363D01*
X4212Y89255D01*
X4154Y89151D01*
X4144Y89111D01*
X4127Y89075D01*
X4105Y88958D01*
X4075Y88843D01*
X4071Y88783D01*
X4067Y88763D01*
X4069Y88742D01*
X4065Y88682D01*
X4065Y18512D01*
X4082Y18374D01*
X4095Y18235D01*
X4102Y18216D01*
X4105Y18196D01*
X4156Y18067D01*
X4203Y17936D01*
X4214Y17919D01*
X4222Y17900D01*
X4303Y17788D01*
X4381Y17673D01*
X4397Y17659D01*
X4408Y17643D01*
X4516Y17554D01*
X4620Y17462D01*
X4638Y17453D01*
X4653Y17440D01*
X4779Y17381D01*
X4903Y17318D01*
X4923Y17313D01*
X4941Y17305D01*
X5077Y17279D01*
X5213Y17248D01*
X5234Y17249D01*
X5253Y17245D01*
X5392Y17254D01*
X5531Y17258D01*
X5551Y17263D01*
X5571Y17265D01*
X5703Y17307D01*
X5837Y17346D01*
X5854Y17356D01*
X5873Y17363D01*
X5991Y17437D01*
X6111Y17508D01*
X6132Y17526D01*
X6142Y17533D01*
X6156Y17548D01*
X6231Y17614D01*
X8141Y19523D01*
X11099Y20749D01*
X14301Y20749D01*
X17259Y19523D01*
X19523Y17259D01*
X20749Y14301D01*
X20749Y11099D01*
X19523Y8141D01*
X17614Y6231D01*
X17529Y6122D01*
X17440Y6015D01*
X17432Y5996D01*
X17419Y5980D01*
X17364Y5852D01*
X17305Y5727D01*
X17301Y5707D01*
X17293Y5688D01*
X17271Y5550D01*
X17245Y5414D01*
X17246Y5394D01*
X17243Y5374D01*
X17256Y5235D01*
X17265Y5097D01*
X17271Y5078D01*
X17273Y5058D01*
X17320Y4926D01*
X17363Y4795D01*
X17374Y4777D01*
X17380Y4758D01*
X17458Y4643D01*
X17533Y4526D01*
X17548Y4512D01*
X17559Y4495D01*
X17663Y4403D01*
X17764Y4308D01*
X17782Y4298D01*
X17797Y4285D01*
X17922Y4221D01*
X18043Y4154D01*
X18063Y4149D01*
X18081Y4140D01*
X18216Y4110D01*
X18351Y4075D01*
X18379Y4073D01*
X18391Y4070D01*
X18411Y4071D01*
X18512Y4065D01*
X39826Y4065D01*
X39865Y4070D01*
G37*
%LPC*%
G36*
X146049Y158146D02*
X146049Y158146D01*
X146005Y158256D01*
X145969Y158369D01*
X145947Y158404D01*
X145932Y158441D01*
X145862Y158537D01*
X145799Y158638D01*
X145769Y158666D01*
X145745Y158699D01*
X145654Y158775D01*
X145567Y158856D01*
X145532Y158876D01*
X145500Y158901D01*
X145393Y158952D01*
X145288Y159010D01*
X145249Y159020D01*
X145213Y159037D01*
X145096Y159059D01*
X144980Y159089D01*
X144920Y159093D01*
X144900Y159097D01*
X144880Y159095D01*
X144820Y159099D01*
X138509Y159099D01*
X138509Y162000D01*
X138716Y162774D01*
X139117Y163467D01*
X139493Y163843D01*
X139566Y163937D01*
X139645Y164027D01*
X139663Y164063D01*
X139688Y164095D01*
X139735Y164204D01*
X139789Y164310D01*
X139798Y164349D01*
X139814Y164386D01*
X139833Y164504D01*
X139859Y164620D01*
X139858Y164660D01*
X139864Y164700D01*
X139853Y164819D01*
X139849Y164938D01*
X139838Y164977D01*
X139834Y165017D01*
X139794Y165129D01*
X139761Y165244D01*
X139740Y165278D01*
X139727Y165316D01*
X139660Y165415D01*
X139599Y165517D01*
X139560Y165563D01*
X139548Y165580D01*
X139533Y165593D01*
X139493Y165638D01*
X138001Y167130D01*
X138001Y180070D01*
X140080Y182149D01*
X140462Y182149D01*
X140580Y182164D01*
X140699Y182171D01*
X140737Y182184D01*
X140778Y182189D01*
X140888Y182232D01*
X141001Y182269D01*
X141036Y182291D01*
X141073Y182306D01*
X141169Y182375D01*
X141270Y182439D01*
X141298Y182469D01*
X141331Y182492D01*
X141407Y182584D01*
X141488Y182671D01*
X141508Y182706D01*
X141533Y182737D01*
X141584Y182845D01*
X141642Y182949D01*
X141652Y182989D01*
X141669Y183025D01*
X141691Y183142D01*
X141721Y183257D01*
X141725Y183317D01*
X141729Y183337D01*
X141727Y183358D01*
X141731Y183418D01*
X141731Y184773D01*
X141719Y184871D01*
X141716Y184970D01*
X141699Y185028D01*
X141691Y185088D01*
X141655Y185180D01*
X141627Y185276D01*
X141597Y185328D01*
X141574Y185384D01*
X141516Y185464D01*
X141466Y185550D01*
X141400Y185625D01*
X141388Y185641D01*
X141378Y185649D01*
X141360Y185670D01*
X140343Y186687D01*
X139318Y189161D01*
X139318Y191839D01*
X140343Y194313D01*
X142237Y196207D01*
X144711Y197232D01*
X147389Y197232D01*
X149863Y196207D01*
X151757Y194313D01*
X152782Y191839D01*
X152782Y189161D01*
X151757Y186687D01*
X150740Y185670D01*
X150680Y185592D01*
X150612Y185520D01*
X150583Y185467D01*
X150546Y185419D01*
X150506Y185328D01*
X150458Y185241D01*
X150443Y185183D01*
X150419Y185127D01*
X150404Y185029D01*
X150379Y184934D01*
X150373Y184834D01*
X150369Y184813D01*
X150371Y184801D01*
X150369Y184773D01*
X150369Y183418D01*
X150384Y183300D01*
X150391Y183181D01*
X150404Y183143D01*
X150409Y183102D01*
X150452Y182992D01*
X150489Y182879D01*
X150511Y182844D01*
X150526Y182807D01*
X150595Y182711D01*
X150659Y182610D01*
X150689Y182582D01*
X150712Y182549D01*
X150804Y182473D01*
X150891Y182392D01*
X150926Y182372D01*
X150957Y182347D01*
X151065Y182296D01*
X151169Y182238D01*
X151209Y182228D01*
X151245Y182211D01*
X151362Y182189D01*
X151477Y182159D01*
X151537Y182155D01*
X151557Y182151D01*
X151578Y182153D01*
X151638Y182149D01*
X152020Y182149D01*
X154099Y180070D01*
X154099Y167130D01*
X152607Y165638D01*
X152534Y165544D01*
X152455Y165455D01*
X152437Y165419D01*
X152412Y165387D01*
X152365Y165278D01*
X152311Y165172D01*
X152302Y165132D01*
X152286Y165095D01*
X152267Y164977D01*
X152241Y164861D01*
X152242Y164821D01*
X152236Y164781D01*
X152247Y164662D01*
X152251Y164544D01*
X152262Y164505D01*
X152266Y164464D01*
X152306Y164352D01*
X152339Y164238D01*
X152360Y164203D01*
X152373Y164165D01*
X152440Y164067D01*
X152501Y163964D01*
X152540Y163919D01*
X152552Y163902D01*
X152567Y163889D01*
X152607Y163843D01*
X152983Y163467D01*
X153384Y162774D01*
X153591Y162000D01*
X153591Y159099D01*
X147280Y159099D01*
X147162Y159084D01*
X147043Y159077D01*
X147005Y159064D01*
X146965Y159059D01*
X146854Y159016D01*
X146741Y158979D01*
X146707Y158957D01*
X146669Y158942D01*
X146573Y158873D01*
X146472Y158809D01*
X146444Y158779D01*
X146412Y158756D01*
X146336Y158664D01*
X146254Y158577D01*
X146235Y158542D01*
X146209Y158511D01*
X146158Y158403D01*
X146101Y158299D01*
X146091Y158259D01*
X146073Y158223D01*
X146053Y158116D01*
X146049Y158146D01*
G37*
%LPD*%
G36*
X139779Y16617D02*
X139779Y16617D01*
X139799Y16616D01*
X139935Y16644D01*
X140072Y16668D01*
X140091Y16676D01*
X140110Y16680D01*
X140235Y16741D01*
X140362Y16798D01*
X140378Y16811D01*
X140396Y16820D01*
X140502Y16910D01*
X140610Y16997D01*
X140623Y17013D01*
X140638Y17026D01*
X140718Y17140D01*
X140802Y17251D01*
X140814Y17276D01*
X140821Y17286D01*
X140828Y17305D01*
X140873Y17395D01*
X141848Y19750D01*
X145350Y23252D01*
X149924Y25147D01*
X154876Y25147D01*
X156440Y24499D01*
X156508Y24480D01*
X156572Y24453D01*
X156661Y24438D01*
X156747Y24415D01*
X156817Y24414D01*
X156886Y24403D01*
X156975Y24411D01*
X157065Y24410D01*
X157133Y24426D01*
X157202Y24432D01*
X157287Y24463D01*
X157374Y24484D01*
X157436Y24516D01*
X157502Y24540D01*
X157576Y24591D01*
X157655Y24633D01*
X157707Y24679D01*
X157765Y24719D01*
X157824Y24786D01*
X157891Y24846D01*
X157929Y24905D01*
X157975Y24957D01*
X158016Y25037D01*
X158066Y25112D01*
X158088Y25178D01*
X158120Y25240D01*
X158140Y25328D01*
X158169Y25413D01*
X158174Y25483D01*
X158190Y25551D01*
X158187Y25640D01*
X158194Y25730D01*
X158182Y25799D01*
X158180Y25869D01*
X158155Y25955D01*
X158140Y26043D01*
X158111Y26107D01*
X158092Y26174D01*
X158046Y26251D01*
X158009Y26333D01*
X157966Y26388D01*
X157930Y26448D01*
X157824Y26569D01*
X146331Y38062D01*
X143429Y40963D01*
X143429Y46969D01*
X143423Y47018D01*
X143425Y47068D01*
X143403Y47175D01*
X143389Y47284D01*
X143371Y47331D01*
X143361Y47379D01*
X143313Y47478D01*
X143272Y47580D01*
X143243Y47620D01*
X143221Y47665D01*
X143150Y47748D01*
X143086Y47837D01*
X143047Y47869D01*
X143015Y47907D01*
X142925Y47970D01*
X142841Y48040D01*
X142796Y48061D01*
X142755Y48090D01*
X142652Y48129D01*
X142553Y48176D01*
X142504Y48185D01*
X142458Y48203D01*
X142348Y48215D01*
X142241Y48235D01*
X142191Y48232D01*
X142142Y48238D01*
X142033Y48223D01*
X141923Y48216D01*
X141876Y48200D01*
X141827Y48193D01*
X141674Y48141D01*
X141039Y47878D01*
X139212Y47878D01*
X139113Y47866D01*
X139014Y47863D01*
X138956Y47846D01*
X138896Y47838D01*
X138804Y47802D01*
X138709Y47774D01*
X138657Y47744D01*
X138600Y47721D01*
X138520Y47663D01*
X138435Y47613D01*
X138360Y47547D01*
X138343Y47535D01*
X138335Y47525D01*
X138314Y47507D01*
X131690Y40883D01*
X131630Y40805D01*
X131562Y40732D01*
X131533Y40679D01*
X131496Y40632D01*
X131456Y40541D01*
X131408Y40454D01*
X131393Y40395D01*
X131369Y40340D01*
X131354Y40242D01*
X131329Y40146D01*
X131323Y40046D01*
X131319Y40026D01*
X131321Y40013D01*
X131319Y39985D01*
X131319Y25231D01*
X131322Y25202D01*
X131320Y25173D01*
X131342Y25045D01*
X131359Y24916D01*
X131369Y24889D01*
X131374Y24859D01*
X131428Y24741D01*
X131476Y24620D01*
X131493Y24596D01*
X131505Y24569D01*
X131586Y24468D01*
X131662Y24363D01*
X131685Y24344D01*
X131704Y24321D01*
X131807Y24243D01*
X131907Y24160D01*
X131934Y24147D01*
X131958Y24130D01*
X132102Y24059D01*
X134050Y23252D01*
X137552Y19751D01*
X138527Y17395D01*
X138596Y17274D01*
X138661Y17152D01*
X138675Y17137D01*
X138685Y17119D01*
X138782Y17019D01*
X138875Y16916D01*
X138892Y16905D01*
X138906Y16891D01*
X139024Y16818D01*
X139141Y16742D01*
X139160Y16735D01*
X139177Y16724D01*
X139310Y16684D01*
X139442Y16638D01*
X139462Y16637D01*
X139481Y16631D01*
X139620Y16624D01*
X139759Y16613D01*
X139779Y16617D01*
G37*
G36*
X113296Y133258D02*
X113296Y133258D01*
X113385Y133257D01*
X113453Y133273D01*
X113523Y133280D01*
X113607Y133310D01*
X113695Y133331D01*
X113756Y133364D01*
X113822Y133387D01*
X113896Y133438D01*
X113976Y133480D01*
X114028Y133527D01*
X114085Y133566D01*
X114145Y133633D01*
X114211Y133694D01*
X114250Y133752D01*
X114296Y133804D01*
X114337Y133884D01*
X114386Y133959D01*
X114409Y134025D01*
X114440Y134087D01*
X114460Y134175D01*
X114489Y134260D01*
X114495Y134330D01*
X114510Y134398D01*
X114507Y134487D01*
X114514Y134577D01*
X114502Y134646D01*
X114500Y134716D01*
X114475Y134802D01*
X114460Y134890D01*
X114431Y134954D01*
X114412Y135021D01*
X114366Y135098D01*
X114329Y135180D01*
X114286Y135235D01*
X114250Y135295D01*
X114144Y135416D01*
X112403Y137157D01*
X111378Y139631D01*
X111378Y142309D01*
X112403Y144783D01*
X113504Y145885D01*
X113589Y145994D01*
X113678Y146101D01*
X113687Y146120D01*
X113699Y146136D01*
X113755Y146263D01*
X113814Y146389D01*
X113818Y146409D01*
X113826Y146428D01*
X113848Y146566D01*
X113874Y146702D01*
X113872Y146722D01*
X113876Y146742D01*
X113862Y146881D01*
X113854Y147019D01*
X113848Y147038D01*
X113846Y147058D01*
X113799Y147190D01*
X113756Y147321D01*
X113745Y147339D01*
X113738Y147358D01*
X113660Y147473D01*
X113586Y147590D01*
X113571Y147604D01*
X113560Y147621D01*
X113455Y147713D01*
X113354Y147808D01*
X113336Y147818D01*
X113321Y147831D01*
X113197Y147895D01*
X113076Y147962D01*
X113056Y147967D01*
X113038Y147976D01*
X112902Y148006D01*
X112768Y148041D01*
X112740Y148043D01*
X112728Y148046D01*
X112707Y148045D01*
X112607Y148051D01*
X101978Y148051D01*
X101895Y148116D01*
X101805Y148195D01*
X101769Y148213D01*
X101737Y148238D01*
X101628Y148285D01*
X101522Y148339D01*
X101482Y148348D01*
X101445Y148364D01*
X101328Y148383D01*
X101212Y148409D01*
X101171Y148408D01*
X101131Y148414D01*
X101013Y148403D01*
X100894Y148399D01*
X100855Y148388D01*
X100815Y148384D01*
X100702Y148344D01*
X100588Y148311D01*
X100554Y148290D01*
X100515Y148277D01*
X100417Y148210D01*
X100314Y148149D01*
X100269Y148109D01*
X100252Y148098D01*
X100239Y148083D01*
X100194Y148043D01*
X92367Y140216D01*
X92282Y140107D01*
X92193Y140000D01*
X92185Y139981D01*
X92172Y139965D01*
X92117Y139837D01*
X92058Y139712D01*
X92054Y139692D01*
X92046Y139673D01*
X92024Y139535D01*
X91998Y139399D01*
X91999Y139379D01*
X91996Y139359D01*
X92009Y139220D01*
X92018Y139082D01*
X92024Y139063D01*
X92026Y139043D01*
X92073Y138911D01*
X92116Y138780D01*
X92127Y138762D01*
X92133Y138743D01*
X92211Y138628D01*
X92286Y138511D01*
X92301Y138497D01*
X92312Y138480D01*
X92416Y138388D01*
X92517Y138293D01*
X92535Y138283D01*
X92550Y138270D01*
X92675Y138206D01*
X92796Y138139D01*
X92816Y138134D01*
X92834Y138125D01*
X92969Y138095D01*
X93104Y138060D01*
X93132Y138058D01*
X93144Y138055D01*
X93164Y138056D01*
X93265Y138050D01*
X104907Y138050D01*
X108853Y134103D01*
X108932Y134043D01*
X109004Y133975D01*
X109057Y133946D01*
X109105Y133909D01*
X109196Y133869D01*
X109282Y133821D01*
X109341Y133806D01*
X109396Y133782D01*
X109494Y133767D01*
X109590Y133742D01*
X109690Y133736D01*
X109710Y133732D01*
X109723Y133734D01*
X109751Y133732D01*
X111829Y133732D01*
X112761Y133346D01*
X112828Y133327D01*
X112892Y133300D01*
X112981Y133286D01*
X113067Y133262D01*
X113137Y133261D01*
X113206Y133250D01*
X113296Y133258D01*
G37*
%LPC*%
G36*
X39115Y15239D02*
X39115Y15239D01*
X39155Y15496D01*
X39736Y17283D01*
X40589Y18957D01*
X41694Y20478D01*
X43022Y21806D01*
X44543Y22911D01*
X46217Y23764D01*
X48004Y24345D01*
X48261Y24385D01*
X48261Y15239D01*
X39115Y15239D01*
G37*
%LPD*%
%LPC*%
G36*
X52299Y143499D02*
X52299Y143499D01*
X52299Y147541D01*
X57442Y147541D01*
X58218Y147333D01*
X58913Y146931D01*
X59481Y146363D01*
X59883Y145668D01*
X60091Y144892D01*
X60091Y143499D01*
X52299Y143499D01*
G37*
%LPD*%
%LPC*%
G36*
X41509Y143499D02*
X41509Y143499D01*
X41509Y144892D01*
X41717Y145668D01*
X42119Y146363D01*
X42687Y146931D01*
X43382Y147333D01*
X44158Y147541D01*
X49301Y147541D01*
X49301Y143499D01*
X41509Y143499D01*
G37*
%LPD*%
%LPC*%
G36*
X204699Y110501D02*
X204699Y110501D01*
X212491Y110501D01*
X212491Y109108D01*
X212283Y108332D01*
X211881Y107637D01*
X211313Y107069D01*
X210618Y106667D01*
X209842Y106459D01*
X204699Y106459D01*
X204699Y110501D01*
G37*
%LPD*%
%LPC*%
G36*
X196558Y106459D02*
X196558Y106459D01*
X195782Y106667D01*
X195087Y107069D01*
X194519Y107637D01*
X194117Y108332D01*
X193909Y109108D01*
X193909Y110501D01*
X201701Y110501D01*
X201701Y106459D01*
X196558Y106459D01*
G37*
%LPD*%
%LPC*%
G36*
X129499Y176099D02*
X129499Y176099D01*
X129499Y181641D01*
X131900Y181641D01*
X132674Y181434D01*
X133367Y181033D01*
X133933Y180467D01*
X134334Y179774D01*
X134541Y179000D01*
X134541Y176099D01*
X129499Y176099D01*
G37*
%LPD*%
%LPC*%
G36*
X148549Y148559D02*
X148549Y148559D01*
X148549Y154101D01*
X153591Y154101D01*
X153591Y151200D01*
X153384Y150426D01*
X152983Y149733D01*
X152417Y149167D01*
X151724Y148766D01*
X150950Y148559D01*
X148549Y148559D01*
G37*
%LPD*%
%LPC*%
G36*
X119459Y176099D02*
X119459Y176099D01*
X119459Y179000D01*
X119666Y179774D01*
X120067Y180467D01*
X120633Y181033D01*
X121326Y181434D01*
X122100Y181641D01*
X124501Y181641D01*
X124501Y176099D01*
X119459Y176099D01*
G37*
%LPD*%
%LPC*%
G36*
X212160Y163909D02*
X212160Y163909D01*
X211386Y164116D01*
X210693Y164517D01*
X210127Y165083D01*
X209726Y165776D01*
X209519Y166550D01*
X209519Y168951D01*
X215061Y168951D01*
X215061Y163909D01*
X212160Y163909D01*
G37*
%LPD*%
D10*
X135532Y126253D02*
X133708Y126253D01*
X133708Y127927D01*
X135532Y127927D01*
X135532Y126253D01*
X135532Y127228D02*
X133708Y127228D01*
X133708Y131253D02*
X135532Y131253D01*
X133708Y131253D02*
X133708Y132927D01*
X135532Y132927D01*
X135532Y131253D01*
X135532Y132228D02*
X133708Y132228D01*
X133708Y121253D02*
X135532Y121253D01*
X133708Y121253D02*
X133708Y122927D01*
X135532Y122927D01*
X135532Y121253D01*
X135532Y122228D02*
X133708Y122228D01*
X120382Y126253D02*
X118558Y126253D01*
X118558Y127927D01*
X120382Y127927D01*
X120382Y126253D01*
X120382Y127228D02*
X118558Y127228D01*
X118558Y131253D02*
X120382Y131253D01*
X118558Y131253D02*
X118558Y132927D01*
X120382Y132927D01*
X120382Y131253D01*
X120382Y132228D02*
X118558Y132228D01*
X118558Y121253D02*
X120382Y121253D01*
X118558Y121253D02*
X118558Y122927D01*
X120382Y122927D01*
X120382Y121253D01*
X120382Y122228D02*
X118558Y122228D01*
X125457Y133828D02*
X125457Y135502D01*
X125457Y133828D02*
X123633Y133828D01*
X123633Y135502D01*
X125457Y135502D01*
X125457Y134803D02*
X123633Y134803D01*
X130457Y135502D02*
X130457Y133828D01*
X128633Y133828D01*
X128633Y135502D01*
X130457Y135502D01*
X130457Y134803D02*
X128633Y134803D01*
X125457Y120352D02*
X125457Y118678D01*
X123633Y118678D01*
X123633Y120352D01*
X125457Y120352D01*
X125457Y119653D02*
X123633Y119653D01*
X130457Y120352D02*
X130457Y118678D01*
X128633Y118678D01*
X128633Y120352D01*
X130457Y120352D01*
X130457Y119653D02*
X128633Y119653D01*
D11*
X4530Y149480D02*
X4530Y160520D01*
X23570Y160520D01*
X23570Y149480D01*
X4530Y149480D01*
X4530Y150392D02*
X23570Y150392D01*
X23570Y151304D02*
X4530Y151304D01*
X4530Y152216D02*
X23570Y152216D01*
X23570Y153128D02*
X4530Y153128D01*
X4530Y154040D02*
X23570Y154040D01*
X23570Y154952D02*
X4530Y154952D01*
X4530Y155864D02*
X23570Y155864D01*
X23570Y156776D02*
X4530Y156776D01*
X4530Y157688D02*
X23570Y157688D01*
X23570Y158600D02*
X4530Y158600D01*
X4530Y159512D02*
X23570Y159512D01*
X23570Y160424D02*
X4530Y160424D01*
X4530Y104520D02*
X4530Y93480D01*
X4530Y104520D02*
X23570Y104520D01*
X23570Y93480D01*
X4530Y93480D01*
X4530Y94392D02*
X23570Y94392D01*
X23570Y95304D02*
X4530Y95304D01*
X4530Y96216D02*
X23570Y96216D01*
X23570Y97128D02*
X4530Y97128D01*
X4530Y98040D02*
X23570Y98040D01*
X23570Y98952D02*
X4530Y98952D01*
X4530Y99864D02*
X23570Y99864D01*
X23570Y100776D02*
X4530Y100776D01*
X4530Y101688D02*
X23570Y101688D01*
X23570Y102600D02*
X4530Y102600D01*
X4530Y103512D02*
X23570Y103512D01*
X23570Y104424D02*
X4530Y104424D01*
D12*
X44560Y139510D02*
X44560Y144490D01*
X57040Y144490D01*
X57040Y139510D01*
X44560Y139510D01*
X44560Y140479D02*
X57040Y140479D01*
X57040Y141448D02*
X44560Y141448D01*
X44560Y142417D02*
X57040Y142417D01*
X57040Y143386D02*
X44560Y143386D01*
X44560Y144355D02*
X57040Y144355D01*
X44560Y134490D02*
X44560Y129510D01*
X44560Y134490D02*
X57040Y134490D01*
X57040Y129510D01*
X44560Y129510D01*
X44560Y130479D02*
X57040Y130479D01*
X57040Y131448D02*
X44560Y131448D01*
X44560Y132417D02*
X57040Y132417D01*
X57040Y133386D02*
X44560Y133386D01*
X44560Y134355D02*
X57040Y134355D01*
X44560Y124490D02*
X44560Y119510D01*
X44560Y124490D02*
X57040Y124490D01*
X57040Y119510D01*
X44560Y119510D01*
X44560Y120479D02*
X57040Y120479D01*
X57040Y121448D02*
X44560Y121448D01*
X44560Y122417D02*
X57040Y122417D01*
X57040Y123386D02*
X44560Y123386D01*
X44560Y124355D02*
X57040Y124355D01*
X44560Y114490D02*
X44560Y109510D01*
X44560Y114490D02*
X57040Y114490D01*
X57040Y109510D01*
X44560Y109510D01*
X44560Y110479D02*
X57040Y110479D01*
X57040Y111448D02*
X44560Y111448D01*
X44560Y112417D02*
X57040Y112417D01*
X57040Y113386D02*
X44560Y113386D01*
X44560Y114355D02*
X57040Y114355D01*
D11*
X249470Y104520D02*
X249470Y93480D01*
X230430Y93480D01*
X230430Y104520D01*
X249470Y104520D01*
X249470Y94392D02*
X230430Y94392D01*
X230430Y95304D02*
X249470Y95304D01*
X249470Y96216D02*
X230430Y96216D01*
X230430Y97128D02*
X249470Y97128D01*
X249470Y98040D02*
X230430Y98040D01*
X230430Y98952D02*
X249470Y98952D01*
X249470Y99864D02*
X230430Y99864D01*
X230430Y100776D02*
X249470Y100776D01*
X249470Y101688D02*
X230430Y101688D01*
X230430Y102600D02*
X249470Y102600D01*
X249470Y103512D02*
X230430Y103512D01*
X230430Y104424D02*
X249470Y104424D01*
X249470Y149480D02*
X249470Y160520D01*
X249470Y149480D02*
X230430Y149480D01*
X230430Y160520D01*
X249470Y160520D01*
X249470Y150392D02*
X230430Y150392D01*
X230430Y151304D02*
X249470Y151304D01*
X249470Y152216D02*
X230430Y152216D01*
X230430Y153128D02*
X249470Y153128D01*
X249470Y154040D02*
X230430Y154040D01*
X230430Y154952D02*
X249470Y154952D01*
X249470Y155864D02*
X230430Y155864D01*
X230430Y156776D02*
X249470Y156776D01*
X249470Y157688D02*
X230430Y157688D01*
X230430Y158600D02*
X249470Y158600D01*
X249470Y159512D02*
X230430Y159512D01*
X230430Y160424D02*
X249470Y160424D01*
D12*
X209440Y114490D02*
X209440Y109510D01*
X196960Y109510D01*
X196960Y114490D01*
X209440Y114490D01*
X209440Y110479D02*
X196960Y110479D01*
X196960Y111448D02*
X209440Y111448D01*
X209440Y112417D02*
X196960Y112417D01*
X196960Y113386D02*
X209440Y113386D01*
X209440Y114355D02*
X196960Y114355D01*
X209440Y119510D02*
X209440Y124490D01*
X209440Y119510D02*
X196960Y119510D01*
X196960Y124490D01*
X209440Y124490D01*
X209440Y120479D02*
X196960Y120479D01*
X196960Y121448D02*
X209440Y121448D01*
X209440Y122417D02*
X196960Y122417D01*
X196960Y123386D02*
X209440Y123386D01*
X209440Y124355D02*
X196960Y124355D01*
X209440Y129510D02*
X209440Y134490D01*
X209440Y129510D02*
X196960Y129510D01*
X196960Y134490D01*
X209440Y134490D01*
X209440Y130479D02*
X196960Y130479D01*
X196960Y131448D02*
X209440Y131448D01*
X209440Y132417D02*
X196960Y132417D01*
X196960Y133386D02*
X209440Y133386D01*
X209440Y134355D02*
X196960Y134355D01*
X209440Y139510D02*
X209440Y144490D01*
X209440Y139510D02*
X196960Y139510D01*
X196960Y144490D01*
X209440Y144490D01*
X209440Y140479D02*
X196960Y140479D01*
X196960Y141448D02*
X209440Y141448D01*
X209440Y142417D02*
X196960Y142417D01*
X196960Y143386D02*
X209440Y143386D01*
X209440Y144355D02*
X196960Y144355D01*
D13*
X131500Y151600D02*
X131500Y161600D01*
X131500Y151600D02*
X122500Y151600D01*
X122500Y161600D01*
X131500Y161600D01*
X131500Y152550D02*
X122500Y152550D01*
X122500Y153500D02*
X131500Y153500D01*
X131500Y154450D02*
X122500Y154450D01*
X122500Y155400D02*
X131500Y155400D01*
X131500Y156350D02*
X122500Y156350D01*
X122500Y157300D02*
X131500Y157300D01*
X131500Y158250D02*
X122500Y158250D01*
X122500Y159200D02*
X131500Y159200D01*
X131500Y160150D02*
X122500Y160150D01*
X122500Y161100D02*
X131500Y161100D01*
X131500Y168600D02*
X131500Y178600D01*
X131500Y168600D02*
X122500Y168600D01*
X122500Y178600D01*
X131500Y178600D01*
X131500Y169550D02*
X122500Y169550D01*
X122500Y170500D02*
X131500Y170500D01*
X131500Y171450D02*
X122500Y171450D01*
X122500Y172400D02*
X131500Y172400D01*
X131500Y173350D02*
X122500Y173350D01*
X122500Y174300D02*
X131500Y174300D01*
X131500Y175250D02*
X122500Y175250D01*
X122500Y176200D02*
X131500Y176200D01*
X131500Y177150D02*
X122500Y177150D01*
X122500Y178100D02*
X131500Y178100D01*
X118800Y71430D02*
X118800Y61430D01*
X109800Y61430D01*
X109800Y71430D01*
X118800Y71430D01*
X118800Y62380D02*
X109800Y62380D01*
X109800Y63330D02*
X118800Y63330D01*
X118800Y64280D02*
X109800Y64280D01*
X109800Y65230D02*
X118800Y65230D01*
X118800Y66180D02*
X109800Y66180D01*
X109800Y67130D02*
X118800Y67130D01*
X118800Y68080D02*
X109800Y68080D01*
X109800Y69030D02*
X118800Y69030D01*
X118800Y69980D02*
X109800Y69980D01*
X109800Y70930D02*
X118800Y70930D01*
X118800Y78430D02*
X118800Y88430D01*
X118800Y78430D02*
X109800Y78430D01*
X109800Y88430D01*
X118800Y88430D01*
X118800Y79380D02*
X109800Y79380D01*
X109800Y80330D02*
X118800Y80330D01*
X118800Y81280D02*
X109800Y81280D01*
X109800Y82230D02*
X118800Y82230D01*
X118800Y83180D02*
X109800Y83180D01*
X109800Y84130D02*
X118800Y84130D01*
X118800Y85080D02*
X109800Y85080D01*
X109800Y86030D02*
X118800Y86030D01*
X118800Y86980D02*
X109800Y86980D01*
X109800Y87930D02*
X118800Y87930D01*
X135200Y88430D02*
X135200Y78430D01*
X135200Y88430D02*
X144200Y88430D01*
X144200Y78430D01*
X135200Y78430D01*
X135200Y79380D02*
X144200Y79380D01*
X144200Y80330D02*
X135200Y80330D01*
X135200Y81280D02*
X144200Y81280D01*
X144200Y82230D02*
X135200Y82230D01*
X135200Y83180D02*
X144200Y83180D01*
X144200Y84130D02*
X135200Y84130D01*
X135200Y85080D02*
X144200Y85080D01*
X144200Y86030D02*
X135200Y86030D01*
X135200Y86980D02*
X144200Y86980D01*
X144200Y87930D02*
X135200Y87930D01*
X135200Y71430D02*
X135200Y61430D01*
X135200Y71430D02*
X144200Y71430D01*
X144200Y61430D01*
X135200Y61430D01*
X135200Y62380D02*
X144200Y62380D01*
X144200Y63330D02*
X135200Y63330D01*
X135200Y64280D02*
X144200Y64280D01*
X144200Y65230D02*
X135200Y65230D01*
X135200Y66180D02*
X144200Y66180D01*
X144200Y67130D02*
X135200Y67130D01*
X135200Y68080D02*
X144200Y68080D01*
X144200Y69030D02*
X135200Y69030D01*
X135200Y69980D02*
X144200Y69980D01*
X144200Y70930D02*
X135200Y70930D01*
D14*
X12700Y12700D03*
X203200Y215900D03*
D15*
X50800Y12700D03*
X76200Y12700D03*
X101600Y12700D03*
X127000Y12700D03*
X152400Y12700D03*
X177800Y12700D03*
X203200Y12700D03*
D13*
X103450Y168600D02*
X103450Y178600D01*
X112450Y178600D01*
X112450Y168600D01*
X103450Y168600D01*
X103450Y169550D02*
X112450Y169550D01*
X112450Y170500D02*
X103450Y170500D01*
X103450Y171450D02*
X112450Y171450D01*
X112450Y172400D02*
X103450Y172400D01*
X103450Y173350D02*
X112450Y173350D01*
X112450Y174300D02*
X103450Y174300D01*
X103450Y175250D02*
X112450Y175250D01*
X112450Y176200D02*
X103450Y176200D01*
X103450Y177150D02*
X112450Y177150D01*
X112450Y178100D02*
X103450Y178100D01*
X103450Y161600D02*
X103450Y151600D01*
X103450Y161600D02*
X112450Y161600D01*
X112450Y151600D01*
X103450Y151600D01*
X103450Y152550D02*
X112450Y152550D01*
X112450Y153500D02*
X103450Y153500D01*
X103450Y154450D02*
X112450Y154450D01*
X112450Y155400D02*
X103450Y155400D01*
X103450Y156350D02*
X112450Y156350D01*
X112450Y157300D02*
X103450Y157300D01*
X103450Y158250D02*
X112450Y158250D01*
X112450Y159200D02*
X103450Y159200D01*
X103450Y160150D02*
X112450Y160150D01*
X112450Y161100D02*
X103450Y161100D01*
X150550Y161600D02*
X150550Y151600D01*
X141550Y151600D01*
X141550Y161600D01*
X150550Y161600D01*
X150550Y152550D02*
X141550Y152550D01*
X141550Y153500D02*
X150550Y153500D01*
X150550Y154450D02*
X141550Y154450D01*
X141550Y155400D02*
X150550Y155400D01*
X150550Y156350D02*
X141550Y156350D01*
X141550Y157300D02*
X150550Y157300D01*
X150550Y158250D02*
X141550Y158250D01*
X141550Y159200D02*
X150550Y159200D01*
X150550Y160150D02*
X141550Y160150D01*
X141550Y161100D02*
X150550Y161100D01*
X150550Y168600D02*
X150550Y178600D01*
X150550Y168600D02*
X141550Y168600D01*
X141550Y178600D01*
X150550Y178600D01*
X150550Y169550D02*
X141550Y169550D01*
X141550Y170500D02*
X150550Y170500D01*
X150550Y171450D02*
X141550Y171450D01*
X141550Y172400D02*
X150550Y172400D01*
X150550Y173350D02*
X141550Y173350D01*
X141550Y174300D02*
X150550Y174300D01*
X150550Y175250D02*
X141550Y175250D01*
X141550Y176200D02*
X150550Y176200D01*
X150550Y177150D02*
X141550Y177150D01*
X141550Y178100D02*
X150550Y178100D01*
D16*
X231330Y180650D02*
X231330Y187650D01*
X238330Y187650D01*
X238330Y180650D01*
X231330Y180650D01*
X231330Y183500D02*
X238330Y183500D01*
X238330Y186350D02*
X231330Y186350D01*
X213790Y187650D02*
X213790Y180650D01*
X213790Y187650D02*
X220790Y187650D01*
X220790Y180650D01*
X213790Y180650D01*
X213790Y183500D02*
X220790Y183500D01*
X220790Y186350D02*
X213790Y186350D01*
D13*
X212560Y166950D02*
X222560Y166950D01*
X212560Y166950D02*
X212560Y175950D01*
X222560Y175950D01*
X222560Y166950D01*
X222560Y167900D02*
X212560Y167900D01*
X212560Y168850D02*
X222560Y168850D01*
X222560Y169800D02*
X212560Y169800D01*
X212560Y170750D02*
X222560Y170750D01*
X222560Y171700D02*
X212560Y171700D01*
X212560Y172650D02*
X222560Y172650D01*
X222560Y173600D02*
X212560Y173600D01*
X212560Y174550D02*
X222560Y174550D01*
X222560Y175500D02*
X212560Y175500D01*
X229560Y166950D02*
X239560Y166950D01*
X229560Y166950D02*
X229560Y175950D01*
X239560Y175950D01*
X239560Y166950D01*
X239560Y167900D02*
X229560Y167900D01*
X229560Y168850D02*
X239560Y168850D01*
X239560Y169800D02*
X229560Y169800D01*
X229560Y170750D02*
X239560Y170750D01*
X239560Y171700D02*
X229560Y171700D01*
X229560Y172650D02*
X239560Y172650D01*
X239560Y173600D02*
X229560Y173600D01*
X229560Y174550D02*
X239560Y174550D01*
X239560Y175500D02*
X229560Y175500D01*
D17*
X129545Y140975D02*
X129545Y134665D01*
X129545Y140975D02*
X132080Y143510D01*
D18*
X140970Y143510D01*
X143510Y140970D01*
D17*
X140980Y132090D02*
X134620Y132090D01*
X140980Y132090D02*
X143510Y134620D01*
D18*
X143510Y140970D01*
X132080Y143510D02*
X127000Y148590D01*
X127000Y156600D01*
X107950Y156600D02*
X100720Y156600D01*
D19*
X151130Y127000D03*
D18*
X143510Y134620D01*
X151130Y127000D02*
X158670Y119460D01*
X191770Y119460D01*
X194310Y122000D02*
X203200Y122000D01*
X194310Y122000D02*
X191770Y119460D01*
X127000Y156600D02*
X107950Y156600D01*
D19*
X215900Y121920D03*
D17*
X203280Y121920D01*
X203200Y122000D01*
D19*
X77390Y133143D03*
D18*
X76247Y132000D02*
X50800Y132000D01*
X76247Y132000D02*
X77390Y133143D01*
X100720Y156473D01*
X100720Y156600D01*
D19*
X143510Y119380D03*
D17*
X140800Y122090D02*
X134620Y122090D01*
X140800Y122090D02*
X143510Y119380D01*
X139610Y127090D02*
X134620Y127090D01*
X139610Y127090D02*
X143510Y123190D01*
X143510Y119380D01*
X119470Y132090D02*
X115560Y132090D01*
X102870Y144780D02*
X101600Y144780D01*
D19*
X101600Y144780D03*
D17*
X102870Y144780D02*
X115560Y132090D01*
D19*
X241300Y12700D03*
X67310Y143510D03*
X50800Y241300D03*
X203200Y241300D03*
X186690Y110490D03*
X157480Y151130D03*
X74930Y114300D03*
X139700Y38100D03*
X114300Y38100D03*
X101600Y82550D03*
X88900Y38100D03*
D17*
X194310Y132000D02*
X203200Y132000D01*
X194310Y132000D02*
X190500Y128190D01*
X162734Y128190D01*
X162560Y128016D01*
D19*
X162560Y128016D03*
X110490Y127000D03*
D17*
X110580Y127090D01*
X119470Y127090D01*
X103118Y133731D02*
X91435Y133731D01*
X109759Y127090D02*
X110580Y127090D01*
X109759Y127090D02*
X103118Y133731D01*
X61040Y122000D02*
X50800Y122000D01*
X61040Y122000D02*
X65452Y126412D01*
X84116Y126412D02*
X91435Y133731D01*
X84116Y126412D02*
X65452Y126412D01*
X101600Y42300D02*
X101600Y12700D01*
X114300Y54610D02*
X114300Y66430D01*
X114300Y54610D02*
X113910Y54610D01*
X101600Y42300D01*
D19*
X114300Y54610D03*
D17*
X124415Y134665D02*
X124545Y134665D01*
X124415Y134665D02*
X118110Y140970D01*
D19*
X118110Y140970D03*
X161290Y138430D03*
D17*
X165340Y134380D01*
X186690Y134380D01*
X194310Y142000D02*
X203200Y142000D01*
X194310Y142000D02*
X186690Y134380D01*
D19*
X100330Y127000D03*
D17*
X99441Y126111D01*
X89922Y126111D01*
X61200Y112000D02*
X50800Y112000D01*
X61200Y112000D02*
X71294Y122094D01*
X85905Y122094D02*
X89922Y126111D01*
X85905Y122094D02*
X71294Y122094D01*
X127000Y42300D02*
X127000Y12700D01*
X139310Y54610D02*
X139700Y54610D01*
X139310Y54610D02*
X127000Y42300D01*
X139700Y54610D02*
X139700Y66430D01*
D19*
X139700Y54610D03*
X92710Y119380D03*
D17*
X115740Y122090D02*
X119470Y122090D01*
X115740Y122090D02*
X113030Y119380D01*
X92710Y119380D01*
X144277Y106299D02*
X152066Y98510D01*
X136411Y106299D02*
X129545Y113165D01*
X129545Y119515D01*
X136411Y106299D02*
X144277Y106299D01*
X152066Y44541D02*
X166889Y29718D01*
X186182Y29718D01*
X203200Y12700D01*
X152066Y44541D02*
X152066Y98510D01*
X147748Y96721D02*
X142488Y101981D01*
X147748Y96721D02*
X147748Y42752D01*
X124545Y111080D02*
X124545Y119515D01*
X124545Y111080D02*
X133644Y101981D01*
X142488Y101981D01*
X147748Y42752D02*
X177800Y12700D01*
X107950Y173600D02*
X107950Y190500D01*
D19*
X107950Y190500D03*
D17*
X146050Y190500D02*
X146050Y173600D01*
D19*
X146050Y190500D03*
X139700Y95250D03*
D17*
X139700Y83430D01*
D19*
X114300Y95250D03*
D17*
X114300Y83430D01*
D19*
X203200Y184150D03*
D17*
X217290Y184150D01*
X234560Y171450D02*
X234830Y171720D01*
X234830Y184150D01*
M02*
