G04 EAGLE Gerber RS-274X export*
G75*
%MOMM*%
%FSLAX34Y34*%
%LPD*%
%INSilkscreen Bottom*%
%IPPOS*%
%AMOC8*
5,1,8,0,0,1.08239X$1,22.5*%
G01*
%ADD10C,0.254000*%
%ADD11C,0.152400*%
%ADD12C,0.203200*%

G36*
X158711Y19869D02*
X158711Y19869D01*
X158718Y19864D01*
X159218Y20064D01*
X159233Y20088D01*
X159240Y20094D01*
X159238Y20097D01*
X159243Y20105D01*
X159249Y20110D01*
X159249Y93710D01*
X159246Y93714D01*
X159249Y93717D01*
X159149Y94413D01*
X159149Y95010D01*
X159143Y95018D01*
X159147Y95024D01*
X158947Y95724D01*
X158946Y95725D01*
X158947Y95726D01*
X158747Y96326D01*
X158744Y96327D01*
X158745Y96329D01*
X158445Y97029D01*
X158437Y97034D01*
X158438Y97041D01*
X158040Y97539D01*
X157641Y98137D01*
X157638Y98138D01*
X157638Y98141D01*
X157238Y98641D01*
X157231Y98643D01*
X157231Y98648D01*
X156731Y99048D01*
X156727Y99049D01*
X156727Y99051D01*
X156129Y99450D01*
X155631Y99848D01*
X155621Y99849D01*
X155619Y99855D01*
X154919Y100155D01*
X154916Y100155D01*
X154916Y100157D01*
X154316Y100357D01*
X154309Y100355D01*
X154307Y100359D01*
X153608Y100459D01*
X153008Y100559D01*
X153007Y100558D01*
X153007Y100559D01*
X152307Y100659D01*
X152298Y100654D01*
X152293Y100659D01*
X151593Y100559D01*
X151592Y100558D01*
X151592Y100559D01*
X150992Y100459D01*
X150989Y100455D01*
X150986Y100457D01*
X150286Y100257D01*
X150285Y100256D01*
X150284Y100257D01*
X149684Y100057D01*
X149681Y100052D01*
X149678Y100054D01*
X149078Y99754D01*
X149076Y99750D01*
X149073Y99751D01*
X148473Y99351D01*
X148472Y99348D01*
X148469Y99348D01*
X147969Y98948D01*
X147968Y98944D01*
X147965Y98945D01*
X146965Y97945D01*
X146965Y97941D01*
X146962Y97941D01*
X146562Y97441D01*
X146561Y97433D01*
X146556Y97432D01*
X146256Y96832D01*
X146257Y96825D01*
X146253Y96824D01*
X146219Y96704D01*
X146176Y96556D01*
X146162Y96507D01*
X146120Y96359D01*
X146078Y96212D01*
X146064Y96162D01*
X146054Y96128D01*
X145756Y95532D01*
X145757Y95526D01*
X145752Y95522D01*
X145755Y95519D01*
X145751Y95517D01*
X145651Y94818D01*
X145551Y94218D01*
X145554Y94213D01*
X145551Y94210D01*
X145551Y20410D01*
X145559Y20399D01*
X145554Y20392D01*
X145754Y19892D01*
X145795Y19867D01*
X145800Y19861D01*
X158700Y19861D01*
X158711Y19869D01*
G37*
G36*
X133747Y19897D02*
X133747Y19897D01*
X133745Y19900D01*
X133749Y19902D01*
X133849Y20502D01*
X133846Y20507D01*
X133849Y20510D01*
X133849Y91010D01*
X133846Y91014D01*
X133849Y91017D01*
X133749Y91717D01*
X133724Y91741D01*
X133722Y91754D01*
X127022Y95054D01*
X126990Y95048D01*
X126978Y95054D01*
X120378Y91754D01*
X120366Y91730D01*
X120353Y91726D01*
X120153Y91126D01*
X120157Y91115D01*
X120151Y91110D01*
X120151Y19910D01*
X120187Y19863D01*
X120194Y19868D01*
X120200Y19861D01*
X133700Y19861D01*
X133747Y19897D01*
G37*
G36*
X108347Y19897D02*
X108347Y19897D01*
X108345Y19900D01*
X108349Y19902D01*
X108449Y20502D01*
X108446Y20507D01*
X108449Y20510D01*
X108449Y86210D01*
X108446Y86214D01*
X108449Y86217D01*
X108249Y87617D01*
X108244Y87622D01*
X108247Y87626D01*
X108047Y88225D01*
X107847Y88924D01*
X107842Y88928D01*
X107844Y88932D01*
X107544Y89532D01*
X107537Y89535D01*
X107538Y89541D01*
X107140Y90039D01*
X106741Y90637D01*
X106738Y90638D01*
X106738Y90641D01*
X106338Y91141D01*
X106328Y91143D01*
X106327Y91151D01*
X105729Y91550D01*
X105231Y91948D01*
X105223Y91949D01*
X105222Y91954D01*
X104022Y92554D01*
X104015Y92553D01*
X104014Y92557D01*
X103314Y92757D01*
X103310Y92756D01*
X103308Y92759D01*
X102708Y92859D01*
X102707Y92858D01*
X102707Y92859D01*
X102007Y92959D01*
X102002Y92956D01*
X102000Y92959D01*
X101300Y92959D01*
X101296Y92956D01*
X101293Y92959D01*
X100593Y92859D01*
X100592Y92858D01*
X100592Y92859D01*
X99992Y92759D01*
X99989Y92755D01*
X99986Y92757D01*
X99286Y92557D01*
X99285Y92556D01*
X99284Y92557D01*
X98684Y92357D01*
X98679Y92349D01*
X98673Y92351D01*
X98075Y91953D01*
X97478Y91654D01*
X97473Y91644D01*
X97465Y91645D01*
X96465Y90645D01*
X96465Y90641D01*
X96462Y90641D01*
X96062Y90141D01*
X96061Y90133D01*
X96056Y90132D01*
X95757Y89535D01*
X95359Y88937D01*
X95360Y88928D01*
X95359Y88927D01*
X95353Y88926D01*
X94953Y87726D01*
X94955Y87719D01*
X94951Y87717D01*
X94751Y86317D01*
X94753Y86313D01*
X94753Y86312D01*
X94751Y86310D01*
X94751Y20010D01*
X94787Y19963D01*
X94790Y19965D01*
X94792Y19961D01*
X95392Y19861D01*
X95397Y19864D01*
X95400Y19861D01*
X108300Y19861D01*
X108347Y19897D01*
G37*
G36*
X142704Y177304D02*
X142704Y177304D01*
X142707Y177301D01*
X144107Y177501D01*
X144108Y177502D01*
X144108Y177501D01*
X144708Y177601D01*
X144714Y177608D01*
X144719Y177605D01*
X145419Y177905D01*
X145421Y177907D01*
X145422Y177906D01*
X146022Y178206D01*
X146023Y178209D01*
X146025Y178208D01*
X146525Y178508D01*
X146526Y178509D01*
X146527Y178509D01*
X147127Y178909D01*
X147130Y178916D01*
X147135Y178915D01*
X147635Y179415D01*
X147635Y179419D01*
X147638Y179419D01*
X148038Y179919D01*
X148039Y179923D01*
X148041Y179923D01*
X148441Y180523D01*
X148441Y180527D01*
X148444Y180528D01*
X149044Y181728D01*
X149043Y181733D01*
X149047Y181734D01*
X149247Y182334D01*
X149246Y182336D01*
X149247Y182336D01*
X149268Y182409D01*
X149282Y182459D01*
X149324Y182606D01*
X149325Y182606D01*
X149324Y182606D01*
X149367Y182754D01*
X149381Y182803D01*
X149423Y182951D01*
X149447Y183036D01*
X149444Y183046D01*
X149449Y183050D01*
X149449Y185050D01*
X149446Y185054D01*
X149449Y185057D01*
X149349Y185757D01*
X149344Y185762D01*
X149347Y185766D01*
X149147Y186366D01*
X149144Y186367D01*
X149145Y186369D01*
X148845Y187069D01*
X148843Y187071D01*
X148844Y187072D01*
X148544Y187672D01*
X148537Y187675D01*
X148538Y187681D01*
X147738Y188681D01*
X147734Y188682D01*
X147735Y188685D01*
X146735Y189685D01*
X146723Y189686D01*
X146722Y189694D01*
X144922Y190594D01*
X144917Y190593D01*
X144916Y190597D01*
X144316Y190797D01*
X144311Y190795D01*
X144309Y190795D01*
X144307Y190799D01*
X142907Y190999D01*
X142902Y190996D01*
X142900Y190999D01*
X110800Y190999D01*
X110795Y190996D01*
X110792Y190999D01*
X110192Y190899D01*
X110189Y190895D01*
X110186Y190897D01*
X109486Y190697D01*
X109485Y190696D01*
X109484Y190697D01*
X108884Y190497D01*
X108883Y190494D01*
X108881Y190495D01*
X108181Y190195D01*
X108179Y190193D01*
X108178Y190194D01*
X107578Y189894D01*
X107575Y189887D01*
X107569Y189888D01*
X107069Y189488D01*
X107068Y189484D01*
X107065Y189485D01*
X106567Y188987D01*
X106069Y188588D01*
X106067Y188578D01*
X106059Y188577D01*
X105659Y187977D01*
X105659Y187973D01*
X105656Y187972D01*
X104756Y186172D01*
X104758Y186161D01*
X104751Y186157D01*
X104651Y185458D01*
X104551Y184858D01*
X104552Y184857D01*
X104551Y184857D01*
X104451Y184157D01*
X104456Y184148D01*
X104451Y184143D01*
X104651Y182743D01*
X104656Y182738D01*
X104653Y182734D01*
X104853Y182135D01*
X105053Y181436D01*
X105058Y181432D01*
X105056Y181428D01*
X105356Y180828D01*
X105359Y180827D01*
X105358Y180825D01*
X105658Y180325D01*
X105663Y180323D01*
X105662Y180318D01*
X106162Y179719D01*
X106562Y179219D01*
X106569Y179217D01*
X106569Y179212D01*
X107069Y178812D01*
X107073Y178811D01*
X107073Y178809D01*
X107673Y178409D01*
X107677Y178409D01*
X107678Y178406D01*
X108878Y177806D01*
X108883Y177807D01*
X108884Y177803D01*
X109484Y177603D01*
X109486Y177604D01*
X109486Y177603D01*
X110186Y177403D01*
X110191Y177405D01*
X110193Y177401D01*
X110893Y177301D01*
X110898Y177304D01*
X110900Y177301D01*
X142700Y177301D01*
X142704Y177304D01*
G37*
G36*
X243004Y126954D02*
X243004Y126954D01*
X243007Y126951D01*
X244407Y127151D01*
X244412Y127156D01*
X244416Y127153D01*
X245015Y127353D01*
X245714Y127553D01*
X245718Y127558D01*
X245722Y127556D01*
X246322Y127856D01*
X246325Y127863D01*
X246331Y127862D01*
X246829Y128260D01*
X247427Y128659D01*
X247430Y128666D01*
X247435Y128665D01*
X247935Y129165D01*
X247935Y129169D01*
X247938Y129169D01*
X248738Y130169D01*
X248739Y130177D01*
X248744Y130178D01*
X249044Y130778D01*
X249044Y130780D01*
X249045Y130781D01*
X249345Y131481D01*
X249345Y131484D01*
X249347Y131484D01*
X249547Y132084D01*
X249545Y132091D01*
X249549Y132093D01*
X249749Y133493D01*
X249746Y133498D01*
X249749Y133500D01*
X249749Y134100D01*
X249746Y134104D01*
X249749Y134107D01*
X249649Y134807D01*
X249645Y134811D01*
X249647Y134814D01*
X249447Y135514D01*
X249446Y135515D01*
X249447Y135516D01*
X249047Y136716D01*
X249042Y136719D01*
X249044Y136722D01*
X248744Y137322D01*
X248740Y137324D01*
X248741Y137327D01*
X248341Y137927D01*
X248334Y137930D01*
X248335Y137935D01*
X247335Y138935D01*
X247331Y138935D01*
X247331Y138938D01*
X246831Y139338D01*
X246827Y139339D01*
X246827Y139341D01*
X246227Y139741D01*
X246223Y139741D01*
X246222Y139744D01*
X245622Y140044D01*
X245617Y140043D01*
X245616Y140047D01*
X244416Y140447D01*
X244411Y140445D01*
X244409Y140445D01*
X244407Y140449D01*
X243707Y140549D01*
X243702Y140546D01*
X243700Y140549D01*
X213800Y140549D01*
X213796Y140546D01*
X213793Y140549D01*
X212393Y140349D01*
X212388Y140344D01*
X212384Y140347D01*
X211784Y140147D01*
X211781Y140142D01*
X211778Y140144D01*
X211178Y139844D01*
X211176Y139840D01*
X211173Y139841D01*
X209973Y139041D01*
X209972Y139038D01*
X209969Y139038D01*
X209469Y138638D01*
X209467Y138631D01*
X209462Y138631D01*
X209062Y138131D01*
X209061Y138127D01*
X209059Y138127D01*
X208660Y137529D01*
X208262Y137031D01*
X208261Y137021D01*
X208255Y137019D01*
X207955Y136319D01*
X207956Y136316D01*
X207953Y136316D01*
X207753Y135716D01*
X207755Y135709D01*
X207751Y135707D01*
X207651Y135008D01*
X207551Y134408D01*
X207552Y134407D01*
X207551Y134407D01*
X207451Y133707D01*
X207456Y133698D01*
X207451Y133693D01*
X207551Y132993D01*
X207552Y132992D01*
X207551Y132992D01*
X207651Y132392D01*
X207655Y132389D01*
X207653Y132386D01*
X207853Y131686D01*
X207854Y131685D01*
X207853Y131684D01*
X208053Y131084D01*
X208058Y131081D01*
X208056Y131078D01*
X208356Y130478D01*
X208360Y130476D01*
X208359Y130473D01*
X209159Y129273D01*
X209166Y129270D01*
X209165Y129265D01*
X209565Y128865D01*
X209569Y128865D01*
X209568Y128862D01*
X210168Y128362D01*
X210169Y128362D01*
X210669Y127962D01*
X210677Y127961D01*
X210678Y127956D01*
X211878Y127356D01*
X211885Y127357D01*
X211886Y127353D01*
X212586Y127153D01*
X212590Y127154D01*
X212592Y127151D01*
X213192Y127051D01*
X213193Y127052D01*
X213193Y127051D01*
X213893Y126951D01*
X213898Y126954D01*
X213900Y126951D01*
X243000Y126951D01*
X243004Y126954D01*
G37*
G36*
X57647Y19897D02*
X57647Y19897D01*
X57642Y19904D01*
X57649Y19910D01*
X57649Y57110D01*
X57646Y57115D01*
X57649Y57118D01*
X57549Y57718D01*
X57505Y57759D01*
X57503Y57756D01*
X57500Y57759D01*
X44000Y57759D01*
X43953Y57723D01*
X43958Y57716D01*
X43951Y57710D01*
X43951Y20510D01*
X43954Y20505D01*
X43951Y20502D01*
X44051Y19902D01*
X44095Y19861D01*
X44098Y19864D01*
X44100Y19861D01*
X57600Y19861D01*
X57647Y19897D01*
G37*
G36*
X184547Y19897D02*
X184547Y19897D01*
X184545Y19900D01*
X184549Y19902D01*
X184649Y20502D01*
X184646Y20507D01*
X184649Y20510D01*
X184649Y55110D01*
X184635Y55128D01*
X184638Y55141D01*
X184238Y55641D01*
X184224Y55645D01*
X184222Y55654D01*
X178122Y58654D01*
X178106Y58651D01*
X178100Y58659D01*
X177500Y58659D01*
X177487Y58650D01*
X177478Y58654D01*
X171478Y55654D01*
X171475Y55647D01*
X171469Y55648D01*
X170969Y55248D01*
X170962Y55218D01*
X170951Y55210D01*
X170951Y20010D01*
X170987Y19963D01*
X170990Y19965D01*
X170992Y19961D01*
X171592Y19861D01*
X171597Y19864D01*
X171600Y19861D01*
X184500Y19861D01*
X184547Y19897D01*
G37*
G36*
X82511Y19869D02*
X82511Y19869D01*
X82518Y19864D01*
X83018Y20064D01*
X83033Y20088D01*
X83040Y20094D01*
X83038Y20097D01*
X83043Y20105D01*
X83049Y20110D01*
X83049Y56410D01*
X83046Y56415D01*
X83049Y56418D01*
X82949Y57018D01*
X82905Y57059D01*
X82903Y57056D01*
X82900Y57059D01*
X70000Y57059D01*
X69995Y57056D01*
X69992Y57059D01*
X69392Y56959D01*
X69351Y56915D01*
X69354Y56913D01*
X69351Y56910D01*
X69351Y20410D01*
X69359Y20399D01*
X69354Y20392D01*
X69554Y19892D01*
X69595Y19867D01*
X69600Y19861D01*
X82500Y19861D01*
X82511Y19869D01*
G37*
G36*
X34720Y165246D02*
X34720Y165246D01*
X34828Y165256D01*
X34841Y165262D01*
X34855Y165264D01*
X34952Y165312D01*
X35051Y165357D01*
X35064Y165368D01*
X35073Y165372D01*
X35088Y165388D01*
X35165Y165450D01*
X37750Y168035D01*
X37813Y168124D01*
X37879Y168209D01*
X37884Y168222D01*
X37892Y168234D01*
X37923Y168337D01*
X37959Y168440D01*
X37959Y168454D01*
X37963Y168467D01*
X37959Y168575D01*
X37960Y168684D01*
X37955Y168697D01*
X37955Y168711D01*
X37917Y168813D01*
X37882Y168915D01*
X37873Y168930D01*
X37869Y168939D01*
X37855Y168956D01*
X37801Y169038D01*
X35037Y172428D01*
X35594Y173510D01*
X35600Y173530D01*
X35642Y173625D01*
X36013Y174784D01*
X40364Y175227D01*
X40468Y175255D01*
X40574Y175280D01*
X40586Y175287D01*
X40599Y175290D01*
X40689Y175351D01*
X40782Y175408D01*
X40790Y175419D01*
X40802Y175427D01*
X40868Y175513D01*
X40937Y175597D01*
X40941Y175610D01*
X40950Y175621D01*
X40984Y175724D01*
X41023Y175825D01*
X41024Y175843D01*
X41028Y175852D01*
X41028Y175874D01*
X41037Y175972D01*
X41037Y179628D01*
X41020Y179735D01*
X41006Y179843D01*
X41000Y179855D01*
X40998Y179869D01*
X40946Y179965D01*
X40899Y180062D01*
X40889Y180072D01*
X40883Y180084D01*
X40803Y180158D01*
X40727Y180235D01*
X40715Y180241D01*
X40705Y180251D01*
X40606Y180296D01*
X40509Y180344D01*
X40491Y180348D01*
X40482Y180352D01*
X40461Y180354D01*
X40364Y180373D01*
X36013Y180816D01*
X35642Y181975D01*
X35633Y181993D01*
X35631Y182000D01*
X35627Y182007D01*
X35594Y182090D01*
X35037Y183172D01*
X37801Y186562D01*
X37855Y186656D01*
X37912Y186748D01*
X37915Y186761D01*
X37922Y186773D01*
X37943Y186880D01*
X37968Y186985D01*
X37966Y186999D01*
X37969Y187013D01*
X37954Y187120D01*
X37944Y187228D01*
X37938Y187241D01*
X37936Y187255D01*
X37888Y187352D01*
X37843Y187451D01*
X37832Y187464D01*
X37828Y187473D01*
X37812Y187488D01*
X37750Y187565D01*
X35165Y190150D01*
X35076Y190213D01*
X34991Y190279D01*
X34978Y190284D01*
X34966Y190292D01*
X34863Y190323D01*
X34760Y190359D01*
X34746Y190359D01*
X34733Y190363D01*
X34625Y190359D01*
X34516Y190360D01*
X34503Y190355D01*
X34489Y190355D01*
X34387Y190317D01*
X34285Y190282D01*
X34270Y190273D01*
X34261Y190269D01*
X34244Y190255D01*
X34162Y190201D01*
X30772Y187437D01*
X29690Y187994D01*
X29670Y188000D01*
X29575Y188042D01*
X28416Y188413D01*
X27973Y192764D01*
X27945Y192868D01*
X27920Y192974D01*
X27913Y192986D01*
X27910Y192999D01*
X27849Y193089D01*
X27792Y193182D01*
X27781Y193190D01*
X27773Y193202D01*
X27687Y193268D01*
X27603Y193337D01*
X27590Y193341D01*
X27579Y193350D01*
X27476Y193384D01*
X27375Y193423D01*
X27357Y193424D01*
X27348Y193428D01*
X27326Y193428D01*
X27228Y193437D01*
X23572Y193437D01*
X23465Y193420D01*
X23357Y193406D01*
X23345Y193400D01*
X23331Y193398D01*
X23235Y193346D01*
X23138Y193299D01*
X23128Y193289D01*
X23116Y193283D01*
X23042Y193203D01*
X22965Y193127D01*
X22959Y193115D01*
X22949Y193105D01*
X22904Y193006D01*
X22856Y192909D01*
X22852Y192891D01*
X22848Y192882D01*
X22846Y192861D01*
X22827Y192764D01*
X22384Y188413D01*
X21225Y188042D01*
X21207Y188032D01*
X21110Y187994D01*
X20028Y187437D01*
X16638Y190201D01*
X16544Y190255D01*
X16452Y190312D01*
X16439Y190315D01*
X16427Y190322D01*
X16320Y190343D01*
X16215Y190368D01*
X16201Y190366D01*
X16187Y190369D01*
X16080Y190354D01*
X15972Y190344D01*
X15959Y190338D01*
X15946Y190336D01*
X15848Y190288D01*
X15749Y190243D01*
X15736Y190232D01*
X15727Y190228D01*
X15712Y190212D01*
X15635Y190150D01*
X13050Y187565D01*
X12987Y187476D01*
X12921Y187391D01*
X12916Y187378D01*
X12908Y187366D01*
X12877Y187263D01*
X12841Y187160D01*
X12841Y187146D01*
X12837Y187133D01*
X12841Y187025D01*
X12840Y186916D01*
X12845Y186903D01*
X12845Y186889D01*
X12883Y186787D01*
X12918Y186685D01*
X12927Y186670D01*
X12931Y186661D01*
X12945Y186644D01*
X12999Y186562D01*
X15763Y183172D01*
X15206Y182090D01*
X15200Y182070D01*
X15158Y181975D01*
X14787Y180816D01*
X10436Y180373D01*
X10332Y180345D01*
X10226Y180320D01*
X10214Y180313D01*
X10201Y180310D01*
X10111Y180249D01*
X10018Y180192D01*
X10010Y180181D01*
X9998Y180173D01*
X9932Y180087D01*
X9864Y180003D01*
X9859Y179990D01*
X9850Y179979D01*
X9816Y179876D01*
X9777Y179775D01*
X9776Y179757D01*
X9772Y179748D01*
X9773Y179726D01*
X9763Y179628D01*
X9763Y175972D01*
X9780Y175865D01*
X9794Y175757D01*
X9800Y175745D01*
X9802Y175731D01*
X9854Y175635D01*
X9901Y175538D01*
X9911Y175528D01*
X9917Y175516D01*
X9997Y175442D01*
X10073Y175365D01*
X10085Y175359D01*
X10096Y175349D01*
X10194Y175304D01*
X10291Y175256D01*
X10309Y175252D01*
X10318Y175248D01*
X10339Y175246D01*
X10436Y175227D01*
X14787Y174784D01*
X15158Y173625D01*
X15168Y173607D01*
X15206Y173510D01*
X15763Y172428D01*
X12999Y169038D01*
X12945Y168944D01*
X12888Y168852D01*
X12885Y168839D01*
X12878Y168827D01*
X12857Y168720D01*
X12832Y168615D01*
X12834Y168601D01*
X12831Y168587D01*
X12846Y168480D01*
X12856Y168372D01*
X12862Y168359D01*
X12864Y168346D01*
X12912Y168248D01*
X12957Y168149D01*
X12968Y168136D01*
X12972Y168127D01*
X12988Y168112D01*
X13050Y168035D01*
X15635Y165450D01*
X15724Y165387D01*
X15809Y165321D01*
X15822Y165316D01*
X15834Y165308D01*
X15937Y165277D01*
X16040Y165241D01*
X16054Y165241D01*
X16067Y165237D01*
X16175Y165241D01*
X16284Y165240D01*
X16297Y165245D01*
X16311Y165245D01*
X16413Y165283D01*
X16515Y165318D01*
X16530Y165327D01*
X16539Y165331D01*
X16556Y165345D01*
X16638Y165399D01*
X20028Y168163D01*
X21110Y167606D01*
X21163Y167589D01*
X21212Y167563D01*
X21278Y167552D01*
X21342Y167531D01*
X21398Y167532D01*
X21452Y167523D01*
X21519Y167534D01*
X21586Y167535D01*
X21638Y167553D01*
X21693Y167562D01*
X21753Y167594D01*
X21816Y167617D01*
X21859Y167651D01*
X21909Y167677D01*
X21955Y167726D01*
X22007Y167768D01*
X22038Y167815D01*
X22076Y167855D01*
X22132Y167960D01*
X22140Y167973D01*
X22141Y167978D01*
X22145Y167985D01*
X24298Y173182D01*
X24318Y173265D01*
X24323Y173278D01*
X24325Y173294D01*
X24350Y173379D01*
X24349Y173400D01*
X24354Y173420D01*
X24346Y173502D01*
X24347Y173521D01*
X24343Y173541D01*
X24339Y173622D01*
X24332Y173642D01*
X24330Y173663D01*
X24298Y173732D01*
X24292Y173759D01*
X24277Y173783D01*
X24251Y173850D01*
X24238Y173866D01*
X24229Y173885D01*
X24184Y173934D01*
X24164Y173966D01*
X24133Y173991D01*
X24095Y174037D01*
X24072Y174053D01*
X24062Y174063D01*
X24041Y174075D01*
X23976Y174120D01*
X23975Y174121D01*
X23974Y174122D01*
X23075Y174628D01*
X22388Y175272D01*
X21873Y176060D01*
X21561Y176948D01*
X21469Y177885D01*
X21602Y178817D01*
X21953Y179691D01*
X22502Y180456D01*
X23216Y181069D01*
X24056Y181494D01*
X24973Y181708D01*
X25914Y181698D01*
X26826Y181464D01*
X27656Y181021D01*
X28357Y180392D01*
X28889Y179615D01*
X29220Y178734D01*
X29333Y177799D01*
X29225Y176882D01*
X28905Y176014D01*
X28391Y175245D01*
X27712Y174618D01*
X26828Y174123D01*
X26786Y174090D01*
X26744Y174067D01*
X26713Y174034D01*
X26665Y173999D01*
X26653Y173983D01*
X26637Y173970D01*
X26602Y173915D01*
X26577Y173889D01*
X26564Y173859D01*
X26522Y173801D01*
X26516Y173782D01*
X26506Y173765D01*
X26487Y173690D01*
X26477Y173667D01*
X26474Y173643D01*
X26451Y173568D01*
X26452Y173548D01*
X26447Y173528D01*
X26454Y173442D01*
X26453Y173424D01*
X26456Y173408D01*
X26459Y173324D01*
X26467Y173299D01*
X26468Y173285D01*
X26478Y173263D01*
X26502Y173182D01*
X27431Y170939D01*
X27431Y170938D01*
X28362Y168691D01*
X28363Y168691D01*
X28655Y167985D01*
X28684Y167938D01*
X28705Y167886D01*
X28748Y167835D01*
X28784Y167778D01*
X28827Y167743D01*
X28863Y167700D01*
X28920Y167666D01*
X28972Y167623D01*
X29024Y167604D01*
X29072Y167575D01*
X29138Y167561D01*
X29201Y167537D01*
X29256Y167535D01*
X29310Y167524D01*
X29377Y167531D01*
X29444Y167529D01*
X29498Y167545D01*
X29553Y167552D01*
X29664Y167596D01*
X29678Y167600D01*
X29682Y167603D01*
X29690Y167606D01*
X30772Y168163D01*
X34162Y165399D01*
X34256Y165345D01*
X34348Y165288D01*
X34361Y165285D01*
X34373Y165278D01*
X34480Y165257D01*
X34585Y165232D01*
X34599Y165234D01*
X34613Y165231D01*
X34720Y165246D01*
G37*
G36*
X209726Y19880D02*
X209726Y19880D01*
X209739Y19880D01*
X210039Y20280D01*
X210039Y20288D01*
X210043Y20291D01*
X210039Y20295D01*
X210039Y20302D01*
X210049Y20310D01*
X210049Y55810D01*
X210048Y55811D01*
X210049Y55812D01*
X210046Y55815D01*
X210013Y55857D01*
X209999Y55847D01*
X209984Y55857D01*
X209384Y55657D01*
X209381Y55652D01*
X209378Y55654D01*
X203296Y52563D01*
X202719Y52756D01*
X196622Y55754D01*
X196563Y55743D01*
X196564Y55738D01*
X196559Y55737D01*
X196359Y55437D01*
X196359Y55433D01*
X196359Y55432D01*
X196360Y55417D01*
X196351Y55410D01*
X196351Y20110D01*
X196380Y20072D01*
X196382Y20064D01*
X196882Y19864D01*
X196895Y19868D01*
X196900Y19861D01*
X209700Y19861D01*
X209726Y19880D01*
G37*
G36*
X171305Y101104D02*
X171305Y101104D01*
X171308Y101101D01*
X171908Y101201D01*
X172607Y101301D01*
X172612Y101306D01*
X172616Y101303D01*
X173216Y101503D01*
X173217Y101506D01*
X173219Y101505D01*
X173919Y101805D01*
X173921Y101807D01*
X173922Y101806D01*
X174522Y102106D01*
X174523Y102109D01*
X174525Y102108D01*
X175025Y102408D01*
X175027Y102413D01*
X175032Y102412D01*
X175632Y102912D01*
X175633Y102919D01*
X175638Y102919D01*
X176037Y103417D01*
X176535Y103915D01*
X176535Y103919D01*
X176538Y103919D01*
X176938Y104419D01*
X176939Y104427D01*
X176944Y104428D01*
X177244Y105028D01*
X177243Y105035D01*
X177247Y105036D01*
X177287Y105175D01*
X177329Y105323D01*
X177343Y105372D01*
X177385Y105520D01*
X177386Y105520D01*
X177385Y105520D01*
X177428Y105668D01*
X177442Y105717D01*
X177447Y105735D01*
X177647Y106334D01*
X177645Y106341D01*
X177649Y106343D01*
X177849Y107743D01*
X177846Y107748D01*
X177849Y107750D01*
X177849Y108350D01*
X177846Y108354D01*
X177849Y108357D01*
X177649Y109757D01*
X177644Y109762D01*
X177647Y109766D01*
X177447Y110366D01*
X177442Y110369D01*
X177444Y110372D01*
X177144Y110972D01*
X177140Y110974D01*
X177141Y110977D01*
X176743Y111575D01*
X176444Y112172D01*
X176434Y112177D01*
X176435Y112185D01*
X175435Y113185D01*
X175431Y113185D01*
X175431Y113188D01*
X174931Y113588D01*
X174923Y113589D01*
X174922Y113594D01*
X173122Y114494D01*
X173111Y114492D01*
X173107Y114499D01*
X172407Y114599D01*
X171708Y114699D01*
X171108Y114799D01*
X171103Y114796D01*
X171100Y114799D01*
X143900Y114799D01*
X143862Y114770D01*
X143854Y114768D01*
X143654Y114268D01*
X143655Y114266D01*
X143653Y114264D01*
X143657Y114258D01*
X143658Y114255D01*
X143651Y114250D01*
X143651Y101350D01*
X143676Y101317D01*
X143678Y101306D01*
X144078Y101106D01*
X144094Y101109D01*
X144100Y101101D01*
X171300Y101101D01*
X171305Y101104D01*
G37*
G36*
X157504Y196354D02*
X157504Y196354D01*
X157507Y196351D01*
X158207Y196451D01*
X158212Y196456D01*
X158216Y196453D01*
X158815Y196653D01*
X159514Y196853D01*
X159515Y196854D01*
X159516Y196853D01*
X160116Y197053D01*
X160121Y197061D01*
X160127Y197059D01*
X160727Y197459D01*
X160728Y197462D01*
X160731Y197462D01*
X161731Y198262D01*
X161732Y198266D01*
X161735Y198265D01*
X162235Y198765D01*
X162235Y198769D01*
X162238Y198769D01*
X162638Y199269D01*
X162639Y199273D01*
X162641Y199273D01*
X163041Y199873D01*
X163041Y199877D01*
X163044Y199878D01*
X163344Y200478D01*
X163343Y200485D01*
X163347Y200486D01*
X163358Y200524D01*
X163400Y200671D01*
X163414Y200721D01*
X163456Y200868D01*
X163457Y200868D01*
X163456Y200868D01*
X163499Y201016D01*
X163513Y201065D01*
X163547Y201185D01*
X163747Y201784D01*
X163745Y201791D01*
X163749Y201793D01*
X163849Y202493D01*
X163846Y202498D01*
X163849Y202500D01*
X163849Y203800D01*
X163846Y203804D01*
X163849Y203807D01*
X163749Y204507D01*
X163745Y204511D01*
X163747Y204514D01*
X163547Y205214D01*
X163546Y205215D01*
X163547Y205216D01*
X163347Y205816D01*
X163342Y205819D01*
X163344Y205822D01*
X163044Y206422D01*
X163040Y206424D01*
X163041Y206427D01*
X162641Y207027D01*
X162638Y207028D01*
X162638Y207031D01*
X161838Y208031D01*
X161834Y208032D01*
X161835Y208035D01*
X161335Y208535D01*
X161328Y208536D01*
X161327Y208541D01*
X160727Y208941D01*
X160723Y208941D01*
X160722Y208944D01*
X159522Y209544D01*
X159517Y209543D01*
X159516Y209547D01*
X158916Y209747D01*
X158914Y209746D01*
X158914Y209747D01*
X158214Y209947D01*
X158209Y209946D01*
X158207Y209949D01*
X157507Y210049D01*
X157502Y210046D01*
X157500Y210049D01*
X157100Y210049D01*
X157073Y210029D01*
X157060Y210028D01*
X157039Y210000D01*
X157038Y210031D01*
X157014Y210030D01*
X157000Y210049D01*
X144800Y210049D01*
X144791Y210042D01*
X144786Y210042D01*
X144784Y210041D01*
X144778Y210044D01*
X144378Y209844D01*
X144366Y209819D01*
X144353Y209809D01*
X144356Y209804D01*
X144351Y209800D01*
X144351Y196900D01*
X144359Y196889D01*
X144354Y196882D01*
X144554Y196382D01*
X144595Y196357D01*
X144600Y196351D01*
X157500Y196351D01*
X157504Y196354D01*
G37*
G36*
X163108Y217990D02*
X163108Y217990D01*
X163191Y217993D01*
X163195Y217996D01*
X163199Y217996D01*
X163328Y218063D01*
X163828Y218463D01*
X163839Y218478D01*
X163859Y218491D01*
X164344Y218976D01*
X165328Y219763D01*
X165339Y219778D01*
X165359Y219791D01*
X166244Y220676D01*
X166728Y221063D01*
X166739Y221078D01*
X166759Y221091D01*
X167259Y221591D01*
X167299Y221656D01*
X167343Y221718D01*
X167345Y221730D01*
X167350Y221738D01*
X167354Y221775D01*
X167370Y221860D01*
X167370Y240260D01*
X167367Y240273D01*
X167369Y240287D01*
X167348Y240357D01*
X167331Y240429D01*
X167322Y240439D01*
X167318Y240452D01*
X167267Y240506D01*
X167221Y240562D01*
X167208Y240568D01*
X167199Y240578D01*
X167065Y240633D01*
X166573Y240731D01*
X166182Y240829D01*
X166174Y240829D01*
X166165Y240833D01*
X165665Y240933D01*
X165633Y240932D01*
X165590Y240940D01*
X165228Y240940D01*
X164273Y241131D01*
X163882Y241229D01*
X163874Y241229D01*
X163865Y241233D01*
X163365Y241333D01*
X163363Y241333D01*
X163362Y241333D01*
X163278Y241330D01*
X163191Y241327D01*
X163190Y241327D01*
X163189Y241327D01*
X163115Y241286D01*
X163039Y241245D01*
X163038Y241244D01*
X163037Y241244D01*
X162989Y241175D01*
X162938Y241104D01*
X162938Y241103D01*
X162937Y241102D01*
X162910Y240960D01*
X162910Y240244D01*
X162787Y240398D01*
X162764Y240415D01*
X162686Y240486D01*
X161686Y241086D01*
X161673Y241090D01*
X161660Y241100D01*
X161060Y241400D01*
X161022Y241409D01*
X160953Y241435D01*
X159153Y241735D01*
X159114Y241733D01*
X159043Y241737D01*
X157443Y241537D01*
X157409Y241525D01*
X157354Y241515D01*
X156054Y241015D01*
X156027Y240997D01*
X155986Y240981D01*
X154886Y240281D01*
X154862Y240257D01*
X154821Y240229D01*
X153921Y239329D01*
X153901Y239297D01*
X153862Y239252D01*
X153162Y238052D01*
X153154Y238026D01*
X153135Y237997D01*
X152635Y236697D01*
X152632Y236671D01*
X152618Y236640D01*
X152318Y235240D01*
X152319Y235207D01*
X152310Y235160D01*
X152310Y233760D01*
X152313Y233748D01*
X152311Y233733D01*
X152411Y232333D01*
X152414Y232321D01*
X152414Y232306D01*
X152614Y230906D01*
X152627Y230871D01*
X152639Y230814D01*
X153139Y229614D01*
X153155Y229591D01*
X153169Y229556D01*
X153869Y228456D01*
X153893Y228432D01*
X153921Y228391D01*
X154821Y227491D01*
X154845Y227476D01*
X154872Y227449D01*
X155872Y226749D01*
X155906Y226735D01*
X155954Y226705D01*
X157254Y226205D01*
X157292Y226200D01*
X157365Y226181D01*
X158865Y226081D01*
X158876Y226082D01*
X158890Y226080D01*
X159490Y226080D01*
X159516Y226086D01*
X159553Y226085D01*
X160153Y226185D01*
X160176Y226195D01*
X160210Y226199D01*
X161410Y226599D01*
X161439Y226617D01*
X161486Y226634D01*
X161986Y226934D01*
X162002Y226950D01*
X162028Y226963D01*
X162528Y227363D01*
X162539Y227378D01*
X162559Y227391D01*
X162710Y227542D01*
X162710Y218360D01*
X162711Y218356D01*
X162710Y218351D01*
X162730Y218271D01*
X162749Y218191D01*
X162752Y218188D01*
X162753Y218183D01*
X162807Y218121D01*
X162859Y218058D01*
X162864Y218056D01*
X162867Y218052D01*
X162943Y218020D01*
X163018Y217987D01*
X163022Y217987D01*
X163026Y217985D01*
X163108Y217990D01*
G37*
G36*
X109188Y196364D02*
X109188Y196364D01*
X109200Y196361D01*
X109600Y196661D01*
X109604Y196677D01*
X109611Y196682D01*
X109607Y196688D01*
X109609Y196692D01*
X109619Y196700D01*
X109619Y209600D01*
X109603Y209621D01*
X109605Y209635D01*
X109205Y210035D01*
X109180Y210038D01*
X109177Y210042D01*
X109175Y210042D01*
X109170Y210049D01*
X99370Y210049D01*
X99366Y210046D01*
X99363Y210049D01*
X97963Y209849D01*
X97960Y209845D01*
X97958Y209845D01*
X97957Y209845D01*
X97954Y209847D01*
X97354Y209647D01*
X97351Y209642D01*
X97348Y209644D01*
X96148Y209044D01*
X96146Y209040D01*
X96143Y209041D01*
X95543Y208641D01*
X95542Y208638D01*
X95539Y208638D01*
X95039Y208238D01*
X95038Y208234D01*
X95035Y208235D01*
X94535Y207735D01*
X94535Y207731D01*
X94532Y207731D01*
X94132Y207231D01*
X94131Y207227D01*
X94129Y207227D01*
X93729Y206627D01*
X93729Y206623D01*
X93726Y206622D01*
X93126Y205422D01*
X93127Y205417D01*
X93123Y205416D01*
X92923Y204816D01*
X92925Y204809D01*
X92921Y204807D01*
X92721Y203407D01*
X92726Y203398D01*
X92721Y203393D01*
X92821Y202697D01*
X92821Y202100D01*
X92827Y202092D01*
X92823Y202086D01*
X93223Y200686D01*
X93228Y200682D01*
X93226Y200678D01*
X93826Y199478D01*
X93833Y199475D01*
X93832Y199469D01*
X94232Y198969D01*
X94236Y198968D01*
X94235Y198965D01*
X95235Y197965D01*
X95239Y197965D01*
X95239Y197962D01*
X95739Y197562D01*
X95743Y197561D01*
X95743Y197559D01*
X96343Y197159D01*
X96352Y197160D01*
X96354Y197153D01*
X96951Y196954D01*
X97548Y196656D01*
X97559Y196658D01*
X97563Y196651D01*
X98263Y196551D01*
X98962Y196451D01*
X99562Y196351D01*
X99598Y196370D01*
X99609Y196370D01*
X99631Y196398D01*
X99630Y196371D01*
X99655Y196371D01*
X99670Y196351D01*
X109170Y196351D01*
X109188Y196364D01*
G37*
G36*
X147220Y225987D02*
X147220Y225987D01*
X147265Y225987D01*
X147728Y226080D01*
X148190Y226080D01*
X148205Y226083D01*
X148220Y226081D01*
X148352Y226118D01*
X148359Y226119D01*
X148359Y226120D01*
X148360Y226120D01*
X148723Y226301D01*
X149082Y226391D01*
X149112Y226407D01*
X149160Y226420D01*
X149880Y226780D01*
X149960Y226820D01*
X149976Y226833D01*
X150001Y226844D01*
X150301Y227044D01*
X150322Y227067D01*
X150359Y227091D01*
X150959Y227691D01*
X150971Y227711D01*
X150994Y227732D01*
X151294Y228132D01*
X151306Y228158D01*
X151330Y228190D01*
X151530Y228590D01*
X151538Y228623D01*
X151559Y228668D01*
X151759Y229468D01*
X151759Y229476D01*
X151763Y229485D01*
X151863Y229985D01*
X151862Y230017D01*
X151870Y230060D01*
X151870Y230560D01*
X151867Y230575D01*
X151869Y230594D01*
X151769Y231694D01*
X151758Y231728D01*
X151751Y231780D01*
X151451Y232680D01*
X151430Y232714D01*
X151399Y232781D01*
X150899Y233481D01*
X150879Y233499D01*
X150859Y233529D01*
X150259Y234129D01*
X150226Y234149D01*
X150179Y234190D01*
X149479Y234590D01*
X149453Y234598D01*
X149424Y234616D01*
X148624Y234916D01*
X148600Y234919D01*
X148573Y234931D01*
X147673Y235131D01*
X147656Y235131D01*
X147637Y235137D01*
X146855Y235235D01*
X145973Y235431D01*
X145954Y235431D01*
X145932Y235438D01*
X145033Y235538D01*
X144241Y235637D01*
X143578Y235732D01*
X143069Y235901D01*
X142762Y236132D01*
X142546Y236419D01*
X142470Y236798D01*
X142470Y236998D01*
X142551Y237240D01*
X142554Y237277D01*
X142560Y237308D01*
X142563Y237315D01*
X142563Y237323D01*
X142570Y237360D01*
X142570Y237470D01*
X142703Y237735D01*
X142915Y237948D01*
X143380Y238180D01*
X143490Y238180D01*
X143505Y238183D01*
X143520Y238181D01*
X143652Y238218D01*
X143659Y238219D01*
X143659Y238220D01*
X143660Y238220D01*
X143780Y238280D01*
X144390Y238280D01*
X144405Y238283D01*
X144420Y238281D01*
X144552Y238318D01*
X144559Y238319D01*
X144559Y238320D01*
X144560Y238320D01*
X144619Y238349D01*
X144770Y238299D01*
X144807Y238296D01*
X144890Y238280D01*
X145328Y238280D01*
X145570Y238199D01*
X145607Y238196D01*
X145690Y238180D01*
X145800Y238180D01*
X146065Y238048D01*
X146578Y237535D01*
X146710Y237270D01*
X146710Y237060D01*
X146713Y237045D01*
X146711Y237030D01*
X146748Y236898D01*
X146749Y236891D01*
X146750Y236891D01*
X146750Y236890D01*
X146810Y236770D01*
X146810Y236560D01*
X146821Y236510D01*
X146823Y236459D01*
X146841Y236427D01*
X146849Y236391D01*
X146882Y236352D01*
X146906Y236307D01*
X146936Y236286D01*
X146959Y236258D01*
X147006Y236237D01*
X147048Y236207D01*
X147090Y236199D01*
X147118Y236187D01*
X147148Y236188D01*
X147190Y236180D01*
X151090Y236180D01*
X151165Y236197D01*
X151242Y236211D01*
X151249Y236217D01*
X151259Y236219D01*
X151319Y236269D01*
X151381Y236315D01*
X151385Y236323D01*
X151392Y236329D01*
X151424Y236400D01*
X151459Y236469D01*
X151460Y236480D01*
X151463Y236488D01*
X151462Y236523D01*
X151466Y236614D01*
X151366Y237314D01*
X151363Y237323D01*
X151363Y237335D01*
X151263Y237835D01*
X151255Y237852D01*
X151254Y237868D01*
X151252Y237873D01*
X151251Y237880D01*
X151051Y238480D01*
X151033Y238509D01*
X151016Y238556D01*
X150716Y239056D01*
X150704Y239068D01*
X150694Y239088D01*
X150394Y239488D01*
X150376Y239503D01*
X150359Y239529D01*
X149959Y239929D01*
X149939Y239941D01*
X149918Y239964D01*
X149118Y240564D01*
X149102Y240571D01*
X149086Y240586D01*
X148586Y240886D01*
X148561Y240894D01*
X148531Y240913D01*
X147531Y241313D01*
X147498Y241318D01*
X147453Y241335D01*
X145653Y241635D01*
X145626Y241633D01*
X145590Y241640D01*
X143390Y241640D01*
X143364Y241634D01*
X143328Y241635D01*
X142759Y241540D01*
X142290Y241540D01*
X142260Y241533D01*
X142215Y241533D01*
X141715Y241433D01*
X141697Y241424D01*
X141670Y241421D01*
X141084Y241225D01*
X140698Y241129D01*
X140678Y241119D01*
X140649Y241113D01*
X140149Y240913D01*
X140137Y240905D01*
X140120Y240900D01*
X139860Y240770D01*
X139720Y240700D01*
X139698Y240682D01*
X139662Y240664D01*
X139262Y240364D01*
X139247Y240346D01*
X139221Y240329D01*
X138521Y239629D01*
X138519Y239625D01*
X138515Y239623D01*
X138437Y239501D01*
X138243Y239016D01*
X138050Y238630D01*
X138041Y238592D01*
X138015Y238523D01*
X137815Y237323D01*
X137817Y237296D01*
X137810Y237260D01*
X137810Y228350D01*
X137750Y228230D01*
X137746Y228215D01*
X137737Y228202D01*
X137711Y228068D01*
X137710Y228062D01*
X137710Y228061D01*
X137710Y228060D01*
X137710Y227750D01*
X137650Y227630D01*
X137646Y227615D01*
X137637Y227602D01*
X137611Y227468D01*
X137610Y227462D01*
X137610Y227461D01*
X137610Y227460D01*
X137610Y227450D01*
X137550Y227330D01*
X137546Y227315D01*
X137537Y227302D01*
X137511Y227168D01*
X137510Y227162D01*
X137510Y227161D01*
X137510Y227160D01*
X137510Y227150D01*
X137450Y227030D01*
X137446Y227015D01*
X137437Y227002D01*
X137411Y226868D01*
X137410Y226862D01*
X137410Y226861D01*
X137410Y226860D01*
X137410Y226760D01*
X137421Y226710D01*
X137423Y226659D01*
X137441Y226627D01*
X137449Y226591D01*
X137482Y226552D01*
X137506Y226507D01*
X137536Y226486D01*
X137559Y226458D01*
X137606Y226437D01*
X137648Y226407D01*
X137690Y226399D01*
X137718Y226387D01*
X137748Y226388D01*
X137790Y226380D01*
X141690Y226380D01*
X141740Y226391D01*
X141791Y226393D01*
X141823Y226411D01*
X141859Y226419D01*
X141898Y226452D01*
X141943Y226476D01*
X141964Y226506D01*
X141992Y226529D01*
X142013Y226576D01*
X142043Y226618D01*
X142051Y226660D01*
X142063Y226688D01*
X142062Y226718D01*
X142070Y226760D01*
X142070Y226809D01*
X142099Y226856D01*
X142143Y226918D01*
X142145Y226930D01*
X142150Y226938D01*
X142154Y226975D01*
X142156Y226989D01*
X142159Y226991D01*
X142199Y227056D01*
X142243Y227118D01*
X142245Y227130D01*
X142250Y227138D01*
X142254Y227175D01*
X142270Y227260D01*
X142270Y227283D01*
X142479Y227144D01*
X142515Y227130D01*
X142570Y227099D01*
X142822Y227015D01*
X143079Y226844D01*
X143099Y226836D01*
X143120Y226820D01*
X143299Y226731D01*
X143579Y226544D01*
X143615Y226530D01*
X143670Y226499D01*
X143970Y226399D01*
X143983Y226398D01*
X143998Y226391D01*
X144384Y226295D01*
X144670Y226199D01*
X144707Y226196D01*
X144790Y226180D01*
X145028Y226180D01*
X145270Y226099D01*
X145307Y226096D01*
X145390Y226080D01*
X146028Y226080D01*
X146270Y225999D01*
X146307Y225996D01*
X146390Y225980D01*
X147190Y225980D01*
X147220Y225987D01*
G37*
G36*
X116224Y226388D02*
X116224Y226388D01*
X116258Y226386D01*
X116307Y226407D01*
X116359Y226419D01*
X116385Y226441D01*
X116417Y226455D01*
X116462Y226505D01*
X116492Y226529D01*
X116500Y226546D01*
X116515Y226562D01*
X120163Y232549D01*
X121210Y231503D01*
X121210Y226760D01*
X121221Y226710D01*
X121223Y226659D01*
X121241Y226627D01*
X121249Y226591D01*
X121282Y226552D01*
X121306Y226507D01*
X121336Y226486D01*
X121359Y226458D01*
X121406Y226437D01*
X121448Y226407D01*
X121490Y226399D01*
X121518Y226387D01*
X121548Y226388D01*
X121590Y226380D01*
X125390Y226380D01*
X125440Y226391D01*
X125491Y226393D01*
X125523Y226411D01*
X125559Y226419D01*
X125598Y226452D01*
X125643Y226476D01*
X125664Y226506D01*
X125692Y226529D01*
X125713Y226576D01*
X125743Y226618D01*
X125751Y226660D01*
X125763Y226688D01*
X125762Y226718D01*
X125770Y226760D01*
X125770Y244160D01*
X125761Y244198D01*
X125762Y244237D01*
X125742Y244281D01*
X125731Y244329D01*
X125706Y244359D01*
X125690Y244394D01*
X125644Y244433D01*
X125621Y244462D01*
X125601Y244471D01*
X125581Y244489D01*
X121781Y246689D01*
X121720Y246707D01*
X121662Y246733D01*
X121638Y246732D01*
X121615Y246739D01*
X121553Y246729D01*
X121489Y246727D01*
X121468Y246715D01*
X121444Y246711D01*
X121393Y246674D01*
X121337Y246644D01*
X121323Y246624D01*
X121303Y246610D01*
X121274Y246554D01*
X121237Y246502D01*
X121232Y246475D01*
X121222Y246457D01*
X121221Y246419D01*
X121210Y246360D01*
X121210Y236805D01*
X116964Y241223D01*
X116897Y241267D01*
X116832Y241313D01*
X116824Y241314D01*
X116819Y241318D01*
X116786Y241322D01*
X116690Y241340D01*
X112090Y241340D01*
X112063Y241334D01*
X112036Y241336D01*
X111980Y241314D01*
X111921Y241301D01*
X111900Y241283D01*
X111874Y241273D01*
X111834Y241229D01*
X111788Y241191D01*
X111776Y241165D01*
X111758Y241145D01*
X111741Y241087D01*
X111717Y241032D01*
X111718Y241005D01*
X111710Y240978D01*
X111721Y240919D01*
X111723Y240859D01*
X111737Y240835D01*
X111742Y240808D01*
X111788Y240741D01*
X111806Y240707D01*
X111816Y240700D01*
X111824Y240689D01*
X116901Y235707D01*
X111172Y226968D01*
X111147Y226899D01*
X111117Y226832D01*
X111117Y226819D01*
X111113Y226806D01*
X111121Y226733D01*
X111123Y226659D01*
X111130Y226647D01*
X111131Y226634D01*
X111171Y226572D01*
X111206Y226507D01*
X111217Y226499D01*
X111225Y226488D01*
X111288Y226450D01*
X111348Y226407D01*
X111363Y226404D01*
X111373Y226398D01*
X111412Y226395D01*
X111490Y226380D01*
X116190Y226380D01*
X116224Y226388D01*
G37*
G36*
X76740Y226391D02*
X76740Y226391D01*
X76791Y226393D01*
X76823Y226411D01*
X76859Y226419D01*
X76898Y226452D01*
X76943Y226476D01*
X76964Y226506D01*
X76992Y226529D01*
X77013Y226576D01*
X77043Y226618D01*
X77051Y226660D01*
X77063Y226688D01*
X77062Y226718D01*
X77070Y226760D01*
X77070Y235533D01*
X77162Y236172D01*
X77338Y236700D01*
X77606Y237148D01*
X77862Y237488D01*
X78144Y237700D01*
X79194Y237875D01*
X80460Y237694D01*
X80836Y237469D01*
X81177Y237042D01*
X81438Y236607D01*
X81621Y235966D01*
X81810Y235118D01*
X81810Y226760D01*
X81821Y226710D01*
X81823Y226659D01*
X81841Y226627D01*
X81849Y226591D01*
X81882Y226552D01*
X81906Y226507D01*
X81936Y226486D01*
X81959Y226458D01*
X82006Y226437D01*
X82048Y226407D01*
X82090Y226399D01*
X82118Y226387D01*
X82148Y226388D01*
X82190Y226380D01*
X86090Y226380D01*
X86140Y226391D01*
X86191Y226393D01*
X86223Y226411D01*
X86259Y226419D01*
X86298Y226452D01*
X86343Y226476D01*
X86364Y226506D01*
X86392Y226529D01*
X86413Y226576D01*
X86443Y226618D01*
X86451Y226660D01*
X86463Y226688D01*
X86462Y226718D01*
X86470Y226760D01*
X86470Y239160D01*
X86468Y239169D01*
X86470Y239181D01*
X86370Y240981D01*
X86358Y241020D01*
X86357Y241061D01*
X86334Y241102D01*
X86321Y241147D01*
X86293Y241177D01*
X86274Y241213D01*
X86235Y241240D01*
X86203Y241275D01*
X86165Y241289D01*
X86132Y241313D01*
X86076Y241324D01*
X86042Y241337D01*
X86019Y241335D01*
X85990Y241340D01*
X82390Y241340D01*
X82340Y241329D01*
X82289Y241327D01*
X82257Y241309D01*
X82221Y241301D01*
X82182Y241268D01*
X82137Y241244D01*
X82116Y241214D01*
X82088Y241191D01*
X82067Y241144D01*
X82037Y241102D01*
X82029Y241060D01*
X82017Y241032D01*
X82018Y241002D01*
X82010Y240960D01*
X82010Y240019D01*
X81787Y240298D01*
X81764Y240315D01*
X81761Y240322D01*
X81745Y240333D01*
X81701Y240376D01*
X81101Y240776D01*
X81093Y240779D01*
X81086Y240786D01*
X80586Y241086D01*
X80553Y241096D01*
X80510Y241121D01*
X79310Y241521D01*
X79285Y241523D01*
X79253Y241535D01*
X78053Y241735D01*
X78014Y241733D01*
X77936Y241736D01*
X76536Y241536D01*
X76520Y241530D01*
X76498Y241529D01*
X75298Y241229D01*
X75264Y241212D01*
X75205Y241192D01*
X74305Y240692D01*
X74277Y240666D01*
X74221Y240629D01*
X73621Y240029D01*
X73601Y239996D01*
X73558Y239945D01*
X73058Y239045D01*
X73052Y239024D01*
X73037Y239001D01*
X72637Y238001D01*
X72631Y237963D01*
X72611Y237894D01*
X72511Y236794D01*
X72512Y236792D01*
X72511Y236789D01*
X72411Y235489D01*
X72413Y235476D01*
X72410Y235460D01*
X72410Y226760D01*
X72421Y226710D01*
X72423Y226659D01*
X72441Y226627D01*
X72449Y226591D01*
X72482Y226552D01*
X72506Y226507D01*
X72536Y226486D01*
X72559Y226458D01*
X72606Y226437D01*
X72648Y226407D01*
X72690Y226399D01*
X72718Y226387D01*
X72748Y226388D01*
X72790Y226380D01*
X76690Y226380D01*
X76740Y226391D01*
G37*
G36*
X97744Y226184D02*
X97744Y226184D01*
X97763Y226191D01*
X97790Y226193D01*
X98890Y226493D01*
X98922Y226510D01*
X98975Y226528D01*
X99875Y227028D01*
X99898Y227049D01*
X99937Y227071D01*
X100637Y227671D01*
X100654Y227694D01*
X100722Y227775D01*
X101222Y228675D01*
X101232Y228708D01*
X101254Y228751D01*
X101554Y229751D01*
X101555Y229770D01*
X101564Y229792D01*
X101764Y230892D01*
X101763Y230921D01*
X101770Y230960D01*
X101770Y240960D01*
X101759Y241010D01*
X101757Y241061D01*
X101739Y241093D01*
X101731Y241129D01*
X101698Y241168D01*
X101674Y241213D01*
X101644Y241234D01*
X101621Y241262D01*
X101574Y241283D01*
X101532Y241313D01*
X101490Y241321D01*
X101462Y241333D01*
X101432Y241332D01*
X101390Y241340D01*
X97490Y241340D01*
X97440Y241329D01*
X97389Y241327D01*
X97357Y241309D01*
X97321Y241301D01*
X97282Y241268D01*
X97237Y241244D01*
X97216Y241214D01*
X97188Y241191D01*
X97167Y241144D01*
X97137Y241102D01*
X97129Y241060D01*
X97117Y241032D01*
X97118Y241002D01*
X97110Y240960D01*
X97110Y232187D01*
X97018Y231548D01*
X96833Y230991D01*
X96666Y230574D01*
X96340Y230248D01*
X96031Y230016D01*
X95626Y229935D01*
X94990Y229844D01*
X94347Y229936D01*
X93824Y230023D01*
X93426Y230262D01*
X92992Y230696D01*
X92742Y231113D01*
X92564Y231734D01*
X92468Y232600D01*
X92370Y233579D01*
X92370Y240960D01*
X92359Y241010D01*
X92357Y241061D01*
X92339Y241093D01*
X92331Y241129D01*
X92298Y241168D01*
X92274Y241213D01*
X92244Y241234D01*
X92221Y241262D01*
X92174Y241283D01*
X92132Y241313D01*
X92090Y241321D01*
X92062Y241333D01*
X92032Y241332D01*
X91990Y241340D01*
X88190Y241340D01*
X88140Y241329D01*
X88089Y241327D01*
X88057Y241309D01*
X88021Y241301D01*
X87982Y241268D01*
X87937Y241244D01*
X87916Y241214D01*
X87888Y241191D01*
X87867Y241144D01*
X87837Y241102D01*
X87829Y241060D01*
X87817Y241032D01*
X87818Y241002D01*
X87810Y240960D01*
X87810Y226760D01*
X87821Y226710D01*
X87823Y226659D01*
X87841Y226627D01*
X87849Y226591D01*
X87882Y226552D01*
X87906Y226507D01*
X87936Y226486D01*
X87959Y226458D01*
X88006Y226437D01*
X88048Y226407D01*
X88090Y226399D01*
X88118Y226387D01*
X88148Y226388D01*
X88190Y226380D01*
X91890Y226380D01*
X91940Y226391D01*
X91991Y226393D01*
X92023Y226411D01*
X92059Y226419D01*
X92098Y226452D01*
X92143Y226476D01*
X92164Y226506D01*
X92192Y226529D01*
X92213Y226576D01*
X92243Y226618D01*
X92251Y226660D01*
X92263Y226688D01*
X92262Y226718D01*
X92270Y226760D01*
X92270Y227689D01*
X92536Y227476D01*
X93021Y226991D01*
X93052Y226972D01*
X93094Y226934D01*
X93594Y226634D01*
X93627Y226624D01*
X93670Y226599D01*
X94870Y226199D01*
X94895Y226197D01*
X94928Y226185D01*
X95528Y226085D01*
X95532Y226085D01*
X95536Y226084D01*
X96236Y225984D01*
X96275Y225987D01*
X96344Y225984D01*
X97744Y226184D01*
G37*
G36*
X176316Y226086D02*
X176316Y226086D01*
X176353Y226085D01*
X177553Y226285D01*
X177580Y226296D01*
X177620Y226303D01*
X178720Y226703D01*
X178736Y226713D01*
X178760Y226720D01*
X179080Y226880D01*
X179760Y227220D01*
X179782Y227238D01*
X179818Y227256D01*
X180618Y227856D01*
X180643Y227885D01*
X180690Y227927D01*
X181390Y228827D01*
X181406Y228862D01*
X181447Y228930D01*
X181847Y230030D01*
X181851Y230059D01*
X181865Y230098D01*
X182065Y231298D01*
X182060Y231379D01*
X182057Y231461D01*
X182054Y231465D01*
X182054Y231470D01*
X182013Y231541D01*
X181974Y231613D01*
X181970Y231616D01*
X181967Y231620D01*
X181899Y231666D01*
X181832Y231713D01*
X181827Y231714D01*
X181823Y231716D01*
X181795Y231720D01*
X181690Y231740D01*
X177990Y231740D01*
X177971Y231736D01*
X177951Y231738D01*
X177887Y231716D01*
X177821Y231701D01*
X177806Y231688D01*
X177787Y231682D01*
X177740Y231634D01*
X177688Y231591D01*
X177679Y231572D01*
X177666Y231558D01*
X177628Y231458D01*
X177617Y231432D01*
X177617Y231428D01*
X177615Y231423D01*
X177524Y230879D01*
X177350Y230530D01*
X177347Y230516D01*
X177337Y230501D01*
X177177Y230100D01*
X176902Y229894D01*
X175981Y229526D01*
X175521Y229434D01*
X175006Y229348D01*
X174682Y229429D01*
X174646Y229429D01*
X174590Y229440D01*
X174263Y229440D01*
X173831Y229613D01*
X173809Y229616D01*
X173782Y229629D01*
X173484Y229703D01*
X173003Y230185D01*
X172870Y230450D01*
X172870Y230813D01*
X172943Y231104D01*
X173086Y231318D01*
X173326Y231558D01*
X173743Y231808D01*
X175084Y232191D01*
X175968Y232388D01*
X176965Y232587D01*
X176989Y232598D01*
X177024Y232604D01*
X177803Y232896D01*
X178582Y233091D01*
X178599Y233100D01*
X178624Y233104D01*
X179424Y233404D01*
X179445Y233419D01*
X179479Y233430D01*
X180179Y233830D01*
X180207Y233856D01*
X180259Y233891D01*
X181259Y234891D01*
X181263Y234898D01*
X181270Y234903D01*
X181346Y235027D01*
X181646Y235827D01*
X181651Y235862D01*
X181653Y235869D01*
X181664Y235894D01*
X181664Y235902D01*
X181667Y235913D01*
X181767Y236713D01*
X181763Y236751D01*
X181766Y236818D01*
X181566Y238118D01*
X181553Y238150D01*
X181543Y238201D01*
X181143Y239201D01*
X181122Y239231D01*
X181079Y239307D01*
X180479Y240007D01*
X180464Y240018D01*
X180462Y240022D01*
X180447Y240033D01*
X180418Y240064D01*
X179618Y240664D01*
X179597Y240673D01*
X179575Y240692D01*
X178675Y241192D01*
X178642Y241202D01*
X178599Y241224D01*
X177599Y241524D01*
X177568Y241526D01*
X177524Y241539D01*
X176424Y241639D01*
X176423Y241639D01*
X176422Y241639D01*
X175222Y241739D01*
X175194Y241735D01*
X175156Y241739D01*
X172956Y241539D01*
X172925Y241529D01*
X172881Y241524D01*
X171881Y241224D01*
X171852Y241208D01*
X171805Y241192D01*
X170905Y240692D01*
X170889Y240677D01*
X170862Y240664D01*
X170062Y240064D01*
X170041Y240039D01*
X170004Y240010D01*
X169304Y239210D01*
X169288Y239180D01*
X169237Y239101D01*
X168837Y238101D01*
X168832Y238070D01*
X168816Y238028D01*
X168616Y236928D01*
X168620Y236843D01*
X168623Y236759D01*
X168624Y236757D01*
X168625Y236755D01*
X168666Y236680D01*
X168706Y236607D01*
X168708Y236606D01*
X168709Y236604D01*
X168781Y236555D01*
X168848Y236507D01*
X168850Y236507D01*
X168852Y236506D01*
X168869Y236503D01*
X168990Y236480D01*
X172690Y236480D01*
X172703Y236483D01*
X172717Y236481D01*
X172787Y236502D01*
X172859Y236519D01*
X172869Y236528D01*
X172882Y236532D01*
X172936Y236583D01*
X172992Y236629D01*
X172998Y236642D01*
X173008Y236651D01*
X173063Y236785D01*
X173161Y237277D01*
X173233Y237566D01*
X173715Y238048D01*
X174023Y238201D01*
X174373Y238289D01*
X174828Y238380D01*
X175628Y238380D01*
X175870Y238299D01*
X175907Y238296D01*
X175990Y238280D01*
X176328Y238280D01*
X176522Y238215D01*
X176971Y237916D01*
X177025Y237754D01*
X177100Y237451D01*
X177034Y237119D01*
X176818Y236832D01*
X176511Y236601D01*
X175977Y236423D01*
X174614Y236034D01*
X173843Y235937D01*
X173824Y235930D01*
X173798Y235929D01*
X173002Y235730D01*
X172108Y235531D01*
X172087Y235521D01*
X172057Y235516D01*
X171257Y235216D01*
X171250Y235212D01*
X171240Y235210D01*
X170540Y234910D01*
X170525Y234898D01*
X170501Y234890D01*
X169801Y234490D01*
X169781Y234471D01*
X169747Y234452D01*
X169147Y233952D01*
X169123Y233921D01*
X169118Y233916D01*
X169117Y233915D01*
X169074Y233871D01*
X168674Y233271D01*
X168661Y233238D01*
X168634Y233194D01*
X168334Y232394D01*
X168329Y232357D01*
X168312Y232302D01*
X168212Y231402D01*
X168216Y231372D01*
X168211Y231331D01*
X168311Y230031D01*
X168311Y230030D01*
X168350Y229890D01*
X168850Y228890D01*
X168863Y228874D01*
X168874Y228849D01*
X169474Y227949D01*
X169499Y227925D01*
X169562Y227856D01*
X170362Y227256D01*
X170388Y227244D01*
X170420Y227220D01*
X171420Y226720D01*
X171439Y226715D01*
X171460Y226703D01*
X172560Y226303D01*
X172589Y226299D01*
X172628Y226285D01*
X173828Y226085D01*
X173854Y226087D01*
X173890Y226080D01*
X176290Y226080D01*
X176316Y226086D01*
G37*
G36*
X109140Y226391D02*
X109140Y226391D01*
X109191Y226393D01*
X109223Y226411D01*
X109259Y226419D01*
X109298Y226452D01*
X109343Y226476D01*
X109364Y226506D01*
X109392Y226529D01*
X109413Y226576D01*
X109443Y226618D01*
X109451Y226660D01*
X109463Y226688D01*
X109462Y226718D01*
X109470Y226760D01*
X109470Y237980D01*
X112890Y237980D01*
X112915Y237986D01*
X112941Y237983D01*
X112999Y238005D01*
X113059Y238019D01*
X113079Y238036D01*
X113103Y238045D01*
X113145Y238090D01*
X113192Y238129D01*
X113203Y238153D01*
X113220Y238172D01*
X113238Y238231D01*
X113263Y238288D01*
X113262Y238313D01*
X113270Y238338D01*
X113259Y238399D01*
X113257Y238461D01*
X113244Y238483D01*
X113240Y238509D01*
X113192Y238580D01*
X113174Y238613D01*
X113166Y238619D01*
X113159Y238629D01*
X112559Y239229D01*
X112539Y239241D01*
X112518Y239264D01*
X112162Y239532D01*
X111894Y239888D01*
X111876Y239903D01*
X111859Y239929D01*
X111259Y240529D01*
X111239Y240541D01*
X111218Y240564D01*
X110862Y240832D01*
X110594Y241188D01*
X110582Y241199D01*
X110574Y241213D01*
X110516Y241254D01*
X110461Y241299D01*
X110446Y241303D01*
X110432Y241313D01*
X110305Y241337D01*
X110293Y241340D01*
X110292Y241340D01*
X110290Y241340D01*
X109470Y241340D01*
X109470Y242060D01*
X109466Y242078D01*
X109468Y242102D01*
X109368Y243002D01*
X109360Y243023D01*
X109359Y243052D01*
X109159Y243852D01*
X109141Y243887D01*
X109120Y243949D01*
X108720Y244649D01*
X108701Y244669D01*
X108682Y244703D01*
X108182Y245303D01*
X108170Y245313D01*
X108159Y245329D01*
X107559Y245929D01*
X107552Y245933D01*
X107547Y245940D01*
X107424Y246016D01*
X106624Y246316D01*
X106612Y246318D01*
X106599Y246324D01*
X105599Y246624D01*
X105568Y246626D01*
X105524Y246639D01*
X104424Y246739D01*
X104409Y246737D01*
X104390Y246740D01*
X103590Y246740D01*
X103553Y246732D01*
X103470Y246721D01*
X103228Y246640D01*
X102290Y246640D01*
X102240Y246629D01*
X102189Y246627D01*
X102157Y246609D01*
X102121Y246601D01*
X102082Y246568D01*
X102037Y246544D01*
X102016Y246514D01*
X101988Y246491D01*
X101967Y246444D01*
X101937Y246402D01*
X101929Y246360D01*
X101917Y246332D01*
X101918Y246302D01*
X101910Y246260D01*
X101910Y243360D01*
X101921Y243310D01*
X101923Y243259D01*
X101941Y243227D01*
X101949Y243191D01*
X101982Y243152D01*
X102006Y243107D01*
X102036Y243086D01*
X102059Y243058D01*
X102106Y243037D01*
X102148Y243007D01*
X102190Y242999D01*
X102218Y242987D01*
X102248Y242988D01*
X102290Y242980D01*
X104028Y242980D01*
X104544Y242808D01*
X104579Y242790D01*
X104629Y242640D01*
X104642Y242620D01*
X104650Y242590D01*
X104731Y242427D01*
X104810Y242113D01*
X104810Y241340D01*
X102490Y241340D01*
X102440Y241329D01*
X102389Y241327D01*
X102357Y241309D01*
X102321Y241301D01*
X102282Y241268D01*
X102237Y241244D01*
X102216Y241214D01*
X102188Y241191D01*
X102167Y241144D01*
X102137Y241102D01*
X102129Y241060D01*
X102117Y241032D01*
X102118Y241002D01*
X102110Y240960D01*
X102110Y238360D01*
X102121Y238310D01*
X102123Y238259D01*
X102141Y238227D01*
X102149Y238191D01*
X102182Y238152D01*
X102206Y238107D01*
X102236Y238086D01*
X102259Y238058D01*
X102306Y238037D01*
X102348Y238007D01*
X102390Y237999D01*
X102418Y237987D01*
X102448Y237988D01*
X102490Y237980D01*
X104810Y237980D01*
X104810Y226760D01*
X104821Y226710D01*
X104823Y226659D01*
X104841Y226627D01*
X104849Y226591D01*
X104882Y226552D01*
X104906Y226507D01*
X104936Y226486D01*
X104959Y226458D01*
X105006Y226437D01*
X105048Y226407D01*
X105090Y226399D01*
X105118Y226387D01*
X105148Y226388D01*
X105190Y226380D01*
X109090Y226380D01*
X109140Y226391D01*
G37*
G36*
X136140Y226391D02*
X136140Y226391D01*
X136191Y226393D01*
X136223Y226411D01*
X136259Y226419D01*
X136298Y226452D01*
X136343Y226476D01*
X136364Y226506D01*
X136392Y226529D01*
X136413Y226576D01*
X136443Y226618D01*
X136451Y226660D01*
X136463Y226688D01*
X136462Y226718D01*
X136470Y226760D01*
X136470Y240260D01*
X136467Y240273D01*
X136469Y240287D01*
X136448Y240357D01*
X136431Y240429D01*
X136422Y240439D01*
X136418Y240452D01*
X136367Y240506D01*
X136321Y240562D01*
X136308Y240568D01*
X136299Y240578D01*
X136165Y240633D01*
X135173Y240831D01*
X134782Y240929D01*
X134746Y240929D01*
X134690Y240940D01*
X134228Y240940D01*
X133773Y241031D01*
X133382Y241129D01*
X133374Y241129D01*
X133365Y241133D01*
X132873Y241231D01*
X132482Y241329D01*
X132472Y241329D01*
X132462Y241333D01*
X132386Y241330D01*
X132309Y241332D01*
X132300Y241327D01*
X132289Y241327D01*
X132222Y241290D01*
X132153Y241257D01*
X132146Y241249D01*
X132137Y241244D01*
X132093Y241181D01*
X132045Y241121D01*
X132043Y241111D01*
X132037Y241102D01*
X132010Y240960D01*
X132010Y239616D01*
X131906Y239771D01*
X131884Y239792D01*
X131859Y239829D01*
X131359Y240329D01*
X131332Y240345D01*
X131301Y240376D01*
X130101Y241176D01*
X130065Y241190D01*
X129994Y241226D01*
X128594Y241626D01*
X128556Y241628D01*
X128490Y241640D01*
X127090Y241640D01*
X127016Y241623D01*
X126941Y241610D01*
X126931Y241603D01*
X126921Y241601D01*
X126892Y241577D01*
X126821Y241529D01*
X126721Y241429D01*
X126681Y241364D01*
X126637Y241302D01*
X126635Y241290D01*
X126630Y241282D01*
X126626Y241245D01*
X126610Y241160D01*
X126610Y237560D01*
X126621Y237510D01*
X126623Y237459D01*
X126641Y237427D01*
X126649Y237391D01*
X126682Y237352D01*
X126706Y237307D01*
X126736Y237286D01*
X126759Y237258D01*
X126806Y237237D01*
X126848Y237207D01*
X126890Y237199D01*
X126918Y237187D01*
X126948Y237188D01*
X126990Y237180D01*
X127090Y237180D01*
X127105Y237183D01*
X127120Y237181D01*
X127252Y237218D01*
X127259Y237219D01*
X127259Y237220D01*
X127260Y237220D01*
X127380Y237280D01*
X128371Y237280D01*
X129325Y237184D01*
X130034Y237007D01*
X130548Y236665D01*
X131069Y236143D01*
X131627Y234843D01*
X131810Y234018D01*
X131810Y226760D01*
X131821Y226710D01*
X131823Y226659D01*
X131841Y226627D01*
X131849Y226591D01*
X131882Y226552D01*
X131906Y226507D01*
X131936Y226486D01*
X131959Y226458D01*
X132006Y226437D01*
X132048Y226407D01*
X132090Y226399D01*
X132118Y226387D01*
X132148Y226388D01*
X132190Y226380D01*
X136090Y226380D01*
X136140Y226391D01*
G37*
%LPC*%
G36*
X199504Y28259D02*
X199504Y28259D01*
X198924Y28356D01*
X198549Y28730D01*
X198549Y29602D01*
X198740Y30173D01*
X199209Y30361D01*
X203800Y30361D01*
X203813Y30371D01*
X203829Y30371D01*
X203830Y30383D01*
X203847Y30397D01*
X203830Y30420D01*
X203830Y30449D01*
X199033Y34147D01*
X198549Y34630D01*
X198549Y35407D01*
X198645Y36080D01*
X199117Y36363D01*
X199704Y36461D01*
X206497Y36461D01*
X207193Y36361D01*
X207245Y36390D01*
X207238Y36403D01*
X207249Y36413D01*
X207149Y38213D01*
X207111Y38258D01*
X207109Y38257D01*
X207108Y38259D01*
X206527Y38356D01*
X206149Y38827D01*
X206149Y41510D01*
X206113Y41557D01*
X206110Y41555D01*
X206108Y41559D01*
X205508Y41659D01*
X205503Y41656D01*
X205500Y41659D01*
X199404Y41659D01*
X198833Y41754D01*
X198549Y42322D01*
X198549Y43002D01*
X198740Y43575D01*
X199312Y43861D01*
X206100Y43861D01*
X206147Y43897D01*
X206142Y43904D01*
X206149Y43910D01*
X206149Y46598D01*
X206433Y47165D01*
X207099Y47260D01*
X207667Y47166D01*
X207951Y46598D01*
X207951Y38918D01*
X207763Y38354D01*
X207192Y38259D01*
X207151Y38215D01*
X207155Y38211D01*
X207151Y38207D01*
X207251Y36407D01*
X207279Y36374D01*
X207282Y36364D01*
X207761Y36173D01*
X207951Y35602D01*
X207951Y34928D01*
X207377Y34259D01*
X202500Y34259D01*
X202489Y34251D01*
X202476Y34253D01*
X202474Y34240D01*
X202453Y34223D01*
X202469Y34202D01*
X202465Y34175D01*
X202665Y33975D01*
X202670Y33974D01*
X202670Y33971D01*
X203070Y33671D01*
X207170Y30571D01*
X207173Y30571D01*
X207173Y30569D01*
X207758Y30179D01*
X207951Y29503D01*
X207951Y28827D01*
X207573Y28356D01*
X206996Y28259D01*
X199504Y28259D01*
G37*
%LPD*%
%LPC*%
G36*
X151808Y42959D02*
X151808Y42959D01*
X151211Y43058D01*
X150520Y43256D01*
X150026Y43552D01*
X149431Y43948D01*
X148938Y44441D01*
X148541Y45037D01*
X148538Y45038D01*
X148538Y45041D01*
X148145Y45533D01*
X147947Y46224D01*
X147946Y46225D01*
X147947Y46226D01*
X147749Y46818D01*
X147749Y48206D01*
X147848Y48799D01*
X147850Y48806D01*
X147864Y48856D01*
X147906Y49003D01*
X147907Y49003D01*
X147906Y49003D01*
X147949Y49151D01*
X147963Y49200D01*
X148005Y49348D01*
X148045Y49487D01*
X148438Y49979D01*
X148439Y49983D01*
X148441Y49983D01*
X148838Y50579D01*
X149333Y51073D01*
X149827Y51468D01*
X150419Y51764D01*
X151015Y51963D01*
X151710Y52162D01*
X152400Y52260D01*
X153093Y52161D01*
X153789Y52062D01*
X154384Y51863D01*
X154976Y51666D01*
X155467Y51273D01*
X156462Y50279D01*
X156855Y49688D01*
X157053Y49094D01*
X157252Y48499D01*
X157351Y47807D01*
X157351Y47413D01*
X157251Y46718D01*
X157153Y46125D01*
X156557Y44935D01*
X156163Y44344D01*
X155671Y43950D01*
X155075Y43553D01*
X154481Y43256D01*
X153889Y43058D01*
X153193Y42959D01*
X152500Y42860D01*
X151808Y42959D01*
G37*
%LPD*%
%LPC*%
G36*
X220104Y129049D02*
X220104Y129049D01*
X219511Y129148D01*
X218818Y129346D01*
X218227Y129642D01*
X217733Y130037D01*
X216741Y131029D01*
X216146Y132219D01*
X215948Y132811D01*
X215849Y133503D01*
X215849Y134197D01*
X215948Y134889D01*
X216146Y135481D01*
X216741Y136671D01*
X217729Y137659D01*
X218919Y138254D01*
X219511Y138452D01*
X220203Y138551D01*
X222895Y138551D01*
X223386Y138453D01*
X223861Y138263D01*
X224051Y137692D01*
X224051Y130203D01*
X223954Y129523D01*
X223577Y129146D01*
X222897Y129049D01*
X220104Y129049D01*
G37*
%LPD*%
%LPC*%
G36*
X126503Y179499D02*
X126503Y179499D01*
X125811Y179598D01*
X125219Y179796D01*
X124625Y180093D01*
X124031Y180488D01*
X123538Y180981D01*
X123142Y181576D01*
X122842Y182075D01*
X122798Y182093D01*
X122823Y182106D01*
X122848Y182160D01*
X122840Y182164D01*
X122844Y182172D01*
X122547Y182765D01*
X122449Y183358D01*
X122349Y184053D01*
X122349Y184747D01*
X122448Y185439D01*
X122646Y186031D01*
X122942Y186623D01*
X123337Y187117D01*
X123833Y187613D01*
X124429Y188110D01*
X124923Y188407D01*
X125515Y188702D01*
X126207Y188801D01*
X126903Y188901D01*
X128898Y188901D01*
X130082Y188802D01*
X130455Y188522D01*
X130551Y187946D01*
X130551Y180450D01*
X130584Y180406D01*
X130496Y180399D01*
X130452Y180359D01*
X130451Y180358D01*
X130355Y179778D01*
X129984Y179499D01*
X126503Y179499D01*
G37*
%LPD*%
G36*
X169204Y128604D02*
X169204Y128604D01*
X169206Y128601D01*
X170006Y128701D01*
X170019Y128714D01*
X170030Y128711D01*
X170430Y129011D01*
X170434Y129027D01*
X170439Y129031D01*
X170436Y129035D01*
X170437Y129037D01*
X170449Y129043D01*
X170549Y129743D01*
X170546Y129748D01*
X170549Y129750D01*
X170549Y137250D01*
X170542Y137259D01*
X170547Y137266D01*
X170347Y137866D01*
X170327Y137879D01*
X170325Y137892D01*
X169825Y138192D01*
X169807Y138190D01*
X169800Y138199D01*
X165600Y138199D01*
X165592Y138193D01*
X165586Y138197D01*
X164886Y137997D01*
X164881Y137990D01*
X164875Y137992D01*
X164375Y137692D01*
X164371Y137684D01*
X164365Y137685D01*
X163865Y137185D01*
X163864Y137178D01*
X163859Y137177D01*
X163459Y136577D01*
X163460Y136568D01*
X163453Y136566D01*
X163253Y135966D01*
X163255Y135959D01*
X163251Y135957D01*
X163151Y135257D01*
X163156Y135248D01*
X163151Y135243D01*
X163251Y134543D01*
X163259Y134535D01*
X163256Y134528D01*
X163554Y133931D01*
X163645Y133660D01*
X163262Y133181D01*
X163261Y133168D01*
X163253Y133166D01*
X163053Y132566D01*
X163055Y132559D01*
X163051Y132557D01*
X162951Y131857D01*
X162954Y131852D01*
X162951Y131850D01*
X162951Y131150D01*
X162957Y131142D01*
X162953Y131136D01*
X163153Y130436D01*
X163158Y130432D01*
X163156Y130428D01*
X163456Y129828D01*
X163466Y129823D01*
X163465Y129815D01*
X163965Y129315D01*
X163969Y129315D01*
X163969Y129312D01*
X164469Y128912D01*
X164482Y128911D01*
X164484Y128903D01*
X165084Y128703D01*
X165091Y128705D01*
X165093Y128701D01*
X165793Y128601D01*
X165798Y128604D01*
X165800Y128601D01*
X169200Y128601D01*
X169204Y128604D01*
G37*
%LPC*%
G36*
X47203Y44659D02*
X47203Y44659D01*
X46527Y44756D01*
X46247Y45130D01*
X46149Y45813D01*
X46149Y48606D01*
X46248Y49199D01*
X46248Y49200D01*
X46249Y49200D01*
X46248Y49200D01*
X46291Y49348D01*
X46305Y49397D01*
X46347Y49545D01*
X46389Y49693D01*
X46403Y49742D01*
X46445Y49890D01*
X46446Y49890D01*
X46445Y49890D01*
X46446Y49892D01*
X46742Y50483D01*
X47138Y50979D01*
X47535Y51475D01*
X48129Y51970D01*
X48623Y52267D01*
X49218Y52564D01*
X49911Y52762D01*
X50504Y52861D01*
X51197Y52861D01*
X51890Y52762D01*
X52582Y52564D01*
X53173Y52268D01*
X53669Y51872D01*
X54165Y51475D01*
X54660Y50881D01*
X54957Y50387D01*
X55254Y49792D01*
X55452Y49099D01*
X55551Y48506D01*
X55551Y45226D01*
X55270Y44852D01*
X54692Y44659D01*
X47203Y44659D01*
G37*
%LPD*%
%LPC*%
G36*
X98348Y64820D02*
X98348Y64820D01*
X98303Y64859D01*
X98302Y64857D01*
X98300Y64859D01*
X97609Y64859D01*
X97140Y65047D01*
X96949Y65618D01*
X96949Y69102D01*
X97346Y70291D01*
X97641Y70881D01*
X98633Y71873D01*
X99127Y72268D01*
X99722Y72566D01*
X99732Y72586D01*
X99742Y72594D01*
X99739Y72599D01*
X99748Y72619D01*
X99739Y72624D01*
X99743Y72634D01*
X99725Y72666D01*
X100311Y72862D01*
X101007Y72961D01*
X101700Y73060D01*
X102392Y72961D01*
X102986Y72862D01*
X103678Y72566D01*
X104174Y72268D01*
X104769Y71872D01*
X105263Y71377D01*
X105658Y70883D01*
X105954Y70291D01*
X106153Y69695D01*
X106351Y69003D01*
X106351Y65813D01*
X106255Y65140D01*
X105786Y64859D01*
X98400Y64859D01*
X98353Y64823D01*
X98361Y64812D01*
X98352Y64802D01*
X98348Y64820D01*
G37*
%LPD*%
%LPC*%
G36*
X148604Y74659D02*
X148604Y74659D01*
X148031Y74755D01*
X147749Y75224D01*
X147749Y78707D01*
X147848Y79395D01*
X148144Y79988D01*
X148442Y80583D01*
X148837Y81077D01*
X149333Y81573D01*
X149827Y81968D01*
X150422Y82266D01*
X150431Y82285D01*
X150447Y82296D01*
X150441Y82304D01*
X150448Y82319D01*
X150439Y82324D01*
X150443Y82334D01*
X150425Y82366D01*
X151011Y82562D01*
X151707Y82661D01*
X151708Y82662D01*
X151708Y82661D01*
X152304Y82761D01*
X153096Y82761D01*
X153688Y82662D01*
X154278Y82465D01*
X154873Y82069D01*
X154877Y82069D01*
X154878Y82066D01*
X155471Y81769D01*
X155962Y81279D01*
X156357Y80685D01*
X156953Y79495D01*
X157051Y78902D01*
X157151Y78207D01*
X157151Y76212D01*
X157052Y75032D01*
X156676Y74656D01*
X156096Y74559D01*
X148604Y74659D01*
G37*
%LPD*%
%LPC*%
G36*
X149148Y32820D02*
X149148Y32820D01*
X149104Y32859D01*
X149102Y32857D01*
X149100Y32859D01*
X148409Y32859D01*
X147940Y33047D01*
X147749Y33618D01*
X147749Y37003D01*
X147787Y37134D01*
X147801Y37183D01*
X147843Y37331D01*
X147885Y37479D01*
X147899Y37528D01*
X147941Y37676D01*
X147942Y37676D01*
X147941Y37676D01*
X147947Y37695D01*
X148146Y38291D01*
X148441Y38881D01*
X149433Y39873D01*
X149927Y40268D01*
X150519Y40564D01*
X151115Y40763D01*
X151807Y40961D01*
X153192Y40961D01*
X153784Y40763D01*
X153786Y40764D01*
X153786Y40763D01*
X154480Y40564D01*
X154974Y40268D01*
X155569Y39872D01*
X156062Y39379D01*
X156457Y38785D01*
X156754Y38191D01*
X157151Y37002D01*
X157151Y33813D01*
X157055Y33140D01*
X156586Y32859D01*
X149200Y32859D01*
X149153Y32823D01*
X149161Y32812D01*
X149152Y32803D01*
X149148Y32820D01*
G37*
%LPD*%
%LPC*%
G36*
X97325Y32859D02*
X97325Y32859D01*
X97047Y33229D01*
X96949Y34013D01*
X96949Y36707D01*
X97048Y37399D01*
X97246Y37991D01*
X97543Y38585D01*
X97940Y39181D01*
X98334Y39673D01*
X98927Y40069D01*
X98928Y40072D01*
X98931Y40072D01*
X99424Y40466D01*
X100015Y40663D01*
X100711Y40862D01*
X101304Y40961D01*
X102096Y40961D01*
X102689Y40862D01*
X103385Y40663D01*
X103973Y40467D01*
X103956Y40431D01*
X103967Y40373D01*
X103974Y40374D01*
X103975Y40368D01*
X104470Y40071D01*
X105462Y39079D01*
X105855Y38488D01*
X106053Y37894D01*
X106252Y37299D01*
X106351Y36607D01*
X106351Y33424D01*
X106070Y32955D01*
X105496Y32859D01*
X97325Y32859D01*
G37*
%LPD*%
%LPC*%
G36*
X174104Y43059D02*
X174104Y43059D01*
X173524Y43156D01*
X173149Y43530D01*
X173149Y47707D01*
X173248Y48399D01*
X173444Y48986D01*
X173835Y49475D01*
X174429Y49970D01*
X174920Y50264D01*
X175607Y50461D01*
X176297Y50461D01*
X176985Y50362D01*
X177577Y50067D01*
X178075Y49768D01*
X178107Y49771D01*
X178118Y49764D01*
X178617Y49964D01*
X179208Y50161D01*
X179897Y50161D01*
X180589Y50062D01*
X181176Y49866D01*
X181667Y49473D01*
X182159Y48981D01*
X182452Y48395D01*
X182551Y47707D01*
X182551Y44313D01*
X182453Y43529D01*
X182172Y43155D01*
X181596Y43059D01*
X174104Y43059D01*
G37*
%LPD*%
G36*
X167909Y166708D02*
X167909Y166708D01*
X167916Y166703D01*
X168516Y166903D01*
X168521Y166911D01*
X168527Y166909D01*
X169127Y167309D01*
X169128Y167312D01*
X169131Y167312D01*
X169631Y167712D01*
X169633Y167719D01*
X169638Y167719D01*
X170038Y168219D01*
X170039Y168229D01*
X170045Y168231D01*
X170345Y168931D01*
X170345Y168934D01*
X170347Y168934D01*
X170547Y169534D01*
X170545Y169540D01*
X170549Y169542D01*
X170649Y170142D01*
X170648Y170143D01*
X170649Y170143D01*
X170749Y170843D01*
X170746Y170848D01*
X170749Y170850D01*
X170749Y172350D01*
X170746Y172354D01*
X170749Y172357D01*
X170649Y173057D01*
X170644Y173062D01*
X170647Y173066D01*
X170447Y173665D01*
X170247Y174364D01*
X170242Y174368D01*
X170244Y174372D01*
X169944Y174972D01*
X169941Y174973D01*
X169942Y174975D01*
X169642Y175475D01*
X169639Y175477D01*
X169639Y175480D01*
X169339Y175880D01*
X169324Y175884D01*
X169322Y175894D01*
X168122Y176494D01*
X168112Y176492D01*
X168108Y176499D01*
X167508Y176599D01*
X167503Y176596D01*
X167500Y176599D01*
X166700Y176599D01*
X166695Y176596D01*
X166692Y176599D01*
X166092Y176499D01*
X166088Y176494D01*
X166084Y176497D01*
X165484Y176297D01*
X165477Y176286D01*
X165468Y176288D01*
X164869Y175788D01*
X164369Y175388D01*
X164366Y175374D01*
X164356Y175372D01*
X163756Y174172D01*
X163758Y174161D01*
X163751Y174157D01*
X163656Y173488D01*
X163610Y173498D01*
X163609Y173497D01*
X163600Y173497D01*
X163586Y173487D01*
X163557Y173473D01*
X163559Y173467D01*
X163552Y173461D01*
X163554Y173459D01*
X163551Y173457D01*
X163451Y172757D01*
X163454Y172752D01*
X163451Y172750D01*
X163451Y172153D01*
X163351Y171356D01*
X163356Y171348D01*
X163351Y171343D01*
X163551Y169943D01*
X163555Y169939D01*
X163553Y169936D01*
X163753Y169236D01*
X163754Y169235D01*
X163753Y169234D01*
X163953Y168634D01*
X163960Y168630D01*
X163958Y168625D01*
X164258Y168125D01*
X164262Y168123D01*
X164262Y168119D01*
X164662Y167619D01*
X164669Y167617D01*
X164669Y167612D01*
X165169Y167212D01*
X165177Y167211D01*
X165178Y167206D01*
X165778Y166906D01*
X165785Y166907D01*
X165786Y166903D01*
X166486Y166703D01*
X166496Y166706D01*
X166500Y166701D01*
X167900Y166701D01*
X167909Y166708D01*
G37*
G36*
X153408Y154007D02*
X153408Y154007D01*
X153414Y154003D01*
X154114Y154203D01*
X154120Y154212D01*
X154127Y154209D01*
X154727Y154609D01*
X154728Y154612D01*
X154731Y154612D01*
X155231Y155012D01*
X155234Y155024D01*
X155242Y155025D01*
X155542Y155525D01*
X155542Y155530D01*
X155545Y155531D01*
X155845Y156231D01*
X155845Y156234D01*
X155847Y156234D01*
X156247Y157434D01*
X156247Y157435D01*
X156246Y157436D01*
X156243Y157445D01*
X156249Y157450D01*
X156249Y158147D01*
X156349Y158944D01*
X156344Y158952D01*
X156349Y158957D01*
X156249Y159653D01*
X156249Y160350D01*
X156242Y160359D01*
X156247Y160366D01*
X156047Y160965D01*
X155847Y161664D01*
X155842Y161668D01*
X155844Y161672D01*
X155544Y162272D01*
X155541Y162273D01*
X155542Y162275D01*
X155242Y162775D01*
X155239Y162777D01*
X155239Y162780D01*
X154939Y163180D01*
X154924Y163184D01*
X154922Y163194D01*
X153722Y163794D01*
X153711Y163792D01*
X153707Y163799D01*
X153007Y163899D01*
X153002Y163896D01*
X153000Y163899D01*
X152300Y163899D01*
X152296Y163896D01*
X152293Y163899D01*
X151593Y163799D01*
X151588Y163794D01*
X151584Y163797D01*
X150984Y163597D01*
X150975Y163583D01*
X150965Y163585D01*
X150467Y163087D01*
X149969Y162688D01*
X149966Y162674D01*
X149956Y162672D01*
X149356Y161472D01*
X149357Y161465D01*
X149353Y161464D01*
X149349Y161451D01*
X149307Y161303D01*
X149293Y161254D01*
X149251Y161106D01*
X149208Y160958D01*
X149194Y160909D01*
X149153Y160764D01*
X149153Y160762D01*
X149152Y160761D01*
X149154Y160759D01*
X149151Y160757D01*
X149051Y160058D01*
X148951Y159458D01*
X148954Y159453D01*
X148951Y159450D01*
X148951Y158650D01*
X148954Y158646D01*
X148951Y158643D01*
X149251Y156543D01*
X149259Y156535D01*
X149256Y156528D01*
X149556Y155928D01*
X149559Y155927D01*
X149558Y155925D01*
X149858Y155425D01*
X149862Y155423D01*
X149862Y155419D01*
X150262Y154919D01*
X150269Y154917D01*
X150269Y154912D01*
X150769Y154512D01*
X150777Y154511D01*
X150778Y154506D01*
X151378Y154206D01*
X151383Y154207D01*
X151384Y154203D01*
X151984Y154003D01*
X151995Y154007D01*
X152000Y154001D01*
X153400Y154001D01*
X153408Y154007D01*
G37*
G36*
X150708Y166707D02*
X150708Y166707D01*
X150714Y166703D01*
X151414Y166903D01*
X151420Y166912D01*
X151427Y166909D01*
X152027Y167309D01*
X152028Y167312D01*
X152031Y167312D01*
X152531Y167712D01*
X152534Y167724D01*
X152542Y167725D01*
X152842Y168225D01*
X152842Y168230D01*
X152845Y168231D01*
X153145Y168931D01*
X153145Y168934D01*
X153147Y168934D01*
X153347Y169534D01*
X153345Y169540D01*
X153349Y169542D01*
X153449Y170142D01*
X153448Y170143D01*
X153449Y170143D01*
X153549Y170843D01*
X153548Y170844D01*
X153549Y170844D01*
X153649Y171644D01*
X153644Y171652D01*
X153649Y171657D01*
X153449Y173057D01*
X153448Y173058D01*
X153449Y173058D01*
X153349Y173658D01*
X153345Y173661D01*
X153347Y173664D01*
X153147Y174364D01*
X153142Y174368D01*
X153144Y174372D01*
X152844Y174972D01*
X152841Y174973D01*
X152842Y174975D01*
X152542Y175475D01*
X152539Y175477D01*
X152539Y175480D01*
X152239Y175880D01*
X152224Y175884D01*
X152222Y175894D01*
X151022Y176494D01*
X151011Y176492D01*
X151007Y176499D01*
X150307Y176599D01*
X150302Y176596D01*
X150300Y176599D01*
X149600Y176599D01*
X149596Y176596D01*
X149593Y176599D01*
X148893Y176499D01*
X148888Y176494D01*
X148884Y176497D01*
X148284Y176297D01*
X148275Y176283D01*
X148265Y176285D01*
X147767Y175787D01*
X147269Y175388D01*
X147267Y175378D01*
X147259Y175377D01*
X146859Y174777D01*
X146860Y174768D01*
X146853Y174766D01*
X146653Y174166D01*
X146654Y174164D01*
X146653Y174164D01*
X146649Y174151D01*
X146607Y174003D01*
X146593Y173954D01*
X146551Y173806D01*
X146508Y173658D01*
X146494Y173609D01*
X146453Y173464D01*
X146453Y173462D01*
X146452Y173461D01*
X146454Y173459D01*
X146451Y173457D01*
X146351Y172758D01*
X146251Y172158D01*
X146254Y172153D01*
X146251Y172150D01*
X146251Y171350D01*
X146254Y171346D01*
X146251Y171343D01*
X146551Y169243D01*
X146559Y169235D01*
X146556Y169228D01*
X146856Y168628D01*
X146859Y168627D01*
X146858Y168625D01*
X147158Y168125D01*
X147162Y168123D01*
X147162Y168119D01*
X147562Y167619D01*
X147569Y167617D01*
X147569Y167612D01*
X148069Y167212D01*
X148077Y167211D01*
X148078Y167206D01*
X148678Y166906D01*
X148683Y166907D01*
X148684Y166903D01*
X149284Y166703D01*
X149295Y166707D01*
X149300Y166701D01*
X150700Y166701D01*
X150708Y166707D01*
G37*
G36*
X164124Y141319D02*
X164124Y141319D01*
X164138Y141318D01*
X164638Y141918D01*
X164638Y141920D01*
X164639Y141920D01*
X168151Y146602D01*
X168151Y142050D01*
X168162Y142035D01*
X168158Y142025D01*
X168458Y141525D01*
X168480Y141516D01*
X168484Y141503D01*
X169084Y141303D01*
X169095Y141307D01*
X169100Y141301D01*
X170000Y141301D01*
X170021Y141317D01*
X170035Y141315D01*
X170435Y141715D01*
X170436Y141727D01*
X170441Y141731D01*
X170438Y141736D01*
X170449Y141742D01*
X170549Y142342D01*
X170546Y142347D01*
X170549Y142350D01*
X170549Y149750D01*
X170546Y149754D01*
X170549Y149757D01*
X170449Y150457D01*
X170430Y150475D01*
X170431Y150488D01*
X169931Y150888D01*
X169908Y150889D01*
X169900Y150899D01*
X169200Y150899D01*
X169192Y150893D01*
X169186Y150897D01*
X168486Y150697D01*
X168474Y150680D01*
X168462Y150681D01*
X168062Y150181D01*
X168062Y150180D01*
X168061Y150180D01*
X165961Y147480D01*
X165961Y147479D01*
X165960Y147479D01*
X164549Y145504D01*
X164549Y149350D01*
X164546Y149354D01*
X164549Y149357D01*
X164449Y150057D01*
X164448Y150058D01*
X164449Y150058D01*
X164349Y150658D01*
X164317Y150688D01*
X164314Y150697D01*
X163614Y150897D01*
X163604Y150894D01*
X163600Y150899D01*
X162900Y150899D01*
X162887Y150890D01*
X162878Y150894D01*
X162278Y150594D01*
X162263Y150564D01*
X162251Y150558D01*
X162151Y149958D01*
X162154Y149953D01*
X162151Y149950D01*
X162151Y141850D01*
X162167Y141829D01*
X162165Y141815D01*
X162565Y141415D01*
X162588Y141412D01*
X162594Y141401D01*
X163394Y141301D01*
X163398Y141303D01*
X163400Y141301D01*
X164100Y141301D01*
X164124Y141319D01*
G37*
%LPC*%
G36*
X152408Y198549D02*
X152408Y198549D01*
X151819Y198746D01*
X151227Y199042D01*
X150735Y199435D01*
X150342Y199927D01*
X150046Y200519D01*
X149648Y201711D01*
X149549Y202403D01*
X149549Y204592D01*
X149747Y205184D01*
X149746Y205186D01*
X149747Y205186D01*
X149766Y205252D01*
X149808Y205399D01*
X149822Y205449D01*
X149864Y205596D01*
X149865Y205596D01*
X149864Y205596D01*
X149907Y205744D01*
X149921Y205793D01*
X149947Y205885D01*
X150145Y206478D01*
X150540Y207071D01*
X150934Y207563D01*
X151522Y207955D01*
X152111Y208152D01*
X152803Y208251D01*
X153497Y208251D01*
X154185Y208152D01*
X154777Y207857D01*
X155275Y207558D01*
X155334Y207564D01*
X155333Y207571D01*
X155340Y207572D01*
X155361Y207601D01*
X155361Y207583D01*
X155358Y207575D01*
X155957Y206577D01*
X156254Y205982D01*
X156452Y205289D01*
X156551Y204692D01*
X156651Y203997D01*
X156651Y202503D01*
X156551Y201808D01*
X156453Y201215D01*
X155857Y200023D01*
X155561Y199531D01*
X155072Y199042D01*
X154382Y198746D01*
X153792Y198549D01*
X152408Y198549D01*
G37*
%LPD*%
%LPC*%
G36*
X118423Y179597D02*
X118423Y179597D01*
X118049Y179970D01*
X118049Y181950D01*
X118017Y181993D01*
X118016Y181997D01*
X117416Y182197D01*
X117405Y182193D01*
X117400Y182199D01*
X116100Y182199D01*
X116071Y182177D01*
X116058Y182176D01*
X115558Y181376D01*
X115559Y181371D01*
X115555Y181370D01*
X114861Y179784D01*
X114390Y179501D01*
X113716Y179597D01*
X113039Y179984D01*
X112852Y180453D01*
X112862Y180489D01*
X112904Y180636D01*
X112905Y180636D01*
X112904Y180636D01*
X112947Y180784D01*
X112961Y180833D01*
X113003Y180981D01*
X113045Y181129D01*
X113047Y181134D01*
X113245Y181630D01*
X113844Y182828D01*
X113840Y182850D01*
X113844Y182853D01*
X113843Y182854D01*
X113848Y182860D01*
X113748Y183360D01*
X113736Y183371D01*
X113738Y183381D01*
X113342Y183877D01*
X113048Y184465D01*
X112949Y185153D01*
X112949Y185847D01*
X113048Y186535D01*
X113344Y187128D01*
X113639Y187718D01*
X114129Y188110D01*
X114725Y188507D01*
X115318Y188804D01*
X116007Y189001D01*
X119392Y189001D01*
X119965Y188810D01*
X120251Y188238D01*
X120251Y180853D01*
X120152Y180163D01*
X119963Y179691D01*
X119296Y179500D01*
X118423Y179597D01*
G37*
%LPD*%
%LPC*%
G36*
X149043Y84834D02*
X149043Y84834D01*
X149014Y84847D01*
X149008Y84859D01*
X148413Y84958D01*
X147942Y85146D01*
X147750Y85913D01*
X147847Y86687D01*
X148220Y87061D01*
X150200Y87061D01*
X150243Y87093D01*
X150247Y87094D01*
X150447Y87694D01*
X150443Y87705D01*
X150449Y87710D01*
X150449Y89010D01*
X150427Y89039D01*
X150426Y89052D01*
X149626Y89552D01*
X149621Y89551D01*
X149620Y89555D01*
X148034Y90249D01*
X147751Y90720D01*
X147847Y91394D01*
X148234Y92071D01*
X148703Y92258D01*
X149384Y92063D01*
X149880Y91865D01*
X151078Y91266D01*
X151100Y91270D01*
X151110Y91262D01*
X151610Y91362D01*
X151621Y91374D01*
X151631Y91372D01*
X152127Y91768D01*
X152715Y92062D01*
X153403Y92161D01*
X154097Y92161D01*
X154785Y92062D01*
X155375Y91767D01*
X155969Y91372D01*
X156362Y90979D01*
X156756Y90387D01*
X157054Y89692D01*
X157251Y89102D01*
X157251Y85718D01*
X157060Y85145D01*
X156488Y84859D01*
X149100Y84859D01*
X149095Y84855D01*
X149089Y84858D01*
X149084Y84847D01*
X149053Y84823D01*
X149066Y84806D01*
X149062Y84799D01*
X149043Y84834D01*
G37*
%LPD*%
%LPC*%
G36*
X47104Y34259D02*
X47104Y34259D01*
X46524Y34356D01*
X46149Y34730D01*
X46149Y35603D01*
X46150Y35607D01*
X46151Y35607D01*
X46150Y35607D01*
X46193Y35755D01*
X46207Y35804D01*
X46249Y35952D01*
X46291Y36100D01*
X46305Y36149D01*
X46341Y36273D01*
X46809Y36461D01*
X51500Y36461D01*
X51513Y36471D01*
X51530Y36471D01*
X51530Y36483D01*
X51547Y36497D01*
X51530Y36520D01*
X51530Y36549D01*
X46732Y40147D01*
X46149Y40730D01*
X46149Y41407D01*
X46246Y42087D01*
X46624Y42464D01*
X47208Y42561D01*
X47241Y42596D01*
X47247Y42601D01*
X47247Y42602D01*
X47249Y42605D01*
X47246Y42608D01*
X47249Y42610D01*
X47249Y42639D01*
X47251Y42608D01*
X47289Y42562D01*
X47295Y42567D01*
X47300Y42561D01*
X54786Y42561D01*
X55264Y42274D01*
X55551Y41796D01*
X55551Y41030D01*
X54880Y40359D01*
X50100Y40359D01*
X50089Y40351D01*
X50076Y40353D01*
X50074Y40340D01*
X50053Y40323D01*
X50069Y40302D01*
X50065Y40275D01*
X50265Y40075D01*
X50270Y40074D01*
X50270Y40071D01*
X51070Y39471D01*
X54769Y36671D01*
X55358Y36181D01*
X55551Y35602D01*
X55551Y34927D01*
X55171Y34452D01*
X54592Y34259D01*
X47104Y34259D01*
G37*
%LPD*%
G36*
X115609Y141308D02*
X115609Y141308D01*
X115616Y141303D01*
X116216Y141503D01*
X116227Y141520D01*
X116239Y141520D01*
X116539Y141920D01*
X116539Y141927D01*
X116541Y141928D01*
X116539Y141929D01*
X116539Y141942D01*
X116549Y141950D01*
X116549Y150150D01*
X116541Y150161D01*
X116546Y150168D01*
X116346Y150668D01*
X116320Y150684D01*
X116316Y150697D01*
X115716Y150897D01*
X115705Y150893D01*
X115700Y150899D01*
X112200Y150899D01*
X112195Y150896D01*
X112192Y150899D01*
X111592Y150799D01*
X111585Y150791D01*
X111578Y150794D01*
X110978Y150494D01*
X110976Y150490D01*
X110973Y150491D01*
X110373Y150091D01*
X110370Y150084D01*
X110365Y150085D01*
X109865Y149585D01*
X109865Y149581D01*
X109862Y149581D01*
X109462Y149081D01*
X109461Y149073D01*
X109456Y149072D01*
X109056Y148272D01*
X109058Y148262D01*
X109053Y148258D01*
X109056Y148254D01*
X109051Y148250D01*
X109051Y147550D01*
X109054Y147546D01*
X109051Y147543D01*
X109151Y146843D01*
X109152Y146842D01*
X109151Y146842D01*
X109251Y146242D01*
X109258Y146236D01*
X109255Y146231D01*
X109555Y145531D01*
X109563Y145526D01*
X109562Y145519D01*
X109962Y145019D01*
X109969Y145017D01*
X109969Y145012D01*
X110469Y144612D01*
X110473Y144611D01*
X110473Y144609D01*
X111073Y144209D01*
X111089Y144210D01*
X111091Y144207D01*
X111103Y144207D01*
X111109Y144211D01*
X111132Y144213D01*
X111131Y144225D01*
X111143Y144226D01*
X111159Y144255D01*
X111167Y144214D01*
X111180Y144216D01*
X111184Y144203D01*
X111784Y144003D01*
X111790Y144005D01*
X111792Y144001D01*
X112392Y143901D01*
X112397Y143904D01*
X112400Y143901D01*
X113691Y143901D01*
X114151Y143717D01*
X114151Y142350D01*
X114154Y142345D01*
X114151Y142342D01*
X114251Y141742D01*
X114267Y141727D01*
X114265Y141715D01*
X114665Y141315D01*
X114692Y141312D01*
X114700Y141301D01*
X115600Y141301D01*
X115609Y141308D01*
G37*
%LPC*%
G36*
X227503Y129049D02*
X227503Y129049D01*
X226813Y129148D01*
X226341Y129337D01*
X226150Y130004D01*
X226247Y130781D01*
X226527Y131154D01*
X227203Y131251D01*
X231200Y131251D01*
X231247Y131287D01*
X231242Y131294D01*
X231249Y131300D01*
X231249Y132000D01*
X231246Y132005D01*
X231249Y132008D01*
X231149Y132608D01*
X231105Y132649D01*
X231103Y132646D01*
X231100Y132649D01*
X228412Y132649D01*
X227835Y132938D01*
X227551Y133411D01*
X227648Y134284D01*
X227931Y134756D01*
X228405Y134851D01*
X231200Y134851D01*
X231247Y134887D01*
X231242Y134894D01*
X231249Y134900D01*
X231249Y136200D01*
X231213Y136247D01*
X231210Y136245D01*
X231208Y136249D01*
X230608Y136349D01*
X230603Y136346D01*
X230600Y136349D01*
X226620Y136349D01*
X226247Y136723D01*
X226149Y137506D01*
X226107Y137549D01*
X226106Y137547D01*
X226105Y137549D01*
X226076Y137552D01*
X226098Y137551D01*
X226147Y137584D01*
X226146Y137586D01*
X226147Y137586D01*
X226158Y137625D01*
X226200Y137772D01*
X226201Y137772D01*
X226200Y137772D01*
X226243Y137920D01*
X226257Y137969D01*
X226299Y138117D01*
X226341Y138263D01*
X226813Y138452D01*
X227404Y138551D01*
X232197Y138551D01*
X232887Y138452D01*
X233355Y138265D01*
X233451Y137597D01*
X233451Y129524D01*
X232980Y129147D01*
X232197Y129049D01*
X227503Y129049D01*
G37*
%LPD*%
%LPC*%
G36*
X50408Y23659D02*
X50408Y23659D01*
X49816Y23857D01*
X49814Y23856D01*
X49814Y23857D01*
X49118Y24056D01*
X48523Y24353D01*
X48031Y24649D01*
X47038Y25641D01*
X46643Y26235D01*
X46347Y26825D01*
X46249Y27418D01*
X46149Y28113D01*
X46149Y28807D01*
X46249Y29603D01*
X46347Y30195D01*
X46643Y30787D01*
X46939Y31280D01*
X47427Y31767D01*
X48008Y31961D01*
X50697Y31961D01*
X51381Y31863D01*
X51757Y31581D01*
X51951Y30903D01*
X51951Y28718D01*
X51761Y28149D01*
X51192Y27959D01*
X50520Y27959D01*
X50148Y28332D01*
X50049Y29714D01*
X50010Y29758D01*
X50004Y29753D01*
X50000Y29759D01*
X48700Y29759D01*
X48667Y29734D01*
X48656Y29732D01*
X48356Y29132D01*
X48359Y29116D01*
X48351Y29110D01*
X48351Y28410D01*
X48354Y28405D01*
X48351Y28402D01*
X48451Y27802D01*
X48456Y27798D01*
X48453Y27794D01*
X48653Y27194D01*
X48664Y27187D01*
X48662Y27178D01*
X49162Y26578D01*
X49169Y26577D01*
X49169Y26572D01*
X49669Y26172D01*
X49682Y26171D01*
X49684Y26163D01*
X50284Y25963D01*
X50291Y25965D01*
X50293Y25961D01*
X50993Y25861D01*
X51002Y25866D01*
X51007Y25861D01*
X51707Y25961D01*
X51711Y25965D01*
X51714Y25963D01*
X52414Y26163D01*
X52422Y26174D01*
X52431Y26172D01*
X52931Y26572D01*
X52933Y26582D01*
X52941Y26583D01*
X53341Y27183D01*
X53340Y27192D01*
X53347Y27194D01*
X53547Y27794D01*
X53545Y27801D01*
X53549Y27803D01*
X53649Y28503D01*
X53644Y28512D01*
X53649Y28517D01*
X53549Y29217D01*
X53541Y29225D01*
X53544Y29232D01*
X52952Y30417D01*
X53045Y30886D01*
X53627Y31467D01*
X54200Y31658D01*
X54768Y31469D01*
X55157Y30885D01*
X55454Y30291D01*
X55652Y29699D01*
X55751Y29003D01*
X55752Y29002D01*
X55751Y29002D01*
X55850Y28409D01*
X55751Y27717D01*
X55652Y27025D01*
X55356Y26432D01*
X55058Y25837D01*
X54663Y25343D01*
X54167Y24847D01*
X53671Y24450D01*
X53078Y24055D01*
X52489Y23858D01*
X51097Y23659D01*
X50408Y23659D01*
G37*
%LPD*%
G36*
X103213Y128610D02*
X103213Y128610D01*
X103222Y128606D01*
X103822Y128906D01*
X103827Y128916D01*
X103835Y128915D01*
X104035Y129115D01*
X104036Y129127D01*
X104040Y129129D01*
X104037Y129133D01*
X104048Y129137D01*
X104053Y129158D01*
X104070Y129123D01*
X104069Y129112D01*
X104569Y128712D01*
X104587Y128711D01*
X104592Y128701D01*
X105192Y128601D01*
X105197Y128604D01*
X105200Y128601D01*
X105900Y128601D01*
X105909Y128608D01*
X105916Y128603D01*
X106516Y128803D01*
X106521Y128811D01*
X106527Y128809D01*
X107127Y129209D01*
X107130Y129216D01*
X107135Y129215D01*
X107635Y129715D01*
X107635Y129719D01*
X107638Y129719D01*
X108038Y130219D01*
X108039Y130229D01*
X108045Y130231D01*
X108345Y130931D01*
X108345Y130934D01*
X108347Y130934D01*
X108547Y131534D01*
X108545Y131540D01*
X108547Y131542D01*
X108544Y131546D01*
X108549Y131550D01*
X108549Y132250D01*
X108546Y132255D01*
X108549Y132258D01*
X108449Y132858D01*
X108445Y132861D01*
X108447Y132864D01*
X108247Y133564D01*
X108236Y133572D01*
X108238Y133581D01*
X107840Y134079D01*
X107441Y134677D01*
X107428Y134682D01*
X107427Y134691D01*
X106827Y135091D01*
X106823Y135091D01*
X106822Y135094D01*
X106222Y135394D01*
X106212Y135392D01*
X106208Y135399D01*
X105608Y135499D01*
X105603Y135496D01*
X105596Y135496D01*
X105593Y135499D01*
X104893Y135399D01*
X104888Y135394D01*
X104884Y135397D01*
X104284Y135197D01*
X104281Y135192D01*
X104278Y135194D01*
X103949Y135030D01*
X103949Y137650D01*
X103946Y137655D01*
X103949Y137658D01*
X103849Y138258D01*
X103841Y138265D01*
X103844Y138272D01*
X103744Y138472D01*
X103720Y138484D01*
X103716Y138497D01*
X103116Y138697D01*
X103109Y138694D01*
X103107Y138697D01*
X103102Y138697D01*
X103100Y138699D01*
X102300Y138699D01*
X102297Y138697D01*
X102296Y138697D01*
X102285Y138688D01*
X102275Y138692D01*
X101775Y138392D01*
X101767Y138374D01*
X101756Y138366D01*
X101759Y138362D01*
X101751Y138357D01*
X101651Y137657D01*
X101654Y137652D01*
X101651Y137650D01*
X101651Y129450D01*
X101655Y129444D01*
X101652Y129440D01*
X101752Y128940D01*
X101773Y128921D01*
X101775Y128908D01*
X102275Y128608D01*
X102293Y128610D01*
X102300Y128601D01*
X103200Y128601D01*
X103213Y128610D01*
G37*
G36*
X124105Y128604D02*
X124105Y128604D01*
X124108Y128601D01*
X124708Y128701D01*
X124714Y128708D01*
X124719Y128705D01*
X125419Y129005D01*
X125424Y129013D01*
X125431Y129012D01*
X126431Y129812D01*
X126432Y129816D01*
X126435Y129815D01*
X126935Y130315D01*
X126936Y130327D01*
X126944Y130328D01*
X127244Y130928D01*
X127243Y130933D01*
X127247Y130934D01*
X127447Y131534D01*
X127446Y131536D01*
X127447Y131536D01*
X127477Y131641D01*
X127491Y131690D01*
X127533Y131838D01*
X127534Y131838D01*
X127533Y131838D01*
X127576Y131986D01*
X127590Y132035D01*
X127632Y132183D01*
X127647Y132236D01*
X127646Y132241D01*
X127649Y132243D01*
X127749Y132943D01*
X127746Y132948D01*
X127749Y132950D01*
X127749Y137650D01*
X127737Y137666D01*
X127741Y137677D01*
X127341Y138277D01*
X127308Y138289D01*
X127300Y138299D01*
X125900Y138299D01*
X125879Y138283D01*
X125865Y138285D01*
X125465Y137885D01*
X125464Y137874D01*
X125462Y137873D01*
X125463Y137872D01*
X125462Y137863D01*
X125451Y137857D01*
X125351Y137157D01*
X125354Y137152D01*
X125351Y137150D01*
X125351Y133053D01*
X125252Y132365D01*
X124958Y131777D01*
X124568Y131289D01*
X123988Y130999D01*
X123307Y130999D01*
X122623Y131195D01*
X122139Y131582D01*
X121846Y132169D01*
X121649Y132758D01*
X121649Y137550D01*
X121640Y137563D01*
X121644Y137572D01*
X121344Y138172D01*
X121314Y138187D01*
X121308Y138199D01*
X120708Y138299D01*
X120703Y138296D01*
X120700Y138299D01*
X120000Y138299D01*
X119987Y138290D01*
X119978Y138294D01*
X119378Y137994D01*
X119363Y137963D01*
X119351Y137957D01*
X119251Y137257D01*
X119254Y137252D01*
X119251Y137250D01*
X119251Y132450D01*
X119258Y132441D01*
X119253Y132434D01*
X119453Y131835D01*
X119653Y131136D01*
X119658Y131132D01*
X119656Y131128D01*
X119956Y130528D01*
X119963Y130525D01*
X119962Y130519D01*
X120362Y130019D01*
X120366Y130018D01*
X120365Y130015D01*
X120865Y129515D01*
X120869Y129515D01*
X120869Y129512D01*
X121369Y129112D01*
X121379Y129111D01*
X121381Y129105D01*
X122081Y128805D01*
X122084Y128806D01*
X122084Y128803D01*
X122684Y128603D01*
X122695Y128607D01*
X122700Y128601D01*
X124100Y128601D01*
X124105Y128604D01*
G37*
G36*
X123404Y166704D02*
X123404Y166704D01*
X123407Y166701D01*
X124107Y166801D01*
X124115Y166809D01*
X124122Y166806D01*
X124722Y167106D01*
X124725Y167113D01*
X124731Y167112D01*
X125231Y167512D01*
X125232Y167516D01*
X125235Y167515D01*
X125635Y167915D01*
X125636Y167927D01*
X125644Y167928D01*
X125944Y168528D01*
X125943Y168533D01*
X125947Y168534D01*
X126147Y169134D01*
X126146Y169136D01*
X126147Y169136D01*
X126151Y169150D01*
X126165Y169199D01*
X126207Y169347D01*
X126208Y169347D01*
X126207Y169347D01*
X126250Y169495D01*
X126264Y169544D01*
X126306Y169692D01*
X126347Y169836D01*
X126346Y169839D01*
X126347Y169839D01*
X126345Y169843D01*
X126344Y169846D01*
X126349Y169850D01*
X126349Y171350D01*
X126346Y171354D01*
X126349Y171357D01*
X126249Y172057D01*
X126244Y172062D01*
X126247Y172066D01*
X125847Y173266D01*
X125842Y173269D01*
X125844Y173272D01*
X125244Y174472D01*
X125237Y174475D01*
X125238Y174481D01*
X124838Y174981D01*
X124831Y174983D01*
X124831Y174988D01*
X123831Y175788D01*
X123823Y175789D01*
X123822Y175794D01*
X123222Y176094D01*
X123215Y176093D01*
X123214Y176097D01*
X122514Y176297D01*
X122510Y176296D01*
X122508Y176299D01*
X121908Y176399D01*
X121903Y176396D01*
X121900Y176399D01*
X120400Y176399D01*
X120375Y176380D01*
X120362Y176381D01*
X119962Y175881D01*
X119961Y175858D01*
X119951Y175850D01*
X119951Y175150D01*
X119954Y175146D01*
X119951Y175143D01*
X120051Y174443D01*
X120070Y174424D01*
X120070Y174411D01*
X120470Y174111D01*
X120488Y174111D01*
X120494Y174101D01*
X121293Y174001D01*
X121889Y173902D01*
X122579Y173705D01*
X123165Y173315D01*
X123554Y172730D01*
X123630Y172425D01*
X123116Y172597D01*
X123105Y172593D01*
X123100Y172599D01*
X122400Y172599D01*
X122392Y172593D01*
X122386Y172597D01*
X121686Y172397D01*
X121682Y172392D01*
X121678Y172394D01*
X121078Y172094D01*
X121075Y172087D01*
X121069Y172088D01*
X120569Y171688D01*
X120568Y171684D01*
X120565Y171685D01*
X120065Y171185D01*
X120064Y171173D01*
X120056Y171172D01*
X119756Y170572D01*
X119758Y170562D01*
X119751Y170558D01*
X119651Y169958D01*
X119654Y169953D01*
X119651Y169950D01*
X119651Y169750D01*
X119654Y169746D01*
X119651Y169743D01*
X119751Y169043D01*
X119756Y169038D01*
X119753Y169034D01*
X119953Y168434D01*
X119958Y168431D01*
X119956Y168428D01*
X120256Y167828D01*
X120269Y167821D01*
X120269Y167812D01*
X120769Y167412D01*
X120773Y167411D01*
X120773Y167409D01*
X121373Y167009D01*
X121382Y167010D01*
X121384Y167003D01*
X121984Y166803D01*
X121991Y166805D01*
X121993Y166801D01*
X122693Y166701D01*
X122698Y166704D01*
X122700Y166701D01*
X123400Y166701D01*
X123404Y166704D01*
G37*
%LPC*%
G36*
X141240Y179479D02*
X141240Y179479D01*
X141215Y179486D01*
X141210Y179498D01*
X140724Y179595D01*
X140341Y179979D01*
X139745Y181271D01*
X139727Y181280D01*
X139725Y181292D01*
X139225Y181592D01*
X139207Y181590D01*
X139200Y181599D01*
X136500Y181599D01*
X136495Y181596D01*
X136492Y181599D01*
X135892Y181499D01*
X135869Y181475D01*
X135856Y181472D01*
X135256Y180272D01*
X134965Y179690D01*
X134395Y179500D01*
X133721Y179597D01*
X133141Y180080D01*
X132953Y180549D01*
X133245Y181230D01*
X136444Y187928D01*
X136741Y188521D01*
X137220Y189001D01*
X137888Y189001D01*
X138465Y188712D01*
X138757Y188227D01*
X142055Y181530D01*
X142351Y180840D01*
X142351Y180270D01*
X141970Y179890D01*
X141276Y179493D01*
X141259Y179453D01*
X141240Y179479D01*
G37*
%LPD*%
%LPC*%
G36*
X159804Y103299D02*
X159804Y103299D01*
X159237Y103394D01*
X159049Y103958D01*
X159049Y104741D01*
X159237Y105211D01*
X159814Y105403D01*
X160206Y105501D01*
X162200Y105501D01*
X162247Y105537D01*
X162242Y105544D01*
X162249Y105550D01*
X162249Y105750D01*
X162220Y105788D01*
X162218Y105796D01*
X161723Y105994D01*
X161130Y106389D01*
X160533Y106887D01*
X160041Y107379D01*
X159746Y107969D01*
X159548Y108562D01*
X159449Y109158D01*
X159405Y109199D01*
X159398Y109191D01*
X159391Y109197D01*
X159412Y109202D01*
X159449Y109248D01*
X159448Y109249D01*
X159449Y109250D01*
X159449Y109843D01*
X159480Y109952D01*
X159481Y109952D01*
X159480Y109952D01*
X159523Y110100D01*
X159537Y110149D01*
X159579Y110297D01*
X159621Y110445D01*
X159635Y110494D01*
X159646Y110532D01*
X159944Y111128D01*
X160239Y111718D01*
X160729Y112110D01*
X161322Y112505D01*
X161911Y112702D01*
X162603Y112801D01*
X163297Y112801D01*
X163985Y112702D01*
X164573Y112408D01*
X165067Y112013D01*
X165563Y111517D01*
X165955Y111027D01*
X166152Y110339D01*
X166251Y109746D01*
X166251Y108955D01*
X166157Y108488D01*
X165592Y108299D01*
X164714Y108299D01*
X164245Y108581D01*
X164149Y109158D01*
X164049Y109857D01*
X164036Y109870D01*
X164038Y109881D01*
X163638Y110381D01*
X163618Y110386D01*
X163614Y110397D01*
X162914Y110597D01*
X162899Y110592D01*
X162892Y110599D01*
X162292Y110499D01*
X162277Y110483D01*
X162265Y110485D01*
X161765Y109985D01*
X161762Y109964D01*
X161751Y109958D01*
X161651Y109358D01*
X161659Y109343D01*
X161653Y109334D01*
X161853Y108734D01*
X161864Y108727D01*
X161862Y108718D01*
X162362Y108118D01*
X162369Y108117D01*
X162369Y108112D01*
X162869Y107712D01*
X162873Y107711D01*
X162873Y107709D01*
X163473Y107309D01*
X163475Y107309D01*
X163475Y107307D01*
X164675Y106607D01*
X165170Y106311D01*
X165662Y105819D01*
X166055Y105228D01*
X166251Y104642D01*
X166251Y103967D01*
X165871Y103492D01*
X165292Y103299D01*
X159804Y103299D01*
G37*
%LPD*%
%LPC*%
G36*
X148520Y62759D02*
X148520Y62759D01*
X148042Y63238D01*
X147751Y63916D01*
X147846Y64483D01*
X148326Y64868D01*
X149621Y65465D01*
X149633Y65488D01*
X149646Y65492D01*
X149846Y65992D01*
X149845Y65994D01*
X149847Y65995D01*
X149844Y65998D01*
X149842Y66005D01*
X149849Y66010D01*
X149849Y68710D01*
X149846Y68715D01*
X149849Y68718D01*
X149749Y69318D01*
X149723Y69342D01*
X149721Y69355D01*
X148423Y69954D01*
X147941Y70243D01*
X147752Y70811D01*
X147768Y70870D01*
X147769Y70870D01*
X147768Y70870D01*
X147811Y71018D01*
X147825Y71067D01*
X147867Y71215D01*
X147909Y71363D01*
X147923Y71412D01*
X147944Y71486D01*
X148427Y72065D01*
X148895Y72159D01*
X149580Y71865D01*
X156278Y68566D01*
X156868Y68271D01*
X157251Y67793D01*
X157251Y67125D01*
X156865Y66547D01*
X156377Y66253D01*
X149680Y63055D01*
X148990Y62759D01*
X148520Y62759D01*
G37*
%LPD*%
%LPC*%
G36*
X97438Y75143D02*
X97438Y75143D01*
X97047Y75827D01*
X96952Y76396D01*
X97331Y76870D01*
X98621Y77465D01*
X98627Y77476D01*
X98635Y77475D01*
X99035Y77875D01*
X99039Y77902D01*
X99049Y77910D01*
X99049Y81310D01*
X99027Y81340D01*
X99025Y81352D01*
X98525Y81652D01*
X98521Y81652D01*
X98521Y81655D01*
X97234Y82248D01*
X96952Y82720D01*
X97047Y83293D01*
X97436Y83974D01*
X97906Y84256D01*
X98481Y84064D01*
X105871Y80569D01*
X106354Y80086D01*
X106450Y79513D01*
X106422Y79417D01*
X106408Y79368D01*
X106366Y79220D01*
X106324Y79073D01*
X106310Y79023D01*
X106268Y78876D01*
X106257Y78839D01*
X105774Y78452D01*
X99080Y75255D01*
X98386Y74958D01*
X97813Y74862D01*
X97438Y75143D01*
G37*
%LPD*%
G36*
X123108Y141307D02*
X123108Y141307D01*
X123114Y141303D01*
X123814Y141503D01*
X123822Y141514D01*
X123831Y141512D01*
X124329Y141910D01*
X124927Y142309D01*
X124930Y142316D01*
X124935Y142315D01*
X125335Y142715D01*
X125337Y142728D01*
X125345Y142731D01*
X125645Y143431D01*
X125640Y143451D01*
X125643Y143454D01*
X125644Y143454D01*
X125644Y143455D01*
X125648Y143460D01*
X125548Y143960D01*
X125535Y143971D01*
X125538Y143982D01*
X125038Y144582D01*
X125014Y144587D01*
X125008Y144599D01*
X124408Y144699D01*
X124404Y144696D01*
X124402Y144699D01*
X124399Y144699D01*
X124389Y144691D01*
X124382Y144696D01*
X123882Y144496D01*
X123876Y144486D01*
X123868Y144488D01*
X123270Y143989D01*
X122682Y143597D01*
X122007Y143501D01*
X121338Y143787D01*
X121151Y144255D01*
X121244Y144817D01*
X121815Y145102D01*
X122507Y145201D01*
X122512Y145206D01*
X122516Y145203D01*
X123116Y145403D01*
X123117Y145406D01*
X123119Y145405D01*
X123819Y145705D01*
X123821Y145707D01*
X123822Y145706D01*
X124422Y146006D01*
X124425Y146013D01*
X124431Y146012D01*
X124931Y146412D01*
X124934Y146424D01*
X124942Y146425D01*
X125242Y146925D01*
X125241Y146934D01*
X125247Y146936D01*
X125280Y147050D01*
X125294Y147099D01*
X125336Y147247D01*
X125378Y147394D01*
X125392Y147444D01*
X125434Y147591D01*
X125435Y147591D01*
X125434Y147591D01*
X125447Y147636D01*
X125446Y147639D01*
X125448Y147641D01*
X125447Y147642D01*
X125449Y147643D01*
X125549Y148343D01*
X125543Y148353D01*
X125549Y148358D01*
X125449Y148958D01*
X125444Y148962D01*
X125447Y148966D01*
X125247Y149566D01*
X125239Y149571D01*
X125241Y149577D01*
X124841Y150177D01*
X124831Y150181D01*
X124831Y150188D01*
X124331Y150588D01*
X124326Y150589D01*
X124325Y150592D01*
X123825Y150892D01*
X123816Y150891D01*
X123814Y150897D01*
X123114Y151097D01*
X123109Y151096D01*
X123107Y151099D01*
X122407Y151199D01*
X122398Y151194D01*
X122393Y151199D01*
X120993Y150999D01*
X120989Y150995D01*
X120986Y150997D01*
X120286Y150797D01*
X120278Y150786D01*
X120269Y150788D01*
X119769Y150388D01*
X119768Y150384D01*
X119765Y150385D01*
X119265Y149885D01*
X119260Y149850D01*
X119252Y149840D01*
X119352Y149340D01*
X119360Y149333D01*
X119357Y149326D01*
X119757Y148626D01*
X119773Y148619D01*
X119775Y148608D01*
X120275Y148308D01*
X120293Y148310D01*
X120300Y148301D01*
X120900Y148301D01*
X120919Y148315D01*
X120932Y148312D01*
X121524Y148806D01*
X122105Y149000D01*
X122774Y148904D01*
X123145Y148440D01*
X122958Y147879D01*
X122478Y147495D01*
X121189Y147198D01*
X121188Y147196D01*
X121186Y147197D01*
X120486Y146997D01*
X120482Y146992D01*
X120478Y146994D01*
X119878Y146694D01*
X119875Y146687D01*
X119869Y146688D01*
X119369Y146288D01*
X119367Y146281D01*
X119362Y146281D01*
X118962Y145781D01*
X118961Y145768D01*
X118953Y145766D01*
X118753Y145166D01*
X118756Y145159D01*
X118751Y145156D01*
X118651Y144356D01*
X118656Y144348D01*
X118651Y144343D01*
X118751Y143643D01*
X118756Y143638D01*
X118753Y143634D01*
X118953Y143034D01*
X118961Y143029D01*
X118959Y143023D01*
X119359Y142423D01*
X119369Y142419D01*
X119369Y142412D01*
X119869Y142012D01*
X119877Y142011D01*
X119878Y142006D01*
X121078Y141406D01*
X121089Y141408D01*
X121092Y141401D01*
X121692Y141301D01*
X121697Y141304D01*
X121700Y141301D01*
X123100Y141301D01*
X123108Y141307D01*
G37*
%LPC*%
G36*
X123205Y43059D02*
X123205Y43059D01*
X122733Y43154D01*
X122449Y43722D01*
X122449Y44596D01*
X122733Y45069D01*
X123308Y45261D01*
X126000Y45261D01*
X126011Y45269D01*
X126024Y45267D01*
X126026Y45280D01*
X126047Y45297D01*
X126031Y45318D01*
X126035Y45345D01*
X125635Y45745D01*
X125632Y45745D01*
X125632Y45748D01*
X123035Y47945D01*
X122543Y48536D01*
X122352Y49012D01*
X122543Y49583D01*
X123124Y50165D01*
X123593Y50258D01*
X124171Y49969D01*
X127065Y47075D01*
X127118Y47068D01*
X127122Y47066D01*
X127522Y47266D01*
X127528Y47279D01*
X127538Y47278D01*
X128038Y47878D01*
X128536Y48476D01*
X129533Y49373D01*
X129533Y49375D01*
X129535Y49375D01*
X129931Y49772D01*
X130519Y50164D01*
X130987Y50257D01*
X131464Y49876D01*
X131951Y49194D01*
X131951Y48727D01*
X131564Y48244D01*
X130168Y47047D01*
X130168Y47046D01*
X130166Y47046D01*
X128566Y45546D01*
X128564Y45534D01*
X128563Y45533D01*
X128564Y45532D01*
X128557Y45490D01*
X128556Y45488D01*
X128656Y45288D01*
X128693Y45270D01*
X128700Y45261D01*
X130697Y45261D01*
X131381Y45163D01*
X131754Y44883D01*
X131850Y44110D01*
X131754Y43337D01*
X131384Y43059D01*
X123205Y43059D01*
G37*
%LPD*%
%LPC*%
G36*
X74007Y44759D02*
X74007Y44759D01*
X73321Y44955D01*
X72734Y45347D01*
X72338Y45841D01*
X71944Y46334D01*
X71747Y46925D01*
X71549Y47617D01*
X71549Y49003D01*
X71577Y49102D01*
X71578Y49102D01*
X71577Y49102D01*
X71620Y49250D01*
X71634Y49299D01*
X71676Y49447D01*
X71718Y49594D01*
X71732Y49644D01*
X71747Y49695D01*
X71944Y50286D01*
X72337Y50777D01*
X72833Y51273D01*
X73323Y51665D01*
X74007Y51861D01*
X74696Y51861D01*
X75285Y51763D01*
X75871Y51469D01*
X76365Y50975D01*
X76384Y50973D01*
X76388Y50962D01*
X76788Y50862D01*
X76828Y50879D01*
X76838Y50879D01*
X77232Y51371D01*
X77812Y51661D01*
X78497Y51661D01*
X79185Y51562D01*
X79773Y51268D01*
X80267Y50873D01*
X81251Y49890D01*
X81251Y48013D01*
X81152Y47325D01*
X80856Y46732D01*
X80559Y46139D01*
X80069Y45648D01*
X79482Y45257D01*
X78904Y45161D01*
X78332Y45351D01*
X77947Y45928D01*
X77852Y46500D01*
X78138Y46977D01*
X78631Y47372D01*
X78633Y47382D01*
X78641Y47383D01*
X79041Y47983D01*
X79040Y48003D01*
X79049Y48010D01*
X79049Y48710D01*
X79040Y48723D01*
X79044Y48732D01*
X78744Y49332D01*
X78714Y49347D01*
X78708Y49359D01*
X78108Y49459D01*
X78065Y49436D01*
X78058Y49435D01*
X77758Y48935D01*
X77758Y48932D01*
X77758Y48931D01*
X77759Y48920D01*
X77751Y48915D01*
X77651Y48018D01*
X77557Y47548D01*
X76992Y47359D01*
X76114Y47359D01*
X75645Y47641D01*
X75549Y48218D01*
X75449Y48917D01*
X75438Y48928D01*
X75441Y48937D01*
X75041Y49537D01*
X75014Y49547D01*
X75008Y49559D01*
X74408Y49659D01*
X74405Y49657D01*
X74397Y49657D01*
X74382Y49645D01*
X74369Y49648D01*
X73869Y49248D01*
X73865Y49233D01*
X73857Y49227D01*
X73853Y49226D01*
X73653Y48626D01*
X73657Y48615D01*
X73651Y48610D01*
X73651Y47810D01*
X73663Y47794D01*
X73659Y47783D01*
X74059Y47183D01*
X74076Y47177D01*
X74078Y47166D01*
X74671Y46869D01*
X75054Y46487D01*
X75150Y45813D01*
X74956Y45039D01*
X74584Y44759D01*
X74007Y44759D01*
G37*
%LPD*%
%LPC*%
G36*
X73714Y23758D02*
X73714Y23758D01*
X73028Y24052D01*
X72535Y24545D01*
X72141Y24939D01*
X71846Y25529D01*
X71648Y26121D01*
X71549Y26813D01*
X71549Y27607D01*
X71648Y28299D01*
X71846Y28891D01*
X72142Y29483D01*
X72535Y29975D01*
X73027Y30368D01*
X73615Y30662D01*
X74303Y30761D01*
X74992Y30761D01*
X75576Y30566D01*
X76067Y30173D01*
X76565Y29675D01*
X76592Y29672D01*
X76599Y29662D01*
X76601Y29662D01*
X76611Y29669D01*
X76624Y29667D01*
X76625Y29676D01*
X76635Y29675D01*
X77033Y30073D01*
X77523Y30465D01*
X78203Y30660D01*
X78788Y30562D01*
X79378Y30365D01*
X79971Y29970D01*
X80467Y29573D01*
X80963Y29078D01*
X81251Y28694D01*
X81251Y27313D01*
X81151Y26618D01*
X81052Y26024D01*
X80757Y25336D01*
X80365Y24845D01*
X79776Y24354D01*
X79192Y24159D01*
X78617Y24159D01*
X78139Y24542D01*
X77849Y25122D01*
X77849Y25687D01*
X78431Y26172D01*
X78931Y26572D01*
X78935Y26587D01*
X78945Y26595D01*
X78942Y26599D01*
X78949Y26603D01*
X79049Y27303D01*
X79043Y27313D01*
X79049Y27318D01*
X78949Y27918D01*
X78930Y27935D01*
X78931Y27948D01*
X78431Y28348D01*
X78401Y28349D01*
X78390Y28358D01*
X77890Y28258D01*
X77855Y28218D01*
X77851Y28216D01*
X77751Y27416D01*
X77653Y26730D01*
X77373Y26357D01*
X76501Y26260D01*
X75830Y26355D01*
X75549Y26824D01*
X75549Y27510D01*
X75542Y27519D01*
X75547Y27526D01*
X75347Y28126D01*
X75328Y28138D01*
X75327Y28151D01*
X74727Y28551D01*
X74702Y28549D01*
X74692Y28559D01*
X74092Y28459D01*
X74071Y28437D01*
X74058Y28435D01*
X73758Y27935D01*
X73759Y27921D01*
X73751Y27916D01*
X73651Y27116D01*
X73658Y27104D01*
X73653Y27096D01*
X73853Y26396D01*
X73867Y26386D01*
X73865Y26375D01*
X74265Y25975D01*
X74277Y25974D01*
X74278Y25966D01*
X74865Y25672D01*
X75149Y25199D01*
X75052Y24322D01*
X74863Y23850D01*
X74296Y23661D01*
X73714Y23758D01*
G37*
%LPD*%
G36*
X139009Y128608D02*
X139009Y128608D01*
X139016Y128603D01*
X139616Y128803D01*
X139634Y128830D01*
X139647Y128834D01*
X139847Y129434D01*
X139843Y129445D01*
X139849Y129450D01*
X139849Y132242D01*
X140040Y132815D01*
X140608Y133099D01*
X141285Y133002D01*
X141859Y132716D01*
X142051Y132043D01*
X142051Y129350D01*
X142059Y129339D01*
X142054Y129332D01*
X142254Y128832D01*
X142280Y128816D01*
X142284Y128803D01*
X142884Y128603D01*
X142895Y128607D01*
X142900Y128601D01*
X143800Y128601D01*
X143818Y128615D01*
X143831Y128612D01*
X144331Y129012D01*
X144335Y129027D01*
X144340Y129031D01*
X144337Y129035D01*
X144338Y129042D01*
X144349Y129050D01*
X144349Y137850D01*
X144342Y137859D01*
X144347Y137866D01*
X144147Y138466D01*
X144120Y138484D01*
X144116Y138497D01*
X143516Y138697D01*
X143509Y138694D01*
X143507Y138697D01*
X143496Y138697D01*
X143495Y138699D01*
X142595Y138599D01*
X142581Y138586D01*
X142570Y138589D01*
X142170Y138289D01*
X142166Y138273D01*
X142158Y138267D01*
X142161Y138262D01*
X142151Y138257D01*
X142051Y137557D01*
X142054Y137552D01*
X142051Y137550D01*
X142051Y134918D01*
X141822Y134995D01*
X141227Y135391D01*
X141212Y135390D01*
X141207Y135399D01*
X140507Y135499D01*
X140502Y135496D01*
X140495Y135496D01*
X140492Y135499D01*
X139892Y135399D01*
X139889Y135395D01*
X139886Y135397D01*
X139186Y135197D01*
X139178Y135186D01*
X139169Y135188D01*
X138669Y134788D01*
X138668Y134784D01*
X138665Y134785D01*
X138165Y134285D01*
X138164Y134273D01*
X138156Y134272D01*
X137856Y133672D01*
X137857Y133667D01*
X137853Y133666D01*
X137653Y133066D01*
X137655Y133059D01*
X137651Y133057D01*
X137551Y132357D01*
X137554Y132352D01*
X137551Y132350D01*
X137551Y129550D01*
X137554Y129545D01*
X137551Y129542D01*
X137651Y128942D01*
X137670Y128924D01*
X137670Y128911D01*
X138070Y128611D01*
X138092Y128611D01*
X138100Y128601D01*
X139000Y128601D01*
X139009Y128608D01*
G37*
G36*
X157004Y141304D02*
X157004Y141304D01*
X157007Y141301D01*
X157707Y141401D01*
X157712Y141406D01*
X157716Y141403D01*
X158316Y141603D01*
X158321Y141611D01*
X158327Y141609D01*
X158927Y142009D01*
X158928Y142012D01*
X158931Y142012D01*
X159431Y142412D01*
X159433Y142422D01*
X159441Y142423D01*
X159841Y143023D01*
X159841Y143027D01*
X159844Y143028D01*
X160144Y143628D01*
X160143Y143635D01*
X160147Y143636D01*
X160166Y143701D01*
X160180Y143750D01*
X160222Y143898D01*
X160264Y144045D01*
X160278Y144095D01*
X160320Y144242D01*
X160321Y144242D01*
X160320Y144242D01*
X160347Y144336D01*
X160346Y144340D01*
X160347Y144341D01*
X160344Y144346D01*
X160349Y144350D01*
X160349Y146450D01*
X160332Y146473D01*
X160333Y146487D01*
X159334Y147386D01*
X158835Y147885D01*
X158823Y147886D01*
X158822Y147894D01*
X158222Y148194D01*
X158215Y148193D01*
X158214Y148197D01*
X157514Y148397D01*
X157510Y148396D01*
X157508Y148399D01*
X156908Y148499D01*
X156898Y148493D01*
X156893Y148499D01*
X155493Y148299D01*
X155485Y148291D01*
X155478Y148294D01*
X154878Y147994D01*
X154875Y147987D01*
X154869Y147988D01*
X154369Y147588D01*
X154368Y147584D01*
X154365Y147585D01*
X153865Y147085D01*
X153864Y147073D01*
X153856Y147072D01*
X153256Y145872D01*
X153258Y145861D01*
X153251Y145857D01*
X153151Y145157D01*
X153154Y145152D01*
X153151Y145150D01*
X153151Y144450D01*
X153157Y144442D01*
X153153Y144436D01*
X153353Y143736D01*
X153354Y143735D01*
X153353Y143734D01*
X153553Y143134D01*
X153561Y143129D01*
X153559Y143123D01*
X153959Y142523D01*
X153969Y142519D01*
X153969Y142512D01*
X154469Y142112D01*
X154473Y142111D01*
X154473Y142109D01*
X155073Y141709D01*
X155077Y141709D01*
X155078Y141706D01*
X155678Y141406D01*
X155689Y141408D01*
X155692Y141401D01*
X156292Y141301D01*
X156297Y141304D01*
X156300Y141301D01*
X157000Y141301D01*
X157004Y141304D01*
G37*
G36*
X157804Y128604D02*
X157804Y128604D01*
X157807Y128601D01*
X158507Y128701D01*
X158512Y128706D01*
X158516Y128703D01*
X159116Y128903D01*
X159121Y128911D01*
X159127Y128909D01*
X159727Y129309D01*
X159728Y129312D01*
X159731Y129312D01*
X160231Y129712D01*
X160233Y129722D01*
X160241Y129723D01*
X160641Y130323D01*
X160641Y130327D01*
X160644Y130328D01*
X160944Y130928D01*
X160943Y130935D01*
X160947Y130936D01*
X160966Y131001D01*
X160980Y131050D01*
X161022Y131198D01*
X161064Y131345D01*
X161078Y131395D01*
X161120Y131542D01*
X161121Y131542D01*
X161120Y131542D01*
X161147Y131636D01*
X161146Y131640D01*
X161147Y131641D01*
X161144Y131646D01*
X161149Y131650D01*
X161149Y133750D01*
X161132Y133773D01*
X161133Y133787D01*
X160134Y134686D01*
X159635Y135185D01*
X159623Y135186D01*
X159622Y135194D01*
X159022Y135494D01*
X159017Y135493D01*
X159016Y135497D01*
X158416Y135697D01*
X158409Y135695D01*
X158407Y135699D01*
X157707Y135799D01*
X157698Y135794D01*
X157693Y135799D01*
X156293Y135599D01*
X156285Y135591D01*
X156278Y135594D01*
X155678Y135294D01*
X155675Y135287D01*
X155669Y135288D01*
X155169Y134888D01*
X155168Y134884D01*
X155165Y134885D01*
X154665Y134385D01*
X154664Y134373D01*
X154656Y134372D01*
X154056Y133172D01*
X154058Y133161D01*
X154051Y133157D01*
X153951Y132457D01*
X153956Y132448D01*
X153951Y132443D01*
X154151Y131043D01*
X154156Y131038D01*
X154153Y131034D01*
X154353Y130434D01*
X154361Y130429D01*
X154359Y130423D01*
X154759Y129823D01*
X154769Y129819D01*
X154769Y129812D01*
X155269Y129412D01*
X155273Y129411D01*
X155273Y129409D01*
X155873Y129009D01*
X155877Y129009D01*
X155878Y129006D01*
X156478Y128706D01*
X156489Y128708D01*
X156493Y128701D01*
X157193Y128601D01*
X157198Y128604D01*
X157200Y128601D01*
X157800Y128601D01*
X157804Y128604D01*
G37*
%LPC*%
G36*
X149424Y23756D02*
X149424Y23756D01*
X148637Y24543D01*
X148144Y25134D01*
X147947Y25725D01*
X147749Y26417D01*
X147749Y27703D01*
X147756Y27727D01*
X147770Y27777D01*
X147812Y27924D01*
X147813Y27924D01*
X147812Y27924D01*
X147855Y28072D01*
X147869Y28121D01*
X147911Y28269D01*
X147946Y28392D01*
X148244Y28988D01*
X148539Y29578D01*
X149027Y29968D01*
X149618Y30264D01*
X150307Y30461D01*
X150997Y30461D01*
X151689Y30362D01*
X152273Y30167D01*
X152761Y29680D01*
X153056Y29188D01*
X153354Y28493D01*
X153552Y27799D01*
X153651Y27202D01*
X153656Y27198D01*
X153653Y27194D01*
X153853Y26594D01*
X153867Y26585D01*
X153865Y26575D01*
X154365Y26075D01*
X154390Y26072D01*
X154395Y26066D01*
X154403Y26066D01*
X154408Y26061D01*
X155008Y26161D01*
X155029Y26183D01*
X155042Y26185D01*
X155342Y26685D01*
X155342Y26690D01*
X155345Y26693D01*
X155341Y26699D01*
X155340Y26703D01*
X155349Y26710D01*
X155349Y27410D01*
X155340Y27423D01*
X155344Y27432D01*
X154749Y28622D01*
X154749Y29187D01*
X155327Y29669D01*
X155902Y29956D01*
X156370Y29769D01*
X156860Y29181D01*
X157154Y28690D01*
X157352Y28000D01*
X157451Y27307D01*
X157451Y26517D01*
X157424Y26424D01*
X157410Y26375D01*
X157368Y26227D01*
X157326Y26080D01*
X157312Y26030D01*
X157270Y25883D01*
X157253Y25825D01*
X157055Y25231D01*
X156758Y24735D01*
X156758Y24734D01*
X156724Y24753D01*
X156677Y24746D01*
X156669Y24748D01*
X155680Y23957D01*
X154997Y23859D01*
X154304Y23859D01*
X153715Y23957D01*
X153125Y24253D01*
X152538Y24644D01*
X152244Y25232D01*
X151946Y25828D01*
X151748Y26521D01*
X151649Y27118D01*
X151645Y27121D01*
X151647Y27124D01*
X151447Y27824D01*
X151430Y27836D01*
X151431Y27848D01*
X150931Y28248D01*
X150902Y28249D01*
X150892Y28259D01*
X150292Y28159D01*
X150275Y28140D01*
X150262Y28141D01*
X149862Y27641D01*
X149861Y27622D01*
X149851Y27617D01*
X149751Y26917D01*
X149760Y26901D01*
X149755Y26891D01*
X150055Y26191D01*
X150066Y26184D01*
X150065Y26175D01*
X150562Y25679D01*
X150951Y25095D01*
X150951Y24626D01*
X150466Y23947D01*
X149990Y23662D01*
X149424Y23756D01*
G37*
%LPD*%
%LPC*%
G36*
X124215Y23759D02*
X124215Y23759D01*
X123336Y24346D01*
X122941Y24937D01*
X122545Y25531D01*
X122349Y26217D01*
X122349Y27507D01*
X122448Y28199D01*
X122645Y28788D01*
X123040Y29381D01*
X123432Y29871D01*
X124019Y30164D01*
X124611Y30362D01*
X125303Y30461D01*
X126092Y30461D01*
X126678Y30265D01*
X127263Y29875D01*
X127557Y29387D01*
X127854Y28792D01*
X128052Y28098D01*
X128352Y26799D01*
X128362Y26791D01*
X128359Y26783D01*
X128759Y26183D01*
X128786Y26173D01*
X128792Y26161D01*
X129392Y26061D01*
X129401Y26066D01*
X129407Y26066D01*
X129418Y26075D01*
X129431Y26072D01*
X129931Y26472D01*
X129935Y26487D01*
X129947Y26496D01*
X129944Y26500D01*
X129949Y26503D01*
X130049Y27203D01*
X130039Y27221D01*
X130044Y27232D01*
X129744Y27832D01*
X129740Y27834D01*
X129741Y27837D01*
X129349Y28425D01*
X129349Y28993D01*
X129734Y29473D01*
X130315Y29861D01*
X130880Y29861D01*
X131361Y29380D01*
X131654Y28890D01*
X131853Y28196D01*
X132051Y27503D01*
X132051Y26813D01*
X131952Y26120D01*
X131926Y26030D01*
X131884Y25883D01*
X131870Y25833D01*
X131828Y25686D01*
X131785Y25538D01*
X131771Y25489D01*
X131754Y25430D01*
X131461Y24941D01*
X130967Y24447D01*
X130477Y24055D01*
X129790Y23858D01*
X129101Y23760D01*
X128514Y23858D01*
X127826Y24153D01*
X127335Y24545D01*
X126942Y25037D01*
X126646Y25628D01*
X126448Y26322D01*
X126148Y27621D01*
X126136Y27631D01*
X126138Y27641D01*
X125738Y28141D01*
X125713Y28147D01*
X125707Y28159D01*
X125007Y28259D01*
X124979Y28243D01*
X124965Y28245D01*
X124565Y27845D01*
X124563Y27827D01*
X124553Y27824D01*
X124533Y27754D01*
X124519Y27705D01*
X124477Y27557D01*
X124434Y27409D01*
X124420Y27360D01*
X124378Y27212D01*
X124353Y27124D01*
X124356Y27114D01*
X124355Y27114D01*
X124358Y27111D01*
X124360Y27106D01*
X124353Y27096D01*
X124553Y26396D01*
X124564Y26388D01*
X124562Y26379D01*
X124962Y25879D01*
X124962Y25878D01*
X125454Y25289D01*
X125549Y24718D01*
X125262Y24144D01*
X124685Y23759D01*
X124215Y23759D01*
G37*
%LPD*%
%LPC*%
G36*
X124121Y60756D02*
X124121Y60756D01*
X123730Y61049D01*
X123237Y61444D01*
X122843Y62035D01*
X122546Y62628D01*
X122349Y63317D01*
X122349Y64607D01*
X122448Y65295D01*
X122743Y65885D01*
X123138Y66479D01*
X123531Y66872D01*
X124121Y67265D01*
X124807Y67461D01*
X125497Y67461D01*
X126189Y67362D01*
X126778Y67165D01*
X127362Y66776D01*
X127654Y66191D01*
X127853Y65595D01*
X128053Y64896D01*
X128054Y64895D01*
X128053Y64894D01*
X128253Y64295D01*
X128453Y63596D01*
X128464Y63588D01*
X128462Y63579D01*
X128862Y63079D01*
X128892Y63072D01*
X128900Y63061D01*
X129600Y63061D01*
X129630Y63083D01*
X129642Y63085D01*
X129942Y63585D01*
X129940Y63603D01*
X129949Y63610D01*
X129949Y64310D01*
X129940Y64323D01*
X129944Y64332D01*
X129349Y65522D01*
X129349Y66090D01*
X129828Y66568D01*
X130505Y66859D01*
X130973Y66765D01*
X131457Y66184D01*
X131654Y65692D01*
X131655Y65691D01*
X131952Y64996D01*
X132051Y64406D01*
X132051Y63613D01*
X131952Y62925D01*
X131657Y62333D01*
X131361Y61841D01*
X130871Y61351D01*
X130278Y61054D01*
X130252Y61001D01*
X130257Y60998D01*
X130254Y60993D01*
X130268Y60955D01*
X129692Y60859D01*
X129003Y60760D01*
X128315Y60957D01*
X127727Y61153D01*
X127237Y61643D01*
X126844Y62134D01*
X126647Y62726D01*
X126644Y62727D01*
X126645Y62729D01*
X126348Y63424D01*
X126249Y64018D01*
X126245Y64021D01*
X126247Y64024D01*
X126047Y64724D01*
X126036Y64732D01*
X126038Y64741D01*
X125638Y65241D01*
X125602Y65250D01*
X125593Y65259D01*
X124893Y65159D01*
X124878Y65143D01*
X124865Y65145D01*
X124465Y64745D01*
X124462Y64722D01*
X124451Y64716D01*
X124351Y63916D01*
X124361Y63899D01*
X124356Y63888D01*
X124656Y63288D01*
X124660Y63286D01*
X124659Y63283D01*
X125059Y62683D01*
X125063Y62681D01*
X125062Y62678D01*
X125551Y62092D01*
X125551Y61625D01*
X125165Y61046D01*
X124590Y60662D01*
X124121Y60756D01*
G37*
%LPD*%
%LPC*%
G36*
X175424Y33953D02*
X175424Y33953D01*
X175409Y33947D01*
X175400Y33959D01*
X174920Y33959D01*
X174535Y34345D01*
X174531Y34345D01*
X174531Y34348D01*
X174037Y34744D01*
X173642Y35336D01*
X173346Y35830D01*
X173149Y36517D01*
X173149Y37902D01*
X173347Y38494D01*
X173346Y38496D01*
X173347Y38496D01*
X173366Y38562D01*
X173380Y38612D01*
X173422Y38759D01*
X173423Y38759D01*
X173422Y38759D01*
X173465Y38907D01*
X173479Y38956D01*
X173521Y39104D01*
X173545Y39187D01*
X173937Y39677D01*
X174431Y40171D01*
X174925Y40468D01*
X174945Y40517D01*
X174954Y40493D01*
X175004Y40461D01*
X175008Y40468D01*
X175016Y40463D01*
X175608Y40661D01*
X176988Y40661D01*
X177575Y40367D01*
X178163Y39975D01*
X178455Y39489D01*
X178653Y38895D01*
X179053Y37496D01*
X179054Y37495D01*
X179053Y37494D01*
X179253Y36894D01*
X179261Y36889D01*
X179259Y36883D01*
X179659Y36283D01*
X179692Y36271D01*
X179700Y36261D01*
X179702Y36261D01*
X179705Y36263D01*
X179707Y36261D01*
X180407Y36361D01*
X180429Y36383D01*
X180442Y36385D01*
X180742Y36885D01*
X180742Y36888D01*
X180740Y36903D01*
X180749Y36910D01*
X180749Y37610D01*
X180738Y37625D01*
X180742Y37635D01*
X180444Y38132D01*
X180149Y38820D01*
X180149Y39290D01*
X180630Y39771D01*
X181304Y40155D01*
X181772Y39968D01*
X182258Y39482D01*
X182454Y38992D01*
X182455Y38991D01*
X182752Y38297D01*
X182851Y37607D01*
X182851Y36913D01*
X182752Y36223D01*
X182456Y35532D01*
X182161Y35041D01*
X181671Y34551D01*
X181081Y34256D01*
X180492Y34059D01*
X179803Y34059D01*
X179115Y34158D01*
X178527Y34452D01*
X178035Y34845D01*
X177645Y35333D01*
X177447Y36024D01*
X177442Y36028D01*
X177444Y36032D01*
X177148Y36625D01*
X177049Y37317D01*
X177044Y37322D01*
X177047Y37326D01*
X176847Y37926D01*
X176836Y37933D01*
X176838Y37941D01*
X176438Y38441D01*
X176408Y38448D01*
X176400Y38459D01*
X175700Y38459D01*
X175675Y38440D01*
X175662Y38441D01*
X175262Y37941D01*
X175261Y37922D01*
X175251Y37917D01*
X175151Y37217D01*
X175160Y37201D01*
X175155Y37191D01*
X175455Y36491D01*
X175463Y36486D01*
X175462Y36479D01*
X175862Y35979D01*
X175862Y35978D01*
X176351Y35392D01*
X176351Y34825D01*
X175965Y34247D01*
X175475Y33952D01*
X175465Y33928D01*
X175453Y33923D01*
X175449Y33910D01*
X175447Y33902D01*
X175424Y33953D01*
G37*
%LPD*%
%LPC*%
G36*
X98620Y55857D02*
X98620Y55857D01*
X98235Y56146D01*
X97838Y56641D01*
X97838Y56642D01*
X97342Y57237D01*
X97047Y57825D01*
X96949Y58414D01*
X96949Y59802D01*
X97146Y60392D01*
X97444Y61088D01*
X97739Y61580D01*
X98229Y62069D01*
X98815Y62362D01*
X99507Y62461D01*
X100197Y62560D01*
X100885Y62363D01*
X101473Y62167D01*
X101961Y61680D01*
X102257Y61187D01*
X102554Y60592D01*
X102752Y59900D01*
X102851Y59203D01*
X102856Y59198D01*
X102853Y59194D01*
X103053Y58594D01*
X103067Y58585D01*
X103065Y58575D01*
X103565Y58075D01*
X103598Y58071D01*
X103608Y58061D01*
X104208Y58161D01*
X104227Y58182D01*
X104241Y58183D01*
X104641Y58783D01*
X104640Y58799D01*
X104646Y58804D01*
X104642Y58810D01*
X104649Y58817D01*
X104549Y59517D01*
X104536Y59530D01*
X104538Y59541D01*
X104144Y60034D01*
X103951Y60614D01*
X104046Y61186D01*
X104529Y61669D01*
X105102Y61956D01*
X105570Y61769D01*
X106060Y61181D01*
X106354Y60690D01*
X106552Y60000D01*
X106651Y59307D01*
X106651Y58617D01*
X106642Y58585D01*
X106599Y58437D01*
X106585Y58388D01*
X106543Y58240D01*
X106501Y58092D01*
X106487Y58043D01*
X106453Y57925D01*
X106256Y57334D01*
X105863Y56843D01*
X105370Y56349D01*
X104875Y56052D01*
X104868Y56035D01*
X104853Y56024D01*
X104860Y56015D01*
X104856Y56006D01*
X104845Y56031D01*
X104792Y56059D01*
X104789Y56053D01*
X104784Y56057D01*
X104192Y55859D01*
X103504Y55859D01*
X102914Y55958D01*
X102228Y56252D01*
X101739Y56741D01*
X101443Y57233D01*
X101146Y57828D01*
X100948Y58520D01*
X100849Y59217D01*
X100844Y59222D01*
X100847Y59226D01*
X100647Y59826D01*
X100630Y59837D01*
X100631Y59848D01*
X100131Y60248D01*
X100102Y60249D01*
X100092Y60259D01*
X99492Y60159D01*
X99477Y60143D01*
X99465Y60145D01*
X99065Y59745D01*
X99063Y59725D01*
X99052Y59717D01*
X99051Y59716D01*
X98951Y58916D01*
X98961Y58899D01*
X98956Y58888D01*
X99256Y58288D01*
X99264Y58284D01*
X99262Y58278D01*
X99761Y57680D01*
X100151Y57095D01*
X100151Y56628D01*
X99667Y56048D01*
X99190Y55762D01*
X98620Y55857D01*
G37*
%LPD*%
%LPC*%
G36*
X98033Y24347D02*
X98033Y24347D01*
X97541Y24839D01*
X97246Y25428D01*
X97048Y26121D01*
X96949Y26714D01*
X96949Y27407D01*
X97048Y28099D01*
X97246Y28691D01*
X97541Y29281D01*
X98031Y29772D01*
X98622Y30165D01*
X99212Y30362D01*
X99804Y30461D01*
X100592Y30461D01*
X101178Y30265D01*
X101766Y29873D01*
X102158Y29383D01*
X102454Y28791D01*
X102652Y28197D01*
X102952Y26800D01*
X102961Y26792D01*
X102958Y26785D01*
X103258Y26285D01*
X103280Y26276D01*
X103284Y26263D01*
X103884Y26063D01*
X103893Y26066D01*
X103909Y26066D01*
X103916Y26072D01*
X103925Y26068D01*
X104425Y26368D01*
X104433Y26386D01*
X104445Y26396D01*
X104447Y26396D01*
X104448Y26398D01*
X104462Y26447D01*
X104504Y26595D01*
X104546Y26742D01*
X104560Y26792D01*
X104602Y26939D01*
X104603Y26939D01*
X104602Y26939D01*
X104645Y27087D01*
X104647Y27096D01*
X104640Y27116D01*
X104647Y27126D01*
X104447Y27726D01*
X104439Y27731D01*
X104441Y27737D01*
X104045Y28332D01*
X103855Y28900D01*
X104234Y29374D01*
X104916Y29861D01*
X105380Y29861D01*
X105863Y29378D01*
X106157Y28985D01*
X106452Y28297D01*
X106551Y27603D01*
X106650Y26910D01*
X106552Y26220D01*
X106512Y26080D01*
X106469Y25932D01*
X106455Y25883D01*
X106413Y25735D01*
X106371Y25587D01*
X106357Y25538D01*
X106354Y25530D01*
X106058Y25035D01*
X106064Y24976D01*
X106071Y24977D01*
X106071Y24970D01*
X106099Y24949D01*
X106069Y24948D01*
X106069Y24944D01*
X106065Y24945D01*
X105669Y24548D01*
X105075Y24153D01*
X104485Y23857D01*
X103899Y23760D01*
X103210Y23858D01*
X102523Y24055D01*
X102033Y24447D01*
X101543Y24937D01*
X101347Y25526D01*
X101344Y25527D01*
X101345Y25529D01*
X101046Y26228D01*
X100848Y26821D01*
X100749Y27517D01*
X100741Y27525D01*
X100744Y27532D01*
X100444Y28132D01*
X100413Y28147D01*
X100407Y28159D01*
X99707Y28259D01*
X99683Y28246D01*
X99670Y28249D01*
X99270Y27949D01*
X99266Y27932D01*
X99255Y27929D01*
X98955Y27229D01*
X98958Y27215D01*
X98954Y27212D01*
X98957Y27208D01*
X98951Y27202D01*
X99051Y26602D01*
X99062Y26592D01*
X99059Y26583D01*
X99459Y25983D01*
X99466Y25980D01*
X99465Y25975D01*
X100055Y25386D01*
X100149Y24912D01*
X100145Y24898D01*
X100103Y24750D01*
X100061Y24602D01*
X100047Y24553D01*
X100005Y24405D01*
X99962Y24257D01*
X99957Y24238D01*
X99378Y23756D01*
X98912Y23663D01*
X98033Y24347D01*
G37*
%LPD*%
%LPC*%
G36*
X159088Y229832D02*
X159088Y229832D01*
X158472Y230096D01*
X157964Y230434D01*
X157243Y231516D01*
X157064Y232230D01*
X156968Y233003D01*
X156873Y233857D01*
X157062Y235368D01*
X157343Y236118D01*
X157618Y236759D01*
X158047Y237274D01*
X158572Y237624D01*
X159190Y237889D01*
X159893Y237977D01*
X160692Y237888D01*
X161308Y237624D01*
X161833Y237274D01*
X162262Y236759D01*
X162528Y236138D01*
X162910Y234613D01*
X162910Y233007D01*
X162537Y231516D01*
X161816Y230434D01*
X161308Y230096D01*
X160692Y229832D01*
X159890Y229743D01*
X159088Y229832D01*
G37*
%LPD*%
%LPC*%
G36*
X151503Y103299D02*
X151503Y103299D01*
X150812Y103398D01*
X150021Y103695D01*
X149528Y103990D01*
X149042Y104379D01*
X148853Y104948D01*
X149141Y105620D01*
X149723Y106105D01*
X150093Y106197D01*
X150774Y105808D01*
X151073Y105609D01*
X151088Y105610D01*
X151093Y105601D01*
X151793Y105501D01*
X151798Y105504D01*
X151800Y105501D01*
X152500Y105501D01*
X152509Y105508D01*
X152516Y105503D01*
X153116Y105703D01*
X153119Y105708D01*
X153122Y105706D01*
X153722Y106006D01*
X153727Y106016D01*
X153735Y106015D01*
X154235Y106515D01*
X154236Y106527D01*
X154244Y106528D01*
X154544Y107128D01*
X154542Y107139D01*
X154549Y107143D01*
X154649Y107843D01*
X154646Y107848D01*
X154649Y107850D01*
X154649Y108550D01*
X154642Y108559D01*
X154647Y108566D01*
X154447Y109166D01*
X154442Y109169D01*
X154444Y109172D01*
X154144Y109772D01*
X154131Y109779D01*
X154131Y109788D01*
X153631Y110188D01*
X153625Y110189D01*
X153624Y110193D01*
X152924Y110593D01*
X152912Y110591D01*
X152908Y110599D01*
X152308Y110699D01*
X152303Y110696D01*
X152300Y110699D01*
X151600Y110699D01*
X151591Y110692D01*
X151584Y110697D01*
X150984Y110497D01*
X150980Y110491D01*
X150976Y110493D01*
X150283Y110097D01*
X149809Y110002D01*
X149334Y110287D01*
X148849Y110966D01*
X148849Y111533D01*
X149234Y112013D01*
X149822Y112405D01*
X150415Y112603D01*
X151110Y112802D01*
X151803Y112901D01*
X152397Y112901D01*
X153089Y112802D01*
X153682Y112604D01*
X154379Y112305D01*
X154973Y112008D01*
X155465Y111615D01*
X155860Y111121D01*
X156257Y110525D01*
X156554Y109931D01*
X156752Y109339D01*
X156851Y108647D01*
X156851Y107258D01*
X156653Y106666D01*
X156654Y106664D01*
X156653Y106664D01*
X156629Y106581D01*
X156587Y106433D01*
X156573Y106384D01*
X156531Y106236D01*
X156488Y106088D01*
X156474Y106039D01*
X156455Y105971D01*
X156060Y105379D01*
X155663Y104883D01*
X155167Y104387D01*
X154673Y103992D01*
X154082Y103696D01*
X153386Y103497D01*
X153385Y103496D01*
X153384Y103497D01*
X152792Y103299D01*
X151503Y103299D01*
G37*
%LPD*%
%LPC*%
G36*
X177703Y23659D02*
X177703Y23659D01*
X177010Y23758D01*
X176318Y23956D01*
X175722Y24254D01*
X175127Y24552D01*
X174635Y24945D01*
X174240Y25439D01*
X173843Y26035D01*
X173544Y26632D01*
X173248Y27225D01*
X173149Y27913D01*
X173149Y29203D01*
X173150Y29205D01*
X173192Y29353D01*
X173234Y29500D01*
X173248Y29550D01*
X173290Y29697D01*
X173291Y29697D01*
X173290Y29697D01*
X173333Y29845D01*
X173347Y29894D01*
X173347Y29896D01*
X173389Y30042D01*
X173431Y30190D01*
X173445Y30239D01*
X173487Y30387D01*
X173488Y30387D01*
X173487Y30387D01*
X173530Y30535D01*
X173544Y30584D01*
X173546Y30590D01*
X173839Y31080D01*
X174324Y31564D01*
X174891Y31659D01*
X175570Y31271D01*
X176045Y30795D01*
X175953Y30426D01*
X175455Y29229D01*
X175457Y29221D01*
X175451Y29218D01*
X175351Y28618D01*
X175354Y28613D01*
X175351Y28610D01*
X175351Y27910D01*
X175360Y27897D01*
X175356Y27888D01*
X175956Y26688D01*
X175969Y26681D01*
X175969Y26672D01*
X176469Y26272D01*
X176477Y26271D01*
X176478Y26266D01*
X177078Y25966D01*
X177088Y25968D01*
X177089Y25968D01*
X177093Y25961D01*
X177793Y25861D01*
X177802Y25866D01*
X177807Y25861D01*
X178507Y25961D01*
X178511Y25965D01*
X178514Y25963D01*
X179214Y26163D01*
X179222Y26174D01*
X179231Y26172D01*
X179731Y26572D01*
X179733Y26579D01*
X179738Y26579D01*
X180138Y27079D01*
X180139Y27086D01*
X180140Y27087D01*
X180144Y27088D01*
X180444Y27688D01*
X180442Y27699D01*
X180449Y27703D01*
X180549Y28403D01*
X180546Y28408D01*
X180549Y28410D01*
X180549Y29110D01*
X180540Y29123D01*
X180544Y29132D01*
X180244Y29732D01*
X180242Y29733D01*
X180243Y29734D01*
X179849Y30423D01*
X179849Y30790D01*
X180333Y31273D01*
X180914Y31758D01*
X181476Y31664D01*
X181961Y31180D01*
X182256Y30688D01*
X182552Y29997D01*
X182651Y29303D01*
X182652Y29302D01*
X182651Y29302D01*
X182751Y28706D01*
X182751Y28014D01*
X182652Y27421D01*
X182635Y27360D01*
X182592Y27212D01*
X182578Y27163D01*
X182536Y27015D01*
X182494Y26868D01*
X182480Y26818D01*
X182454Y26728D01*
X182157Y26135D01*
X181760Y25539D01*
X181363Y25043D01*
X180871Y24551D01*
X179681Y23956D01*
X179089Y23758D01*
X178397Y23659D01*
X177703Y23659D01*
G37*
%LPD*%
%LPC*%
G36*
X126508Y69659D02*
X126508Y69659D01*
X126455Y69631D01*
X126460Y69623D01*
X126454Y69618D01*
X126451Y69617D01*
X126448Y69592D01*
X126449Y69606D01*
X126418Y69656D01*
X126411Y69652D01*
X126408Y69659D01*
X125815Y69757D01*
X125222Y70054D01*
X125220Y70054D01*
X125219Y70055D01*
X124526Y70353D01*
X124033Y70747D01*
X123537Y71243D01*
X123142Y71737D01*
X122844Y72332D01*
X122548Y72925D01*
X122449Y73617D01*
X122448Y73618D01*
X122449Y73618D01*
X122349Y74214D01*
X122349Y74906D01*
X122448Y75500D01*
X122646Y76291D01*
X122942Y76784D01*
X123334Y77372D01*
X123900Y77655D01*
X124473Y77369D01*
X125061Y76879D01*
X125246Y76508D01*
X124956Y75833D01*
X124759Y75537D01*
X124759Y75530D01*
X124755Y75527D01*
X124756Y75525D01*
X124753Y75524D01*
X124711Y75379D01*
X124697Y75330D01*
X124655Y75182D01*
X124613Y75034D01*
X124599Y74985D01*
X124557Y74837D01*
X124553Y74824D01*
X124556Y74814D01*
X124551Y74810D01*
X124551Y74110D01*
X124554Y74105D01*
X124551Y74102D01*
X124651Y73502D01*
X124662Y73492D01*
X124659Y73483D01*
X125059Y72883D01*
X125062Y72882D01*
X125062Y72879D01*
X125462Y72379D01*
X125472Y72377D01*
X125473Y72369D01*
X126073Y71969D01*
X126087Y71970D01*
X126092Y71961D01*
X126692Y71861D01*
X126697Y71864D01*
X126700Y71861D01*
X127500Y71861D01*
X127505Y71864D01*
X127508Y71861D01*
X128108Y71961D01*
X128115Y71969D01*
X128116Y71969D01*
X128122Y71966D01*
X128722Y72266D01*
X128727Y72276D01*
X128735Y72275D01*
X129235Y72775D01*
X129236Y72787D01*
X129244Y72788D01*
X129544Y73388D01*
X129543Y73395D01*
X129547Y73396D01*
X129585Y73530D01*
X129586Y73530D01*
X129585Y73530D01*
X129628Y73678D01*
X129642Y73727D01*
X129684Y73875D01*
X129726Y74022D01*
X129740Y74072D01*
X129747Y74096D01*
X129744Y74106D01*
X129749Y74110D01*
X129749Y74710D01*
X129743Y74718D01*
X129747Y74724D01*
X129547Y75424D01*
X129542Y75428D01*
X129544Y75432D01*
X129246Y76029D01*
X129053Y76606D01*
X129240Y76979D01*
X129922Y77564D01*
X130490Y77658D01*
X130965Y77373D01*
X131357Y76785D01*
X131654Y76192D01*
X131852Y75500D01*
X131951Y74807D01*
X131951Y74213D01*
X131851Y73518D01*
X131752Y72924D01*
X131455Y72231D01*
X131159Y71639D01*
X130665Y71145D01*
X130665Y71141D01*
X130662Y71141D01*
X130265Y70645D01*
X129774Y70253D01*
X129082Y69956D01*
X128489Y69758D01*
X127793Y69659D01*
X127101Y69560D01*
X126508Y69659D01*
G37*
%LPD*%
%LPC*%
G36*
X126603Y32659D02*
X126603Y32659D01*
X125911Y32758D01*
X125319Y32956D01*
X124725Y33253D01*
X124131Y33648D01*
X123637Y34143D01*
X123242Y34637D01*
X122646Y35829D01*
X122448Y36421D01*
X122349Y37113D01*
X122349Y37806D01*
X122448Y38400D01*
X122647Y39195D01*
X122844Y39687D01*
X123237Y40276D01*
X123710Y40655D01*
X124280Y40465D01*
X124964Y40074D01*
X125246Y39604D01*
X125056Y39033D01*
X124761Y38640D01*
X124761Y38627D01*
X124753Y38624D01*
X124743Y38589D01*
X124729Y38540D01*
X124687Y38392D01*
X124644Y38244D01*
X124630Y38195D01*
X124588Y38047D01*
X124553Y37924D01*
X124556Y37914D01*
X124551Y37910D01*
X124551Y37310D01*
X124554Y37306D01*
X124551Y37303D01*
X124651Y36603D01*
X124659Y36595D01*
X124656Y36588D01*
X124956Y35988D01*
X124963Y35985D01*
X124962Y35979D01*
X125362Y35479D01*
X125372Y35477D01*
X125373Y35469D01*
X125973Y35069D01*
X125982Y35070D01*
X125984Y35063D01*
X126584Y34863D01*
X126595Y34867D01*
X126600Y34861D01*
X127300Y34861D01*
X127304Y34864D01*
X127307Y34861D01*
X128007Y34961D01*
X128015Y34969D01*
X128022Y34966D01*
X128622Y35266D01*
X128625Y35273D01*
X128631Y35272D01*
X129131Y35672D01*
X129133Y35682D01*
X129141Y35683D01*
X129541Y36283D01*
X129540Y36292D01*
X129542Y36293D01*
X129547Y36294D01*
X129747Y36894D01*
X129743Y36905D01*
X129749Y36910D01*
X129749Y37610D01*
X129746Y37614D01*
X129749Y37617D01*
X129649Y38317D01*
X129641Y38325D01*
X129644Y38332D01*
X129052Y39517D01*
X129145Y39983D01*
X129724Y40466D01*
X130316Y40663D01*
X130338Y40696D01*
X130349Y40702D01*
X130351Y40718D01*
X130351Y40716D01*
X130381Y40665D01*
X130382Y40664D01*
X130868Y40470D01*
X131258Y39884D01*
X131556Y39388D01*
X131852Y38697D01*
X131951Y38007D01*
X131951Y37314D01*
X131851Y36718D01*
X131852Y36717D01*
X131851Y36717D01*
X131752Y36021D01*
X131555Y35432D01*
X131159Y34837D01*
X130760Y34239D01*
X130365Y33745D01*
X129873Y33352D01*
X129282Y33056D01*
X128586Y32857D01*
X128585Y32856D01*
X128584Y32857D01*
X127992Y32659D01*
X126603Y32659D01*
G37*
%LPD*%
G36*
X96604Y128604D02*
X96604Y128604D01*
X96607Y128601D01*
X97307Y128701D01*
X97312Y128706D01*
X97316Y128703D01*
X97916Y128903D01*
X97921Y128911D01*
X97927Y128909D01*
X98527Y129309D01*
X98531Y129319D01*
X98538Y129319D01*
X98938Y129819D01*
X98939Y129823D01*
X98941Y129823D01*
X99341Y130423D01*
X99341Y130427D01*
X99344Y130428D01*
X99644Y131028D01*
X99642Y131039D01*
X99649Y131043D01*
X99749Y131743D01*
X99746Y131748D01*
X99749Y131750D01*
X99749Y132450D01*
X99746Y132454D01*
X99749Y132457D01*
X99649Y133157D01*
X99644Y133162D01*
X99647Y133166D01*
X99447Y133766D01*
X99439Y133771D01*
X99441Y133777D01*
X99041Y134377D01*
X99034Y134380D01*
X99035Y134385D01*
X98635Y134785D01*
X98631Y134785D01*
X98631Y134788D01*
X98131Y135188D01*
X98123Y135189D01*
X98122Y135194D01*
X97522Y135494D01*
X97515Y135493D01*
X97514Y135497D01*
X96814Y135697D01*
X96809Y135696D01*
X96807Y135699D01*
X96107Y135799D01*
X96098Y135794D01*
X96093Y135799D01*
X94693Y135599D01*
X94685Y135591D01*
X94678Y135594D01*
X94078Y135294D01*
X94073Y135284D01*
X94065Y135285D01*
X93565Y134785D01*
X93565Y134781D01*
X93562Y134781D01*
X93162Y134281D01*
X93161Y134268D01*
X93153Y134266D01*
X92953Y133666D01*
X92955Y133659D01*
X92951Y133657D01*
X92851Y132957D01*
X92854Y132952D01*
X92851Y132950D01*
X92851Y132150D01*
X92870Y132125D01*
X92869Y132112D01*
X93369Y131712D01*
X93377Y131711D01*
X93378Y131706D01*
X93978Y131406D01*
X93989Y131408D01*
X93995Y131408D01*
X94000Y131401D01*
X96700Y131401D01*
X96747Y131437D01*
X96747Y131438D01*
X96748Y131438D01*
X96752Y131456D01*
X96778Y131408D01*
X96778Y131406D01*
X97123Y131233D01*
X96771Y130793D01*
X96093Y130599D01*
X95408Y130599D01*
X94216Y130997D01*
X94190Y130988D01*
X94178Y130994D01*
X93578Y130694D01*
X93567Y130673D01*
X93555Y130669D01*
X93255Y129969D01*
X93258Y129956D01*
X93251Y129950D01*
X93251Y129450D01*
X93267Y129429D01*
X93265Y129415D01*
X93565Y129115D01*
X93574Y129114D01*
X93575Y129108D01*
X94075Y128808D01*
X94084Y128809D01*
X94086Y128803D01*
X94786Y128603D01*
X94796Y128606D01*
X94800Y128601D01*
X96600Y128601D01*
X96604Y128604D01*
G37*
G36*
X139204Y141304D02*
X139204Y141304D01*
X139207Y141301D01*
X139907Y141401D01*
X139912Y141406D01*
X139916Y141403D01*
X140516Y141603D01*
X140521Y141611D01*
X140527Y141609D01*
X141127Y142009D01*
X141130Y142016D01*
X141135Y142015D01*
X141635Y142515D01*
X141636Y142527D01*
X141644Y142528D01*
X142244Y143728D01*
X142242Y143739D01*
X142249Y143743D01*
X142349Y144443D01*
X142346Y144448D01*
X142349Y144450D01*
X142349Y145150D01*
X142346Y145154D01*
X142349Y145157D01*
X142249Y145857D01*
X142244Y145862D01*
X142247Y145866D01*
X142047Y146466D01*
X142039Y146471D01*
X142041Y146477D01*
X141641Y147077D01*
X141634Y147080D01*
X141635Y147085D01*
X141235Y147485D01*
X141231Y147485D01*
X141231Y147488D01*
X140731Y147888D01*
X140723Y147889D01*
X140722Y147894D01*
X140122Y148194D01*
X140115Y148193D01*
X140114Y148197D01*
X139414Y148397D01*
X139409Y148396D01*
X139407Y148399D01*
X138707Y148499D01*
X138698Y148494D01*
X138693Y148499D01*
X137293Y148299D01*
X137285Y148291D01*
X137278Y148294D01*
X136678Y147994D01*
X136673Y147984D01*
X136665Y147985D01*
X136165Y147485D01*
X136165Y147481D01*
X136162Y147481D01*
X135762Y146981D01*
X135761Y146968D01*
X135753Y146966D01*
X135553Y146366D01*
X135555Y146359D01*
X135551Y146357D01*
X135451Y145657D01*
X135454Y145652D01*
X135451Y145650D01*
X135451Y144850D01*
X135470Y144825D01*
X135469Y144812D01*
X135969Y144412D01*
X135977Y144411D01*
X135978Y144406D01*
X136578Y144106D01*
X136589Y144108D01*
X136595Y144108D01*
X136600Y144101D01*
X139300Y144101D01*
X139347Y144137D01*
X139347Y144138D01*
X139348Y144138D01*
X139352Y144156D01*
X139379Y144105D01*
X139381Y144106D01*
X139382Y144104D01*
X139812Y143932D01*
X139373Y143493D01*
X138792Y143299D01*
X138008Y143299D01*
X136816Y143697D01*
X136787Y143687D01*
X136775Y143692D01*
X136275Y143392D01*
X136268Y143376D01*
X136257Y143374D01*
X135857Y142674D01*
X135860Y142657D01*
X135851Y142650D01*
X135851Y142150D01*
X135867Y142129D01*
X135865Y142115D01*
X136165Y141815D01*
X136174Y141814D01*
X136175Y141808D01*
X136675Y141508D01*
X136685Y141509D01*
X136688Y141502D01*
X137488Y141302D01*
X137496Y141306D01*
X137500Y141301D01*
X139200Y141301D01*
X139204Y141304D01*
G37*
%LPC*%
G36*
X79730Y32849D02*
X79730Y32849D01*
X79723Y32847D01*
X79722Y32854D01*
X79122Y33154D01*
X72422Y36454D01*
X71837Y36747D01*
X71549Y37322D01*
X71549Y37998D01*
X71837Y38573D01*
X72422Y38866D01*
X79120Y42165D01*
X79805Y42459D01*
X80276Y42365D01*
X80758Y41882D01*
X80951Y41401D01*
X80951Y40830D01*
X80571Y40451D01*
X79979Y40154D01*
X74979Y37855D01*
X74977Y37850D01*
X74973Y37851D01*
X74673Y37651D01*
X74670Y37644D01*
X74664Y37643D01*
X74666Y37631D01*
X74653Y37595D01*
X74674Y37588D01*
X74678Y37566D01*
X75278Y37266D01*
X75279Y37266D01*
X75280Y37265D01*
X79880Y35165D01*
X79884Y35166D01*
X79884Y35163D01*
X80473Y34967D01*
X80857Y34583D01*
X81047Y34012D01*
X80758Y33338D01*
X80280Y32859D01*
X79800Y32859D01*
X79765Y32833D01*
X79755Y32830D01*
X79743Y32803D01*
X79730Y32849D01*
G37*
%LPD*%
G36*
X133104Y166704D02*
X133104Y166704D01*
X133107Y166701D01*
X133807Y166801D01*
X133834Y166828D01*
X133846Y166832D01*
X134046Y167332D01*
X134042Y167345D01*
X134049Y167350D01*
X134049Y168650D01*
X134043Y168658D01*
X134047Y168664D01*
X133647Y170064D01*
X133642Y170068D01*
X133644Y170072D01*
X133344Y170672D01*
X133341Y170673D01*
X133342Y170675D01*
X133042Y171175D01*
X133041Y171176D01*
X133041Y171177D01*
X132643Y171775D01*
X132344Y172372D01*
X132339Y172375D01*
X132340Y172379D01*
X131543Y173474D01*
X131373Y173901D01*
X134800Y173901D01*
X134815Y173912D01*
X134825Y173908D01*
X135325Y174208D01*
X135337Y174236D01*
X135349Y174243D01*
X135449Y174943D01*
X135446Y174948D01*
X135449Y174950D01*
X135449Y175650D01*
X135435Y175668D01*
X135438Y175681D01*
X135038Y176181D01*
X135013Y176187D01*
X135007Y176199D01*
X134307Y176299D01*
X134302Y176296D01*
X134300Y176299D01*
X129600Y176299D01*
X129596Y176296D01*
X129593Y176299D01*
X128893Y176199D01*
X128875Y176180D01*
X128862Y176181D01*
X128462Y175681D01*
X128461Y175658D01*
X128451Y175650D01*
X128451Y175050D01*
X128454Y175045D01*
X128451Y175042D01*
X128551Y174442D01*
X128555Y174439D01*
X128553Y174436D01*
X128753Y173736D01*
X128758Y173732D01*
X128756Y173728D01*
X129356Y172528D01*
X129358Y172527D01*
X129357Y172525D01*
X130057Y171325D01*
X130060Y171324D01*
X130059Y171323D01*
X130858Y170124D01*
X131254Y169431D01*
X131453Y168736D01*
X131456Y168734D01*
X131454Y168732D01*
X131651Y168241D01*
X131651Y167750D01*
X131654Y167746D01*
X131651Y167743D01*
X131751Y167043D01*
X131776Y167019D01*
X131778Y167006D01*
X132378Y166706D01*
X132394Y166709D01*
X132400Y166701D01*
X133100Y166701D01*
X133104Y166704D01*
G37*
G36*
X145609Y141308D02*
X145609Y141308D01*
X145616Y141303D01*
X146216Y141503D01*
X146233Y141528D01*
X146246Y141532D01*
X146446Y142032D01*
X146442Y142045D01*
X146449Y142050D01*
X146449Y144743D01*
X146461Y144784D01*
X146503Y144932D01*
X146517Y144981D01*
X146559Y145129D01*
X146560Y145129D01*
X146559Y145129D01*
X146602Y145277D01*
X146616Y145326D01*
X146643Y145421D01*
X147117Y145801D01*
X147788Y145801D01*
X148363Y145513D01*
X148651Y144938D01*
X148651Y142250D01*
X148658Y142241D01*
X148653Y142234D01*
X148853Y141634D01*
X148870Y141623D01*
X148870Y141611D01*
X149270Y141311D01*
X149292Y141311D01*
X149300Y141301D01*
X150200Y141301D01*
X150209Y141308D01*
X150216Y141303D01*
X150816Y141503D01*
X150834Y141530D01*
X150847Y141534D01*
X151047Y142134D01*
X151043Y142145D01*
X151049Y142150D01*
X151049Y147650D01*
X151033Y147671D01*
X151035Y147685D01*
X150635Y148085D01*
X150612Y148088D01*
X150606Y148099D01*
X149806Y148199D01*
X149801Y148196D01*
X149796Y148196D01*
X149793Y148199D01*
X149093Y148099D01*
X149071Y148077D01*
X149058Y148075D01*
X148777Y147607D01*
X148422Y147695D01*
X147931Y148088D01*
X147912Y148089D01*
X147907Y148099D01*
X147207Y148199D01*
X147202Y148196D01*
X147196Y148196D01*
X147193Y148199D01*
X146493Y148099D01*
X146488Y148094D01*
X146484Y148097D01*
X145884Y147897D01*
X145879Y147889D01*
X145873Y147891D01*
X145273Y147491D01*
X145270Y147484D01*
X145265Y147485D01*
X144765Y146985D01*
X144764Y146976D01*
X144758Y146975D01*
X144458Y146475D01*
X144459Y146466D01*
X144453Y146464D01*
X144445Y146436D01*
X144431Y146387D01*
X144389Y146239D01*
X144346Y146091D01*
X144332Y146042D01*
X144290Y145894D01*
X144253Y145765D01*
X144053Y145166D01*
X144056Y145158D01*
X144053Y145156D01*
X144055Y145153D01*
X144051Y145150D01*
X144051Y142350D01*
X144058Y142341D01*
X144053Y142334D01*
X144253Y141734D01*
X144267Y141725D01*
X144265Y141715D01*
X144665Y141315D01*
X144692Y141312D01*
X144700Y141301D01*
X145600Y141301D01*
X145609Y141308D01*
G37*
G36*
X135804Y154004D02*
X135804Y154004D01*
X135807Y154001D01*
X136507Y154101D01*
X136529Y154123D01*
X136542Y154125D01*
X136842Y154625D01*
X136842Y154628D01*
X136840Y154648D01*
X136849Y154657D01*
X136749Y155353D01*
X136749Y155950D01*
X136743Y155958D01*
X136747Y155964D01*
X136347Y157364D01*
X136342Y157368D01*
X136344Y157372D01*
X136044Y157972D01*
X136041Y157973D01*
X136042Y157975D01*
X135742Y158475D01*
X135741Y158476D01*
X135741Y158477D01*
X135343Y159075D01*
X135044Y159672D01*
X135039Y159675D01*
X135040Y159679D01*
X134246Y160770D01*
X134160Y161201D01*
X137500Y161201D01*
X137515Y161212D01*
X137525Y161208D01*
X138025Y161508D01*
X138037Y161536D01*
X138049Y161543D01*
X138149Y162243D01*
X138146Y162248D01*
X138149Y162250D01*
X138149Y162950D01*
X138135Y162968D01*
X138138Y162981D01*
X137738Y163481D01*
X137714Y163487D01*
X137708Y163499D01*
X137108Y163599D01*
X137103Y163596D01*
X137100Y163599D01*
X132400Y163599D01*
X132396Y163596D01*
X132394Y163599D01*
X131594Y163499D01*
X131571Y163477D01*
X131558Y163475D01*
X131258Y162975D01*
X131259Y162962D01*
X131251Y162958D01*
X131151Y162358D01*
X131157Y162348D01*
X131151Y162342D01*
X131251Y161742D01*
X131255Y161739D01*
X131253Y161736D01*
X131453Y161036D01*
X131458Y161032D01*
X131456Y161028D01*
X132056Y159828D01*
X132058Y159827D01*
X132057Y159825D01*
X132757Y158625D01*
X132760Y158624D01*
X132759Y158623D01*
X133558Y157424D01*
X133954Y156731D01*
X134153Y156036D01*
X134156Y156034D01*
X134154Y156032D01*
X134353Y155536D01*
X134451Y155042D01*
X134551Y154343D01*
X134573Y154321D01*
X134575Y154308D01*
X135075Y154008D01*
X135093Y154010D01*
X135100Y154001D01*
X135800Y154001D01*
X135804Y154004D01*
G37*
G36*
X126905Y154004D02*
X126905Y154004D01*
X126908Y154001D01*
X127508Y154101D01*
X127529Y154123D01*
X127542Y154125D01*
X127842Y154625D01*
X127842Y154628D01*
X127840Y154643D01*
X127849Y154650D01*
X127849Y155350D01*
X127846Y155355D01*
X127849Y155358D01*
X127749Y155958D01*
X127649Y156657D01*
X127642Y156664D01*
X127645Y156669D01*
X127346Y157368D01*
X127147Y157966D01*
X127140Y157970D01*
X127142Y157975D01*
X126842Y158475D01*
X126841Y158476D01*
X126841Y158477D01*
X126443Y159075D01*
X126144Y159672D01*
X126139Y159675D01*
X126140Y159679D01*
X125343Y160774D01*
X125173Y161201D01*
X128500Y161201D01*
X128515Y161212D01*
X128525Y161208D01*
X129025Y161508D01*
X129035Y161532D01*
X129047Y161536D01*
X129057Y161572D01*
X129058Y161572D01*
X129057Y161572D01*
X129100Y161720D01*
X129114Y161769D01*
X129156Y161917D01*
X129198Y162064D01*
X129212Y162114D01*
X129247Y162236D01*
X129242Y162250D01*
X129249Y162257D01*
X129149Y162957D01*
X129139Y162967D01*
X129142Y162975D01*
X128842Y163475D01*
X128814Y163487D01*
X128807Y163499D01*
X128107Y163599D01*
X128102Y163596D01*
X128100Y163599D01*
X123400Y163599D01*
X123396Y163596D01*
X123393Y163599D01*
X122693Y163499D01*
X122675Y163480D01*
X122662Y163481D01*
X122262Y162981D01*
X122261Y162958D01*
X122251Y162950D01*
X122251Y161750D01*
X122259Y161739D01*
X122255Y161731D01*
X122555Y161031D01*
X122557Y161029D01*
X122556Y161028D01*
X123156Y159828D01*
X123158Y159827D01*
X123157Y159825D01*
X123857Y158625D01*
X123860Y158624D01*
X123859Y158623D01*
X124656Y157427D01*
X124955Y156731D01*
X125253Y156035D01*
X125352Y155540D01*
X125451Y155042D01*
X125551Y154343D01*
X125573Y154321D01*
X125575Y154308D01*
X126075Y154008D01*
X126093Y154010D01*
X126100Y154001D01*
X126900Y154001D01*
X126905Y154004D01*
G37*
G36*
X111808Y128607D02*
X111808Y128607D01*
X111814Y128603D01*
X112514Y128803D01*
X112533Y128828D01*
X112546Y128832D01*
X112746Y129332D01*
X112742Y129345D01*
X112749Y129350D01*
X112749Y132043D01*
X112761Y132084D01*
X112803Y132232D01*
X112817Y132281D01*
X112859Y132429D01*
X112860Y132429D01*
X112859Y132429D01*
X112902Y132577D01*
X112916Y132626D01*
X112943Y132721D01*
X113417Y133101D01*
X114088Y133101D01*
X114663Y132813D01*
X114951Y132238D01*
X114951Y129550D01*
X114958Y129541D01*
X114953Y129534D01*
X115153Y128934D01*
X115170Y128923D01*
X115170Y128911D01*
X115570Y128611D01*
X115592Y128611D01*
X115600Y128601D01*
X116500Y128601D01*
X116509Y128608D01*
X116516Y128603D01*
X117116Y128803D01*
X117134Y128831D01*
X117138Y128834D01*
X117137Y128835D01*
X117138Y128837D01*
X117149Y128842D01*
X117249Y129442D01*
X117246Y129447D01*
X117249Y129450D01*
X117249Y134950D01*
X117236Y134968D01*
X117239Y134980D01*
X116939Y135380D01*
X116913Y135387D01*
X116906Y135399D01*
X116106Y135499D01*
X116101Y135496D01*
X116097Y135496D01*
X116094Y135499D01*
X115294Y135399D01*
X115271Y135377D01*
X115258Y135375D01*
X114978Y134909D01*
X114722Y134995D01*
X114127Y135391D01*
X114113Y135390D01*
X114108Y135399D01*
X113508Y135499D01*
X113503Y135496D01*
X113496Y135496D01*
X113493Y135499D01*
X112793Y135399D01*
X112788Y135394D01*
X112784Y135397D01*
X112184Y135197D01*
X112179Y135189D01*
X112173Y135191D01*
X111573Y134791D01*
X111570Y134784D01*
X111565Y134785D01*
X111065Y134285D01*
X111064Y134276D01*
X111058Y134275D01*
X110758Y133775D01*
X110758Y133770D01*
X110755Y133769D01*
X110455Y133069D01*
X110457Y133061D01*
X110451Y133058D01*
X110351Y132458D01*
X110353Y132456D01*
X110353Y132455D01*
X110354Y132453D01*
X110351Y132450D01*
X110351Y129650D01*
X110354Y129645D01*
X110351Y129642D01*
X110451Y129042D01*
X110470Y129025D01*
X110469Y129012D01*
X110969Y128612D01*
X110992Y128611D01*
X111000Y128601D01*
X111800Y128601D01*
X111808Y128607D01*
G37*
G36*
X146013Y154013D02*
X146013Y154013D01*
X146025Y154008D01*
X146525Y154308D01*
X146529Y154316D01*
X146535Y154315D01*
X147135Y154915D01*
X147139Y154942D01*
X147149Y154950D01*
X147149Y155450D01*
X147135Y155469D01*
X147138Y155482D01*
X146638Y156082D01*
X146636Y156082D01*
X146637Y156083D01*
X145738Y157081D01*
X145365Y157548D01*
X146736Y159016D01*
X146737Y159022D01*
X146741Y159023D01*
X147141Y159623D01*
X147139Y159647D01*
X147145Y159651D01*
X147143Y159653D01*
X147148Y159660D01*
X147048Y160160D01*
X147033Y160173D01*
X147035Y160185D01*
X146435Y160785D01*
X146426Y160786D01*
X146425Y160792D01*
X145925Y161092D01*
X145912Y161091D01*
X145911Y161093D01*
X145887Y161093D01*
X145882Y161096D01*
X145382Y160896D01*
X145374Y160884D01*
X145365Y160885D01*
X144766Y160286D01*
X143781Y159399D01*
X143420Y159399D01*
X141935Y160885D01*
X141919Y160887D01*
X141916Y160897D01*
X141316Y161097D01*
X141304Y161093D01*
X141289Y161093D01*
X141284Y161089D01*
X141275Y161092D01*
X140775Y160792D01*
X140771Y160784D01*
X140765Y160785D01*
X140165Y160185D01*
X140164Y160173D01*
X140160Y160170D01*
X140163Y160166D01*
X140162Y160158D01*
X140151Y160150D01*
X140151Y159550D01*
X140163Y159534D01*
X140159Y159523D01*
X140559Y158923D01*
X140566Y158920D01*
X140565Y158915D01*
X141932Y157549D01*
X140564Y156084D01*
X140563Y156078D01*
X140559Y156077D01*
X140159Y155477D01*
X140160Y155457D01*
X140151Y155450D01*
X140151Y154950D01*
X140167Y154929D01*
X140165Y154915D01*
X140765Y154315D01*
X140774Y154314D01*
X140775Y154308D01*
X141275Y154008D01*
X141304Y154011D01*
X141316Y154003D01*
X141916Y154203D01*
X141925Y154217D01*
X141935Y154215D01*
X142434Y154714D01*
X143419Y155601D01*
X143880Y155601D01*
X145365Y154115D01*
X145386Y154112D01*
X145392Y154101D01*
X145992Y154001D01*
X146013Y154013D01*
G37*
G36*
X143211Y166712D02*
X143211Y166712D01*
X143222Y166706D01*
X143822Y167006D01*
X143828Y167019D01*
X143838Y167018D01*
X144338Y167618D01*
X144339Y167636D01*
X144348Y167640D01*
X144448Y168140D01*
X144435Y168168D01*
X144438Y168182D01*
X143938Y168782D01*
X143936Y168782D01*
X143937Y168783D01*
X143037Y169783D01*
X143035Y169783D01*
X143035Y169785D01*
X142570Y170250D01*
X144035Y171715D01*
X144036Y171722D01*
X144041Y171723D01*
X144441Y172323D01*
X144439Y172347D01*
X144445Y172351D01*
X144443Y172353D01*
X144448Y172360D01*
X144348Y172860D01*
X144333Y172873D01*
X144335Y172885D01*
X143735Y173485D01*
X143726Y173486D01*
X143725Y173492D01*
X143225Y173792D01*
X143212Y173791D01*
X143211Y173793D01*
X143187Y173793D01*
X143182Y173796D01*
X142682Y173596D01*
X142674Y173584D01*
X142665Y173585D01*
X142066Y172986D01*
X141081Y172099D01*
X140622Y172099D01*
X139737Y173083D01*
X139731Y173084D01*
X139732Y173088D01*
X139132Y173588D01*
X139120Y173588D01*
X139118Y173596D01*
X138618Y173796D01*
X138607Y173793D01*
X138589Y173793D01*
X138584Y173789D01*
X138575Y173792D01*
X138075Y173492D01*
X138071Y173484D01*
X138065Y173485D01*
X137465Y172885D01*
X137464Y172873D01*
X137460Y172870D01*
X137463Y172866D01*
X137462Y172858D01*
X137451Y172850D01*
X137451Y172250D01*
X137463Y172234D01*
X137459Y172223D01*
X137859Y171623D01*
X137866Y171620D01*
X137865Y171615D01*
X139232Y170249D01*
X137864Y168784D01*
X137863Y168778D01*
X137859Y168777D01*
X137459Y168177D01*
X137460Y168157D01*
X137451Y168150D01*
X137451Y167650D01*
X137465Y167631D01*
X137462Y167618D01*
X137962Y167018D01*
X137976Y167015D01*
X137978Y167006D01*
X138578Y166706D01*
X138607Y166711D01*
X138618Y166704D01*
X139118Y166904D01*
X139124Y166914D01*
X139132Y166912D01*
X139732Y167412D01*
X139732Y167414D01*
X139733Y167413D01*
X140719Y168301D01*
X141180Y168301D01*
X142665Y166815D01*
X142685Y166812D01*
X142690Y166802D01*
X143190Y166702D01*
X143211Y166712D01*
G37*
G36*
X88804Y128604D02*
X88804Y128604D01*
X88807Y128601D01*
X89507Y128701D01*
X89529Y128723D01*
X89542Y128725D01*
X89842Y129225D01*
X89842Y129228D01*
X89840Y129243D01*
X89849Y129250D01*
X89849Y132646D01*
X89942Y133201D01*
X90600Y133201D01*
X90625Y133220D01*
X90638Y133219D01*
X91038Y133719D01*
X91039Y133742D01*
X91049Y133750D01*
X91049Y134550D01*
X91042Y134559D01*
X91047Y134566D01*
X90847Y135166D01*
X90822Y135183D01*
X90818Y135196D01*
X90322Y135394D01*
X89849Y135678D01*
X89849Y136250D01*
X89846Y136254D01*
X89849Y136257D01*
X89749Y136957D01*
X89741Y136965D01*
X89744Y136972D01*
X89444Y137572D01*
X89434Y137577D01*
X89435Y137585D01*
X88935Y138085D01*
X88931Y138085D01*
X88931Y138088D01*
X88431Y138488D01*
X88418Y138489D01*
X88416Y138497D01*
X87816Y138697D01*
X87809Y138694D01*
X87809Y138695D01*
X87806Y138699D01*
X87006Y138799D01*
X87000Y138796D01*
X86989Y138796D01*
X86988Y138795D01*
X86984Y138797D01*
X86384Y138597D01*
X86375Y138583D01*
X86365Y138585D01*
X85965Y138185D01*
X85964Y138173D01*
X85958Y138169D01*
X85962Y138163D01*
X85962Y138162D01*
X85951Y138156D01*
X85851Y137356D01*
X85859Y137343D01*
X85853Y137334D01*
X86053Y136734D01*
X86073Y136721D01*
X86075Y136708D01*
X86575Y136408D01*
X86589Y136409D01*
X86593Y136401D01*
X87270Y136305D01*
X87545Y135846D01*
X87369Y135404D01*
X86707Y135499D01*
X86702Y135496D01*
X86691Y135496D01*
X86688Y135498D01*
X85888Y135298D01*
X85873Y135280D01*
X85861Y135280D01*
X85561Y134880D01*
X85561Y134872D01*
X85557Y134869D01*
X85561Y134864D01*
X85561Y134858D01*
X85551Y134850D01*
X85551Y134150D01*
X85554Y134145D01*
X85551Y134142D01*
X85651Y133542D01*
X85672Y133523D01*
X85673Y133509D01*
X86273Y133109D01*
X86293Y133110D01*
X86300Y133101D01*
X87551Y133101D01*
X87551Y129750D01*
X87554Y129746D01*
X87551Y129743D01*
X87651Y129043D01*
X87667Y129028D01*
X87665Y129015D01*
X88065Y128615D01*
X88092Y128612D01*
X88100Y128601D01*
X88800Y128601D01*
X88804Y128604D01*
G37*
G36*
X149008Y128607D02*
X149008Y128607D01*
X149014Y128603D01*
X149714Y128803D01*
X149719Y128810D01*
X149725Y128808D01*
X150225Y129108D01*
X150230Y129120D01*
X150239Y129120D01*
X150539Y129520D01*
X150539Y129527D01*
X150544Y129528D01*
X150844Y130128D01*
X150842Y130139D01*
X150849Y130143D01*
X150949Y130843D01*
X150946Y130848D01*
X150949Y130850D01*
X150949Y132917D01*
X151918Y133304D01*
X151934Y133330D01*
X151947Y133334D01*
X152147Y133934D01*
X152143Y133945D01*
X152149Y133950D01*
X152149Y134750D01*
X152138Y134765D01*
X152142Y134775D01*
X151842Y135275D01*
X151820Y135284D01*
X151816Y135297D01*
X151227Y135493D01*
X150949Y135770D01*
X150949Y137150D01*
X150941Y137161D01*
X150946Y137168D01*
X150746Y137668D01*
X150718Y137685D01*
X150714Y137697D01*
X150014Y137897D01*
X150000Y137892D01*
X149994Y137899D01*
X149194Y137799D01*
X149178Y137783D01*
X149165Y137785D01*
X148765Y137385D01*
X148762Y137364D01*
X148751Y137358D01*
X148651Y136758D01*
X148654Y136753D01*
X148651Y136750D01*
X148651Y135407D01*
X148007Y135499D01*
X148002Y135496D01*
X148000Y135499D01*
X147300Y135499D01*
X147295Y135496D01*
X147282Y135486D01*
X147270Y135489D01*
X146870Y135189D01*
X146866Y135173D01*
X146854Y135164D01*
X146853Y135164D01*
X146839Y135115D01*
X146825Y135066D01*
X146783Y134918D01*
X146740Y134770D01*
X146726Y134721D01*
X146684Y134573D01*
X146653Y134464D01*
X146658Y134451D01*
X146651Y134445D01*
X146751Y133545D01*
X146770Y133524D01*
X146770Y133511D01*
X147170Y133211D01*
X147188Y133211D01*
X147193Y133201D01*
X147893Y133101D01*
X147903Y133107D01*
X147908Y133101D01*
X148467Y133195D01*
X148651Y132642D01*
X148651Y131364D01*
X148370Y130895D01*
X147693Y130799D01*
X147683Y130789D01*
X147675Y130792D01*
X147175Y130492D01*
X147165Y130468D01*
X147153Y130464D01*
X147131Y130387D01*
X147117Y130338D01*
X147075Y130190D01*
X147032Y130042D01*
X147018Y129993D01*
X146976Y129845D01*
X146953Y129764D01*
X146959Y129748D01*
X146957Y129747D01*
X146959Y129745D01*
X146953Y129736D01*
X147153Y129036D01*
X147167Y129026D01*
X147165Y129015D01*
X147565Y128615D01*
X147592Y128612D01*
X147600Y128601D01*
X149000Y128601D01*
X149008Y128607D01*
G37*
%LPC*%
G36*
X122914Y80059D02*
X122914Y80059D01*
X122445Y80340D01*
X122349Y81013D01*
X122349Y85806D01*
X122445Y86380D01*
X122914Y86661D01*
X123586Y86661D01*
X124055Y86380D01*
X124151Y85707D01*
X124151Y82310D01*
X124187Y82263D01*
X124194Y82268D01*
X124200Y82261D01*
X130796Y82261D01*
X131370Y82165D01*
X131652Y81694D01*
X131750Y80815D01*
X131561Y80247D01*
X131091Y80059D01*
X122914Y80059D01*
G37*
%LPD*%
%LPC*%
G36*
X236508Y129049D02*
X236508Y129049D01*
X235933Y129241D01*
X235649Y129714D01*
X235649Y130383D01*
X236024Y130851D01*
X239400Y130851D01*
X239421Y130867D01*
X239435Y130865D01*
X240035Y131465D01*
X240038Y131491D01*
X240049Y131499D01*
X240149Y137595D01*
X240245Y138170D01*
X240716Y138452D01*
X241593Y138550D01*
X242069Y138359D01*
X242054Y138317D01*
X242061Y138293D01*
X242054Y138282D01*
X242251Y137791D01*
X242251Y129616D01*
X241971Y129243D01*
X241293Y129049D01*
X236508Y129049D01*
G37*
%LPD*%
G36*
X167502Y154006D02*
X167502Y154006D01*
X167507Y154001D01*
X168207Y154101D01*
X168229Y154123D01*
X168242Y154125D01*
X168542Y154625D01*
X168542Y154628D01*
X168541Y154638D01*
X168549Y154642D01*
X168649Y155242D01*
X168646Y155247D01*
X168649Y155250D01*
X168649Y159342D01*
X168728Y159577D01*
X169376Y159207D01*
X169393Y159210D01*
X169400Y159201D01*
X169900Y159201D01*
X169919Y159215D01*
X169932Y159212D01*
X170532Y159712D01*
X170535Y159726D01*
X170544Y159728D01*
X170844Y160328D01*
X170842Y160337D01*
X170847Y160341D01*
X170840Y160349D01*
X170840Y160350D01*
X170848Y160360D01*
X170748Y160860D01*
X170735Y160871D01*
X170738Y160882D01*
X170238Y161482D01*
X170233Y161483D01*
X170234Y161486D01*
X168734Y162886D01*
X168731Y162886D01*
X168731Y162888D01*
X168231Y163288D01*
X168223Y163289D01*
X168222Y163294D01*
X167622Y163594D01*
X167606Y163591D01*
X167600Y163599D01*
X166900Y163599D01*
X166885Y163588D01*
X166875Y163592D01*
X166375Y163292D01*
X166364Y163264D01*
X166351Y163258D01*
X166251Y162658D01*
X166254Y162653D01*
X166251Y162650D01*
X166251Y154550D01*
X166267Y154529D01*
X166265Y154515D01*
X166665Y154115D01*
X166688Y154112D01*
X166694Y154101D01*
X167494Y154001D01*
X167502Y154006D01*
G37*
%LPC*%
G36*
X101509Y198870D02*
X101509Y198870D01*
X101509Y198894D01*
X101515Y198898D01*
X101513Y198902D01*
X101519Y198908D01*
X101419Y199504D01*
X101419Y206997D01*
X101515Y207667D01*
X102082Y207951D01*
X102658Y207951D01*
X103245Y207657D01*
X103539Y207461D01*
X105532Y205568D01*
X105915Y204994D01*
X105727Y204526D01*
X105241Y203942D01*
X104670Y203752D01*
X104086Y203947D01*
X104083Y203946D01*
X104082Y203948D01*
X103682Y204048D01*
X103627Y204024D01*
X103634Y204010D01*
X103621Y204000D01*
X103621Y199209D01*
X103433Y198740D01*
X102862Y198549D01*
X101986Y198549D01*
X101600Y198839D01*
X101540Y198839D01*
X101540Y198830D01*
X101531Y198831D01*
X100225Y197180D01*
X101509Y198870D01*
G37*
%LPD*%
%LPC*%
G36*
X148136Y54449D02*
X148136Y54449D01*
X147749Y55222D01*
X147749Y55790D01*
X148128Y56168D01*
X148618Y56364D01*
X148620Y56366D01*
X148621Y56366D01*
X156620Y60165D01*
X157315Y60463D01*
X157784Y60557D01*
X158258Y60082D01*
X158547Y59408D01*
X158359Y58842D01*
X157776Y58453D01*
X149279Y54354D01*
X149255Y54309D01*
X149244Y54331D01*
X149193Y54358D01*
X149192Y54359D01*
X148605Y54261D01*
X148136Y54449D01*
G37*
%LPD*%
%LPC*%
G36*
X97524Y47159D02*
X97524Y47159D01*
X97145Y47633D01*
X96952Y48309D01*
X97142Y48880D01*
X97525Y49168D01*
X106120Y53165D01*
X106798Y53456D01*
X107167Y53271D01*
X107651Y52594D01*
X107651Y51926D01*
X107369Y51550D01*
X106681Y51255D01*
X106680Y51254D01*
X106679Y51254D01*
X98780Y47455D01*
X98090Y47159D01*
X97524Y47159D01*
G37*
%LPD*%
%LPC*%
G36*
X122643Y52536D02*
X122643Y52536D01*
X122351Y53216D01*
X122444Y53777D01*
X123422Y54266D01*
X131420Y58065D01*
X132104Y58358D01*
X132472Y58266D01*
X132956Y57686D01*
X133147Y57017D01*
X132866Y56549D01*
X132181Y56255D01*
X132180Y56253D01*
X132178Y56254D01*
X124282Y52356D01*
X123589Y52158D01*
X123020Y52063D01*
X122643Y52536D01*
G37*
%LPD*%
G36*
X106515Y141312D02*
X106515Y141312D01*
X106525Y141308D01*
X107025Y141608D01*
X107033Y141627D01*
X107040Y141632D01*
X107037Y141636D01*
X107049Y141642D01*
X107149Y142242D01*
X107146Y142247D01*
X107149Y142250D01*
X107149Y149750D01*
X107146Y149755D01*
X107149Y149758D01*
X107049Y150358D01*
X107037Y150370D01*
X107039Y150380D01*
X106739Y150780D01*
X106713Y150787D01*
X106706Y150799D01*
X105906Y150899D01*
X105895Y150892D01*
X105888Y150898D01*
X105088Y150698D01*
X105073Y150680D01*
X105061Y150680D01*
X104761Y150280D01*
X104761Y150258D01*
X104751Y150250D01*
X104751Y142050D01*
X104759Y142039D01*
X104754Y142032D01*
X104954Y141532D01*
X104980Y141516D01*
X104984Y141503D01*
X105584Y141303D01*
X105595Y141307D01*
X105600Y141301D01*
X106500Y141301D01*
X106515Y141312D01*
G37*
%LPC*%
G36*
X169008Y103299D02*
X169008Y103299D01*
X168437Y103490D01*
X168249Y103959D01*
X168249Y112133D01*
X168626Y112604D01*
X169300Y112700D01*
X170077Y112603D01*
X170451Y112230D01*
X170451Y104154D01*
X170355Y103581D01*
X169886Y103299D01*
X169008Y103299D01*
G37*
%LPD*%
%LPC*%
G36*
X199603Y23859D02*
X199603Y23859D01*
X198923Y23956D01*
X198647Y24233D01*
X198550Y25109D01*
X198645Y25780D01*
X199114Y26061D01*
X207291Y26061D01*
X207759Y25873D01*
X207950Y25206D01*
X207851Y24416D01*
X207876Y24373D01*
X207877Y24366D01*
X207906Y24351D01*
X207863Y24342D01*
X207864Y24340D01*
X207861Y24340D01*
X207572Y23955D01*
X206996Y23859D01*
X199603Y23859D01*
G37*
%LPD*%
%LPC*%
G36*
X105241Y43105D02*
X105241Y43105D01*
X105232Y43147D01*
X105212Y43143D01*
X105200Y43159D01*
X97705Y43159D01*
X97231Y43254D01*
X96949Y43724D01*
X96949Y44602D01*
X97137Y45166D01*
X97708Y45261D01*
X98403Y45361D01*
X105196Y45361D01*
X105783Y45263D01*
X106254Y44980D01*
X106350Y44210D01*
X106254Y43437D01*
X105884Y43159D01*
X105300Y43159D01*
X105266Y43133D01*
X105256Y43131D01*
X105242Y43104D01*
X105241Y43105D01*
G37*
%LPD*%
G36*
X153109Y45168D02*
X153109Y45168D01*
X153116Y45163D01*
X153716Y45363D01*
X153721Y45371D01*
X153727Y45369D01*
X154327Y45769D01*
X154331Y45779D01*
X154338Y45779D01*
X154738Y46279D01*
X154739Y46287D01*
X154744Y46288D01*
X155044Y46888D01*
X155042Y46899D01*
X155049Y46903D01*
X155149Y47603D01*
X155145Y47610D01*
X155144Y47611D01*
X155143Y47613D01*
X155149Y47618D01*
X155049Y48218D01*
X155041Y48225D01*
X155044Y48232D01*
X154744Y48832D01*
X154737Y48835D01*
X154738Y48841D01*
X154338Y49341D01*
X154328Y49343D01*
X154327Y49351D01*
X153727Y49751D01*
X153718Y49750D01*
X153716Y49757D01*
X153116Y49957D01*
X153109Y49955D01*
X153107Y49959D01*
X152407Y50059D01*
X152394Y50052D01*
X152386Y50057D01*
X151686Y49857D01*
X151685Y49856D01*
X151684Y49857D01*
X151084Y49657D01*
X151075Y49643D01*
X151065Y49645D01*
X150565Y49145D01*
X150565Y49141D01*
X150562Y49141D01*
X150162Y48641D01*
X150161Y48628D01*
X150157Y48625D01*
X150153Y48624D01*
X150138Y48572D01*
X150096Y48425D01*
X150082Y48375D01*
X150040Y48228D01*
X149997Y48080D01*
X149983Y48031D01*
X149953Y47924D01*
X149956Y47914D01*
X149951Y47910D01*
X149951Y47310D01*
X149958Y47301D01*
X149953Y47294D01*
X150153Y46694D01*
X150158Y46691D01*
X150156Y46688D01*
X150456Y46088D01*
X150466Y46083D01*
X150465Y46075D01*
X150965Y45575D01*
X150975Y45574D01*
X150976Y45567D01*
X151676Y45167D01*
X151693Y45170D01*
X151700Y45161D01*
X153100Y45161D01*
X153109Y45168D01*
G37*
G36*
X221643Y131283D02*
X221643Y131283D01*
X221647Y131284D01*
X221847Y131884D01*
X221843Y131895D01*
X221849Y131900D01*
X221849Y135900D01*
X221833Y135921D01*
X221835Y135935D01*
X221435Y136335D01*
X221408Y136339D01*
X221400Y136349D01*
X220700Y136349D01*
X220695Y136346D01*
X220692Y136349D01*
X220092Y136249D01*
X220089Y136245D01*
X220086Y136247D01*
X219386Y136047D01*
X219378Y136036D01*
X219369Y136038D01*
X218869Y135638D01*
X218868Y135634D01*
X218865Y135635D01*
X218365Y135135D01*
X218363Y135119D01*
X218353Y135116D01*
X218153Y134516D01*
X218154Y134515D01*
X218153Y134515D01*
X218154Y134513D01*
X218155Y134509D01*
X218151Y134507D01*
X218051Y133807D01*
X218056Y133798D01*
X218051Y133793D01*
X218151Y133093D01*
X218156Y133088D01*
X218153Y133084D01*
X218353Y132484D01*
X218367Y132475D01*
X218365Y132465D01*
X219365Y131465D01*
X219384Y131463D01*
X219389Y131452D01*
X220289Y131252D01*
X220297Y131255D01*
X220300Y131251D01*
X221600Y131251D01*
X221643Y131283D01*
G37*
G36*
X128347Y181737D02*
X128347Y181737D01*
X128342Y181744D01*
X128349Y181750D01*
X128349Y186450D01*
X128320Y186488D01*
X128318Y186496D01*
X127818Y186696D01*
X127805Y186692D01*
X127800Y186699D01*
X127100Y186699D01*
X127096Y186696D01*
X127093Y186699D01*
X126393Y186599D01*
X126388Y186594D01*
X126384Y186597D01*
X125784Y186397D01*
X125775Y186383D01*
X125765Y186385D01*
X125265Y185885D01*
X125265Y185881D01*
X125262Y185881D01*
X124862Y185381D01*
X124861Y185373D01*
X124856Y185372D01*
X124556Y184772D01*
X124557Y184769D01*
X124555Y184768D01*
X124557Y184764D01*
X124559Y184756D01*
X124551Y184750D01*
X124551Y184050D01*
X124554Y184046D01*
X124551Y184043D01*
X124651Y183343D01*
X124659Y183335D01*
X124656Y183328D01*
X124956Y182728D01*
X124966Y182723D01*
X124965Y182715D01*
X125465Y182215D01*
X125469Y182215D01*
X125469Y182212D01*
X125969Y181812D01*
X125977Y181811D01*
X125978Y181806D01*
X126178Y181706D01*
X126194Y181709D01*
X126200Y181701D01*
X128300Y181701D01*
X128347Y181737D01*
G37*
G36*
X53026Y46880D02*
X53026Y46880D01*
X53039Y46880D01*
X53339Y47280D01*
X53339Y47288D01*
X53343Y47291D01*
X53339Y47295D01*
X53339Y47302D01*
X53349Y47310D01*
X53349Y48710D01*
X53340Y48723D01*
X53344Y48732D01*
X53044Y49332D01*
X53037Y49335D01*
X53038Y49341D01*
X52638Y49841D01*
X52631Y49843D01*
X52631Y49848D01*
X52131Y50248D01*
X52123Y50249D01*
X52122Y50254D01*
X51522Y50554D01*
X51511Y50552D01*
X51510Y50555D01*
X51509Y50555D01*
X51507Y50559D01*
X50807Y50659D01*
X50798Y50654D01*
X50793Y50659D01*
X50093Y50559D01*
X50085Y50551D01*
X50078Y50554D01*
X49478Y50254D01*
X49475Y50247D01*
X49469Y50248D01*
X48969Y49848D01*
X48968Y49844D01*
X48965Y49845D01*
X48465Y49345D01*
X48463Y49329D01*
X48453Y49326D01*
X48353Y49026D01*
X48357Y49015D01*
X48351Y49010D01*
X48351Y47010D01*
X48387Y46963D01*
X48390Y46965D01*
X48392Y46961D01*
X48992Y46861D01*
X48997Y46864D01*
X49000Y46861D01*
X53000Y46861D01*
X53026Y46880D01*
G37*
G36*
X104147Y67097D02*
X104147Y67097D01*
X104142Y67104D01*
X104149Y67110D01*
X104149Y68510D01*
X104146Y68514D01*
X104149Y68517D01*
X104049Y69217D01*
X104039Y69227D01*
X104042Y69235D01*
X103742Y69735D01*
X103734Y69739D01*
X103735Y69745D01*
X103235Y70245D01*
X103228Y70246D01*
X103227Y70251D01*
X102627Y70651D01*
X102613Y70650D01*
X102608Y70659D01*
X102008Y70759D01*
X102003Y70756D01*
X102000Y70759D01*
X101300Y70759D01*
X101294Y70755D01*
X101290Y70755D01*
X101286Y70757D01*
X100586Y70557D01*
X100581Y70550D01*
X100575Y70552D01*
X100075Y70252D01*
X100071Y70244D01*
X100065Y70245D01*
X99565Y69745D01*
X99564Y69734D01*
X99563Y69734D01*
X99563Y69733D01*
X99556Y69732D01*
X99156Y68932D01*
X99159Y68916D01*
X99151Y68910D01*
X99151Y67510D01*
X99160Y67497D01*
X99156Y67488D01*
X99356Y67088D01*
X99393Y67070D01*
X99400Y67061D01*
X104100Y67061D01*
X104147Y67097D01*
G37*
G36*
X154847Y76897D02*
X154847Y76897D01*
X154846Y76899D01*
X154848Y76900D01*
X154948Y77400D01*
X154945Y77407D01*
X154949Y77410D01*
X154949Y78110D01*
X154946Y78114D01*
X154949Y78117D01*
X154849Y78817D01*
X154841Y78825D01*
X154844Y78832D01*
X154544Y79432D01*
X154537Y79435D01*
X154538Y79441D01*
X154138Y79941D01*
X154128Y79943D01*
X154127Y79951D01*
X153527Y80351D01*
X153518Y80350D01*
X153516Y80357D01*
X152916Y80557D01*
X152909Y80555D01*
X152904Y80555D01*
X152900Y80559D01*
X152200Y80559D01*
X152196Y80556D01*
X152193Y80559D01*
X151493Y80459D01*
X151480Y80446D01*
X151469Y80448D01*
X150469Y79648D01*
X150468Y79644D01*
X150465Y79645D01*
X149965Y79145D01*
X149962Y79118D01*
X149951Y79110D01*
X149951Y77410D01*
X149955Y77404D01*
X149952Y77400D01*
X150052Y76900D01*
X150096Y76861D01*
X150098Y76863D01*
X150100Y76861D01*
X154800Y76861D01*
X154847Y76897D01*
G37*
G36*
X154947Y35097D02*
X154947Y35097D01*
X154942Y35104D01*
X154949Y35110D01*
X154949Y36510D01*
X154946Y36515D01*
X154949Y36518D01*
X154849Y37118D01*
X154841Y37125D01*
X154844Y37132D01*
X154544Y37732D01*
X154534Y37737D01*
X154535Y37745D01*
X154035Y38245D01*
X154023Y38246D01*
X154022Y38254D01*
X153422Y38554D01*
X153417Y38553D01*
X153416Y38557D01*
X152816Y38757D01*
X152809Y38755D01*
X152804Y38755D01*
X152800Y38759D01*
X152100Y38759D01*
X152094Y38755D01*
X152090Y38755D01*
X152086Y38757D01*
X151386Y38557D01*
X151381Y38550D01*
X151375Y38552D01*
X150875Y38252D01*
X150871Y38244D01*
X150865Y38245D01*
X150365Y37745D01*
X150364Y37734D01*
X150363Y37734D01*
X150363Y37733D01*
X150356Y37732D01*
X149956Y36932D01*
X149959Y36916D01*
X149951Y36910D01*
X149951Y35510D01*
X149960Y35497D01*
X149956Y35488D01*
X150156Y35088D01*
X150193Y35070D01*
X150200Y35061D01*
X154900Y35061D01*
X154947Y35097D01*
G37*
G36*
X103821Y35077D02*
X103821Y35077D01*
X103835Y35075D01*
X104135Y35375D01*
X104137Y35387D01*
X104143Y35392D01*
X104138Y35399D01*
X104139Y35402D01*
X104149Y35410D01*
X104149Y36810D01*
X104140Y36823D01*
X104144Y36832D01*
X103844Y37432D01*
X103840Y37434D01*
X103841Y37437D01*
X103441Y38037D01*
X103431Y38041D01*
X103431Y38048D01*
X102931Y38448D01*
X102918Y38449D01*
X102916Y38457D01*
X102316Y38657D01*
X102311Y38655D01*
X102310Y38656D01*
X102309Y38656D01*
X102307Y38659D01*
X101607Y38759D01*
X101599Y38755D01*
X101597Y38755D01*
X101593Y38759D01*
X100893Y38659D01*
X100885Y38651D01*
X100878Y38654D01*
X100278Y38354D01*
X100275Y38347D01*
X100269Y38348D01*
X99769Y37948D01*
X99768Y37944D01*
X99765Y37945D01*
X99265Y37445D01*
X99264Y37433D01*
X99256Y37432D01*
X99156Y37232D01*
X99159Y37216D01*
X99151Y37210D01*
X99151Y35110D01*
X99187Y35063D01*
X99194Y35068D01*
X99200Y35061D01*
X103800Y35061D01*
X103821Y35077D01*
G37*
%LPC*%
G36*
X144737Y229440D02*
X144737Y229440D01*
X143646Y229713D01*
X143432Y229856D01*
X143022Y230265D01*
X142951Y230480D01*
X142943Y230494D01*
X142940Y230509D01*
X142864Y230622D01*
X142860Y230628D01*
X142859Y230628D01*
X142859Y230629D01*
X142722Y230765D01*
X142670Y230922D01*
X142670Y231160D01*
X142667Y231175D01*
X142669Y231190D01*
X142632Y231322D01*
X142631Y231329D01*
X142630Y231329D01*
X142630Y231330D01*
X142570Y231450D01*
X142570Y231660D01*
X142567Y231675D01*
X142569Y231690D01*
X142545Y231776D01*
X142545Y231784D01*
X142541Y231792D01*
X142532Y231822D01*
X142531Y231829D01*
X142530Y231829D01*
X142530Y231830D01*
X142470Y231950D01*
X142470Y233061D01*
X142486Y233051D01*
X142548Y233007D01*
X142560Y233005D01*
X142568Y233000D01*
X142605Y232996D01*
X142690Y232980D01*
X142800Y232980D01*
X143120Y232820D01*
X143135Y232816D01*
X143148Y232807D01*
X143282Y232781D01*
X143289Y232780D01*
X143290Y232780D01*
X143700Y232780D01*
X143820Y232720D01*
X143835Y232716D01*
X143848Y232707D01*
X143982Y232681D01*
X143989Y232680D01*
X143990Y232680D01*
X144328Y232680D01*
X144570Y232599D01*
X144607Y232596D01*
X144690Y232580D01*
X145028Y232580D01*
X145270Y232499D01*
X145307Y232496D01*
X145390Y232480D01*
X145500Y232480D01*
X145620Y232420D01*
X145635Y232416D01*
X145648Y232407D01*
X145782Y232381D01*
X145789Y232380D01*
X145790Y232380D01*
X145900Y232380D01*
X146765Y231948D01*
X147078Y231635D01*
X147210Y231370D01*
X147210Y231060D01*
X147218Y231023D01*
X147229Y230940D01*
X147279Y230789D01*
X147250Y230730D01*
X147246Y230715D01*
X147237Y230702D01*
X147223Y230630D01*
X147217Y230615D01*
X147217Y230599D01*
X147211Y230568D01*
X147210Y230562D01*
X147210Y230561D01*
X147210Y230560D01*
X147210Y230422D01*
X147129Y230180D01*
X147126Y230143D01*
X147110Y230060D01*
X147110Y230050D01*
X147078Y229985D01*
X146865Y229773D01*
X146805Y229743D01*
X146720Y229700D01*
X146691Y229676D01*
X146621Y229629D01*
X146565Y229573D01*
X146500Y229540D01*
X146390Y229540D01*
X146375Y229537D01*
X146360Y229539D01*
X146228Y229502D01*
X146221Y229501D01*
X146221Y229500D01*
X146220Y229500D01*
X146100Y229440D01*
X144737Y229440D01*
G37*
%LPD*%
G36*
X153206Y200755D02*
X153206Y200755D01*
X153210Y200752D01*
X153710Y200852D01*
X153726Y200870D01*
X153739Y200870D01*
X154039Y201270D01*
X154039Y201277D01*
X154042Y201279D01*
X154041Y201280D01*
X154045Y201281D01*
X154345Y201981D01*
X154343Y201990D01*
X154349Y201994D01*
X154449Y202794D01*
X154447Y202798D01*
X154449Y202800D01*
X154449Y203900D01*
X154446Y203904D01*
X154449Y203906D01*
X154349Y204706D01*
X154345Y204710D01*
X154347Y204714D01*
X154147Y205414D01*
X154133Y205424D01*
X154135Y205435D01*
X153735Y205835D01*
X153723Y205836D01*
X153722Y205844D01*
X153322Y206044D01*
X153306Y206041D01*
X153300Y206049D01*
X152800Y206049D01*
X152787Y206040D01*
X152778Y206044D01*
X152378Y205844D01*
X152371Y205831D01*
X152362Y205831D01*
X151962Y205331D01*
X151961Y205317D01*
X151953Y205314D01*
X151933Y205246D01*
X151919Y205197D01*
X151877Y205049D01*
X151835Y204901D01*
X151821Y204852D01*
X151779Y204704D01*
X151753Y204614D01*
X151755Y204607D01*
X151753Y204606D01*
X151755Y204603D01*
X151751Y204600D01*
X151751Y202700D01*
X151754Y202696D01*
X151751Y202694D01*
X151851Y201894D01*
X151860Y201885D01*
X151856Y201878D01*
X152156Y201278D01*
X152162Y201275D01*
X152161Y201270D01*
X152461Y200870D01*
X152485Y200864D01*
X152490Y200852D01*
X152990Y200752D01*
X152997Y200755D01*
X153000Y200751D01*
X153200Y200751D01*
X153206Y200755D01*
G37*
G36*
X180347Y45297D02*
X180347Y45297D01*
X180342Y45304D01*
X180349Y45310D01*
X180349Y47410D01*
X180338Y47425D01*
X180342Y47435D01*
X180042Y47935D01*
X180008Y47949D01*
X180000Y47959D01*
X179300Y47959D01*
X179274Y47940D01*
X179261Y47940D01*
X178961Y47540D01*
X178961Y47522D01*
X178951Y47516D01*
X178853Y46733D01*
X178480Y46359D01*
X177714Y46359D01*
X177245Y46640D01*
X177049Y47918D01*
X177027Y47939D01*
X177025Y47952D01*
X176525Y48252D01*
X176507Y48250D01*
X176500Y48259D01*
X175900Y48259D01*
X175882Y48245D01*
X175869Y48248D01*
X175369Y47848D01*
X175362Y47818D01*
X175351Y47810D01*
X175351Y45710D01*
X175360Y45697D01*
X175356Y45688D01*
X175556Y45288D01*
X175593Y45270D01*
X175600Y45261D01*
X180300Y45261D01*
X180347Y45297D01*
G37*
%LPC*%
G36*
X152509Y156399D02*
X152509Y156399D01*
X152031Y156591D01*
X151742Y156976D01*
X151448Y157564D01*
X151349Y158453D01*
X151349Y159447D01*
X151449Y160244D01*
X151419Y160295D01*
X151414Y160292D01*
X151411Y160298D01*
X151393Y160302D01*
X151398Y160305D01*
X151402Y160305D01*
X151411Y160312D01*
X151443Y160328D01*
X151444Y160328D01*
X151742Y160924D01*
X152032Y161311D01*
X152412Y161501D01*
X152984Y161501D01*
X153365Y161215D01*
X153655Y160828D01*
X153851Y160141D01*
X153951Y159150D01*
X153851Y158156D01*
X153752Y157365D01*
X153459Y156779D01*
X153176Y156495D01*
X152695Y156399D01*
X152509Y156399D01*
G37*
%LPD*%
%LPC*%
G36*
X149809Y169099D02*
X149809Y169099D01*
X149331Y169291D01*
X149042Y169676D01*
X148748Y170264D01*
X148649Y171153D01*
X148649Y172147D01*
X148749Y172944D01*
X148719Y172995D01*
X148714Y172992D01*
X148711Y172998D01*
X148693Y173002D01*
X148698Y173005D01*
X148701Y173005D01*
X148709Y173011D01*
X148744Y173028D01*
X148742Y173033D01*
X148747Y173034D01*
X148943Y173623D01*
X149329Y174009D01*
X149712Y174201D01*
X150186Y174201D01*
X150666Y173913D01*
X150955Y173528D01*
X151151Y172843D01*
X151151Y170853D01*
X151052Y170065D01*
X150761Y169482D01*
X150378Y169195D01*
X149994Y169099D01*
X149809Y169099D01*
G37*
%LPD*%
%LPC*%
G36*
X166912Y169099D02*
X166912Y169099D01*
X166529Y169291D01*
X166143Y169677D01*
X165948Y170261D01*
X165849Y171153D01*
X165849Y172147D01*
X165949Y172944D01*
X165919Y172995D01*
X165913Y172992D01*
X165910Y172998D01*
X165892Y173002D01*
X165898Y173005D01*
X165901Y173005D01*
X165909Y173011D01*
X165944Y173028D01*
X165942Y173033D01*
X165947Y173034D01*
X166144Y173627D01*
X166431Y174009D01*
X166909Y174201D01*
X167384Y174201D01*
X167765Y173915D01*
X168055Y173528D01*
X168251Y172841D01*
X168351Y171850D01*
X168251Y170856D01*
X168152Y170065D01*
X167859Y169479D01*
X167576Y169195D01*
X167095Y169099D01*
X166912Y169099D01*
G37*
%LPD*%
%LPC*%
G36*
X166108Y130999D02*
X166108Y130999D01*
X165539Y131189D01*
X165349Y131758D01*
X165349Y132150D01*
X165332Y132172D01*
X165334Y132186D01*
X165308Y132210D01*
X165327Y132209D01*
X165327Y132216D01*
X165335Y132215D01*
X165720Y132601D01*
X166500Y132601D01*
X166511Y132609D01*
X166518Y132604D01*
X167018Y132804D01*
X167035Y132832D01*
X167047Y132836D01*
X167086Y132971D01*
X167100Y133020D01*
X167142Y133168D01*
X167184Y133315D01*
X167198Y133365D01*
X167240Y133512D01*
X167241Y133512D01*
X167240Y133512D01*
X167247Y133536D01*
X167242Y133550D01*
X167249Y133557D01*
X167149Y134257D01*
X167122Y134284D01*
X167118Y134296D01*
X166618Y134496D01*
X166609Y134493D01*
X166606Y134499D01*
X165830Y134596D01*
X165553Y135057D01*
X165562Y135088D01*
X165576Y135138D01*
X165618Y135285D01*
X165619Y135285D01*
X165618Y135285D01*
X165661Y135433D01*
X165675Y135482D01*
X165717Y135630D01*
X165739Y135706D01*
X166403Y135801D01*
X167691Y135801D01*
X168151Y135617D01*
X168151Y131554D01*
X168058Y130999D01*
X166108Y130999D01*
G37*
%LPD*%
G36*
X154947Y87097D02*
X154947Y87097D01*
X154944Y87101D01*
X154949Y87103D01*
X155049Y87803D01*
X155046Y87808D01*
X155049Y87810D01*
X155049Y88410D01*
X155046Y88414D01*
X155049Y88417D01*
X154949Y89117D01*
X154941Y89125D01*
X154944Y89132D01*
X154644Y89732D01*
X154620Y89744D01*
X154616Y89757D01*
X154016Y89957D01*
X154001Y89952D01*
X153994Y89959D01*
X153194Y89859D01*
X153175Y89840D01*
X153162Y89841D01*
X152762Y89341D01*
X152761Y89323D01*
X152751Y89318D01*
X152651Y88718D01*
X152654Y88713D01*
X152651Y88710D01*
X152651Y87310D01*
X152667Y87289D01*
X152665Y87275D01*
X152865Y87075D01*
X152892Y87072D01*
X152900Y87061D01*
X154900Y87061D01*
X154947Y87097D01*
G37*
G36*
X117709Y184408D02*
X117709Y184408D01*
X117716Y184403D01*
X118016Y184503D01*
X118032Y184527D01*
X118043Y184535D01*
X118040Y184539D01*
X118046Y184547D01*
X118049Y184550D01*
X118049Y186650D01*
X118013Y186697D01*
X118010Y186695D01*
X118008Y186699D01*
X117408Y186799D01*
X117403Y186796D01*
X117400Y186799D01*
X116700Y186799D01*
X116696Y186796D01*
X116693Y186799D01*
X115993Y186699D01*
X115983Y186689D01*
X115975Y186692D01*
X115475Y186392D01*
X115467Y186374D01*
X115456Y186372D01*
X115156Y185772D01*
X115160Y185752D01*
X115151Y185743D01*
X115251Y185043D01*
X115264Y185030D01*
X115262Y185019D01*
X115662Y184519D01*
X115687Y184513D01*
X115693Y184501D01*
X116393Y184401D01*
X116398Y184404D01*
X116400Y184401D01*
X117700Y184401D01*
X117709Y184408D01*
G37*
G36*
X132302Y141306D02*
X132302Y141306D01*
X132307Y141301D01*
X133007Y141401D01*
X133019Y141414D01*
X133030Y141411D01*
X133430Y141711D01*
X133434Y141727D01*
X133439Y141731D01*
X133436Y141735D01*
X133437Y141737D01*
X133449Y141743D01*
X133549Y142443D01*
X133544Y142451D01*
X133549Y142456D01*
X133449Y143256D01*
X133433Y143272D01*
X133435Y143285D01*
X133035Y143685D01*
X133013Y143688D01*
X133007Y143699D01*
X132307Y143799D01*
X132302Y143796D01*
X132300Y143799D01*
X131600Y143799D01*
X131575Y143780D01*
X131562Y143781D01*
X131162Y143281D01*
X131161Y143262D01*
X131151Y143257D01*
X131051Y142557D01*
X131054Y142552D01*
X131051Y142550D01*
X131051Y141850D01*
X131067Y141829D01*
X131065Y141815D01*
X131465Y141415D01*
X131488Y141412D01*
X131494Y141401D01*
X132294Y141301D01*
X132302Y141306D01*
G37*
G36*
X160202Y166706D02*
X160202Y166706D01*
X160207Y166701D01*
X160907Y166801D01*
X160919Y166814D01*
X160930Y166811D01*
X161330Y167111D01*
X161334Y167127D01*
X161339Y167131D01*
X161336Y167135D01*
X161337Y167137D01*
X161349Y167143D01*
X161449Y167843D01*
X161444Y167851D01*
X161449Y167856D01*
X161349Y168656D01*
X161333Y168672D01*
X161335Y168685D01*
X160935Y169085D01*
X160913Y169088D01*
X160907Y169099D01*
X160207Y169199D01*
X160202Y169196D01*
X160200Y169199D01*
X159500Y169199D01*
X159475Y169180D01*
X159462Y169181D01*
X159062Y168681D01*
X159061Y168662D01*
X159051Y168657D01*
X158951Y167957D01*
X158954Y167952D01*
X158951Y167950D01*
X158951Y167250D01*
X158967Y167229D01*
X158965Y167215D01*
X159365Y166815D01*
X159388Y166812D01*
X159394Y166801D01*
X160194Y166701D01*
X160202Y166706D01*
G37*
G36*
X161006Y170901D02*
X161006Y170901D01*
X161026Y170920D01*
X161039Y170920D01*
X161339Y171320D01*
X161339Y171327D01*
X161342Y171329D01*
X161339Y171332D01*
X161339Y171338D01*
X161349Y171343D01*
X161449Y172043D01*
X161444Y172051D01*
X161449Y172056D01*
X161349Y172856D01*
X161330Y172876D01*
X161330Y172889D01*
X160930Y173189D01*
X160912Y173189D01*
X160907Y173199D01*
X160207Y173299D01*
X160202Y173296D01*
X160200Y173299D01*
X159500Y173299D01*
X159479Y173283D01*
X159465Y173285D01*
X159065Y172885D01*
X159062Y172862D01*
X159051Y172856D01*
X158951Y172056D01*
X158956Y172047D01*
X158951Y172042D01*
X159051Y171442D01*
X159061Y171433D01*
X159058Y171425D01*
X159358Y170925D01*
X159387Y170913D01*
X159394Y170901D01*
X160194Y170801D01*
X160202Y170806D01*
X160206Y170801D01*
X161006Y170901D01*
G37*
G36*
X163706Y158201D02*
X163706Y158201D01*
X163726Y158220D01*
X163739Y158220D01*
X164039Y158620D01*
X164039Y158627D01*
X164042Y158629D01*
X164039Y158632D01*
X164039Y158638D01*
X164049Y158643D01*
X164149Y159343D01*
X164144Y159351D01*
X164149Y159356D01*
X164049Y160156D01*
X164030Y160176D01*
X164030Y160189D01*
X163630Y160489D01*
X163612Y160489D01*
X163607Y160499D01*
X162907Y160599D01*
X162902Y160596D01*
X162900Y160599D01*
X162200Y160599D01*
X162179Y160583D01*
X162165Y160585D01*
X161765Y160185D01*
X161762Y160162D01*
X161751Y160156D01*
X161651Y159356D01*
X161656Y159347D01*
X161651Y159342D01*
X161751Y158742D01*
X161761Y158733D01*
X161758Y158725D01*
X162058Y158225D01*
X162087Y158213D01*
X162094Y158201D01*
X162894Y158101D01*
X162902Y158106D01*
X162906Y158101D01*
X163706Y158201D01*
G37*
G36*
X135306Y128701D02*
X135306Y128701D01*
X135322Y128717D01*
X135335Y128715D01*
X135635Y129015D01*
X135636Y129027D01*
X135641Y129031D01*
X135638Y129036D01*
X135638Y129037D01*
X135649Y129043D01*
X135749Y129743D01*
X135744Y129751D01*
X135749Y129756D01*
X135649Y130556D01*
X135633Y130572D01*
X135635Y130585D01*
X135235Y130985D01*
X135213Y130988D01*
X135207Y130999D01*
X134507Y131099D01*
X134502Y131096D01*
X134500Y131099D01*
X133800Y131099D01*
X133775Y131080D01*
X133762Y131081D01*
X133362Y130581D01*
X133361Y130562D01*
X133351Y130557D01*
X133251Y129857D01*
X133256Y129848D01*
X133251Y129843D01*
X133351Y129143D01*
X133364Y129131D01*
X133361Y129120D01*
X133661Y128720D01*
X133687Y128713D01*
X133694Y128701D01*
X134494Y128601D01*
X134502Y128606D01*
X134506Y128601D01*
X135306Y128701D01*
G37*
G36*
X163706Y154101D02*
X163706Y154101D01*
X163722Y154117D01*
X163735Y154115D01*
X164035Y154415D01*
X164036Y154427D01*
X164041Y154431D01*
X164038Y154436D01*
X164038Y154437D01*
X164049Y154443D01*
X164149Y155143D01*
X164144Y155151D01*
X164149Y155156D01*
X164049Y155956D01*
X164033Y155972D01*
X164035Y155985D01*
X163635Y156385D01*
X163613Y156388D01*
X163607Y156399D01*
X162907Y156499D01*
X162902Y156496D01*
X162900Y156499D01*
X162200Y156499D01*
X162175Y156480D01*
X162162Y156481D01*
X161762Y155981D01*
X161761Y155962D01*
X161751Y155957D01*
X161651Y155257D01*
X161656Y155248D01*
X161651Y155243D01*
X161751Y154543D01*
X161764Y154531D01*
X161761Y154520D01*
X162061Y154120D01*
X162087Y154113D01*
X162094Y154101D01*
X162894Y154001D01*
X162902Y154006D01*
X162906Y154001D01*
X163706Y154101D01*
G37*
G36*
X132302Y145406D02*
X132302Y145406D01*
X132307Y145401D01*
X133007Y145501D01*
X133022Y145517D01*
X133035Y145515D01*
X133435Y145915D01*
X133436Y145927D01*
X133440Y145929D01*
X133437Y145933D01*
X133438Y145937D01*
X133449Y145943D01*
X133549Y146643D01*
X133544Y146651D01*
X133549Y146656D01*
X133449Y147456D01*
X133430Y147476D01*
X133430Y147489D01*
X133030Y147789D01*
X133012Y147789D01*
X133007Y147799D01*
X132307Y147899D01*
X132302Y147896D01*
X132300Y147899D01*
X131600Y147899D01*
X131579Y147883D01*
X131565Y147885D01*
X131165Y147485D01*
X131162Y147462D01*
X131151Y147456D01*
X131051Y146656D01*
X131056Y146647D01*
X131051Y146642D01*
X131151Y146042D01*
X131161Y146033D01*
X131158Y146025D01*
X131458Y145525D01*
X131487Y145513D01*
X131494Y145501D01*
X132294Y145401D01*
X132302Y145406D01*
G37*
G36*
X135306Y132801D02*
X135306Y132801D01*
X135326Y132820D01*
X135339Y132820D01*
X135639Y133220D01*
X135639Y133227D01*
X135642Y133229D01*
X135639Y133232D01*
X135639Y133238D01*
X135649Y133243D01*
X135749Y133943D01*
X135744Y133951D01*
X135749Y133956D01*
X135649Y134756D01*
X135630Y134776D01*
X135630Y134789D01*
X135230Y135089D01*
X135212Y135089D01*
X135207Y135099D01*
X134507Y135199D01*
X134502Y135196D01*
X134500Y135199D01*
X133800Y135199D01*
X133779Y135183D01*
X133765Y135185D01*
X133365Y134785D01*
X133362Y134762D01*
X133351Y134756D01*
X133251Y133956D01*
X133256Y133947D01*
X133251Y133942D01*
X133351Y133342D01*
X133364Y133330D01*
X133362Y133319D01*
X133762Y132819D01*
X133787Y132813D01*
X133793Y132801D01*
X134493Y132701D01*
X134501Y132706D01*
X134506Y132701D01*
X135306Y132801D01*
G37*
%LPC*%
G36*
X112216Y146299D02*
X112216Y146299D01*
X111837Y146584D01*
X111549Y147064D01*
X111549Y147735D01*
X111932Y148309D01*
X112508Y148501D01*
X113784Y148501D01*
X114151Y148225D01*
X114151Y146299D01*
X112216Y146299D01*
G37*
%LPD*%
%LPC*%
G36*
X156608Y143699D02*
X156608Y143699D01*
X156029Y143892D01*
X155647Y144370D01*
X155551Y145141D01*
X155839Y145718D01*
X156317Y146101D01*
X156988Y146101D01*
X157568Y145811D01*
X157951Y145333D01*
X157951Y144662D01*
X157661Y144082D01*
X157183Y143699D01*
X156608Y143699D01*
G37*
%LPD*%
%LPC*%
G36*
X157507Y130999D02*
X157507Y130999D01*
X156829Y131193D01*
X156447Y131670D01*
X156351Y132441D01*
X156639Y133018D01*
X157117Y133401D01*
X157788Y133401D01*
X158368Y133111D01*
X158751Y132633D01*
X158751Y131962D01*
X158461Y131382D01*
X157983Y130999D01*
X157507Y130999D01*
G37*
%LPD*%
%LPC*%
G36*
X105203Y130999D02*
X105203Y130999D01*
X104526Y131096D01*
X104147Y131570D01*
X104051Y132242D01*
X104337Y132813D01*
X104908Y133099D01*
X105482Y133003D01*
X106059Y132618D01*
X106248Y132050D01*
X106057Y131477D01*
X105580Y130999D01*
X105203Y130999D01*
G37*
%LPD*%
%LPC*%
G36*
X122424Y168996D02*
X122424Y168996D01*
X122053Y169367D01*
X122146Y169929D01*
X122524Y170401D01*
X123200Y170401D01*
X123247Y170437D01*
X123248Y170437D01*
X123253Y170458D01*
X123274Y170413D01*
X123275Y170408D01*
X123755Y170120D01*
X123849Y169554D01*
X123663Y168994D01*
X123001Y168900D01*
X122424Y168996D01*
G37*
%LPD*%
G36*
X100902Y78674D02*
X100902Y78674D01*
X100918Y78664D01*
X102218Y79164D01*
X102228Y79180D01*
X102239Y79180D01*
X102539Y79580D01*
X102539Y79640D01*
X102524Y79640D01*
X102521Y79655D01*
X101221Y80255D01*
X101185Y80247D01*
X101173Y80251D01*
X100873Y80051D01*
X100861Y80018D01*
X100851Y80010D01*
X100851Y78710D01*
X100852Y78708D01*
X100851Y78705D01*
X100857Y78702D01*
X100887Y78663D01*
X100902Y78674D01*
G37*
G36*
X151913Y66569D02*
X151913Y66569D01*
X151921Y66565D01*
X153221Y67165D01*
X153249Y67218D01*
X153239Y67223D01*
X153244Y67232D01*
X153044Y67632D01*
X153024Y67642D01*
X153022Y67654D01*
X151822Y68254D01*
X151764Y68243D01*
X151767Y68227D01*
X151752Y68220D01*
X151652Y67720D01*
X151655Y67713D01*
X151651Y67710D01*
X151651Y67010D01*
X151660Y66997D01*
X151656Y66988D01*
X151856Y66588D01*
X151909Y66562D01*
X151913Y66569D01*
G37*
G36*
X138006Y183405D02*
X138006Y183405D01*
X138010Y183402D01*
X138510Y183502D01*
X138538Y183534D01*
X138540Y183535D01*
X138540Y183536D01*
X138549Y183546D01*
X138539Y183556D01*
X138546Y183568D01*
X138046Y184868D01*
X138004Y184893D01*
X138000Y184899D01*
X137500Y184899D01*
X137463Y184871D01*
X137455Y184869D01*
X136955Y183669D01*
X136969Y183611D01*
X136973Y183612D01*
X136973Y183609D01*
X137273Y183409D01*
X137293Y183410D01*
X137300Y183401D01*
X138000Y183401D01*
X138006Y183405D01*
G37*
%LPC*%
G36*
X138216Y145399D02*
X138216Y145399D01*
X137858Y145668D01*
X138037Y146206D01*
X138695Y146300D01*
X139273Y146107D01*
X139737Y145644D01*
X139574Y145399D01*
X138216Y145399D01*
G37*
%LPD*%
%LPC*%
G36*
X95616Y132699D02*
X95616Y132699D01*
X95258Y132968D01*
X95437Y133506D01*
X95997Y133600D01*
X96674Y133406D01*
X97137Y132944D01*
X96974Y132699D01*
X95616Y132699D01*
G37*
%LPD*%
%LPC*%
G36*
X130595Y180409D02*
X130595Y180409D01*
X130597Y180407D01*
X130593Y180407D01*
X130595Y180409D01*
G37*
%LPD*%
D10*
X177800Y124460D02*
X177800Y215900D01*
X76200Y215900D01*
X76200Y124460D01*
X177800Y124460D01*
D11*
X139700Y193040D02*
X114300Y193040D01*
X109728Y208788D02*
X109730Y208921D01*
X109736Y209054D01*
X109745Y209186D01*
X109759Y209319D01*
X109776Y209451D01*
X109797Y209582D01*
X109822Y209713D01*
X109851Y209842D01*
X109884Y209971D01*
X109920Y210099D01*
X109960Y210226D01*
X110004Y210352D01*
X110051Y210476D01*
X110102Y210599D01*
X110156Y210720D01*
X110214Y210840D01*
X110276Y210958D01*
X110341Y211074D01*
X110409Y211188D01*
X110480Y211300D01*
X110555Y211410D01*
X110633Y211518D01*
X110714Y211624D01*
X110798Y211727D01*
X110885Y211827D01*
X110974Y211925D01*
X111067Y212021D01*
X111163Y212114D01*
X111261Y212203D01*
X111361Y212290D01*
X111464Y212374D01*
X111570Y212455D01*
X111678Y212533D01*
X111788Y212608D01*
X111900Y212679D01*
X112014Y212747D01*
X112130Y212812D01*
X112248Y212874D01*
X112368Y212932D01*
X112489Y212986D01*
X112612Y213037D01*
X112736Y213084D01*
X112862Y213128D01*
X112989Y213168D01*
X113117Y213204D01*
X113246Y213237D01*
X113375Y213266D01*
X113506Y213291D01*
X113637Y213312D01*
X113769Y213329D01*
X113902Y213343D01*
X114034Y213352D01*
X114167Y213358D01*
X114300Y213360D01*
X139700Y213360D02*
X139833Y213358D01*
X139966Y213352D01*
X140098Y213343D01*
X140231Y213329D01*
X140363Y213312D01*
X140494Y213291D01*
X140625Y213266D01*
X140754Y213237D01*
X140883Y213204D01*
X141011Y213168D01*
X141138Y213128D01*
X141264Y213084D01*
X141388Y213037D01*
X141511Y212986D01*
X141632Y212932D01*
X141752Y212874D01*
X141870Y212812D01*
X141986Y212747D01*
X142100Y212679D01*
X142212Y212608D01*
X142322Y212533D01*
X142430Y212455D01*
X142536Y212374D01*
X142639Y212290D01*
X142739Y212203D01*
X142837Y212114D01*
X142933Y212021D01*
X143026Y211925D01*
X143115Y211827D01*
X143202Y211727D01*
X143286Y211624D01*
X143367Y211518D01*
X143445Y211410D01*
X143520Y211300D01*
X143591Y211188D01*
X143659Y211074D01*
X143724Y210958D01*
X143786Y210840D01*
X143844Y210720D01*
X143898Y210599D01*
X143949Y210476D01*
X143996Y210352D01*
X144040Y210226D01*
X144080Y210099D01*
X144116Y209971D01*
X144149Y209842D01*
X144178Y209713D01*
X144203Y209582D01*
X144224Y209451D01*
X144241Y209319D01*
X144255Y209186D01*
X144264Y209054D01*
X144270Y208921D01*
X144272Y208788D01*
X144272Y197612D02*
X144270Y197479D01*
X144264Y197346D01*
X144255Y197214D01*
X144241Y197081D01*
X144224Y196949D01*
X144203Y196818D01*
X144178Y196687D01*
X144149Y196558D01*
X144116Y196429D01*
X144080Y196301D01*
X144040Y196174D01*
X143996Y196048D01*
X143949Y195924D01*
X143898Y195801D01*
X143844Y195680D01*
X143786Y195560D01*
X143724Y195442D01*
X143659Y195326D01*
X143591Y195212D01*
X143520Y195100D01*
X143445Y194990D01*
X143367Y194882D01*
X143286Y194776D01*
X143202Y194673D01*
X143115Y194573D01*
X143026Y194475D01*
X142933Y194379D01*
X142837Y194286D01*
X142739Y194197D01*
X142639Y194110D01*
X142536Y194026D01*
X142430Y193945D01*
X142322Y193867D01*
X142212Y193792D01*
X142100Y193721D01*
X141986Y193653D01*
X141870Y193588D01*
X141752Y193526D01*
X141632Y193468D01*
X141511Y193414D01*
X141388Y193363D01*
X141264Y193316D01*
X141138Y193272D01*
X141011Y193232D01*
X140883Y193196D01*
X140754Y193163D01*
X140625Y193134D01*
X140494Y193109D01*
X140363Y193088D01*
X140231Y193071D01*
X140098Y193057D01*
X139966Y193048D01*
X139833Y193042D01*
X139700Y193040D01*
X114300Y193040D02*
X114167Y193042D01*
X114034Y193048D01*
X113902Y193057D01*
X113769Y193071D01*
X113637Y193088D01*
X113506Y193109D01*
X113375Y193134D01*
X113246Y193163D01*
X113117Y193196D01*
X112989Y193232D01*
X112862Y193272D01*
X112736Y193316D01*
X112612Y193363D01*
X112489Y193414D01*
X112368Y193468D01*
X112248Y193526D01*
X112130Y193588D01*
X112014Y193653D01*
X111900Y193721D01*
X111788Y193792D01*
X111678Y193867D01*
X111570Y193945D01*
X111464Y194026D01*
X111361Y194110D01*
X111261Y194197D01*
X111163Y194286D01*
X111067Y194379D01*
X110974Y194475D01*
X110885Y194573D01*
X110798Y194673D01*
X110714Y194776D01*
X110633Y194882D01*
X110555Y194990D01*
X110480Y195100D01*
X110409Y195212D01*
X110341Y195326D01*
X110276Y195442D01*
X110214Y195560D01*
X110156Y195680D01*
X110102Y195801D01*
X110051Y195924D01*
X110004Y196048D01*
X109960Y196174D01*
X109920Y196301D01*
X109884Y196429D01*
X109851Y196558D01*
X109822Y196687D01*
X109797Y196818D01*
X109776Y196949D01*
X109759Y197081D01*
X109745Y197214D01*
X109736Y197346D01*
X109730Y197479D01*
X109728Y197612D01*
X109728Y208788D01*
X144272Y208788D02*
X144272Y197612D01*
X139700Y213360D02*
X114300Y213360D01*
D12*
X114300Y97790D02*
X139700Y97790D01*
X114300Y118110D02*
X114167Y118108D01*
X114034Y118102D01*
X113902Y118093D01*
X113769Y118079D01*
X113637Y118062D01*
X113506Y118041D01*
X113375Y118016D01*
X113246Y117987D01*
X113117Y117954D01*
X112989Y117918D01*
X112862Y117878D01*
X112736Y117834D01*
X112612Y117787D01*
X112489Y117736D01*
X112368Y117682D01*
X112248Y117624D01*
X112130Y117562D01*
X112014Y117497D01*
X111900Y117429D01*
X111788Y117358D01*
X111678Y117283D01*
X111570Y117205D01*
X111464Y117124D01*
X111361Y117040D01*
X111261Y116953D01*
X111163Y116864D01*
X111067Y116771D01*
X110974Y116675D01*
X110885Y116577D01*
X110798Y116477D01*
X110714Y116374D01*
X110633Y116268D01*
X110555Y116160D01*
X110480Y116050D01*
X110409Y115938D01*
X110341Y115824D01*
X110276Y115708D01*
X110214Y115590D01*
X110156Y115470D01*
X110102Y115349D01*
X110051Y115226D01*
X110004Y115102D01*
X109960Y114976D01*
X109920Y114849D01*
X109884Y114721D01*
X109851Y114592D01*
X109822Y114463D01*
X109797Y114332D01*
X109776Y114201D01*
X109759Y114069D01*
X109745Y113936D01*
X109736Y113804D01*
X109730Y113671D01*
X109728Y113538D01*
X139700Y118110D02*
X139833Y118108D01*
X139966Y118102D01*
X140098Y118093D01*
X140231Y118079D01*
X140363Y118062D01*
X140494Y118041D01*
X140625Y118016D01*
X140754Y117987D01*
X140883Y117954D01*
X141011Y117918D01*
X141138Y117878D01*
X141264Y117834D01*
X141388Y117787D01*
X141511Y117736D01*
X141632Y117682D01*
X141752Y117624D01*
X141870Y117562D01*
X141986Y117497D01*
X142100Y117429D01*
X142212Y117358D01*
X142322Y117283D01*
X142430Y117205D01*
X142536Y117124D01*
X142639Y117040D01*
X142739Y116953D01*
X142837Y116864D01*
X142933Y116771D01*
X143026Y116675D01*
X143115Y116577D01*
X143202Y116477D01*
X143286Y116374D01*
X143367Y116268D01*
X143445Y116160D01*
X143520Y116050D01*
X143591Y115938D01*
X143659Y115824D01*
X143724Y115708D01*
X143786Y115590D01*
X143844Y115470D01*
X143898Y115349D01*
X143949Y115226D01*
X143996Y115102D01*
X144040Y114976D01*
X144080Y114849D01*
X144116Y114721D01*
X144149Y114592D01*
X144178Y114463D01*
X144203Y114332D01*
X144224Y114201D01*
X144241Y114069D01*
X144255Y113936D01*
X144264Y113804D01*
X144270Y113671D01*
X144272Y113538D01*
X144272Y102362D02*
X144270Y102229D01*
X144264Y102096D01*
X144255Y101964D01*
X144241Y101831D01*
X144224Y101699D01*
X144203Y101568D01*
X144178Y101437D01*
X144149Y101308D01*
X144116Y101179D01*
X144080Y101051D01*
X144040Y100924D01*
X143996Y100798D01*
X143949Y100674D01*
X143898Y100551D01*
X143844Y100430D01*
X143786Y100310D01*
X143724Y100192D01*
X143659Y100076D01*
X143591Y99962D01*
X143520Y99850D01*
X143445Y99740D01*
X143367Y99632D01*
X143286Y99526D01*
X143202Y99423D01*
X143115Y99323D01*
X143026Y99225D01*
X142933Y99129D01*
X142837Y99036D01*
X142739Y98947D01*
X142639Y98860D01*
X142536Y98776D01*
X142430Y98695D01*
X142322Y98617D01*
X142212Y98542D01*
X142100Y98471D01*
X141986Y98403D01*
X141870Y98338D01*
X141752Y98276D01*
X141632Y98218D01*
X141511Y98164D01*
X141388Y98113D01*
X141264Y98066D01*
X141138Y98022D01*
X141011Y97982D01*
X140883Y97946D01*
X140754Y97913D01*
X140625Y97884D01*
X140494Y97859D01*
X140363Y97838D01*
X140231Y97821D01*
X140098Y97807D01*
X139966Y97798D01*
X139833Y97792D01*
X139700Y97790D01*
X114300Y97790D02*
X114167Y97792D01*
X114034Y97798D01*
X113902Y97807D01*
X113769Y97821D01*
X113637Y97838D01*
X113506Y97859D01*
X113375Y97884D01*
X113246Y97913D01*
X113117Y97946D01*
X112989Y97982D01*
X112862Y98022D01*
X112736Y98066D01*
X112612Y98113D01*
X112489Y98164D01*
X112368Y98218D01*
X112248Y98276D01*
X112130Y98338D01*
X112014Y98403D01*
X111900Y98471D01*
X111788Y98542D01*
X111678Y98617D01*
X111570Y98695D01*
X111464Y98776D01*
X111361Y98860D01*
X111261Y98947D01*
X111163Y99036D01*
X111067Y99129D01*
X110974Y99225D01*
X110885Y99323D01*
X110798Y99423D01*
X110714Y99526D01*
X110633Y99632D01*
X110555Y99740D01*
X110480Y99850D01*
X110409Y99962D01*
X110341Y100076D01*
X110276Y100192D01*
X110214Y100310D01*
X110156Y100430D01*
X110102Y100551D01*
X110051Y100674D01*
X110004Y100798D01*
X109960Y100924D01*
X109920Y101051D01*
X109884Y101179D01*
X109851Y101308D01*
X109822Y101437D01*
X109797Y101568D01*
X109776Y101699D01*
X109759Y101831D01*
X109745Y101964D01*
X109736Y102096D01*
X109730Y102229D01*
X109728Y102362D01*
X109728Y113538D01*
X144272Y113538D02*
X144272Y102362D01*
X139700Y118110D02*
X114300Y118110D01*
X220980Y162560D02*
X236220Y162560D01*
X240792Y146812D02*
X240790Y146679D01*
X240784Y146546D01*
X240775Y146414D01*
X240761Y146281D01*
X240744Y146149D01*
X240723Y146018D01*
X240698Y145887D01*
X240669Y145758D01*
X240636Y145629D01*
X240600Y145501D01*
X240560Y145374D01*
X240516Y145248D01*
X240469Y145124D01*
X240418Y145001D01*
X240364Y144880D01*
X240306Y144760D01*
X240244Y144642D01*
X240179Y144526D01*
X240111Y144412D01*
X240040Y144300D01*
X239965Y144190D01*
X239887Y144082D01*
X239806Y143976D01*
X239722Y143873D01*
X239635Y143773D01*
X239546Y143675D01*
X239453Y143579D01*
X239357Y143486D01*
X239259Y143397D01*
X239159Y143310D01*
X239056Y143226D01*
X238950Y143145D01*
X238842Y143067D01*
X238732Y142992D01*
X238620Y142921D01*
X238506Y142853D01*
X238390Y142788D01*
X238272Y142726D01*
X238152Y142668D01*
X238031Y142614D01*
X237908Y142563D01*
X237784Y142516D01*
X237658Y142472D01*
X237531Y142432D01*
X237403Y142396D01*
X237274Y142363D01*
X237145Y142334D01*
X237014Y142309D01*
X236883Y142288D01*
X236751Y142271D01*
X236618Y142257D01*
X236486Y142248D01*
X236353Y142242D01*
X236220Y142240D01*
X220980Y142240D02*
X220847Y142242D01*
X220714Y142248D01*
X220582Y142257D01*
X220449Y142271D01*
X220317Y142288D01*
X220186Y142309D01*
X220055Y142334D01*
X219926Y142363D01*
X219797Y142396D01*
X219669Y142432D01*
X219542Y142472D01*
X219416Y142516D01*
X219292Y142563D01*
X219169Y142614D01*
X219048Y142668D01*
X218928Y142726D01*
X218810Y142788D01*
X218694Y142853D01*
X218580Y142921D01*
X218468Y142992D01*
X218358Y143067D01*
X218250Y143145D01*
X218144Y143226D01*
X218041Y143310D01*
X217941Y143397D01*
X217843Y143486D01*
X217747Y143579D01*
X217654Y143675D01*
X217565Y143773D01*
X217478Y143873D01*
X217394Y143976D01*
X217313Y144082D01*
X217235Y144190D01*
X217160Y144300D01*
X217089Y144412D01*
X217021Y144526D01*
X216956Y144642D01*
X216894Y144760D01*
X216836Y144880D01*
X216782Y145001D01*
X216731Y145124D01*
X216684Y145248D01*
X216640Y145374D01*
X216600Y145501D01*
X216564Y145629D01*
X216531Y145758D01*
X216502Y145887D01*
X216477Y146018D01*
X216456Y146149D01*
X216439Y146281D01*
X216425Y146414D01*
X216416Y146546D01*
X216410Y146679D01*
X216408Y146812D01*
X216408Y157988D02*
X216410Y158121D01*
X216416Y158254D01*
X216425Y158386D01*
X216439Y158519D01*
X216456Y158651D01*
X216477Y158782D01*
X216502Y158913D01*
X216531Y159042D01*
X216564Y159171D01*
X216600Y159299D01*
X216640Y159426D01*
X216684Y159552D01*
X216731Y159676D01*
X216782Y159799D01*
X216836Y159920D01*
X216894Y160040D01*
X216956Y160158D01*
X217021Y160274D01*
X217089Y160388D01*
X217160Y160500D01*
X217235Y160610D01*
X217313Y160718D01*
X217394Y160824D01*
X217478Y160927D01*
X217565Y161027D01*
X217654Y161125D01*
X217747Y161221D01*
X217843Y161314D01*
X217941Y161403D01*
X218041Y161490D01*
X218144Y161574D01*
X218250Y161655D01*
X218358Y161733D01*
X218468Y161808D01*
X218580Y161879D01*
X218694Y161947D01*
X218810Y162012D01*
X218928Y162074D01*
X219048Y162132D01*
X219169Y162186D01*
X219292Y162237D01*
X219416Y162284D01*
X219542Y162328D01*
X219669Y162368D01*
X219797Y162404D01*
X219926Y162437D01*
X220055Y162466D01*
X220186Y162491D01*
X220317Y162512D01*
X220449Y162529D01*
X220582Y162543D01*
X220714Y162552D01*
X220847Y162558D01*
X220980Y162560D01*
X236220Y162560D02*
X236353Y162558D01*
X236486Y162552D01*
X236618Y162543D01*
X236751Y162529D01*
X236883Y162512D01*
X237014Y162491D01*
X237145Y162466D01*
X237274Y162437D01*
X237403Y162404D01*
X237531Y162368D01*
X237658Y162328D01*
X237784Y162284D01*
X237908Y162237D01*
X238031Y162186D01*
X238152Y162132D01*
X238272Y162074D01*
X238390Y162012D01*
X238506Y161947D01*
X238620Y161879D01*
X238732Y161808D01*
X238842Y161733D01*
X238950Y161655D01*
X239056Y161574D01*
X239159Y161490D01*
X239259Y161403D01*
X239357Y161314D01*
X239453Y161221D01*
X239546Y161125D01*
X239635Y161027D01*
X239722Y160927D01*
X239806Y160824D01*
X239887Y160718D01*
X239965Y160610D01*
X240040Y160500D01*
X240111Y160388D01*
X240179Y160274D01*
X240244Y160158D01*
X240306Y160040D01*
X240364Y159920D01*
X240418Y159799D01*
X240469Y159676D01*
X240516Y159552D01*
X240560Y159426D01*
X240600Y159299D01*
X240636Y159171D01*
X240669Y159042D01*
X240698Y158913D01*
X240723Y158782D01*
X240744Y158651D01*
X240761Y158519D01*
X240775Y158386D01*
X240784Y158254D01*
X240790Y158121D01*
X240792Y157988D01*
X240792Y146812D01*
X216408Y146812D02*
X216408Y157988D01*
X220980Y142240D02*
X236220Y142240D01*
M02*
