M48
;GenerationSoftware,Autodesk,EAGLE,9.6.2*%
;CreationDate,2022-04-01T16:13:57Z*%
FMAT,2
ICI,OFF
METRIC,TZ,000.000
T3C0.381
T2C1.016
T1C3.302
%
G90
M71
T1
X22860Y22860
X2540Y22860
T2
X20320Y1270
X5080Y1270
X7620Y1270
X10160Y1270
X12700Y1270
X15240Y1270
X17780Y1270
T3
X18669Y11049
X15748Y15113
X7493Y11430
X13970Y3810
X11430Y3810
X10160Y8255
X8890Y3810
X16256Y12802
X11049Y12700
X11430Y5461
X15113Y12700
X16129Y13843
X10033Y12700
X13970Y5461
X9271Y11938
X10795Y19050
X14605Y19050
X13970Y9525
X11430Y9525
X20320Y18415
X21590Y12192
X7739Y13314
X14351Y11938
X10160Y14478
X24130Y1270
X6731Y14351
X5080Y24130
X20320Y24130
X11811Y14097
M30